<svg width="176" height="174" viewBox="0 0 176 174" fill="none" xmlns="http://www.w3.org/2000/svg">
<g filter="url(#filter0_d_5223_2046)">
<rect x="24.8809" y="20.877" width="126.386" height="125.368" rx="11.7496" fill="#10A866"/>
</g>
<path fill-rule="evenodd" clip-rule="evenodd" d="M98.4695 53.2976C94.1843 48.7033 86.6654 48.707 82.3742 53.3118C85.5566 54.6618 88.0921 55.2382 90.5011 55.2261C92.897 55.2141 95.3819 54.6193 98.4695 53.2976ZM101.104 58.5354C97.4219 60.1462 94.0432 61.0615 90.5304 61.0791C87.059 61.0965 83.6782 60.2365 79.9626 58.6469C78.7437 62.783 77.1154 66.0265 74.5356 68.5602C72.0063 71.0444 68.7803 72.6278 64.7762 73.8935C66.4735 77.4342 67.3724 80.7489 67.3386 84.2307C67.3044 87.7509 66.3168 91.2006 64.6309 94.97C68.7771 96.3248 72.0232 98.1001 74.557 100.716C76.9899 103.227 78.5782 106.322 79.8018 110.046C83.608 108.119 87.1094 107.066 90.7005 107.096C94.3417 107.126 97.7787 108.266 101.422 110.213C103.095 106.486 104.936 103.424 107.369 100.921C109.797 98.425 112.683 96.6174 116.273 95.1836C114.498 91.4932 113.425 88.0596 113.367 84.4893C113.307 80.8876 114.281 77.4135 116.155 73.647C112.418 72.2249 109.372 70.512 106.885 68.0605C104.342 65.5529 102.558 62.4453 101.104 58.5354ZM118.136 68.1376C118.387 61.8115 113.017 56.4566 106.678 56.7285C107.915 59.99 109.281 62.2034 110.995 63.8924C112.705 65.5791 114.927 66.9062 118.136 68.1376ZM104.223 51.1193C115.624 49.0833 125.783 59.2086 123.746 70.6173C133.246 77.2386 133.288 91.5867 123.778 98.216C125.81 109.626 115.633 119.803 104.223 117.77C97.5939 127.279 83.2394 127.247 76.6164 117.746C65.2057 119.783 55.0909 109.615 57.1263 98.2162C47.622 91.5965 47.622 77.2938 57.1263 70.674C55.0911 59.2754 65.2051 49.1044 76.6164 51.1413C83.2396 41.6404 97.5938 41.6113 104.223 51.1193ZM59.4391 76.3011C54.6924 80.5648 54.6554 88.1724 59.3283 92.4882C60.7914 89.1957 61.4622 86.601 61.4857 84.1738C61.5089 81.7897 60.908 79.3316 59.4391 76.3011ZM62.7432 100.511C62.3677 106.985 67.8659 112.493 74.3228 112.127C73.2492 108.78 72.0158 106.505 70.353 104.788C68.6727 103.054 66.3492 101.682 62.7432 100.511ZM82.2061 115.391C86.5317 120.253 94.3624 120.247 98.6657 115.376C95.5333 113.703 93.0442 112.968 90.6527 112.949C88.2298 112.929 85.6028 113.641 82.2061 115.391ZM106.964 112.167C113.17 112.259 118.392 106.96 118.169 100.731C115.304 101.907 113.243 103.277 111.565 105.002C109.846 106.77 108.405 109.037 106.964 112.167ZM121.503 92.5515C126.245 88.234 126.216 80.5167 121.411 76.224C119.808 79.437 119.179 81.9843 119.219 84.393C119.259 86.8089 119.973 89.3494 121.503 92.5515ZM62.7441 68.3951C62.3566 61.8835 67.9125 56.3433 74.4135 56.766C73.3441 60.477 72.0954 62.7528 70.4342 64.3844C68.7618 66.027 66.4352 67.2525 62.7441 68.3951Z" fill="white"/>
<defs>
<filter id="filter0_d_5223_2046" x="0.739073" y="0.311727" width="174.67" height="173.652" filterUnits="userSpaceOnUse" color-interpolation-filters="sRGB">
<feFlood flood-opacity="0" result="BackgroundImageFix"/>
<feColorMatrix in="SourceAlpha" type="matrix" values="0 0 0 0 0 0 0 0 0 0 0 0 0 0 0 0 0 0 127 0" result="hardAlpha"/>
<feOffset dy="3.57656"/>
<feGaussianBlur stdDeviation="12.0709"/>
<feColorMatrix type="matrix" values="0 0 0 0 0 0 0 0 0 0 0 0 0 0 0 0 0 0 0.25 0"/>
<feBlend mode="multiply" in2="BackgroundImageFix" result="effect1_dropShadow_5223_2046"/>
<feBlend mode="normal" in="SourceGraphic" in2="effect1_dropShadow_5223_2046" result="shape"/>
</filter>
</defs>
</svg>
