<svg width="134" height="139" viewBox="0 0 134 139" fill="none" xmlns="http://www.w3.org/2000/svg">
<path fill-rule="evenodd" clip-rule="evenodd" d="M65.911 45.7565C70.7448 44.5102 75.6659 43.6308 80.6321 43.1259C81.5859 39.3972 82.7438 35.7237 84.1005 32.1219L83.6428 32.2015C78.9266 33.1008 74.2789 34.3283 69.7336 35.8748C68.2917 39.1011 67.0165 42.3994 65.913 45.7565H65.911ZM53.7807 40.8117C55.2719 37.7502 56.9068 34.7607 58.6798 31.8533C55.9536 33.4285 53.2861 35.1031 50.6825 36.8737C48.6846 39.7908 46.8336 42.8059 45.1367 45.9078C47.9361 44.0744 50.8207 42.3745 53.7807 40.8137" fill="#FCD98D"/>
<path fill-rule="evenodd" clip-rule="evenodd" d="M63.8955 46.3039C64.9275 43.0374 66.1182 39.8233 67.4633 36.6729C63.2265 38.2219 59.0936 40.0417 55.0903 42.1211C53.7369 44.9471 52.5119 47.8327 51.4189 50.7691C55.4672 48.9892 59.6356 47.4964 63.8935 46.3019" fill="#809EBA"/>
<path fill-rule="evenodd" clip-rule="evenodd" d="M83.3685 30.4485C83.87 30.355 84.3635 30.2655 84.851 30.1819C86.3513 26.4262 88.0585 22.7565 89.965 19.1898C85.3267 20.3158 80.7647 21.7355 76.3065 23.4402C74.2709 26.7472 72.415 30.1615 70.7467 33.6682C74.8833 32.3347 79.0987 31.2594 83.3685 30.4485ZM37.4482 58.4859C38.3317 56.1199 39.3246 53.7301 40.4151 51.3741C38.5628 52.7614 36.7557 54.2082 34.9966 55.712C33.426 58.2751 31.9693 60.9063 30.6309 63.5979C32.8188 61.784 35.094 60.078 37.4482 58.4859Z" fill="#2B5E8C"/>
<path fill-rule="evenodd" clip-rule="evenodd" d="M49.191 51.7881C50.1805 48.9829 51.2892 46.2211 52.5141 43.5103C49.3825 45.2554 46.3414 47.1581 43.4025 49.2112C42.1502 51.7084 41.0017 54.2563 39.96 56.8484C42.9352 54.9812 46.0183 53.2915 49.193 51.7881" fill="#F9B31B"/>
<path fill-rule="evenodd" clip-rule="evenodd" d="M82.4912 42.9488C88.0469 42.4752 93.6345 42.4434 98.8142 42.8572C100.048 38.4735 101.355 34.3306 102.8 30.4384C102.561 30.4344 102.322 30.4344 102.078 30.4344C96.8721 30.4344 91.5014 30.8842 86.1167 31.7677C84.6953 35.4223 83.4848 39.1554 82.4912 42.9488Z" fill="#809EBA"/>
<path fill-rule="evenodd" clip-rule="evenodd" d="M102.069 28.6598C102.554 28.6598 103.02 28.6638 103.47 28.6717C105.098 24.4599 107.03 20.3719 109.25 16.4399C105.364 16.5912 99.4005 17.1046 92.2568 18.6626C90.2525 22.2843 88.458 26.0182 86.8822 29.8457C91.907 29.0659 96.9839 28.6694 102.069 28.6598ZM62.8066 57.7816C64.8243 57.4332 66.8523 57.1478 68.8877 56.926C71.9945 56.5966 75.1143 56.404 78.2381 56.3489C78.6162 52.6736 79.2768 48.8451 80.1882 44.9549C75.1533 45.5039 70.1684 46.4412 65.278 47.7586C64.27 51.0515 63.4449 54.3976 62.8066 57.7816Z" fill="#F9B31B"/>
<path fill-rule="evenodd" clip-rule="evenodd" d="M34.4588 68.0335C35.008 65.8506 35.6707 63.608 36.4288 61.3535C33.7596 63.2762 31.2018 65.349 28.7678 67.5619C27.8749 69.5815 27.0598 71.6346 26.3242 73.7166C28.8979 71.6322 31.6163 69.7331 34.4588 68.0335Z" fill="#FCD98D"/>
<path fill-rule="evenodd" clip-rule="evenodd" d="M60.963 58.118C61.5593 54.8147 62.3331 51.5459 63.2812 48.3258C58.9407 49.6033 54.6995 51.1968 50.5917 53.0935C49.6277 55.8908 48.7997 58.733 48.1104 61.6102C52.3014 60.1249 56.5984 58.9575 60.9649 58.118" fill="#2B5E8C"/>
<path d="M6.06382 114.439C4.90749 114.439 3.90833 114.186 3.06635 113.681C2.23559 113.165 1.59006 112.452 1.12978 111.543C0.669491 110.622 0.439348 109.555 0.439348 108.343C0.439348 107.142 0.669491 106.087 1.12978 105.177C1.59006 104.257 2.23559 103.538 3.06635 103.022C3.90833 102.505 4.90749 102.247 6.06382 102.247C7.411 102.247 8.50558 102.573 9.34757 103.224C10.2008 103.864 10.7453 104.762 10.981 105.918H9.41493C9.2353 105.188 8.86483 104.605 8.3035 104.167C7.75341 103.718 7.00684 103.493 6.06382 103.493C5.22183 103.493 4.4865 103.69 3.85781 104.083C3.22913 104.464 2.74078 105.02 2.39276 105.75C2.05596 106.468 1.88757 107.333 1.88757 108.343C1.88757 109.353 2.05596 110.223 2.39276 110.953C2.74078 111.672 3.22913 112.227 3.85781 112.62C4.4865 113.002 5.22183 113.193 6.06382 113.193C7.00684 113.193 7.75341 112.98 8.3035 112.553C8.86483 112.115 9.2353 111.537 9.41493 110.818H10.981C10.7453 111.952 10.2008 112.839 9.34757 113.479C8.50558 114.119 7.411 114.439 6.06382 114.439ZM16.3988 114.439C15.613 114.439 14.9057 114.259 14.277 113.9C13.6483 113.541 13.1487 113.036 12.7783 112.385C12.419 111.722 12.2394 110.948 12.2394 110.061C12.2394 109.174 12.4246 108.405 12.7951 107.754C13.1656 107.091 13.6652 106.58 14.2938 106.221C14.9338 105.862 15.6466 105.682 16.4325 105.682C17.2183 105.682 17.9256 105.862 18.5543 106.221C19.183 106.58 19.6769 107.091 20.0362 107.754C20.4067 108.405 20.5919 109.174 20.5919 110.061C20.5919 110.948 20.4067 111.722 20.0362 112.385C19.6657 113.036 19.1605 113.541 18.5206 113.9C17.8919 114.259 17.1847 114.439 16.3988 114.439ZM16.3988 113.227C16.8816 113.227 17.3306 113.109 17.746 112.873C18.1614 112.637 18.4982 112.284 18.7564 111.812C19.0146 111.341 19.1437 110.757 19.1437 110.061C19.1437 109.365 19.0146 108.781 18.7564 108.309C18.5094 107.838 18.1782 107.484 17.7628 107.248C17.3474 107.013 16.904 106.895 16.4325 106.895C15.9498 106.895 15.5007 107.013 15.0853 107.248C14.6699 107.484 14.3331 107.838 14.0749 108.309C13.8167 108.781 13.6876 109.365 13.6876 110.061C13.6876 110.757 13.8167 111.341 14.0749 111.812C14.3331 112.284 14.6643 112.637 15.0685 112.873C15.4839 113.109 15.9273 113.227 16.3988 113.227ZM22.2219 114.237V105.884H23.5018L23.586 107.383C23.8554 106.856 24.2427 106.44 24.7479 106.137C25.2531 105.834 25.8256 105.682 26.4656 105.682C27.4535 105.682 28.2393 105.985 28.8231 106.592C29.4181 107.187 29.7156 108.107 29.7156 109.353V114.237H28.3011V109.505C28.3011 107.765 27.5826 106.895 26.1456 106.895C25.4271 106.895 24.8265 107.159 24.3437 107.686C23.8722 108.203 23.6365 108.944 23.6365 109.909V114.237H22.2219ZM34.7215 114.439C33.7223 114.439 32.8916 114.186 32.2292 113.681C31.5669 113.176 31.1795 112.491 31.0673 111.627H32.5155C32.6053 112.065 32.8354 112.446 33.2059 112.772C33.5876 113.086 34.0984 113.243 34.7383 113.243C35.3333 113.243 35.7712 113.12 36.0518 112.873C36.3325 112.615 36.4728 112.312 36.4728 111.964C36.4728 111.458 36.2876 111.122 35.9171 110.953C35.5579 110.785 35.0471 110.633 34.3847 110.499C33.9356 110.409 33.4866 110.28 33.0375 110.111C32.5885 109.943 32.2124 109.707 31.9093 109.404C31.6061 109.09 31.4546 108.68 31.4546 108.175C31.4546 107.445 31.724 106.85 32.2629 106.39C32.813 105.918 33.5539 105.682 34.4857 105.682C35.3726 105.682 36.0967 105.907 36.6581 106.356C37.2306 106.794 37.5618 107.422 37.6516 108.242H36.2539C36.1978 107.815 36.0125 107.484 35.6982 107.248C35.3951 107.001 34.9853 106.878 34.4689 106.878C33.9637 106.878 33.5708 106.985 33.2901 107.198C33.0207 107.411 32.886 107.692 32.886 108.04C32.886 108.377 33.06 108.641 33.408 108.831C33.7672 109.022 34.25 109.185 34.8562 109.32C35.3726 109.432 35.861 109.572 36.3213 109.741C36.7928 109.898 37.1745 110.139 37.4664 110.465C37.7695 110.779 37.921 111.239 37.921 111.846C37.9323 112.598 37.646 113.221 37.0622 113.715C36.4897 114.198 35.7094 114.439 34.7215 114.439ZM42.5274 114.237C41.764 114.237 41.1633 114.052 40.7255 113.681C40.2877 113.311 40.0688 112.643 40.0688 111.677V107.08H38.6205V105.884H40.0688L40.254 103.881H41.4833V105.884H43.9419V107.08H41.4833V111.677C41.4833 112.205 41.59 112.564 41.8033 112.755C42.0166 112.935 42.3926 113.024 42.9315 113.024H43.8072V114.237H42.5274ZM48.1808 114.439C47.4847 114.439 46.9066 114.321 46.4463 114.085C45.986 113.85 45.6436 113.535 45.4191 113.142C45.1945 112.749 45.0823 112.323 45.0823 111.863C45.0823 111.009 45.4078 110.353 46.059 109.892C46.7101 109.432 47.597 109.202 48.7197 109.202H50.9762V109.101C50.9762 108.371 50.7853 107.821 50.4036 107.451C50.0219 107.069 49.5111 106.878 48.8712 106.878C48.3211 106.878 47.844 107.018 47.4398 107.299C47.0469 107.568 46.7999 107.967 46.6989 108.495H45.2507C45.3068 107.888 45.5089 107.378 45.8569 106.962C46.2161 106.547 46.6596 106.232 47.1872 106.019C47.7149 105.795 48.2762 105.682 48.8712 105.682C50.0388 105.682 50.9144 105.997 51.4982 106.625C52.0932 107.243 52.3907 108.068 52.3907 109.101V114.237H51.1277L51.0435 112.738C50.8078 113.21 50.4598 113.614 49.9995 113.951C49.5504 114.276 48.9442 114.439 48.1808 114.439ZM48.3997 113.243C48.9386 113.243 49.3989 113.103 49.7806 112.822C50.1735 112.542 50.471 112.177 50.6731 111.728C50.8751 111.279 50.9762 110.807 50.9762 110.313V110.296H48.8375C48.0068 110.296 47.4174 110.442 47.0694 110.734C46.7326 111.015 46.5642 111.369 46.5642 111.795C46.5642 112.233 46.7213 112.587 47.0357 112.856C47.3612 113.114 47.8159 113.243 48.3997 113.243ZM54.176 114.237V105.884H55.4558L55.54 107.383C55.8094 106.856 56.1968 106.44 56.702 106.137C57.2071 105.834 57.7797 105.682 58.4196 105.682C59.4075 105.682 60.1934 105.985 60.7772 106.592C61.3722 107.187 61.6697 108.107 61.6697 109.353V114.237H60.2551V109.505C60.2551 107.765 59.5366 106.895 58.0996 106.895C57.3812 106.895 56.7805 107.159 56.2978 107.686C55.8263 108.203 55.5905 108.944 55.5905 109.909V114.237H54.176ZM66.7766 114.237C66.0132 114.237 65.4126 114.052 64.9747 113.681C64.5369 113.311 64.318 112.643 64.318 111.677V107.08H62.8698V105.884H64.318L64.5032 103.881H65.7325V105.884H68.1911V107.08H65.7325V111.677C65.7325 112.205 65.8392 112.564 66.0525 112.755C66.2658 112.935 66.6419 113.024 67.1807 113.024H68.0564V114.237H66.7766ZM79.0253 114.439C77.8689 114.439 76.8698 114.186 76.0278 113.681C75.197 113.165 74.5515 112.452 74.0912 111.543C73.6309 110.622 73.4008 109.555 73.4008 108.343C73.4008 107.142 73.6309 106.087 74.0912 105.177C74.5515 104.257 75.197 103.538 76.0278 103.022C76.8698 102.505 77.8689 102.247 79.0253 102.247C80.3724 102.247 81.467 102.573 82.309 103.224C83.1622 103.864 83.7067 104.762 83.9425 105.918H82.3764C82.1967 105.188 81.8263 104.605 81.2649 104.167C80.7148 103.718 79.9683 103.493 79.0253 103.493C78.1833 103.493 77.4479 103.69 76.8192 104.083C76.1906 104.464 75.7022 105.02 75.3542 105.75C75.0174 106.468 74.849 107.333 74.849 108.343C74.849 109.353 75.0174 110.223 75.3542 110.953C75.7022 111.672 76.1906 112.227 76.8192 112.62C77.4479 113.002 78.1833 113.193 79.0253 113.193C79.9683 113.193 80.7148 112.98 81.2649 112.553C81.8263 112.115 82.1967 111.537 82.3764 110.818H83.9425C83.7067 111.952 83.1622 112.839 82.309 113.479C81.467 114.119 80.3724 114.439 79.0253 114.439ZM89.3602 114.439C88.5744 114.439 87.8671 114.259 87.2384 113.9C86.6098 113.541 86.1102 113.036 85.7397 112.385C85.3805 111.722 85.2008 110.948 85.2008 110.061C85.2008 109.174 85.3861 108.405 85.7565 107.754C86.127 107.091 86.6266 106.58 87.2553 106.221C87.8952 105.862 88.6081 105.682 89.3939 105.682C90.1798 105.682 90.887 105.862 91.5157 106.221C92.1444 106.58 92.6384 107.091 92.9976 107.754C93.3681 108.405 93.5533 109.174 93.5533 110.061C93.5533 110.948 93.3681 111.722 92.9976 112.385C92.6272 113.036 92.122 113.541 91.4821 113.9C90.8534 114.259 90.1461 114.439 89.3602 114.439ZM89.3602 113.227C89.843 113.227 90.292 113.109 90.7074 112.873C91.1228 112.637 91.4596 112.284 91.7178 111.812C91.976 111.341 92.1051 110.757 92.1051 110.061C92.1051 109.365 91.976 108.781 91.7178 108.309C91.4708 107.838 91.1396 107.484 90.7243 107.248C90.3089 107.013 89.8654 106.895 89.3939 106.895C88.9112 106.895 88.4621 107.013 88.0467 107.248C87.6314 107.484 87.2946 107.838 87.0364 108.309C86.7782 108.781 86.649 109.365 86.649 110.061C86.649 110.757 86.7782 111.341 87.0364 111.812C87.2946 112.284 87.6258 112.637 88.0299 112.873C88.4453 113.109 88.8887 113.227 89.3602 113.227ZM95.1834 114.237V105.884H96.4632L96.5474 107.383C96.8168 106.856 97.2041 106.44 97.7093 106.137C98.2145 105.834 98.7871 105.682 99.427 105.682C100.415 105.682 101.201 105.985 101.785 106.592C102.38 107.187 102.677 108.107 102.677 109.353V114.237H101.263V109.505C101.263 107.765 100.544 106.895 99.107 106.895C98.3885 106.895 97.7879 107.159 97.3052 107.686C96.8337 108.203 96.5979 108.944 96.5979 109.909V114.237H95.1834ZM107.784 114.237C107.021 114.237 106.42 114.052 105.982 113.681C105.544 113.311 105.325 112.643 105.325 111.677V107.08H103.877V105.884H105.325L105.511 103.881H106.74V105.884H109.199V107.08H106.74V111.677C106.74 112.205 106.847 112.564 107.06 112.755C107.273 112.935 107.649 113.024 108.188 113.024H109.064V114.237H107.784ZM113.437 114.439C112.741 114.439 112.163 114.321 111.703 114.085C111.243 113.85 110.9 113.535 110.676 113.142C110.451 112.749 110.339 112.323 110.339 111.863C110.339 111.009 110.664 110.353 111.316 109.892C111.967 109.432 112.854 109.202 113.976 109.202H116.233V109.101C116.233 108.371 116.042 107.821 115.66 107.451C115.279 107.069 114.768 106.878 114.128 106.878C113.578 106.878 113.101 107.018 112.696 107.299C112.304 107.568 112.057 107.967 111.955 108.495H110.507C110.563 107.888 110.765 107.378 111.113 106.962C111.473 106.547 111.916 106.232 112.444 106.019C112.971 105.795 113.533 105.682 114.128 105.682C115.295 105.682 116.171 105.997 116.755 106.625C117.35 107.243 117.647 108.068 117.647 109.101V114.237H116.384L116.3 112.738C116.064 113.21 115.716 113.614 115.256 113.951C114.807 114.276 114.201 114.439 113.437 114.439ZM113.656 113.243C114.195 113.243 114.655 113.103 115.037 112.822C115.43 112.542 115.728 112.177 115.93 111.728C116.132 111.279 116.233 110.807 116.233 110.313V110.296H114.094C113.263 110.296 112.674 110.442 112.326 110.734C111.989 111.015 111.821 111.369 111.821 111.795C111.821 112.233 111.978 112.587 112.292 112.856C112.618 113.114 113.073 113.243 113.656 113.243ZM123.272 114.439C122.475 114.439 121.756 114.259 121.117 113.9C120.488 113.53 119.988 113.019 119.618 112.368C119.259 111.705 119.079 110.936 119.079 110.061C119.079 109.185 119.259 108.422 119.618 107.77C119.988 107.108 120.488 106.597 121.117 106.238C121.756 105.868 122.475 105.682 123.272 105.682C124.26 105.682 125.091 105.941 125.764 106.457C126.449 106.973 126.881 107.664 127.061 108.528H125.613C125.501 108.012 125.225 107.613 124.788 107.333C124.35 107.041 123.839 106.895 123.255 106.895C122.784 106.895 122.34 107.013 121.925 107.248C121.509 107.484 121.173 107.838 120.914 108.309C120.656 108.781 120.527 109.365 120.527 110.061C120.527 110.757 120.656 111.341 120.914 111.812C121.173 112.284 121.509 112.643 121.925 112.89C122.34 113.126 122.784 113.243 123.255 113.243C123.839 113.243 124.35 113.103 124.788 112.822C125.225 112.531 125.501 112.121 125.613 111.593H127.061C126.893 112.435 126.466 113.12 125.781 113.648C125.096 114.175 124.26 114.439 123.272 114.439ZM131.77 114.237C131.007 114.237 130.406 114.052 129.968 113.681C129.53 113.311 129.311 112.643 129.311 111.677V107.08H127.863V105.884H129.311L129.497 103.881H130.726V105.884H133.185V107.08H130.726V111.677C130.726 112.205 130.833 112.564 131.046 112.755C131.259 112.935 131.635 113.024 132.174 113.024H133.05V114.237H131.77Z" fill="#5D616B"/>
</svg>
