<svg width="103" height="138" viewBox="0 0 103 138" fill="none" xmlns="http://www.w3.org/2000/svg">
<circle cx="51.1974" cy="43.4258" r="43.1799" fill="url(#paint0_linear_5223_2021)"/>
<path d="M59.6159 21.2957H42.9531C35.2854 21.2957 29.0674 27.5137 29.0674 35.1813V51.8441C29.0674 59.5118 35.2854 65.7298 42.9531 65.7298H59.6159C67.2835 65.7298 73.5015 59.5118 73.5015 51.8441V35.1813C73.5015 27.5137 67.2835 21.2957 59.6159 21.2957ZM69.3358 51.8441C69.3358 57.204 64.9757 61.5641 59.6159 61.5641H42.9531C37.5932 61.5641 33.2331 57.204 33.2331 51.8441V35.1813C33.2331 29.8215 37.5932 25.4614 42.9531 25.4614H59.6159C64.9757 25.4614 69.3358 29.8215 69.3358 35.1813V51.8441Z" fill="white"/>
<path d="M51.2845 32.4042C45.1498 32.4042 40.1759 37.378 40.1759 43.5127C40.1759 49.6474 45.1498 54.6213 51.2845 54.6213C57.4191 54.6213 62.393 49.6474 62.393 43.5127C62.393 37.378 57.4191 32.4042 51.2845 32.4042ZM51.2845 50.4556C47.4576 50.4556 44.3416 47.3396 44.3416 43.5127C44.3416 39.6831 47.4576 36.5699 51.2845 36.5699C55.1113 36.5699 58.2273 39.6831 58.2273 43.5127C58.2273 47.3396 55.1113 50.4556 51.2845 50.4556Z" fill="white"/>
<path d="M64.0867 33.8844C64.9041 33.8844 65.5669 33.2217 65.5669 32.4042C65.5669 31.5867 64.9041 30.924 64.0867 30.924C63.2691 30.924 62.6064 31.5867 62.6064 32.4042C62.6064 33.2217 63.2691 33.8844 64.0867 33.8844Z" fill="white"/>
<ellipse cx="64.1433" cy="32.9872" rx="2.33864" ry="2.33864" fill="white"/>
<path d="M15.2596 113.573V101.785H16.6741V113.573H15.2596ZM18.7525 113.573V105.22H20.0323L20.1165 106.719C20.3859 106.191 20.7732 105.776 21.2784 105.473C21.7836 105.169 22.3562 105.018 22.9961 105.018C23.984 105.018 24.7699 105.321 25.3537 105.927C25.9487 106.522 26.2462 107.443 26.2462 108.689V113.573H24.8316V108.841C24.8316 107.1 24.1131 106.23 22.6761 106.23C21.9576 106.23 21.357 106.494 20.8743 107.022C20.4028 107.538 20.167 108.279 20.167 109.245V113.573H18.7525ZM31.252 113.775C30.2529 113.775 29.4221 113.522 28.7598 113.017C28.0974 112.512 27.7101 111.827 27.5978 110.962H29.046C29.1358 111.4 29.366 111.782 29.7365 112.107C30.1182 112.422 30.629 112.579 31.2689 112.579C31.8639 112.579 32.3017 112.455 32.5824 112.208C32.863 111.95 33.0034 111.647 33.0034 111.299C33.0034 110.794 32.8181 110.457 32.4477 110.289C32.0884 110.12 31.5776 109.969 30.9152 109.834C30.4662 109.744 30.0171 109.615 29.5681 109.447C29.119 109.278 28.7429 109.043 28.4398 108.74C28.1367 108.425 27.9851 108.015 27.9851 107.51C27.9851 106.78 28.2546 106.185 28.7934 105.725C29.3435 105.254 30.0845 105.018 31.0163 105.018C31.9032 105.018 32.6273 105.242 33.1886 105.692C33.7612 106.129 34.0923 106.758 34.1822 107.578H32.7845C32.7283 107.151 32.5431 106.82 32.2287 106.584C31.9256 106.337 31.5159 106.214 30.9994 106.214C30.4942 106.214 30.1013 106.32 29.8207 106.534C29.5512 106.747 29.4165 107.027 29.4165 107.375C29.4165 107.712 29.5905 107.976 29.9385 108.167C30.2978 108.358 30.7805 108.521 31.3868 108.655C31.9032 108.768 32.3915 108.908 32.8518 109.076C33.3233 109.233 33.705 109.475 33.9969 109.8C34.3 110.115 34.4516 110.575 34.4516 111.181C34.4628 111.933 34.1765 112.557 33.5928 113.05C33.0202 113.533 32.24 113.775 31.252 113.775ZM39.0579 113.573C38.2945 113.573 37.6939 113.387 37.2561 113.017C36.8182 112.646 36.5993 111.978 36.5993 111.013V106.416H35.1511V105.22H36.5993L36.7845 103.216H38.0138V105.22H40.4724V106.416H38.0138V111.013C38.0138 111.541 38.1205 111.9 38.3338 112.091C38.5471 112.27 38.9232 112.36 39.4621 112.36H40.3377V113.573H39.0579ZM44.7113 113.775C44.0153 113.775 43.4371 113.657 42.9768 113.421C42.5165 113.185 42.1741 112.871 41.9496 112.478C41.7251 112.085 41.6128 111.658 41.6128 111.198C41.6128 110.345 41.9384 109.688 42.5895 109.228C43.2407 108.768 44.1275 108.537 45.2502 108.537H47.5067V108.436C47.5067 107.707 47.3159 107.157 46.9342 106.786C46.5525 106.404 46.0417 106.214 45.4018 106.214C44.8517 106.214 44.3745 106.354 43.9704 106.635C43.5775 106.904 43.3305 107.303 43.2294 107.83H41.7812C41.8373 107.224 42.0394 106.713 42.3874 106.298C42.7467 105.882 43.1901 105.568 43.7178 105.355C44.2454 105.13 44.8068 105.018 45.4018 105.018C46.5693 105.018 47.445 105.332 48.0288 105.961C48.6238 106.578 48.9213 107.404 48.9213 108.436V113.573H47.6583L47.5741 112.074C47.3383 112.545 46.9903 112.949 46.53 113.286C46.081 113.612 45.4747 113.775 44.7113 113.775ZM44.9302 112.579C45.4691 112.579 45.9294 112.439 46.3111 112.158C46.704 111.877 47.0015 111.512 47.2036 111.063C47.4057 110.614 47.5067 110.143 47.5067 109.649V109.632H45.3681C44.5373 109.632 43.9479 109.778 43.5999 110.07C43.2631 110.351 43.0947 110.704 43.0947 111.131C43.0947 111.569 43.2519 111.922 43.5662 112.192C43.8918 112.45 44.3465 112.579 44.9302 112.579ZM54.0071 110.946C53.5356 110.946 53.1034 110.884 52.7105 110.76L51.8685 111.552C51.992 111.642 52.1435 111.72 52.3231 111.787C52.514 111.844 52.7834 111.9 53.1315 111.956C53.4795 112.001 53.9678 112.051 54.5965 112.107C55.7192 112.186 56.5219 112.444 57.0046 112.882C57.4873 113.32 57.7287 113.892 57.7287 114.6C57.7287 115.082 57.594 115.543 57.3245 115.981C57.0663 116.418 56.6622 116.778 56.1121 117.058C55.5732 117.339 54.8772 117.479 54.024 117.479C53.2718 117.479 52.6038 117.378 52.02 117.176C51.4363 116.985 50.9816 116.688 50.656 116.284C50.3304 115.891 50.1677 115.391 50.1677 114.785C50.1677 114.471 50.2519 114.128 50.4203 113.758C50.5887 113.398 50.903 113.056 51.3633 112.731C51.1163 112.629 50.903 112.523 50.7234 112.411C50.555 112.287 50.3978 112.152 50.2519 112.006V111.619L51.6832 110.205C51.0209 109.643 50.6897 108.902 50.6897 107.982C50.6897 107.432 50.8188 106.932 51.077 106.483C51.3352 106.034 51.7113 105.68 52.2053 105.422C52.6992 105.153 53.2999 105.018 54.0071 105.018C54.4899 105.018 54.9277 105.085 55.3206 105.22H58.4023V106.281L56.8362 106.348C57.1618 106.82 57.3245 107.364 57.3245 107.982C57.3245 108.532 57.1898 109.031 56.9204 109.48C56.6622 109.93 56.2861 110.289 55.7921 110.558C55.3094 110.816 54.7144 110.946 54.0071 110.946ZM54.0071 109.784C54.6021 109.784 55.0736 109.632 55.4217 109.329C55.7809 109.015 55.9605 108.565 55.9605 107.982C55.9605 107.409 55.7809 106.971 55.4217 106.668C55.0736 106.354 54.6021 106.197 54.0071 106.197C53.4009 106.197 52.9182 106.354 52.5589 106.668C52.2109 106.971 52.0369 107.409 52.0369 107.982C52.0369 108.565 52.2109 109.015 52.5589 109.329C52.9182 109.632 53.4009 109.784 54.0071 109.784ZM51.5485 114.65C51.5485 115.212 51.7843 115.627 52.2558 115.896C52.7273 116.177 53.3167 116.317 54.024 116.317C54.72 116.317 55.2757 116.166 55.6911 115.863C56.1177 115.56 56.331 115.155 56.331 114.65C56.331 114.291 56.1851 113.977 55.8932 113.707C55.6013 113.449 55.0624 113.297 54.2766 113.253C53.6591 113.208 53.1258 113.152 52.6768 113.084C52.2165 113.331 51.9134 113.595 51.7674 113.876C51.6215 114.168 51.5485 114.426 51.5485 114.65ZM59.6612 113.573V105.22H60.941L61.0589 106.82C61.3171 106.27 61.71 105.832 62.2377 105.506C62.7653 105.181 63.4165 105.018 64.1911 105.018V106.5H63.8038C63.3098 106.5 62.8551 106.59 62.4398 106.769C62.0244 106.938 61.6932 107.23 61.4462 107.645C61.1992 108.06 61.0757 108.633 61.0757 109.363V113.573H59.6612ZM68.2205 113.775C67.5245 113.775 66.9463 113.657 66.486 113.421C66.0257 113.185 65.6833 112.871 65.4588 112.478C65.2343 112.085 65.122 111.658 65.122 111.198C65.122 110.345 65.4476 109.688 66.0987 109.228C66.7498 108.768 67.6367 108.537 68.7594 108.537H71.0159V108.436C71.0159 107.707 70.8251 107.157 70.4434 106.786C70.0617 106.404 69.5509 106.214 68.9109 106.214C68.3608 106.214 67.8837 106.354 67.4796 106.635C67.0866 106.904 66.8397 107.303 66.7386 107.83H65.2904C65.3465 107.224 65.5486 106.713 65.8966 106.298C66.2559 105.882 66.6993 105.568 67.227 105.355C67.7546 105.13 68.3159 105.018 68.9109 105.018C70.0785 105.018 70.9542 105.332 71.5379 105.961C72.1329 106.578 72.4304 107.404 72.4304 108.436V113.573H71.1675L71.0833 112.074C70.8475 112.545 70.4995 112.949 70.0392 113.286C69.5901 113.612 68.9839 113.775 68.2205 113.775ZM68.4394 112.579C68.9783 112.579 69.4386 112.439 69.8203 112.158C70.2132 111.877 70.5107 111.512 70.7128 111.063C70.9149 110.614 71.0159 110.143 71.0159 109.649V109.632H68.8773C68.0465 109.632 67.4571 109.778 67.1091 110.07C66.7723 110.351 66.6039 110.704 66.6039 111.131C66.6039 111.569 66.7611 111.922 67.0754 112.192C67.401 112.45 67.8557 112.579 68.4394 112.579ZM74.2157 113.573V105.22H75.4955L75.5966 106.432C75.866 105.983 76.2253 105.635 76.6743 105.388C77.1234 105.141 77.6286 105.018 78.1899 105.018C78.8523 105.018 79.4192 105.153 79.8907 105.422C80.3735 105.692 80.7439 106.101 81.0021 106.651C81.294 106.146 81.6926 105.748 82.1978 105.456C82.7142 105.164 83.2699 105.018 83.8649 105.018C84.864 105.018 85.6611 105.321 86.2561 105.927C86.8511 106.522 87.1486 107.443 87.1486 108.689V113.573H85.7509V108.841C85.7509 107.976 85.5769 107.325 85.2289 106.887C84.8809 106.449 84.3813 106.23 83.7302 106.23C83.0566 106.23 82.4953 106.494 82.0462 107.022C81.6084 107.538 81.3894 108.279 81.3894 109.245V113.573H79.9749V108.841C79.9749 107.976 79.8009 107.325 79.4529 106.887C79.1049 106.449 78.6053 106.23 77.9541 106.23C77.2918 106.23 76.7361 106.494 76.287 107.022C75.8492 107.538 75.6303 108.279 75.6303 109.245V113.573H74.2157Z" fill="#5D616B"/>
<defs>
<linearGradient id="paint0_linear_5223_2021" x1="15.923" y1="78.7008" x2="86.4719" y2="8.1508" gradientUnits="userSpaceOnUse">
<stop stop-color="#FFC107"/>
<stop offset="0.507" stop-color="#F44336"/>
<stop offset="0.99" stop-color="#9C27B0"/>
</linearGradient>
</defs>
</svg>
