<svg width="102" height="138" viewBox="0 0 102 138" fill="none" xmlns="http://www.w3.org/2000/svg">
<rect x="7.64844" y="0.245911" width="86.9722" height="86.9722" rx="8.69722" fill="#163E35"/>
<g opacity="0.8">
<path d="M48.8508 20.0642C50.2408 19.1516 52.0284 19.1516 53.4183 20.0642L84 40.1427C86.5646 41.8265 86.5646 45.6374 84 47.3212L80.6097 49.5471C74.5207 39.505 63.5973 32.8104 51.1346 32.8104C38.6719 32.8104 27.7485 39.505 21.6594 49.5471L18.2691 47.3212C15.7046 45.6374 15.7046 41.8265 18.2691 40.1427L48.8508 20.0642Z" fill="url(#paint0_linear_5223_2018)"/>
<path d="M51.1346 41.3577C60.6342 41.3577 68.9519 46.4976 73.5397 54.189L66.0618 59.0986C63.2533 53.6347 57.6227 49.9051 51.1346 49.9051C44.6465 49.9051 39.0159 53.6347 36.2073 59.0986L28.7295 54.189C33.3173 46.4976 41.635 41.3577 51.1346 41.3577Z" fill="url(#paint1_linear_5223_2018)"/>
<path d="M58.9316 63.78L53.4184 67.3997C52.0284 68.3123 50.2408 68.3123 48.8508 67.3997L43.3376 63.78C44.5894 60.6553 47.6087 58.4524 51.1346 58.4524C54.6604 58.4524 57.6798 60.6553 58.9316 63.78Z" fill="url(#paint2_linear_5223_2018)"/>
</g>
<path d="M25.6145 113.573V101.785H27.029V107.123L31.9462 101.785H33.7312L29.3529 106.483L33.7986 113.573H32.0809L28.3425 107.578L27.029 108.975V113.573H25.6145ZM34.9947 113.573V101.448H36.4093V113.573H34.9947ZM41.1695 113.775C40.4735 113.775 39.8953 113.657 39.435 113.421C38.9748 113.185 38.6323 112.871 38.4078 112.478C38.1833 112.085 38.071 111.658 38.071 111.198C38.071 110.345 38.3966 109.688 39.0477 109.228C39.6989 108.768 40.5858 108.537 41.7084 108.537H43.9649V108.436C43.9649 107.707 43.7741 107.157 43.3924 106.786C43.0107 106.404 42.4999 106.214 41.86 106.214C41.3099 106.214 40.8327 106.354 40.4286 106.635C40.0357 106.904 39.7887 107.303 39.6876 107.83H38.2394C38.2956 107.224 38.4976 106.713 38.8457 106.298C39.2049 105.882 39.6483 105.568 40.176 105.355C40.7036 105.13 41.265 105.018 41.86 105.018C43.0275 105.018 43.9032 105.332 44.487 105.961C45.082 106.578 45.3795 107.404 45.3795 108.436V113.573H44.1165L44.0323 112.074C43.7965 112.545 43.4485 112.949 42.9882 113.286C42.5392 113.612 41.9329 113.775 41.1695 113.775ZM41.3885 112.579C41.9273 112.579 42.3876 112.439 42.7693 112.158C43.1622 111.877 43.4597 111.512 43.6618 111.063C43.8639 110.614 43.9649 110.143 43.9649 109.649V109.632H41.8263C40.9955 109.632 40.4061 109.778 40.0581 110.07C39.7213 110.351 39.5529 110.704 39.5529 111.131C39.5529 111.569 39.7101 111.922 40.0244 112.192C40.35 112.45 40.8047 112.579 41.3885 112.579ZM49.2604 113.573L46.0945 105.22H47.5764L50.0855 112.208L52.6115 105.22H54.0597L50.8938 113.573H49.2604ZM56.156 103.368C55.8753 103.368 55.6396 103.278 55.4487 103.098C55.2691 102.907 55.1793 102.672 55.1793 102.391C55.1793 102.121 55.2691 101.897 55.4487 101.717C55.6396 101.538 55.8753 101.448 56.156 101.448C56.4254 101.448 56.6556 101.538 56.8464 101.717C57.0373 101.897 57.1327 102.121 57.1327 102.391C57.1327 102.672 57.0373 102.907 56.8464 103.098C56.6556 103.278 56.4254 103.368 56.156 103.368ZM55.4487 113.573V105.22H56.8632V113.573H55.4487ZM59.8987 117.277L61.97 112.764H61.4817L58.1642 105.22H59.6967L62.4584 111.72L65.3885 105.22H66.8536L61.3806 117.277H59.8987ZM71.0262 113.775C70.2404 113.775 69.5331 113.595 68.9044 113.236C68.2758 112.876 67.7762 112.371 67.4057 111.72C67.0465 111.058 66.8668 110.283 66.8668 109.396C66.8668 108.509 67.0521 107.74 67.4225 107.089C67.793 106.427 68.2926 105.916 68.9213 105.557C69.5612 105.198 70.2741 105.018 71.0599 105.018C71.8458 105.018 72.553 105.198 73.1817 105.557C73.8104 105.916 74.3044 106.427 74.6636 107.089C75.0341 107.74 75.2193 108.509 75.2193 109.396C75.2193 110.283 75.0341 111.058 74.6636 111.72C74.2932 112.371 73.788 112.876 73.1481 113.236C72.5194 113.595 71.8121 113.775 71.0262 113.775ZM71.0262 112.562C71.509 112.562 71.958 112.444 72.3734 112.208C72.7888 111.973 73.1256 111.619 73.3838 111.148C73.642 110.676 73.7711 110.092 73.7711 109.396C73.7711 108.7 73.642 108.116 73.3838 107.645C73.1368 107.173 72.8056 106.82 72.3903 106.584C71.9749 106.348 71.5314 106.23 71.0599 106.23C70.5772 106.23 70.1281 106.348 69.7127 106.584C69.2974 106.82 68.9606 107.173 68.7024 107.645C68.4442 108.116 68.315 108.7 68.315 109.396C68.315 110.092 68.4442 110.676 68.7024 111.148C68.9606 111.619 69.2918 111.973 69.6959 112.208C70.1113 112.444 70.5547 112.562 71.0262 112.562Z" fill="#5D616B"/>
<defs>
<linearGradient id="paint0_linear_5223_2018" x1="51.1346" y1="19.3798" x2="51.1346" y2="68.0842" gradientUnits="userSpaceOnUse">
<stop offset="0.0625" stop-color="#24AD69"/>
<stop offset="0.239583" stop-color="#18B05F"/>
<stop offset="1" stop-color="#F7CA08"/>
</linearGradient>
<linearGradient id="paint1_linear_5223_2018" x1="51.1346" y1="19.3798" x2="51.1346" y2="68.0842" gradientUnits="userSpaceOnUse">
<stop offset="0.0625" stop-color="#24AD69"/>
<stop offset="0.239583" stop-color="#18B05F"/>
<stop offset="1" stop-color="#F7CA08"/>
</linearGradient>
<linearGradient id="paint2_linear_5223_2018" x1="51.1346" y1="19.3798" x2="51.1346" y2="68.0842" gradientUnits="userSpaceOnUse">
<stop offset="0.0625" stop-color="#24AD69"/>
<stop offset="0.239583" stop-color="#18B05F"/>
<stop offset="1" stop-color="#F7CA08"/>
</linearGradient>
</defs>
</svg>
