<svg width="151" height="116" viewBox="0 0 151 116" fill="none" xmlns="http://www.w3.org/2000/svg">
<path fill-rule="evenodd" clip-rule="evenodd" d="M56.6146 0L73.6928 17.006L90.1183 0.649848L125.856 36.2362L90.1183 71.8225L73.0402 54.8165L56.6146 71.1726L20.8773 35.5863L56.6146 0ZM70.8066 52.5923L56.6146 66.7243L25.3445 35.5863L56.6146 4.44829L71.4592 19.2302L54.381 36.2362L70.8066 52.5923ZM75.2737 52.5923L90.1183 67.3742L121.388 36.2362L90.1183 5.09814L75.9263 19.2302L92.3519 35.5863L75.2737 52.5923ZM58.8482 36.2362L73.0402 50.3682L87.8848 35.5863L73.6928 21.4543L58.8482 36.2362Z" fill="#222222"/>
<path fill-rule="evenodd" clip-rule="evenodd" d="M0.230469 34.7999H23.9212V36.3726H0.230469V34.7999Z" fill="#222222"/>
<path fill-rule="evenodd" clip-rule="evenodd" d="M121.21 35.4291H144.901V37.0018H121.21V35.4291Z" fill="#222222"/>
<path d="M9.38679 91.7112C9.95852 91.7112 10.6351 91.6921 11.4164 91.654C12.1978 91.6159 12.8648 91.5968 13.4175 91.5968C14.0464 91.5968 14.6753 91.6921 15.3043 91.8827C15.9522 92.0733 16.5716 92.3591 17.1624 92.7403C17.7722 93.1215 18.2677 93.6646 18.6489 94.3697C19.0301 95.0749 19.2206 95.8944 19.2206 96.8282C19.2206 97.3809 19.0968 97.9812 18.849 98.6292C18.6203 99.2581 18.2773 99.8775 17.8199 100.487C17.3625 101.078 16.7431 101.574 15.9617 101.974C15.1994 102.355 14.3418 102.546 13.3889 102.546C12.3217 102.546 11.588 102.279 11.1878 101.745C11.0734 101.612 11.0448 101.393 11.102 101.088C11.1211 101.011 11.1496 100.983 11.1878 101.002C11.7595 101.212 12.3979 101.316 13.1031 101.316C14.056 101.316 14.8755 100.916 15.5615 100.116C16.2476 99.3153 16.5907 98.3624 16.5907 97.257C16.5907 95.9039 16.2953 94.8367 15.7045 94.0553C15.1137 93.2549 14.1989 92.8547 12.9601 92.8547C12.1025 92.8547 11.4355 92.9214 10.9591 93.0548C10.8638 93.0738 10.7971 93.15 10.759 93.2835C10.7208 93.3978 10.6827 93.6837 10.6446 94.1411C10.6255 94.5984 10.616 95.2845 10.616 96.1993V106.405C10.616 107.682 10.6923 108.511 10.8447 108.892C10.94 109.14 11.2735 109.34 11.8453 109.492C12.436 109.645 12.8553 109.721 13.1031 109.721C13.1793 109.721 13.2174 109.854 13.2174 110.121C13.2174 110.293 13.1984 110.436 13.1602 110.55C11.2545 110.455 10.0157 110.407 9.44396 110.407L5.95637 110.55C5.8992 110.493 5.87061 110.321 5.87061 110.035C5.87061 109.788 5.8992 109.664 5.95637 109.664C6.22318 109.664 6.59481 109.607 7.07126 109.492C7.5477 109.378 7.83357 109.235 7.92886 109.063C8.06227 108.835 8.12897 107.939 8.12897 106.376V95.5704C8.12897 94.446 8.06227 93.6265 7.92886 93.1119C7.87169 92.9595 7.58582 92.8165 7.07126 92.6831C6.57575 92.5497 6.20413 92.483 5.95637 92.483C5.88014 92.483 5.84203 92.3687 5.84203 92.14C5.84203 91.8922 5.88014 91.7302 5.95637 91.654L9.38679 91.7112ZM24.2805 108.635C24.6045 108.901 25.0238 109.035 25.5383 109.035C26.0529 109.035 26.5484 108.882 27.0248 108.577C27.5013 108.253 27.7395 107.929 27.7395 107.605V104.661C27.587 104.737 27.2154 104.871 26.6246 105.061C26.0338 105.252 25.5669 105.423 25.2239 105.576C24.8999 105.709 24.5759 105.947 24.2519 106.29C23.947 106.614 23.7945 106.996 23.7945 107.434C23.7945 107.948 23.9565 108.349 24.2805 108.635ZM26.9677 98.0003C28.0158 98.0003 28.7686 98.2576 29.226 98.7721C29.6834 99.2676 29.9121 100.078 29.9121 101.202V107.806C29.9121 108.206 30.0169 108.539 30.2266 108.806C30.4362 109.073 30.7221 109.206 31.0842 109.206C31.351 109.206 31.6845 109.073 32.0847 108.806C32.1609 108.806 32.199 108.882 32.199 109.035C32.199 109.283 32.1514 109.483 32.0561 109.635C31.2747 110.302 30.6077 110.636 30.055 110.636C29.6167 110.636 29.1974 110.455 28.7972 110.092C28.397 109.73 28.1207 109.349 27.9682 108.949C27.9491 108.949 27.8729 109.016 27.7395 109.149C27.6252 109.263 27.4632 109.406 27.2535 109.578C27.0439 109.73 26.7961 109.892 26.5103 110.064C26.2435 110.235 25.9195 110.378 25.5383 110.493C25.1762 110.607 24.8046 110.664 24.4234 110.664C23.5468 110.664 22.8226 110.436 22.2508 109.978C21.6791 109.502 21.3932 108.797 21.3932 107.863C21.3932 107.443 21.4981 107.053 21.7077 106.691C21.9173 106.309 22.1651 106.005 22.4509 105.776C22.7368 105.528 23.1275 105.28 23.623 105.033C24.1185 104.785 24.5378 104.604 24.8808 104.489C25.2429 104.356 25.7098 104.194 26.2816 104.003C26.8533 103.813 27.2535 103.67 27.4822 103.575C27.6537 103.518 27.7395 103.375 27.7395 103.146V101.002C27.7395 100.392 27.5489 99.9251 27.1678 99.6011C26.7866 99.2581 26.3292 99.0866 25.7956 99.0866C25.2239 99.0866 24.7474 99.2867 24.3663 99.6869C23.9851 100.068 23.7945 100.573 23.7945 101.202C23.7945 101.869 23.4038 102.203 22.6225 102.203C22.0888 102.203 21.7172 102.021 21.5076 101.659C21.5076 100.84 22.1079 100.03 23.3086 99.2295C24.5092 98.41 25.7289 98.0003 26.9677 98.0003ZM44.8058 100.716V106.433C44.8058 107.253 44.8725 107.977 45.0059 108.606C45.044 108.739 45.1489 108.844 45.3204 108.92C45.4919 108.997 45.6729 109.044 45.8635 109.063C46.0541 109.082 46.2447 109.092 46.4353 109.092L46.6925 109.121C46.7497 109.14 46.7783 109.244 46.7783 109.435C46.7783 109.492 46.7497 109.587 46.6925 109.721C46.6544 109.835 46.6068 109.892 46.5496 109.892C46.2637 109.911 45.9398 109.95 45.5777 110.007C45.2346 110.064 44.9106 110.131 44.6057 110.207C44.3008 110.283 44.0149 110.359 43.7481 110.436C43.4813 110.512 43.2717 110.578 43.1192 110.636L42.8619 110.693C42.7094 110.693 42.6332 110.54 42.6332 110.235V108.777L42.576 108.635C41.3182 109.988 40.0699 110.664 38.8312 110.664C38.126 110.664 37.5162 110.493 37.0016 110.15C36.5061 109.788 36.1345 109.321 35.8867 108.749C35.658 108.158 35.4961 107.596 35.4008 107.062C35.3055 106.51 35.2578 105.938 35.2578 105.347V101.745C35.2578 101.002 35.1244 100.487 34.8576 100.201C34.667 99.9728 34.4288 99.8203 34.1429 99.7441C33.8761 99.6488 33.6474 99.6011 33.4569 99.6011C33.2853 99.6011 33.1996 99.5821 33.1996 99.544C33.1996 99.0866 33.2568 98.8483 33.3711 98.8293C35.3912 98.5244 36.7062 98.2766 37.3161 98.086C37.3351 98.086 37.3637 98.086 37.4018 98.086C37.44 98.067 37.459 98.0574 37.459 98.0574C37.5352 98.0574 37.5829 98.1432 37.6019 98.3147C37.621 98.4672 37.621 98.5815 37.6019 98.6578C37.4876 99.5725 37.4304 100.278 37.4304 100.773V104.632C37.4304 106.1 37.6496 107.186 38.0879 107.891C38.5262 108.577 39.2409 108.92 40.2319 108.92C40.8037 108.92 41.3468 108.701 41.8614 108.263C42.3759 107.806 42.6332 107.415 42.6332 107.091V101.745C42.6332 101.002 42.4998 100.487 42.233 100.201C42.0424 99.9728 41.8042 99.8203 41.5183 99.7441C41.2515 99.6488 41.0228 99.6011 40.8322 99.6011C40.6607 99.6011 40.575 99.5821 40.575 99.544C40.575 99.0866 40.6321 98.8483 40.7465 98.8293C42.7666 98.5244 44.0816 98.2766 44.6915 98.086C44.7105 98.086 44.7391 98.086 44.7772 98.086C44.8153 98.067 44.8344 98.0574 44.8344 98.0574C44.9106 98.0574 44.9583 98.1432 44.9773 98.3147C44.9964 98.4672 44.9964 98.5815 44.9773 98.6578C44.863 99.5725 44.8058 100.259 44.8058 100.716ZM49.637 107.148V94.77C49.637 94.122 49.5798 93.5121 49.4655 92.9404C49.3702 92.6355 48.8842 92.483 48.0075 92.483H47.7503C47.6359 92.483 47.5787 92.3782 47.5787 92.1686C47.5787 91.8636 47.6359 91.7112 47.7503 91.7112C48.322 91.654 48.8461 91.5778 49.3225 91.4825C49.818 91.3872 50.1992 91.2919 50.466 91.1966C50.7519 91.1013 50.9901 91.0156 51.1807 90.9393C51.3712 90.844 51.5142 90.7678 51.6095 90.7106L51.7238 90.6249H51.781C51.8572 90.6249 51.9335 90.6821 52.0097 90.7964C52.0859 90.8917 52.1336 90.987 52.1526 91.0823C51.943 91.6921 51.8382 92.5211 51.8382 93.5693V106.605C51.8382 107.71 51.9144 108.558 52.0669 109.149C52.105 109.283 52.3527 109.416 52.8101 109.549C53.2675 109.664 53.5915 109.721 53.7821 109.721C53.8392 109.721 53.8774 109.835 53.8964 110.064C53.9155 110.293 53.9059 110.455 53.8678 110.55C51.962 110.455 50.9424 110.407 50.809 110.407C50.6947 110.407 49.656 110.455 47.6931 110.55C47.6168 110.474 47.5787 110.321 47.5787 110.092C47.5787 109.845 47.6168 109.721 47.6931 109.721C47.9218 109.721 48.2553 109.664 48.6936 109.549C49.151 109.416 49.3988 109.283 49.4369 109.149C49.5703 108.596 49.637 107.929 49.637 107.148ZM58.3274 108.635C58.6513 108.901 59.0706 109.035 59.5852 109.035C60.0997 109.035 60.5952 108.882 61.0717 108.577C61.5481 108.253 61.7864 107.929 61.7864 107.605V104.661C61.6339 104.737 61.2623 104.871 60.6715 105.061C60.0807 105.252 59.6138 105.423 59.2707 105.576C58.9467 105.709 58.6228 105.947 58.2988 106.29C57.9939 106.614 57.8414 106.996 57.8414 107.434C57.8414 107.948 58.0034 108.349 58.3274 108.635ZM61.0145 98.0003C62.0627 98.0003 62.8155 98.2576 63.2729 98.7721C63.7303 99.2676 63.959 100.078 63.959 101.202V107.806C63.959 108.206 64.0638 108.539 64.2734 108.806C64.4831 109.073 64.7689 109.206 65.131 109.206C65.3978 109.206 65.7313 109.073 66.1316 108.806C66.2078 108.806 66.2459 108.882 66.2459 109.035C66.2459 109.283 66.1983 109.483 66.103 109.635C65.3216 110.302 64.6546 110.636 64.1019 110.636C63.6636 110.636 63.2443 110.455 62.8441 110.092C62.4439 109.73 62.1675 109.349 62.0151 108.949C61.996 108.949 61.9198 109.016 61.7864 109.149C61.672 109.263 61.51 109.406 61.3004 109.578C61.0908 109.73 60.843 109.892 60.5571 110.064C60.2903 110.235 59.9663 110.378 59.5852 110.493C59.2231 110.607 58.8515 110.664 58.4703 110.664C57.5936 110.664 56.8694 110.436 56.2977 109.978C55.726 109.502 55.4401 108.797 55.4401 107.863C55.4401 107.443 55.5449 107.053 55.7546 106.691C55.9642 106.309 56.2119 106.005 56.4978 105.776C56.7837 105.528 57.1744 105.28 57.6699 105.033C58.1654 104.785 58.5846 104.604 58.9277 104.489C59.2898 104.356 59.7567 104.194 60.3284 104.003C60.9002 103.813 61.3004 103.67 61.5291 103.575C61.7006 103.518 61.7864 103.375 61.7864 103.146V101.002C61.7864 100.392 61.5958 99.9251 61.2146 99.6011C60.8335 99.2581 60.3761 99.0866 59.8425 99.0866C59.2707 99.0866 58.7943 99.2867 58.4131 99.6869C58.032 100.068 57.8414 100.573 57.8414 101.202C57.8414 101.869 57.4507 102.203 56.6693 102.203C56.1357 102.203 55.7641 102.021 55.5544 101.659C55.5544 100.84 56.1548 100.03 57.3554 99.2295C58.5561 98.41 59.7758 98.0003 61.0145 98.0003ZM91.0878 105.233C91.0878 105.442 90.9544 106.176 90.6876 107.434C90.4208 108.673 90.2302 109.321 90.1159 109.378C88.7246 110.216 86.4472 110.636 83.2836 110.636C80.768 110.636 78.624 109.711 76.8516 107.863C75.0983 106.014 74.2216 103.813 74.2216 101.259C74.2216 98.5529 75.1269 96.2374 76.9374 94.3126C78.7479 92.3687 80.9681 91.3967 83.5981 91.3967C85.8469 91.3967 88.1624 91.6349 90.5447 92.1114C90.5066 94.6651 90.4875 96.0373 90.4875 96.2279C90.4875 96.5138 90.2874 96.6567 89.8872 96.6567C89.6966 96.6567 89.5727 96.609 89.5155 96.5138C89.4584 96.266 89.3821 96.0183 89.2868 95.7705C89.2106 95.5037 89.0296 95.1702 88.7437 94.77C88.4769 94.3507 88.1434 93.9981 87.7432 93.7123C87.362 93.4073 86.8093 93.15 86.0851 92.9404C85.38 92.7117 84.5796 92.5974 83.6838 92.5974C81.8162 92.5974 80.2248 93.4264 78.9098 95.0844C77.5949 96.7234 76.9374 98.5815 76.9374 100.659C76.9374 102.203 77.2042 103.622 77.7378 104.918C78.2714 106.214 79.11 107.291 80.2534 108.149C81.416 108.987 82.7881 109.406 84.3699 109.406C86.2566 109.406 87.7146 108.854 88.7437 107.748C89.0105 107.462 89.2392 107.091 89.4298 106.633C89.6394 106.157 89.7919 105.766 89.8872 105.461C90.0015 105.137 90.0873 104.975 90.1445 104.975C90.2588 104.975 90.3922 104.995 90.5447 105.033C90.7162 105.071 90.8496 105.109 90.9449 105.147L91.0878 105.233ZM95.7189 108.635C96.0429 108.901 96.4621 109.035 96.9767 109.035C97.4913 109.035 97.9868 108.882 98.4632 108.577C98.9397 108.253 99.1779 107.929 99.1779 107.605V104.661C99.0254 104.737 98.6538 104.871 98.063 105.061C97.4722 105.252 97.0053 105.423 96.6622 105.576C96.3383 105.709 96.0143 105.947 95.6903 106.29C95.3854 106.614 95.2329 106.996 95.2329 107.434C95.2329 107.948 95.3949 108.349 95.7189 108.635ZM98.406 98.0003C99.4542 98.0003 100.207 98.2576 100.664 98.7721C101.122 99.2676 101.35 100.078 101.35 101.202V107.806C101.35 108.206 101.455 108.539 101.665 108.806C101.875 109.073 102.16 109.206 102.523 109.206C102.789 109.206 103.123 109.073 103.523 108.806C103.599 108.806 103.637 108.882 103.637 109.035C103.637 109.283 103.59 109.483 103.494 109.635C102.713 110.302 102.046 110.636 101.493 110.636C101.055 110.636 100.636 110.455 100.236 110.092C99.8354 109.73 99.559 109.349 99.4066 108.949C99.3875 108.949 99.3113 109.016 99.1779 109.149C99.0635 109.263 98.9015 109.406 98.6919 109.578C98.4823 109.73 98.2345 109.892 97.9486 110.064C97.6818 110.235 97.3579 110.378 96.9767 110.493C96.6146 110.607 96.243 110.664 95.8618 110.664C94.9852 110.664 94.261 110.436 93.6892 109.978C93.1175 109.502 92.8316 108.797 92.8316 107.863C92.8316 107.443 92.9364 107.053 93.1461 106.691C93.3557 106.309 93.6035 106.005 93.8893 105.776C94.1752 105.528 94.5659 105.28 95.0614 105.033C95.5569 104.785 95.9762 104.604 96.3192 104.489C96.6813 104.356 97.1482 104.194 97.72 104.003C98.2917 103.813 98.6919 103.67 98.9206 103.575C99.0921 103.518 99.1779 103.375 99.1779 103.146V101.002C99.1779 100.392 98.9873 99.9251 98.6061 99.6011C98.225 99.2581 97.7676 99.0866 97.234 99.0866C96.6622 99.0866 96.1858 99.2867 95.8046 99.6869C95.4235 100.068 95.2329 100.573 95.2329 101.202C95.2329 101.869 94.8422 102.203 94.0608 102.203C93.5272 102.203 93.1556 102.021 92.946 101.659C92.946 100.84 93.5463 100.03 94.7469 99.2295C95.9476 98.41 97.1673 98.0003 98.406 98.0003ZM112.185 97.9717C113.309 97.9717 114.053 98.248 114.415 98.8007C114.415 99.4677 114.31 99.9537 114.1 100.259C113.891 100.564 113.633 100.716 113.328 100.716C112.985 100.716 112.671 100.554 112.385 100.23C112.099 99.9061 111.708 99.7441 111.213 99.7441C110.622 99.7441 110.108 100.02 109.669 100.573C109.231 101.126 109.012 101.707 109.012 102.317V106.605C109.012 107.71 109.088 108.558 109.24 109.149C109.279 109.283 109.526 109.416 109.984 109.549C110.46 109.664 110.794 109.721 110.984 109.721C111.041 109.721 111.08 109.835 111.099 110.064C111.118 110.293 111.108 110.455 111.07 110.55C109.164 110.455 108.135 110.407 107.983 110.407C107.868 110.407 106.83 110.455 104.867 110.55C104.79 110.474 104.752 110.321 104.752 110.092C104.752 109.845 104.79 109.721 104.867 109.721C105.095 109.721 105.429 109.664 105.867 109.549C106.325 109.416 106.572 109.283 106.61 109.149C106.744 108.596 106.811 107.929 106.811 107.148V101.745C106.811 101.002 106.677 100.487 106.41 100.201C106.22 99.9728 105.982 99.8203 105.696 99.7441C105.429 99.6488 105.2 99.6011 105.01 99.6011C104.838 99.6011 104.752 99.5821 104.752 99.544C104.752 99.0866 104.809 98.8483 104.924 98.8293C106.944 98.5244 108.259 98.2766 108.869 98.086C108.888 98.086 108.916 98.086 108.955 98.086C108.993 98.067 109.012 98.0574 109.012 98.0574C109.088 98.0574 109.136 98.1432 109.155 98.3147C109.174 98.4672 109.174 98.5815 109.155 98.6578L108.983 100.087C109.326 99.5725 109.793 99.0961 110.384 98.6578C110.994 98.2004 111.594 97.9717 112.185 97.9717ZM123.048 97.9717C124.172 97.9717 124.916 98.248 125.278 98.8007C125.278 99.4677 125.173 99.9537 124.963 100.259C124.754 100.564 124.496 100.716 124.191 100.716C123.848 100.716 123.534 100.554 123.248 100.23C122.962 99.9061 122.571 99.7441 122.076 99.7441C121.485 99.7441 120.971 100.02 120.532 100.573C120.094 101.126 119.875 101.707 119.875 102.317V106.605C119.875 107.71 119.951 108.558 120.103 109.149C120.142 109.283 120.389 109.416 120.847 109.549C121.323 109.664 121.657 109.721 121.847 109.721C121.904 109.721 121.942 109.835 121.962 110.064C121.981 110.293 121.971 110.455 121.933 110.55C120.027 110.455 118.998 110.407 118.846 110.407C118.731 110.407 117.693 110.455 115.73 110.55C115.653 110.474 115.615 110.321 115.615 110.092C115.615 109.845 115.653 109.721 115.73 109.721C115.958 109.721 116.292 109.664 116.73 109.549C117.188 109.416 117.435 109.283 117.473 109.149C117.607 108.596 117.674 107.929 117.674 107.148V101.745C117.674 101.002 117.54 100.487 117.273 100.201C117.083 99.9728 116.845 99.8203 116.559 99.7441C116.292 99.6488 116.063 99.6011 115.873 99.6011C115.701 99.6011 115.615 99.5821 115.615 99.544C115.615 99.0866 115.672 98.8483 115.787 98.8293C117.807 98.5244 119.122 98.2766 119.732 98.086C119.751 98.086 119.779 98.086 119.818 98.086C119.856 98.067 119.875 98.0574 119.875 98.0574C119.951 98.0574 119.999 98.1432 120.018 98.3147C120.037 98.4672 120.037 98.5815 120.018 98.6578L119.846 100.087C120.189 99.5725 120.656 99.0961 121.247 98.6578C121.857 98.2004 122.457 97.9717 123.048 97.9717ZM132.481 99.0866C131.471 99.0866 130.642 99.5535 129.994 100.487C129.366 101.402 129.051 102.527 129.051 103.861C129.051 105.423 129.451 106.767 130.252 107.891C131.071 108.997 132.024 109.549 133.11 109.549C134.12 109.549 134.949 109.073 135.597 108.12C136.245 107.167 136.569 106.024 136.569 104.69C136.569 103.146 136.16 101.831 135.34 100.745C134.521 99.6392 133.568 99.0866 132.481 99.0866ZM132.796 97.9717C134.511 97.9717 135.979 98.5911 137.198 99.8298C138.418 101.069 139.028 102.555 139.028 104.289C139.028 106.043 138.428 107.548 137.227 108.806C136.045 110.045 134.587 110.664 132.853 110.664C131.119 110.664 129.642 110.045 128.422 108.806C127.202 107.548 126.593 106.043 126.593 104.289C126.593 102.517 127.183 101.021 128.365 99.8012C129.547 98.5815 131.024 97.9717 132.796 97.9717ZM142.601 107.148V94.77C142.601 94.122 142.544 93.5121 142.43 92.9404C142.334 92.6355 141.848 92.483 140.972 92.483H140.714C140.6 92.483 140.543 92.3782 140.543 92.1686C140.543 91.8636 140.6 91.7112 140.714 91.7112C141.286 91.654 141.81 91.5778 142.287 91.4825C142.782 91.3872 143.163 91.2919 143.43 91.1966C143.716 91.1013 143.954 91.0156 144.145 90.9393C144.335 90.844 144.478 90.7678 144.574 90.7106L144.688 90.6249H144.745C144.821 90.6249 144.898 90.6821 144.974 90.7964C145.05 90.8917 145.098 90.987 145.117 91.0823C144.907 91.6921 144.802 92.5211 144.802 93.5693V106.605C144.802 107.71 144.879 108.558 145.031 109.149C145.069 109.283 145.317 109.416 145.774 109.549C146.232 109.664 146.556 109.721 146.746 109.721C146.803 109.721 146.842 109.835 146.861 110.064C146.88 110.293 146.87 110.455 146.832 110.55C144.926 110.455 143.907 110.407 143.773 110.407C143.659 110.407 142.62 110.455 140.657 110.55C140.581 110.474 140.543 110.321 140.543 110.092C140.543 109.845 140.581 109.721 140.657 109.721C140.886 109.721 141.22 109.664 141.658 109.549C142.115 109.416 142.363 109.283 142.401 109.149C142.535 108.596 142.601 107.929 142.601 107.148Z" fill="#222222"/>
</svg>
