<svg width="467" height="215" viewBox="0 0 467 215" fill="none" xmlns="http://www.w3.org/2000/svg">
<g filter="url(#filter0_d_5223_1632)">
<rect x="40.5898" y="20.2424" width="353.279" height="76.7527" rx="10.3695" transform="rotate(2.22531 40.5898 20.2424)" fill="#42DA98"/>
<rect x="47.2812" y="14.5247" width="353.279" height="76.7527" rx="10.3695" transform="rotate(2.22531 47.2812 14.5247)" fill="#10A866"/>
<path d="M129.128 67.001L125.507 61.336L125.281 61.3277L121.286 61.1806L121.083 66.7049L116.494 66.5359L117.224 46.7053L125.807 47.0213C127.564 47.0859 129.073 47.4346 130.336 48.0674C131.618 48.7008 132.588 49.5687 133.247 50.6709C133.906 51.7732 134.209 53.0609 134.155 54.534C134.1 56.0071 133.695 57.2687 132.937 58.3188C132.2 59.3507 131.169 60.126 129.845 60.6446L134.058 67.1825L129.128 67.001ZM129.509 54.363C129.55 53.2487 129.222 52.3856 128.526 51.7737C127.83 51.1429 126.793 50.8021 125.415 50.7514L121.675 50.6137L121.421 57.5261L125.16 57.6638C126.539 57.7145 127.598 57.4509 128.338 56.873C129.078 56.295 129.468 55.4584 129.509 54.363ZM152.816 64.1852L152.68 67.868L137.326 67.3028L138.056 47.4722L153.042 48.0238L152.906 51.7067L142.481 51.3229L142.323 55.629L151.53 55.9679L151.398 59.5374L142.191 59.1985L142.022 63.7879L152.816 64.1852ZM161.516 52.0236L161.323 57.2645L170.501 57.6024L170.366 61.2853L161.187 60.9474L160.921 68.1714L156.332 68.0024L157.062 48.1718L172.048 48.7235L171.913 52.4063L161.516 52.0236ZM189.915 65.5509L189.78 69.2337L174.425 68.6685L175.155 48.8379L190.141 49.3895L190.006 53.0724L179.581 52.6886L179.422 56.9947L188.629 57.3336L188.498 60.9031L179.291 60.5642L179.122 65.1536L189.915 65.5509ZM206.066 69.8333L202.445 64.1682L202.218 64.1599L198.224 64.0128L198.021 69.5371L193.431 69.3681L194.161 49.5375L202.745 49.8535C204.502 49.9181 206.011 50.2669 207.274 50.8996C208.555 51.5331 209.526 52.4009 210.185 53.5031C210.844 54.6054 211.147 55.8931 211.092 57.3662C211.038 58.8393 210.632 60.101 209.875 61.1511C209.137 62.183 208.106 62.9582 206.782 63.4768L210.996 70.0147L206.066 69.8333ZM206.446 57.1952C206.487 56.0809 206.16 55.2178 205.464 54.6059C204.768 53.9751 203.731 53.6343 202.352 53.5836L198.613 53.4459L198.359 60.3583L202.098 60.496C203.477 60.5467 204.536 60.2831 205.276 59.7052C206.016 59.1273 206.406 58.2906 206.446 57.1952ZM235.503 66.6617L226.296 66.3228L224.383 70.5075L219.68 70.3344L229.249 50.8291L233.782 50.996L241.919 71.153L237.103 70.9758L235.503 66.6617ZM234.186 63.124L231.321 55.4159L227.897 62.8925L234.186 63.124ZM257.183 55.5453L256.99 60.7862L266.169 61.1241L266.033 64.8069L256.854 64.4691L256.589 71.6931L251.999 71.5241L252.729 51.6935L267.715 52.2452L267.58 55.928L257.183 55.5453ZM282.727 72.6553L279.106 66.9903L278.88 66.9819L274.885 66.8349L274.682 72.3591L270.092 72.1902L270.822 52.3595L279.406 52.6755C281.163 52.7402 282.672 53.0889 283.935 53.7216C285.217 54.3551 286.187 55.2229 286.846 56.3252C287.505 57.4274 287.808 58.7151 287.754 60.1882C287.699 61.6614 287.294 62.923 286.536 63.9731C285.798 65.005 284.768 65.7803 283.444 66.2989L287.657 72.8367L282.727 72.6553ZM283.107 60.0172C283.148 58.9029 282.821 58.0398 282.125 57.4279C281.429 56.7971 280.392 56.4564 279.014 56.4056L275.274 56.268L275.02 63.1804L278.759 63.318C280.138 63.3688 281.197 63.1052 281.937 62.5272C282.677 61.9493 283.067 61.1126 283.107 60.0172ZM291.655 53.1264L296.244 53.2953L295.514 73.126L290.925 72.957L291.655 53.1264ZM315.71 70.1816L315.575 73.8645L300.22 73.2992L300.95 53.4686L315.936 54.0203L315.801 57.7031L305.376 57.3193L305.217 61.6254L314.424 61.9643L314.293 65.5338L305.086 65.1949L304.917 69.7843L315.71 70.1816ZM338.144 54.8378L337.414 74.6684L333.646 74.5297L324.202 62.1257L323.759 74.1657L319.226 73.9989L319.956 54.1682L323.752 54.308L333.168 66.7109L333.611 54.6709L338.144 54.8378ZM342.836 55.0105L351.844 55.3421C353.998 55.4214 355.88 55.9067 357.493 56.7982C359.125 57.6715 360.367 58.8709 361.218 60.3962C362.089 61.9223 362.488 63.6769 362.415 65.66C362.342 67.643 361.815 69.3635 360.835 70.8215C359.873 72.2801 358.546 73.3944 356.854 74.1642C355.181 74.9158 353.268 75.252 351.114 75.1727L342.106 74.8411L342.836 55.0105ZM351.027 71.3966C353.01 71.4696 354.607 70.9799 355.818 69.9276C357.049 68.8571 357.699 67.3776 357.769 65.4889C357.838 63.6003 357.298 62.0864 356.149 60.9472C355.019 59.7898 353.462 59.1746 351.479 59.1016L347.286 58.9472L346.834 71.2422L351.027 71.3966Z" fill="white"/>
<path d="M105.292 55.9283C105.717 55.4889 105.706 54.7876 105.267 54.3619L91.8768 41.3885C91.1681 40.7018 89.9829 41.2148 89.9984 42.2015L90.0994 48.588C76.6149 50.7323 69.8173 59.3553 66.8122 68.8904C66.4534 70.0288 68.0169 70.769 68.8576 69.9217C74.1102 64.6281 81.0572 62.0984 90.3106 61.9521L90.4151 68.5651C90.4307 69.5518 91.6316 70.0272 92.3183 69.3184L105.292 55.9283Z" fill="white"/>
<path d="M412.741 100.482C410.598 100.772 409.878 102.149 409.231 102.924C407.959 101.157 407.828 100.029 404.816 100.31C401.804 100.591 401.431 103.069 400.784 103.845C399.512 102.078 399.295 100.05 396.59 100.459C393.884 100.868 394.445 104.511 393.828 105.163L390.354 93.7787C389.534 90.9851 386.596 89.3796 383.803 90.1989C381.009 91.0183 379.403 93.9564 380.223 96.7499L388.907 126.359L380.923 124.919C379.721 124.702 378.465 124.771 377.292 125.115C374.623 125.898 373.628 129.463 374.415 132.145C374.795 133.439 375.654 134.505 376.837 135.151C376.837 135.151 388.749 143.526 397.095 147.84C405.441 152.154 410.548 152.331 415.785 150.795C424.862 148.133 427.323 135.427 424.661 126.349C424.661 126.349 420.161 109.37 418.347 104.822C416.533 100.274 414.884 100.191 412.741 100.482Z" fill="#42DA98"/>
<path d="M415.969 98.4522C413.826 98.7432 413.106 100.119 412.458 100.895C411.187 99.1281 411.056 97.9992 408.043 98.2804C405.031 98.5615 404.658 101.04 404.011 101.816C402.739 100.049 402.523 98.021 399.817 98.4296C397.112 98.8383 397.673 102.482 397.055 103.133L393.581 91.7494C392.762 88.9558 389.824 87.3503 387.03 88.1697C384.236 88.989 382.631 91.9271 383.45 94.7206L392.135 124.33L384.151 122.89C382.949 122.673 381.693 122.741 380.52 123.085C377.851 123.868 376.319 126.675 377.106 129.357C377.485 130.651 378.345 131.716 379.528 132.362L400.707 143.935C405.493 146.553 411.017 147.147 416.255 145.611C425.332 142.949 430.551 133.397 427.889 124.32C427.889 124.32 423.388 107.341 421.575 102.793C419.761 98.2444 418.112 98.1613 415.969 98.4522Z" fill="#22B575"/>
</g>
<defs>
<filter id="filter0_d_5223_1632" x="0.0923653" y="2.28225" width="466.403" height="212.578" filterUnits="userSpaceOnUse" color-interpolation-filters="sRGB">
<feFlood flood-opacity="0" result="BackgroundImageFix"/>
<feColorMatrix in="SourceAlpha" type="matrix" values="0 0 0 0 0 0 0 0 0 0 0 0 0 0 0 0 0 0 127 0" result="hardAlpha"/>
<feOffset dy="25.2744"/>
<feGaussianBlur stdDeviation="18.9558"/>
<feComposite in2="hardAlpha" operator="out"/>
<feColorMatrix type="matrix" values="0 0 0 0 0.133681 0 0 0 0 0.699653 0 0 0 0 0.340478 0 0 0 0.48 0"/>
<feBlend mode="normal" in2="BackgroundImageFix" result="effect1_dropShadow_5223_1632"/>
<feBlend mode="normal" in="SourceGraphic" in2="effect1_dropShadow_5223_1632" result="shape"/>
</filter>
</defs>
</svg>
