<svg width="102" height="139" viewBox="0 0 102 139" fill="none" xmlns="http://www.w3.org/2000/svg">
<path fill-rule="evenodd" clip-rule="evenodd" d="M78.9801 60.9091C77.0691 64.3102 73.9484 66.8204 70.2724 67.9132C70.7978 66.0634 71.0661 64.1468 71.0693 62.2201C71.0693 52.6249 64.6216 44.577 55.9668 42.3856C57.7609 40.5859 59.9762 39.2899 62.3997 38.622C64.2689 38.1002 66.2208 37.9657 68.1413 38.2265C70.0617 38.4872 71.9122 39.138 73.5846 40.1407C80.6237 44.3332 83.0437 53.6492 78.9801 60.9091ZM51.2493 77.4226C47.3992 77.4226 43.737 75.8452 41.0198 73.1518C42.8346 72.6947 44.5765 71.9746 46.1929 71.013C54.2468 66.2169 57.7799 56.4382 55.2976 47.6136C61.4605 49.4348 65.9894 55.2867 65.9894 62.2201C65.9894 70.6014 59.3759 77.4226 51.2493 77.4226ZM23.5171 60.9091C21.5924 57.4699 21.0942 53.4181 21.9938 49.6493C23.2846 51.0336 24.7585 52.2252 26.3722 53.1893C29.3711 54.9809 32.7797 55.9246 36.2503 55.9242C38.9282 55.9218 41.5779 55.3635 44.0398 54.2827C46.5017 53.202 48.7247 51.6212 50.575 49.6357C52.1211 56.0476 49.4707 63.0095 43.6533 66.4743C41.4234 67.8065 38.8889 68.5081 36.3083 68.5077C33.7125 68.5088 31.1624 67.8067 28.9162 66.4724C26.6699 65.138 24.8072 63.2189 23.5164 60.9091H23.5171ZM23.5164 27.8822C25.4275 24.481 28.5485 21.9708 32.2248 20.8781C31.6982 22.7282 31.4295 24.6454 31.4265 26.5727C31.4265 36.1626 37.8712 44.2083 46.5216 46.4035C41.9106 50.9986 34.7328 52.1169 28.9126 48.6506C25.502 46.6187 23.0637 43.3413 22.0444 39.4182C21.538 37.4906 21.4074 35.4794 21.6599 33.4998C21.9125 31.5203 22.5434 29.6113 23.5164 27.8822ZM51.2493 11.3687C55.1009 11.3687 58.7595 12.9446 61.4745 15.6358C59.6613 16.0967 57.9207 16.818 56.3043 17.7783C51.7182 20.5101 48.4382 24.9179 47.069 30.1933C46.1306 33.7974 46.1738 37.5963 47.1938 41.177C41.0338 39.3543 36.5086 33.5031 36.5086 26.5727C36.5086 18.1892 43.1206 11.3687 51.2493 11.3687ZM78.9801 27.8822C80.907 31.3259 81.4059 35.3822 80.5005 39.1556C79.213 37.7653 77.7401 36.5689 76.1257 35.602C71.5396 32.8724 66.1985 32.147 61.0834 33.5603C57.5821 34.5277 54.4098 36.469 51.9171 39.1699C51.3059 36.6657 51.3266 34.0431 51.9772 31.5494C52.995 27.6271 55.434 24.3482 58.8446 22.317C62.2545 20.2874 66.2264 19.7478 70.0295 20.7983C73.8327 21.8497 77.0106 24.3655 78.9801 27.8822ZM83.3805 25.2633C80.733 20.5334 76.4588 17.1507 71.3437 15.7374C70.1346 15.405 68.8976 15.1903 67.6492 15.0962C63.9803 9.53175 57.8217 6.12866 51.2493 6.12866C44.4421 6.12866 38.4274 9.68753 34.8569 15.0939C28.3461 15.5876 22.4047 19.388 19.1174 25.2618C16.4685 29.9909 15.7663 35.5011 17.1355 40.7766C17.4613 42.0224 17.8998 43.2343 18.4453 44.3964C15.6078 50.4568 15.8294 57.6588 19.116 63.5303C22.5192 69.6095 28.5127 73.1985 34.8363 73.6861C38.5052 79.2551 44.6762 82.6642 51.2486 82.6642C58.0551 82.6642 64.0698 79.1046 67.6396 73.6974C74.1504 73.2037 80.0917 69.4048 83.3798 63.5303C86.7837 57.4496 86.8013 50.298 84.0468 44.4062C86.8879 38.3428 86.6678 31.1378 83.3798 25.2633" fill="#0092FF"/>
<path d="M13.4541 114.439C12.5897 114.439 11.8375 114.282 11.1976 113.968C10.5577 113.653 10.0637 113.215 9.71569 112.654C9.36767 112.093 9.19366 111.442 9.19366 110.701H10.6756C10.6756 111.161 10.7822 111.587 10.9955 111.98C11.2088 112.362 11.5175 112.671 11.9217 112.907C12.3371 113.131 12.8479 113.243 13.4541 113.243C14.2512 113.243 14.8686 113.053 15.3065 112.671C15.7443 112.289 15.9632 111.812 15.9632 111.239C15.9632 110.768 15.8622 110.392 15.6601 110.111C15.458 109.819 15.183 109.584 14.835 109.404C14.4982 109.224 14.1052 109.067 13.6562 108.932C13.2184 108.798 12.7581 108.646 12.2753 108.478C11.366 108.163 10.6924 107.776 10.2546 107.316C9.81673 106.844 9.59781 106.232 9.59781 105.48C9.58658 104.852 9.73253 104.296 10.0356 103.813C10.3388 103.319 10.7654 102.937 11.3155 102.668C11.8768 102.387 12.5392 102.247 13.3026 102.247C14.0547 102.247 14.7059 102.387 15.256 102.668C15.8173 102.949 16.2495 103.336 16.5526 103.83C16.867 104.324 17.0297 104.885 17.041 105.514H15.5591C15.5591 105.188 15.4749 104.868 15.3065 104.554C15.1381 104.229 14.8799 103.965 14.5319 103.763C14.1951 103.561 13.7685 103.46 13.252 103.46C12.6121 103.448 12.0845 103.611 11.6691 103.948C11.2649 104.285 11.0629 104.751 11.0629 105.346C11.0629 105.851 11.2032 106.238 11.4839 106.508C11.7758 106.777 12.1799 107.001 12.6963 107.181C13.2127 107.349 13.8077 107.546 14.4813 107.77C15.0427 107.973 15.5479 108.208 15.9969 108.478C16.446 108.747 16.794 109.095 17.041 109.522C17.2992 109.948 17.4283 110.493 17.4283 111.155C17.4283 111.717 17.2823 112.25 16.9905 112.755C16.6986 113.249 16.2551 113.653 15.6601 113.968C15.0763 114.282 14.341 114.439 13.4541 114.439ZM22.7686 114.439C21.9715 114.439 21.2642 114.259 20.6468 113.9C20.0293 113.53 19.541 113.019 19.1817 112.368C18.8337 111.717 18.6597 110.948 18.6597 110.061C18.6597 109.185 18.8337 108.422 19.1817 107.77C19.5297 107.108 20.0125 106.597 20.6299 106.238C21.2586 105.868 21.9827 105.682 22.8023 105.682C23.6106 105.682 24.3066 105.868 24.8904 106.238C25.4854 106.597 25.9401 107.074 26.2544 107.669C26.5688 108.264 26.7259 108.904 26.7259 109.589C26.7259 109.713 26.7203 109.836 26.7091 109.96C26.7091 110.083 26.7091 110.223 26.7091 110.381H20.0574C20.0911 111.021 20.237 111.554 20.4952 111.98C20.7647 112.396 21.0958 112.71 21.4888 112.923C21.8929 113.137 22.3195 113.243 22.7686 113.243C23.3524 113.243 23.8407 113.109 24.2336 112.839C24.6266 112.57 24.9128 112.205 25.0925 111.745H26.4902C26.2656 112.519 25.8334 113.165 25.1935 113.681C24.5648 114.186 23.7565 114.439 22.7686 114.439ZM22.7686 106.878C22.095 106.878 21.4944 107.086 20.9667 107.501C20.4503 107.905 20.1528 108.5 20.0742 109.286H25.3282C25.2945 108.534 25.0363 107.944 24.5536 107.518C24.0709 107.091 23.4759 106.878 22.7686 106.878ZM28.264 114.237V105.884H29.5438L29.628 107.383C29.8975 106.856 30.2848 106.44 30.79 106.137C31.2952 105.834 31.8677 105.682 32.5076 105.682C33.4955 105.682 34.2814 105.985 34.8652 106.592C35.4602 107.187 35.7577 108.107 35.7577 109.353V114.237H34.3431V109.505C34.3431 107.765 33.6246 106.895 32.1877 106.895C31.4692 106.895 30.8685 107.159 30.3858 107.686C29.9143 108.203 29.6785 108.944 29.6785 109.909V114.237H28.264ZM41.3529 114.439C40.5222 114.439 39.7925 114.248 39.1638 113.866C38.5463 113.485 38.0636 112.963 37.7156 112.3C37.3788 111.638 37.2104 110.886 37.2104 110.044C37.2104 109.202 37.3844 108.455 37.7324 107.804C38.0804 107.142 38.5632 106.625 39.1806 106.255C39.7981 105.873 40.5278 105.682 41.3698 105.682C42.0546 105.682 42.6608 105.823 43.1885 106.103C43.7161 106.384 44.1259 106.777 44.4178 107.282V102.112H45.8323V114.237H44.5525L44.4178 112.856C44.1483 113.26 43.761 113.625 43.2558 113.951C42.7506 114.276 42.1163 114.439 41.3529 114.439ZM41.5045 113.21C42.0658 113.21 42.5598 113.081 42.9864 112.822C43.4242 112.553 43.761 112.182 43.9968 111.711C44.2438 111.239 44.3673 110.689 44.3673 110.061C44.3673 109.432 44.2438 108.882 43.9968 108.41C43.761 107.939 43.4242 107.574 42.9864 107.316C42.5598 107.046 42.0658 106.912 41.5045 106.912C40.9544 106.912 40.4604 107.046 40.0226 107.316C39.596 107.574 39.2592 107.939 39.0122 108.41C38.7765 108.882 38.6586 109.432 38.6586 110.061C38.6586 110.689 38.7765 111.239 39.0122 111.711C39.2592 112.182 39.596 112.553 40.0226 112.822C40.4604 113.081 40.9544 113.21 41.5045 113.21ZM48.6602 104.032C48.3795 104.032 48.1438 103.942 47.9529 103.763C47.7733 103.572 47.6835 103.336 47.6835 103.055C47.6835 102.786 47.7733 102.561 47.9529 102.382C48.1438 102.202 48.3795 102.112 48.6602 102.112C48.9296 102.112 49.1598 102.202 49.3506 102.382C49.5415 102.561 49.6369 102.786 49.6369 103.055C49.6369 103.336 49.5415 103.572 49.3506 103.763C49.1598 103.942 48.9296 104.032 48.6602 104.032ZM47.9529 114.237V105.884H49.3675V114.237H47.9529ZM51.4936 114.237V105.884H52.7734L52.8576 107.383C53.1271 106.856 53.5144 106.44 54.0196 106.137C54.5248 105.834 55.0973 105.682 55.7372 105.682C56.7252 105.682 57.511 105.985 58.0948 106.592C58.6898 107.187 58.9873 108.107 58.9873 109.353V114.237H57.5728V109.505C57.5728 107.765 56.8543 106.895 55.4173 106.895C54.6988 106.895 54.0982 107.159 53.6154 107.686C53.1439 108.203 52.9082 108.944 52.9082 109.909V114.237H51.4936ZM65.2562 114.439C64.5713 114.439 63.9595 114.299 63.4206 114.018C62.893 113.737 62.4888 113.344 62.2082 112.839L62.0734 114.237H60.7936V102.112H62.2082V107.265C62.4776 106.861 62.8593 106.496 63.3533 106.171C63.8585 105.845 64.4984 105.682 65.273 105.682C66.1038 105.682 66.8279 105.873 67.4453 106.255C68.0628 106.637 68.5399 107.159 68.8767 107.821C69.2247 108.483 69.3987 109.236 69.3987 110.078C69.3987 110.92 69.2247 111.672 68.8767 112.334C68.5399 112.985 68.0572 113.502 67.4285 113.883C66.811 114.254 66.0869 114.439 65.2562 114.439ZM65.1046 113.21C65.6659 113.21 66.1599 113.081 66.5865 112.822C67.0131 112.553 67.3499 112.182 67.5969 111.711C67.8439 111.239 67.9674 110.689 67.9674 110.061C67.9674 109.432 67.8439 108.882 67.5969 108.41C67.3499 107.939 67.0131 107.574 66.5865 107.316C66.1599 107.046 65.6659 106.912 65.1046 106.912C64.5433 106.912 64.0493 107.046 63.6227 107.316C63.1961 107.574 62.8593 107.939 62.6123 108.41C62.3653 108.882 62.2418 109.432 62.2418 110.061C62.2418 110.689 62.3653 111.239 62.6123 111.711C62.8593 112.182 63.1961 112.553 63.6227 112.822C64.0493 113.081 64.5433 113.21 65.1046 113.21ZM71.031 114.237V102.112H72.4455V114.237H71.031ZM77.4752 114.439C76.4873 114.439 75.7014 114.142 75.1177 113.547C74.5339 112.94 74.242 112.014 74.242 110.768V105.884H75.6565V110.616C75.6565 112.357 76.3694 113.227 77.7952 113.227C78.5249 113.227 79.1255 112.968 79.597 112.452C80.0798 111.924 80.3211 111.178 80.3211 110.212V105.884H81.7357V114.237H80.4559L80.3548 112.738C80.0966 113.266 79.7093 113.681 79.1929 113.984C78.6877 114.287 78.1151 114.439 77.4752 114.439ZM87.4825 114.439C86.6854 114.439 85.9781 114.259 85.3607 113.9C84.7432 113.53 84.2549 113.019 83.8956 112.368C83.5476 111.717 83.3736 110.948 83.3736 110.061C83.3736 109.185 83.5476 108.422 83.8956 107.77C84.2437 107.108 84.7264 106.597 85.3438 106.238C85.9725 105.868 86.6966 105.682 87.5162 105.682C88.3245 105.682 89.0205 105.868 89.6043 106.238C90.1993 106.597 90.654 107.074 90.9683 107.669C91.2827 108.264 91.4398 108.904 91.4398 109.589C91.4398 109.713 91.4342 109.836 91.423 109.96C91.423 110.083 91.423 110.223 91.423 110.381H84.7713C84.805 111.021 84.9509 111.554 85.2091 111.98C85.4786 112.396 85.8097 112.71 86.2027 112.923C86.6068 113.137 87.0334 113.243 87.4825 113.243C88.0663 113.243 88.5546 113.109 88.9476 112.839C89.3405 112.57 89.6268 112.205 89.8064 111.745H91.2041C90.9795 112.519 90.5473 113.165 89.9074 113.681C89.2787 114.186 88.4704 114.439 87.4825 114.439ZM87.4825 106.878C86.8089 106.878 86.2083 107.086 85.6806 107.501C85.1642 107.905 84.8667 108.5 84.7881 109.286H90.0421C90.0085 108.534 89.7502 107.944 89.2675 107.518C88.7848 107.091 88.1898 106.878 87.4825 106.878Z" fill="#5D616B"/>
</svg>
