<svg width="102" height="139" viewBox="0 0 102 139" fill="none" xmlns="http://www.w3.org/2000/svg">
<rect x="7.64844" y="0.910278" width="86.9722" height="86.9722" rx="8.69722" fill="white"/>
<rect x="7.64844" y="0.910278" width="86.9722" height="86.9722" rx="8.69722" fill="#FFC828"/>
<path fill-rule="evenodd" clip-rule="evenodd" d="M30.1475 23.4095H73.0373V66.2994H30.1475V23.4095Z" fill="white"/>
<path d="M7.64844 14.2705C7.64844 6.89117 13.6346 0.910278 21.0087 0.910278H81.2614C88.639 0.910278 94.6208 6.8964 94.6208 14.2705V74.5232C94.6208 81.9008 88.6355 87.8826 81.2614 87.8826H21.0078C13.6311 87.8826 7.64844 81.8973 7.64844 74.5232V14.2696V14.2705ZM66.2002 36.0659H63.5785C63.0563 36.0659 62.6082 36.2525 62.2306 36.6309C61.8889 36.9753 61.6744 37.3807 61.6613 37.8427C61.6543 38.1261 61.6142 39.7835 61.521 40.8297C61.2376 43.8637 60.2324 46.3049 58.507 48.1515C56.7955 49.9876 54.3744 50.9092 51.2445 50.9249C48.1101 50.91 45.6881 49.9885 43.975 48.1524C42.2496 46.3041 41.2443 43.8646 40.961 40.8297C40.8677 39.7835 40.8276 38.127 40.8206 37.8436C40.8075 37.3807 40.5939 36.9752 40.2513 36.6317C40.0775 36.4498 39.8682 36.3056 39.6363 36.2081C39.4044 36.1106 39.1549 36.0619 38.9034 36.065H36.2818C36.03 36.0621 35.7803 36.1109 35.5481 36.2084C35.316 36.3059 35.1063 36.4499 34.9321 36.6317C34.5912 36.9752 34.3663 37.3153 34.3663 37.9125C34.3663 37.9125 34.4587 40.6388 34.5084 41.1819C34.933 46.0207 36.5991 49.8708 39.5085 52.7383C42.3891 55.5805 46.2801 57.013 51.1825 57.0391L51.2994 57.04C56.2018 57.0139 60.0929 55.5805 62.9735 52.7383C65.8828 49.8708 67.5489 46.0198 67.9735 41.1828C68.0232 40.6388 68.1156 37.9125 68.1156 37.9125C68.1156 37.3153 67.8907 36.9753 67.5498 36.6309C67.3755 36.4494 67.1657 36.3056 66.9336 36.2084C66.7014 36.1113 66.4518 36.0628 66.2002 36.0659Z" fill="#FFC828"/>
<path d="M35.2969 114.439C34.4325 114.439 33.6803 114.282 33.0404 113.968C32.4005 113.653 31.9065 113.215 31.5585 112.654C31.2105 112.093 31.0365 111.442 31.0365 110.701H32.5184C32.5184 111.161 32.625 111.587 32.8383 111.98C33.0516 112.362 33.3604 112.671 33.7645 112.907C34.1799 113.131 34.6907 113.243 35.2969 113.243C36.094 113.243 36.7115 113.053 37.1493 112.671C37.5871 112.289 37.8061 111.812 37.8061 111.239C37.8061 110.768 37.705 110.392 37.503 110.111C37.3009 109.819 37.0258 109.584 36.6778 109.404C36.341 109.224 35.9481 109.067 35.499 108.932C35.0612 108.798 34.6009 108.646 34.1182 108.478C33.2088 108.163 32.5352 107.776 32.0974 107.316C31.6596 106.844 31.4406 106.232 31.4406 105.48C31.4294 104.852 31.5754 104.296 31.8785 103.813C32.1816 103.319 32.6082 102.937 33.1583 102.668C33.7196 102.387 34.382 102.247 35.1454 102.247C35.8976 102.247 36.5487 102.387 37.0988 102.668C37.6601 102.949 38.0923 103.336 38.3955 103.83C38.7098 104.324 38.8726 104.885 38.8838 105.514H37.4019C37.4019 105.188 37.3177 104.868 37.1493 104.554C36.9809 104.229 36.7227 103.965 36.3747 103.763C36.0379 103.561 35.6113 103.46 35.0949 103.46C34.455 103.448 33.9273 103.611 33.5119 103.948C33.1078 104.285 32.9057 104.751 32.9057 105.346C32.9057 105.851 33.046 106.238 33.3267 106.508C33.6186 106.777 34.0227 107.001 34.5392 107.181C35.0556 107.349 35.6506 107.546 36.3242 107.77C36.8855 107.973 37.3907 108.208 37.8397 108.478C38.2888 108.747 38.6368 109.095 38.8838 109.522C39.142 109.948 39.2711 110.493 39.2711 111.155C39.2711 111.717 39.1252 112.25 38.8333 112.755C38.5414 113.249 38.098 113.653 37.503 113.968C36.9192 114.282 36.1838 114.439 35.2969 114.439ZM40.8562 114.237V105.884H42.136L42.237 107.097C42.5065 106.648 42.8657 106.3 43.3148 106.053C43.7638 105.806 44.269 105.682 44.8303 105.682C45.4927 105.682 46.0596 105.817 46.5312 106.087C47.0139 106.356 47.3844 106.766 47.6426 107.316C47.9345 106.811 48.333 106.412 48.8382 106.12C49.3546 105.828 49.9103 105.682 50.5053 105.682C51.5045 105.682 52.3016 105.985 52.8966 106.592C53.4916 107.187 53.7891 108.107 53.7891 109.353V114.237H52.3914V109.505C52.3914 108.641 52.2174 107.989 51.8693 107.552C51.5213 107.114 51.0217 106.895 50.3706 106.895C49.697 106.895 49.1357 107.159 48.6866 107.686C48.2488 108.203 48.0299 108.944 48.0299 109.909V114.237H46.6154V109.505C46.6154 108.641 46.4413 107.989 46.0933 107.552C45.7453 107.114 45.2457 106.895 44.5946 106.895C43.9322 106.895 43.3765 107.159 42.9274 107.686C42.4896 108.203 42.2707 108.944 42.2707 109.909V114.237H40.8562ZM56.4419 104.032C56.1612 104.032 55.9254 103.942 55.7346 103.763C55.555 103.572 55.4652 103.336 55.4652 103.055C55.4652 102.786 55.555 102.561 55.7346 102.382C55.9254 102.202 56.1612 102.112 56.4419 102.112C56.7113 102.112 56.9414 102.202 57.1323 102.382C57.3231 102.561 57.4186 102.786 57.4186 103.055C57.4186 103.336 57.3231 103.572 57.1323 103.763C56.9414 103.942 56.7113 104.032 56.4419 104.032ZM55.7346 114.237V105.884H57.1491V114.237H55.7346ZM59.2753 114.237V102.112H60.6898V114.237H59.2753ZM66.4268 114.439C65.6297 114.439 64.9224 114.259 64.305 113.9C63.6875 113.53 63.1992 113.019 62.8399 112.368C62.4919 111.717 62.3179 110.948 62.3179 110.061C62.3179 109.185 62.4919 108.422 62.8399 107.77C63.1879 107.108 63.6707 106.597 64.2881 106.238C64.9168 105.868 65.6409 105.682 66.4604 105.682C67.2688 105.682 67.9648 105.868 68.5486 106.238C69.1436 106.597 69.5983 107.074 69.9126 107.669C70.2269 108.264 70.3841 108.904 70.3841 109.589C70.3841 109.713 70.3785 109.836 70.3673 109.96C70.3673 110.083 70.3673 110.223 70.3673 110.381H63.7156C63.7493 111.021 63.8952 111.554 64.1534 111.98C64.4228 112.396 64.754 112.71 65.1469 112.923C65.5511 113.137 65.9777 113.243 66.4268 113.243C67.0105 113.243 67.4989 113.109 67.8918 112.839C68.2848 112.57 68.571 112.205 68.7507 111.745H70.1484C69.9238 112.519 69.4916 113.165 68.8517 113.681C68.223 114.186 67.4147 114.439 66.4268 114.439ZM66.4268 106.878C65.7532 106.878 65.1526 107.086 64.6249 107.501C64.1085 107.905 63.811 108.5 63.7324 109.286H68.9864C68.9527 108.534 68.6945 107.944 68.2118 107.518C67.729 107.091 67.134 106.878 66.4268 106.878Z" fill="#5D616B"/>
</svg>
