<svg width="120" height="21" viewBox="0 0 120 21" fill="none" xmlns="http://www.w3.org/2000/svg">
<path d="M18.492 0.406738H1.57052C0.760251 0.406738 0.103516 1.04344 0.103516 1.82929V18.8384C0.103516 19.6242 0.760482 20.2615 1.57052 20.2615H18.492C19.302 20.2615 19.958 19.6238 19.958 18.8384V1.82929C19.958 1.04367 19.302 0.406738 18.492 0.406738ZM6.12284 17.0265H3.12297V8.06234H6.12284V17.0265ZM4.6232 6.83769H4.60303C3.59704 6.83769 2.94492 6.1497 2.94492 5.28838C2.94492 4.4097 3.6162 3.74036 4.64213 3.74036C5.66816 3.74036 6.29927 4.40951 6.31921 5.28838C6.31921 6.14989 5.66839 6.83769 4.6232 6.83769ZM16.9365 17.0265H13.9376V12.2304C13.9376 11.0252 13.5031 10.2029 12.4186 10.2029C11.5889 10.2029 11.0964 10.7577 10.8802 11.2933C10.8 11.4846 10.7802 11.7521 10.7802 12.0193V17.0263H7.78183C7.78183 17.0263 7.82107 8.90294 7.78183 8.06221H10.7806V9.33307C11.1787 8.7224 11.8901 7.85129 13.4826 7.85129C15.4565 7.85129 16.9365 9.13176 16.9365 11.8864V17.0265ZM10.7613 9.36155C10.7664 9.35315 10.7735 9.34304 10.7806 9.33321V9.36155H10.7613Z" fill="#DCDCDC"/>
<path d="M48.3332 0.407715H32.4493C31.3573 0.407715 30.4639 1.30118 30.4639 2.39319V18.277C30.4639 19.369 31.3573 20.2625 32.4493 20.2625H48.3332C49.4252 20.2625 50.3186 19.369 50.3186 18.277V2.39319C50.3186 1.30118 49.4252 0.407715 48.3332 0.407715ZM46.0499 7.6547C45.9506 12.2213 43.0716 15.3981 38.7036 15.5966C36.9167 15.6959 35.6261 15.1002 34.4348 14.4053C35.7254 14.6039 37.413 14.1075 38.3065 13.3133C37.0159 13.214 36.2217 12.5191 35.8247 11.4271C36.2217 11.5264 36.6188 11.4271 36.9167 11.4271C35.7254 11.03 34.9312 10.3351 34.8319 8.74672C35.1297 8.94526 35.5268 9.04454 35.9239 9.04454C35.0305 8.54817 34.4348 6.66197 35.1297 5.47068C36.4203 6.86051 38.0087 8.0518 40.5898 8.25035C39.8949 5.47068 43.6673 3.98157 45.1564 5.86778C45.8514 5.7685 46.3477 5.47068 46.8441 5.27213C46.6455 5.96705 46.2484 6.36414 45.7521 6.76124C46.2484 6.66197 46.7448 6.56269 47.1419 6.36414C47.0426 6.86051 46.5462 7.25761 46.0499 7.6547Z" fill="#DCDCDC"/>
<path d="M87.9369 2.11113C86.9186 0.900545 85.0383 0.406738 81.4475 0.406738H68.413C64.74 0.406738 62.8279 0.932399 61.8134 2.22125C60.8242 3.47788 60.8242 5.32943 60.8242 7.89202V12.7763C60.8242 17.7409 61.9979 20.2615 68.413 20.2615H81.4476C84.5616 20.2615 86.2871 19.8258 87.4034 18.7574C88.5481 17.6619 89.0366 15.8731 89.0366 12.7763V7.89202C89.0366 5.18955 88.96 3.32708 87.9369 2.11113ZM78.9366 11.0085L73.0177 14.1019C72.8854 14.1711 72.7407 14.2054 72.5961 14.2054C72.4325 14.2054 72.2692 14.1614 72.1246 14.0738C71.8523 13.9088 71.6861 13.6137 71.6861 13.2953V7.12829C71.6861 6.81049 71.8519 6.51562 72.1236 6.35054C72.3955 6.18545 72.7336 6.17416 73.0156 6.32069L78.9346 9.39419C79.2357 9.55054 79.4248 9.86143 79.4253 10.2006C79.4256 10.5401 79.2373 10.8514 78.9366 11.0085Z" fill="#DCDCDC"/>
<path d="M117.412 0.407715H101.528C100.436 0.407715 99.543 1.30114 99.543 2.39311V18.2763C99.543 19.3683 100.436 20.2617 101.528 20.2617H117.412C118.504 20.2617 119.397 19.3683 119.397 18.2763V2.39311C119.397 1.30114 118.504 0.407715 117.412 0.407715ZM116.486 4.37851V7.3566H114.501C113.905 7.3566 113.508 7.75368 113.508 8.3493V10.3347H116.486V13.3128H113.508V20.2617H110.53V13.3128H108.544V10.3347H110.53V7.85295C110.53 5.96683 112.118 4.37851 114.004 4.37851H116.486Z" fill="#DCDCDC"/>
</svg>
