<svg width="52" height="52" viewBox="0 0 52 52" fill="none" xmlns="http://www.w3.org/2000/svg">
<rect opacity="0.2" x="0.0878906" y="26.4365" width="36.0847" height="36.0847" rx="11.7687" transform="rotate(-45 0.0878906 26.4365)" fill="#10A866"/>
<path d="M25.3027 35.1572C24.1377 35.1572 23.0824 34.9546 22.1369 34.5494C21.1914 34.1273 20.4316 33.4857 19.8576 32.6246C19.2835 31.7635 18.9796 30.6829 18.9458 29.3829H22.1369C22.1538 30.244 22.4324 30.97 22.9727 31.5609C23.5298 32.135 24.3065 32.422 25.3027 32.422C26.2482 32.422 26.9742 32.1603 27.4807 31.6369C27.9872 31.1135 28.2405 30.455 28.2405 29.6615C28.2405 28.7328 27.9028 28.0322 27.2274 27.5594C26.5689 27.0698 25.7163 26.825 24.6695 26.825H23.3526V24.1657H24.6948C25.5559 24.1657 26.2735 23.9631 26.8475 23.5579C27.4216 23.1527 27.7086 22.5533 27.7086 21.7598C27.7086 21.1013 27.4891 20.5779 27.0501 20.1896C26.628 19.7843 26.0371 19.5817 25.2773 19.5817C24.45 19.5817 23.8 19.8266 23.3272 20.3162C22.8714 20.8058 22.6181 21.4052 22.5675 22.1143H19.4017C19.4692 20.4766 20.0349 19.185 21.0985 18.2395C22.1791 17.294 23.572 16.8212 25.2773 16.8212C26.493 16.8212 27.5145 17.0407 28.3418 17.4797C29.186 17.9018 29.8191 18.4674 30.2412 19.1765C30.6802 19.8856 30.8997 20.6707 30.8997 21.5318C30.8997 22.528 30.6211 23.3722 30.0639 24.0644C29.5236 24.7398 28.8483 25.1956 28.0379 25.432C29.034 25.6346 29.8444 26.1243 30.4691 26.9009C31.0938 27.6607 31.4062 28.6231 31.4062 29.7881C31.4062 30.7674 31.1698 31.6622 30.6971 32.4726C30.2243 33.2831 29.5321 33.9331 28.6203 34.4227C27.7255 34.9124 26.6196 35.1572 25.3027 35.1572Z" fill="white"/>
</svg>
