<svg width="102" height="138" viewBox="0 0 102 138" fill="none" xmlns="http://www.w3.org/2000/svg">
<circle cx="50.9348" cy="43.4258" r="43.1799" fill="#3E9FF8"/>
<path d="M73.3706 31.7973C71.7191 32.498 69.947 32.9732 68.0852 33.1854C69.9863 32.0953 71.4415 30.3663 72.1312 28.3124C70.348 29.3218 68.3795 30.0549 66.2822 30.4522C64.6026 28.7366 62.2136 27.668 59.5639 27.668C54.4803 27.668 50.3585 31.6147 50.3585 36.4796C50.3585 37.1696 50.4398 37.8435 50.5969 38.4879C42.9477 38.1201 36.165 34.611 31.6254 29.2789C30.8318 30.5784 30.3804 32.0925 30.3804 33.7089C30.3804 36.7669 32.0067 39.4652 34.4742 41.0438C32.9657 40.9955 31.5469 40.5981 30.3047 39.9377V40.0477C30.3047 44.3166 33.4788 47.8794 37.6875 48.6902C36.9164 48.8889 36.1033 48.999 35.2621 48.999C34.6677 48.999 34.0929 48.9426 33.5293 48.8352C34.7013 52.3389 38.0997 54.8868 42.1262 54.9566C38.9774 57.3193 35.007 58.7235 30.6945 58.7235C29.9515 58.7235 29.2196 58.6805 28.499 58.6027C32.5732 61.1076 37.41 62.5682 42.6085 62.5682C59.5416 62.5682 68.7975 49.1386 68.7975 37.4919L68.7666 36.3508C70.5751 35.1157 72.1397 33.5639 73.3706 31.7973Z" fill="white"/>
<path d="M28.4415 113.573V102.947H24.922V101.785H33.3756V102.947H29.8561V113.573H28.4415ZM35.4778 113.573L33.036 105.22H34.4506L36.2187 111.771L38.1721 105.22H39.7719L41.7422 111.771L43.4935 105.22H44.9249L42.4831 113.573H41.0349L38.9804 106.685L36.926 113.573H35.4778ZM47.0114 103.368C46.7308 103.368 46.495 103.278 46.3042 103.098C46.1245 102.907 46.0347 102.672 46.0347 102.391C46.0347 102.121 46.1245 101.897 46.3042 101.717C46.495 101.538 46.7308 101.448 47.0114 101.448C47.2809 101.448 47.511 101.538 47.7019 101.717C47.8927 101.897 47.9881 102.121 47.9881 102.391C47.9881 102.672 47.8927 102.907 47.7019 103.098C47.511 103.278 47.2809 103.368 47.0114 103.368ZM46.3042 113.573V105.22H47.7187V113.573H46.3042ZM53.1454 113.573C52.382 113.573 51.7814 113.387 51.3436 113.017C50.9057 112.646 50.6868 111.978 50.6868 111.013V106.416H49.2386V105.22H50.6868L50.8721 103.216H52.1014V105.22H54.56V106.416H52.1014V111.013C52.1014 111.541 52.208 111.9 52.4213 112.091C52.6346 112.27 53.0107 112.36 53.5496 112.36H54.4252V113.573H53.1454ZM59.3209 113.573C58.5575 113.573 57.9569 113.387 57.519 113.017C57.0812 112.646 56.8623 111.978 56.8623 111.013V106.416H55.4141V105.22H56.8623L57.0475 103.216H58.2768V105.22H60.7354V106.416H58.2768V111.013C58.2768 111.541 58.3835 111.9 58.5968 112.091C58.8101 112.27 59.1862 112.36 59.725 112.36H60.6007V113.573H59.3209ZM65.7208 113.775C64.9237 113.775 64.2164 113.595 63.599 113.236C62.9815 112.865 62.4931 112.354 62.1339 111.703C61.7859 111.052 61.6119 110.283 61.6119 109.396C61.6119 108.521 61.7859 107.757 62.1339 107.106C62.4819 106.444 62.9647 105.933 63.5821 105.574C64.2108 105.203 64.9349 105.018 65.7544 105.018C66.5627 105.018 67.2588 105.203 67.8426 105.574C68.4376 105.933 68.8922 106.41 69.2066 107.005C69.5209 107.6 69.6781 108.24 69.6781 108.925C69.6781 109.048 69.6725 109.172 69.6613 109.295C69.6613 109.419 69.6613 109.559 69.6613 109.716H63.0096C63.0432 110.356 63.1892 110.889 63.4474 111.316C63.7168 111.731 64.048 112.046 64.4409 112.259C64.8451 112.472 65.2717 112.579 65.7208 112.579C66.3045 112.579 66.7929 112.444 67.1858 112.175C67.5787 111.905 67.865 111.541 68.0446 111.08H69.4423C69.2178 111.855 68.7856 112.5 68.1457 113.017C67.517 113.522 66.7087 113.775 65.7208 113.775ZM65.7208 106.214C65.0472 106.214 64.4466 106.421 63.9189 106.837C63.4025 107.241 63.105 107.836 63.0264 108.622H68.2804C68.2467 107.869 67.9885 107.28 67.5058 106.853C67.023 106.427 66.428 106.214 65.7208 106.214ZM71.2162 113.573V105.22H72.496L72.6139 106.82C72.8721 106.27 73.265 105.832 73.7927 105.506C74.3203 105.181 74.9714 105.018 75.7461 105.018V106.5H75.3587C74.8648 106.5 74.4101 106.59 73.9947 106.769C73.5793 106.938 73.2482 107.23 73.0012 107.645C72.7542 108.06 72.6307 108.633 72.6307 109.363V113.573H71.2162Z" fill="#5D616B"/>
</svg>
