<svg width="705" height="476" viewBox="0 0 705 476" fill="none" xmlns="http://www.w3.org/2000/svg">
<g filter="url(#filter0_d_5223_1919)">
<rect x="136.53" y="23" width="403.37" height="358.634" rx="9.80852" fill="white"/>
</g>
<path d="M203.51 366.625V58.5825" stroke="#DEDEDE" stroke-width="0.508321"/>
<path d="M243.029 355.442V58.5825" stroke="#DEDEDE" stroke-width="0.508321"/>
<path d="M307.505 355.442V58.5825" stroke="#DEDEDE" stroke-width="0.508321"/>
<path d="M152.678 355.442L509.519 355.442" stroke="#DEDEDE" stroke-width="0.508321"/>
<path d="M371.98 355.442V58.5825" stroke="#DEDEDE" stroke-width="0.508321"/>
<path d="M436.456 355.442V58.5825" stroke="#DEDEDE" stroke-width="0.508321"/>
<path d="M500.931 355.442V58.5825" stroke="#DEDEDE" stroke-width="0.508321"/>
<rect x="167.147" y="72.6075" width="17.3635" height="9.34991" rx="4.67495" fill="#DCDCDC"/>
<rect x="160.395" y="111.166" width="24.116" height="9.33992" rx="4.66996" fill="#DCDCDC"/>
<rect x="167.147" y="149.744" width="17.3635" height="9.34991" rx="4.67495" fill="#DCDCDC"/>
<rect x="160.395" y="188.282" width="24.116" height="9.33992" rx="4.66996" fill="#DCDCDC"/>
<rect x="173.899" y="226.881" width="10.611" height="9.34991" rx="4.67495" fill="#DCDCDC"/>
<rect x="152.678" y="265.449" width="31.8331" height="9.34991" rx="4.67495" fill="#DCDCDC"/>
<rect x="170.041" y="304.018" width="14.4696" height="9.34991" rx="4.67495" fill="#DCDCDC"/>
<path d="M226.893 278.397C226.893 268.291 235.086 260.098 245.192 260.098C255.299 260.098 263.492 268.291 263.492 278.397V355.442H226.893V278.397Z" fill="#E7F6F0"/>
<path d="M226.893 278.397C226.893 268.291 235.086 260.098 245.192 260.098C255.299 260.098 263.492 268.291 263.492 278.397V355.442H226.893V278.397Z" fill="#10A866" fill-opacity="0.1"/>
<path d="M290.941 210.476C290.941 200.369 299.134 192.176 309.241 192.176C319.348 192.176 327.541 200.369 327.541 210.476V355.442H290.941V210.476Z" fill="#E7F6F0"/>
<path d="M290.941 210.476C290.941 200.369 299.134 192.176 309.241 192.176C319.348 192.176 327.541 200.369 327.541 210.476V355.442H290.941V210.476Z" fill="#10A866" fill-opacity="0.2"/>
<path d="M354.99 278.397C354.99 268.291 363.183 260.098 373.29 260.098C383.396 260.098 391.589 268.291 391.589 278.397V355.442H354.99V278.397Z" fill="#E7F6F0"/>
<path d="M420.055 142.389C420.055 132.283 428.248 124.09 438.354 124.09C448.461 124.09 456.654 132.283 456.654 142.389V355.442H420.055V142.389Z" fill="#E7F6F0"/>
<path d="M420.055 142.389C420.055 132.283 428.248 124.09 438.354 124.09C448.461 124.09 456.654 132.283 456.654 142.389V355.442H420.055V142.389Z" fill="#10A866" fill-opacity="0.5"/>
<path d="M203.85 273.185L241.79 184.658L307.772 222.048L371.556 177.51L436.439 211.601L500.222 66.9885" stroke="#46A8A5" stroke-width="6.59828" stroke-linecap="round" stroke-linejoin="round" stroke-dasharray="5.5 13.2"/>
<path d="M479.021 222.026C479.021 211.919 487.214 203.726 497.32 203.726C507.427 203.726 515.62 211.919 515.62 222.026V355.442H479.021V222.026Z" fill="#E7F6F0"/>
<path d="M479.021 222.026C479.021 211.919 487.214 203.726 497.32 203.726C507.427 203.726 515.62 211.919 515.62 222.026V355.442H479.021V222.026Z" fill="#10A866" fill-opacity="0.2"/>
<g filter="url(#filter1_d_5223_1919)">
<g filter="url(#filter2_d_5223_1919)">
<path fill-rule="evenodd" clip-rule="evenodd" d="M430.033 52.703C406.475 52.703 387.378 71.8002 387.378 95.3579C387.378 116.232 402.372 133.604 422.177 137.291C422.831 137.413 423.44 137.72 423.911 138.19L434.538 148.817C435.774 150.053 437.778 150.053 439.015 148.817L448.892 138.94C449.485 138.346 450.291 138.013 451.13 138.013H593.006C616.564 138.013 635.661 118.916 635.661 95.3579C635.661 71.8002 616.564 52.703 593.006 52.703H430.033Z" fill="#10A866"/>
</g>
<path d="M441.336 116.053C443.648 98.5317 448.212 91.3007 462.382 92.2293M462.382 92.2293L456.394 85.9922M462.382 92.2293L456.394 98.8717" stroke="white" stroke-width="3.9965" stroke-linecap="round" stroke-linejoin="round"/>
<path d="M435.934 70.7365C430.48 70.7365 424.903 75.4453 424.903 79.6725V86.0576C424.903 88.8462 426.045 94.4904 429.5 97.3546L420.057 102.653C420.057 102.653 417.59 103.787 417.59 105.206V109.038C417.59 110.449 418.697 111.594 420.057 111.594H451.677C453.039 111.594 454.146 110.449 454.146 109.038V105.206C454.146 103.703 451.677 102.653 451.677 102.653L442.472 97.3784C445.893 94.5941 446.821 89.1249 446.821 86.0576C446.821 86.0576 446.821 83.8997 446.821 79.6725C446.821 75.4453 441.39 70.7365 435.934 70.7365Z" fill="#10A866" stroke="white" stroke-width="3.9965" stroke-linecap="round" stroke-linejoin="round"/>
<path d="M479.353 103.376H484.676V88.0608C484.676 87.4674 484.694 86.8436 484.73 86.1896L480.951 89.3507C480.794 89.4839 480.63 89.5747 480.461 89.6232C480.303 89.6716 480.146 89.6959 479.989 89.6959C479.746 89.6959 479.522 89.6474 479.316 89.5505C479.123 89.4415 478.977 89.3204 478.88 89.1872L477.463 87.2433L485.475 80.4307H489.163V103.376H493.886V106.736H479.353V103.376ZM506.479 80.1764C507.69 80.1764 508.798 80.358 509.803 80.7214C510.809 81.0726 511.669 81.5752 512.383 82.2292C513.098 82.8832 513.655 83.6705 514.054 84.5909C514.454 85.5114 514.654 86.5348 514.654 87.6612C514.654 88.6301 514.509 89.5263 514.218 90.3499C513.939 91.1734 513.558 91.9607 513.073 92.7116C512.601 93.4625 512.044 94.1891 511.402 94.8916C510.76 95.5941 510.088 96.3086 509.386 97.0353L503.463 103.085C504.044 102.915 504.614 102.788 505.171 102.703C505.728 102.606 506.261 102.558 506.769 102.558H513.509C513.994 102.558 514.375 102.697 514.654 102.976C514.945 103.242 515.09 103.6 515.09 104.048V106.736H497.068V105.247C497.068 104.944 497.129 104.629 497.25 104.302C497.383 103.975 497.589 103.672 497.868 103.394L505.843 95.4003C506.509 94.722 507.103 94.0741 507.623 93.4564C508.156 92.8387 508.598 92.2271 508.95 91.6216C509.313 91.016 509.585 90.4044 509.767 89.7867C509.961 89.1569 510.058 88.4968 510.058 87.8065C510.058 87.1767 509.967 86.6256 509.785 86.1533C509.604 85.6688 509.343 85.2631 509.004 84.9361C508.665 84.6091 508.259 84.3669 507.787 84.2094C507.327 84.0399 506.806 83.9551 506.224 83.9551C505.147 83.9551 504.256 84.2276 503.554 84.7726C502.864 85.3176 502.379 86.0504 502.101 86.9708C501.967 87.431 501.768 87.7641 501.501 87.97C501.235 88.1638 500.896 88.2607 500.484 88.2607C500.302 88.2607 500.102 88.2425 499.884 88.2062L497.523 87.7883C497.704 86.5287 498.055 85.4266 498.576 84.4819C499.097 83.5251 499.745 82.7319 500.52 82.1021C501.307 81.4602 502.204 80.9818 503.209 80.6669C504.226 80.3399 505.316 80.1764 506.479 80.1764ZM534.586 82.3746C534.586 83.0165 534.38 83.5373 533.968 83.9369C533.569 84.3366 532.896 84.5364 531.952 84.5364H524.721L523.777 90.0229C524.963 89.7806 526.047 89.6595 527.028 89.6595C528.409 89.6595 529.62 89.8654 530.662 90.2772C531.716 90.689 532.6 91.2582 533.314 91.9849C534.029 92.7116 534.568 93.5654 534.931 94.5464C535.294 95.5153 535.476 96.563 535.476 97.6893C535.476 99.0821 535.228 100.354 534.731 101.504C534.247 102.655 533.569 103.642 532.697 104.466C531.825 105.277 530.789 105.907 529.59 106.355C528.403 106.803 527.107 107.027 525.702 107.027C524.879 107.027 524.098 106.942 523.359 106.773C522.62 106.603 521.924 106.379 521.27 106.101C520.628 105.81 520.028 105.483 519.471 105.12C518.926 104.744 518.436 104.351 518 103.939L519.38 102.031C519.671 101.619 520.058 101.414 520.543 101.414C520.846 101.414 521.148 101.51 521.451 101.704C521.766 101.898 522.129 102.11 522.541 102.34C522.953 102.57 523.431 102.782 523.976 102.976C524.521 103.17 525.182 103.267 525.957 103.267C526.78 103.267 527.507 103.133 528.137 102.867C528.766 102.6 529.287 102.231 529.699 101.759C530.123 101.274 530.438 100.705 530.644 100.051C530.862 99.3849 530.971 98.6643 530.971 97.8891C530.971 96.46 530.553 95.3458 529.717 94.5464C528.894 93.735 527.676 93.3292 526.066 93.3292C524.794 93.3292 523.516 93.5594 522.232 94.0196L519.435 93.2202L521.615 80.467H534.586V82.3746ZM552.424 96.4721V106.736H547.537V80.467H555.548C557.341 80.467 558.873 80.6548 560.145 81.0302C561.428 81.3936 562.476 81.9083 563.287 82.5744C564.111 83.2405 564.711 84.0399 565.086 84.9724C565.474 85.8929 565.667 86.9103 565.667 88.0245C565.667 88.9086 565.534 89.7443 565.268 90.5315C565.013 91.3188 564.638 92.0333 564.141 92.6752C563.657 93.3171 563.051 93.8803 562.325 94.3648C561.61 94.8492 560.793 95.2368 559.872 95.5274C560.49 95.8787 561.023 96.3813 561.471 97.0353L568.047 106.736H563.651C563.227 106.736 562.864 106.652 562.561 106.482C562.27 106.313 562.022 106.07 561.816 105.755L556.293 97.3441C556.087 97.0292 555.857 96.8052 555.603 96.672C555.361 96.5387 554.997 96.4721 554.513 96.4721H552.424ZM552.424 92.9659H555.476C556.396 92.9659 557.195 92.8508 557.874 92.6207C558.564 92.3906 559.127 92.0757 559.563 91.6761C560.011 91.2643 560.344 90.7798 560.562 90.2227C560.78 89.6656 560.889 89.054 560.889 88.3878C560.889 87.0556 560.447 86.0322 559.563 85.3176C558.691 84.6031 557.353 84.2458 555.548 84.2458H552.424V92.9659ZM578.63 87.8065C579.805 87.8065 580.883 87.9942 581.864 88.3697C582.857 88.7451 583.711 89.2962 584.426 90.0229C585.14 90.7374 585.697 91.6215 586.097 92.6752C586.497 93.7168 586.696 94.9098 586.696 96.2541C586.696 96.5932 586.678 96.8779 586.642 97.108C586.618 97.326 586.563 97.5016 586.478 97.6348C586.406 97.7559 586.303 97.8468 586.17 97.9073C586.036 97.9558 585.867 97.98 585.661 97.98H574.143C574.276 99.8936 574.791 101.298 575.687 102.195C576.583 103.091 577.77 103.539 579.248 103.539C579.975 103.539 580.598 103.454 581.119 103.285C581.652 103.115 582.112 102.927 582.5 102.722C582.899 102.516 583.245 102.328 583.535 102.158C583.838 101.989 584.129 101.904 584.407 101.904C584.589 101.904 584.746 101.94 584.88 102.013C585.013 102.086 585.128 102.189 585.225 102.322L586.533 103.957C586.036 104.538 585.479 105.029 584.862 105.428C584.244 105.816 583.596 106.131 582.918 106.373C582.252 106.603 581.567 106.767 580.865 106.864C580.174 106.961 579.502 107.009 578.848 107.009C577.552 107.009 576.347 106.797 575.233 106.373C574.119 105.937 573.15 105.301 572.326 104.466C571.503 103.618 570.855 102.576 570.382 101.341C569.91 100.093 569.674 98.6522 569.674 97.0171C569.674 95.7454 569.88 94.5525 570.292 93.4382C570.703 92.3119 571.291 91.3369 572.054 90.5134C572.829 89.6777 573.768 89.0176 574.87 88.5332C575.984 88.0487 577.237 87.8065 578.63 87.8065ZM578.721 91.022C577.413 91.022 576.39 91.3914 575.651 92.1302C574.912 92.869 574.44 93.9166 574.234 95.2731H582.663C582.663 94.6918 582.585 94.1468 582.427 93.6381C582.27 93.1173 582.027 92.6631 581.7 92.2756C581.373 91.888 580.962 91.5852 580.465 91.3672C579.969 91.1371 579.387 91.022 578.721 91.022ZM591.136 106.736V91.4762L589.519 91.2219C589.168 91.1613 588.883 91.0402 588.665 90.8585C588.459 90.6769 588.356 90.4225 588.356 90.0955V88.2607H591.136V86.88C591.136 85.8142 591.293 84.8574 591.608 84.0096C591.935 83.1618 592.395 82.4412 592.989 81.8477C593.594 81.2543 594.327 80.8001 595.187 80.4852C596.047 80.1703 597.016 80.0129 598.094 80.0129C598.953 80.0129 599.753 80.1279 600.492 80.358L600.401 82.6107C600.377 82.962 600.213 83.18 599.91 83.2648C599.608 83.3495 599.256 83.3919 598.857 83.3919C598.324 83.3919 597.845 83.4525 597.421 83.5736C597.01 83.6826 596.658 83.8824 596.368 84.1731C596.077 84.4517 595.853 84.8271 595.696 85.2995C595.55 85.7597 595.478 86.335 595.478 87.0253V88.2607H600.328V91.458H595.623V106.736H591.136ZM614.138 91.7306C614.017 91.9243 613.89 92.0636 613.757 92.1484C613.623 92.2211 613.454 92.2574 613.248 92.2574C613.03 92.2574 612.794 92.1968 612.539 92.0757C612.297 91.9546 612.013 91.8214 611.686 91.6761C611.359 91.5186 610.983 91.3793 610.559 91.2582C610.147 91.1371 609.657 91.0765 609.088 91.0765C608.204 91.0765 607.507 91.2643 606.999 91.6397C606.49 92.0152 606.236 92.5057 606.236 93.1112C606.236 93.5109 606.363 93.85 606.617 94.1286C606.883 94.395 607.229 94.6312 607.653 94.8371C608.089 95.043 608.579 95.2307 609.124 95.4003C609.669 95.5577 610.226 95.7333 610.795 95.9271C611.365 96.1209 611.922 96.345 612.467 96.5993C613.012 96.8415 613.496 97.1564 613.92 97.544C614.356 97.9194 614.701 98.3736 614.956 98.9065C615.222 99.4394 615.355 100.081 615.355 100.832C615.355 101.728 615.192 102.558 614.865 103.321C614.538 104.072 614.059 104.726 613.43 105.283C612.8 105.828 612.019 106.258 611.086 106.573C610.166 106.876 609.106 107.027 607.907 107.027C607.265 107.027 606.635 106.967 606.018 106.845C605.412 106.736 604.825 106.579 604.255 106.373C603.698 106.167 603.177 105.925 602.693 105.646C602.221 105.368 601.803 105.065 601.439 104.738L602.475 103.03C602.608 102.825 602.766 102.667 602.947 102.558C603.129 102.449 603.359 102.395 603.638 102.395C603.916 102.395 604.177 102.473 604.419 102.631C604.673 102.788 604.964 102.958 605.291 103.139C605.618 103.321 605.999 103.491 606.435 103.648C606.883 103.806 607.447 103.884 608.125 103.884C608.658 103.884 609.112 103.824 609.487 103.703C609.875 103.569 610.19 103.4 610.432 103.194C610.686 102.988 610.868 102.752 610.977 102.485C611.098 102.207 611.159 101.922 611.159 101.632C611.159 101.196 611.026 100.838 610.759 100.56C610.505 100.281 610.16 100.039 609.724 99.833C609.3 99.6271 608.809 99.4454 608.252 99.288C607.707 99.1184 607.144 98.9368 606.563 98.743C605.993 98.5492 605.43 98.3252 604.873 98.0708C604.328 97.8044 603.837 97.4713 603.401 97.0716C602.978 96.672 602.632 96.1815 602.366 95.6001C602.112 95.0188 601.984 94.3163 601.984 93.4927C601.984 92.7297 602.136 92.0031 602.439 91.3127C602.741 90.6224 603.183 90.0229 603.765 89.5142C604.358 88.9934 605.091 88.5816 605.963 88.2788C606.847 87.9639 607.864 87.8065 609.015 87.8065C610.299 87.8065 611.468 88.0184 612.521 88.4423C613.575 88.8662 614.453 89.4233 615.155 90.1137L614.138 91.7306Z" fill="white"/>
</g>
<g filter="url(#filter3_d_5223_1919)">
<rect x="48" y="322.158" width="290.216" height="108.831" rx="12.4999" fill="white"/>
</g>
<g clip-path="url(#clip0_5223_1919)">
<path d="M74.7061 376.647C74.7061 360.023 88.2343 346.495 104.859 346.495C121.484 346.495 135.011 360.023 135.011 376.647C135.011 393.272 121.483 406.8 104.859 406.8C88.2343 406.8 74.7061 393.272 74.7061 376.647Z" stroke="#D67D00" stroke-width="3.66027"/>
<path d="M106.792 374.922V363.559C107.966 363.979 108.99 364.751 109.702 365.794C110.332 366.718 111.618 366.973 112.574 366.365C113.531 365.758 113.795 364.516 113.165 363.593C111.675 361.41 109.38 359.928 106.792 359.405V356.226C106.792 355.121 105.864 354.224 104.719 354.224C103.573 354.224 102.645 355.121 102.645 356.226V359.399C98.0553 360.323 94.5967 364.257 94.5967 368.956C94.5967 373.656 98.0556 377.591 102.645 378.514V389.878C101.472 389.457 100.448 388.685 99.7359 387.642C99.1058 386.719 97.8198 386.463 96.8635 387.071C95.907 387.679 95.6421 388.92 96.2722 389.843C97.762 392.026 100.058 393.509 102.645 394.031V397.21C102.645 398.315 103.573 399.211 104.719 399.211C105.864 399.211 106.792 398.315 106.792 397.21V394.037C111.382 393.113 114.841 389.179 114.841 384.48C114.841 379.78 111.382 375.846 106.792 374.922ZM98.7441 368.956C98.7441 366.482 100.372 364.374 102.645 363.56V374.353C100.372 373.539 98.7441 371.43 98.7441 368.956ZM106.792 389.876V379.083C109.066 379.897 110.693 382.005 110.693 384.48C110.693 386.954 109.066 389.062 106.792 389.876Z" fill="#D67D00"/>
</g>
<path d="M167.572 394.735C165.763 394.487 164.061 393.992 162.468 393.25C160.891 392.508 159.545 391.587 158.432 390.489L160.195 387.868C160.35 387.636 160.551 387.45 160.798 387.311C161.061 387.156 161.332 387.079 161.61 387.079C161.95 387.079 162.314 387.203 162.7 387.45C163.087 387.682 163.528 387.961 164.023 388.285C164.518 388.61 165.082 388.935 165.716 389.26C166.35 389.585 167.1 389.824 167.966 389.979L168.848 379.586C167.75 379.277 166.66 378.913 165.577 378.496C164.51 378.078 163.543 377.529 162.677 376.849C161.827 376.153 161.138 375.279 160.612 374.227C160.087 373.175 159.824 371.861 159.824 370.283C159.824 369.108 160.056 367.963 160.52 366.85C160.999 365.721 161.687 364.716 162.584 363.834C163.481 362.952 164.587 362.226 165.902 361.653C167.216 361.081 168.724 360.756 170.426 360.679L170.681 357.756C170.712 357.385 170.866 357.052 171.145 356.758C171.423 356.465 171.787 356.318 172.235 356.318H174.346L173.952 360.888C175.591 361.151 177.006 361.615 178.197 362.28C179.388 362.945 180.424 363.695 181.306 364.53L179.914 366.641C179.697 366.95 179.481 367.182 179.264 367.337C179.048 367.492 178.785 367.569 178.475 367.569C178.243 367.569 177.965 367.499 177.64 367.36C177.331 367.206 176.968 367.028 176.55 366.827C176.148 366.61 175.699 366.394 175.204 366.177C174.71 365.961 174.161 365.783 173.557 365.644L172.745 375.248C173.859 375.588 174.957 375.967 176.04 376.385C177.138 376.787 178.12 377.312 178.986 377.962C179.867 378.612 180.579 379.424 181.12 380.398C181.661 381.357 181.932 382.563 181.932 384.017C181.932 385.455 181.692 386.808 181.213 388.077C180.733 389.329 180.03 390.443 179.102 391.417C178.189 392.376 177.06 393.157 175.715 393.76C174.369 394.364 172.83 394.727 171.098 394.851L170.82 398.261C170.789 398.617 170.634 398.941 170.356 399.235C170.078 399.545 169.714 399.699 169.266 399.699H167.154L167.572 394.735ZM176.504 384.898C176.504 384.311 176.395 383.8 176.179 383.367C175.978 382.919 175.684 382.524 175.297 382.184C174.926 381.844 174.485 381.55 173.975 381.303C173.465 381.055 172.908 380.831 172.305 380.63L171.516 390.049C173.155 389.832 174.392 389.283 175.228 388.401C176.078 387.504 176.504 386.337 176.504 384.898ZM165.229 369.726C165.229 370.314 165.33 370.832 165.531 371.281C165.732 371.729 166.01 372.131 166.366 372.487C166.737 372.827 167.17 373.137 167.665 373.415C168.16 373.678 168.701 373.918 169.289 374.134L170.008 365.551C169.157 365.659 168.43 365.845 167.827 366.107C167.224 366.355 166.729 366.664 166.343 367.035C165.956 367.407 165.67 367.824 165.484 368.288C165.314 368.737 165.229 369.216 165.229 369.726ZM197.711 360.609C199.257 360.609 200.673 360.841 201.956 361.305C203.24 361.754 204.338 362.396 205.25 363.231C206.163 364.066 206.874 365.071 207.385 366.247C207.895 367.422 208.15 368.729 208.15 370.167C208.15 371.405 207.965 372.549 207.593 373.601C207.238 374.652 206.751 375.658 206.132 376.617C205.529 377.575 204.817 378.503 203.998 379.4C203.178 380.297 202.32 381.21 201.423 382.138L193.86 389.863C194.602 389.646 195.329 389.484 196.041 389.376C196.752 389.252 197.432 389.19 198.082 389.19H206.689C207.307 389.19 207.795 389.368 208.15 389.724C208.521 390.064 208.707 390.52 208.707 391.093V394.526H185.694V392.624C185.694 392.237 185.771 391.835 185.926 391.417C186.096 391 186.359 390.613 186.715 390.257L196.899 380.05C197.75 379.184 198.507 378.356 199.172 377.568C199.853 376.779 200.417 375.998 200.866 375.225C201.33 374.451 201.678 373.67 201.91 372.882C202.157 372.077 202.281 371.234 202.281 370.353C202.281 369.549 202.165 368.845 201.933 368.242C201.701 367.623 201.369 367.105 200.935 366.687C200.502 366.27 199.984 365.961 199.381 365.76C198.793 365.543 198.128 365.435 197.386 365.435C196.01 365.435 194.873 365.783 193.976 366.479C193.094 367.175 192.476 368.11 192.12 369.286C191.95 369.873 191.695 370.299 191.354 370.562C191.014 370.809 190.581 370.933 190.055 370.933C189.823 370.933 189.568 370.91 189.29 370.863L186.274 370.33C186.506 368.721 186.954 367.314 187.619 366.107C188.284 364.886 189.112 363.873 190.102 363.068C191.107 362.249 192.251 361.638 193.535 361.236C194.834 360.818 196.226 360.609 197.711 360.609ZM212.515 391C212.515 390.567 212.593 390.165 212.747 389.793C212.917 389.407 213.149 389.074 213.443 388.796C213.737 388.502 214.093 388.278 214.51 388.123C214.928 387.953 215.384 387.868 215.879 387.868C216.467 387.868 216.977 387.976 217.41 388.193C217.843 388.394 218.207 388.68 218.501 389.051C218.794 389.407 219.011 389.824 219.15 390.304C219.289 390.768 219.359 391.263 219.359 391.788C219.359 392.531 219.243 393.312 219.011 394.132C218.794 394.951 218.47 395.771 218.037 396.591C217.604 397.41 217.07 398.207 216.436 398.98C215.802 399.753 215.075 400.465 214.255 401.114L213.258 400.21C212.979 399.978 212.84 399.692 212.84 399.351C212.84 399.228 212.879 399.088 212.956 398.934C213.049 398.779 213.157 398.64 213.281 398.516C213.451 398.331 213.66 398.099 213.907 397.82C214.155 397.557 214.402 397.248 214.65 396.892C214.897 396.552 215.121 396.173 215.322 395.755C215.539 395.353 215.693 394.92 215.786 394.456C215.307 394.456 214.866 394.371 214.464 394.201C214.062 394.016 213.714 393.768 213.42 393.459C213.142 393.149 212.917 392.786 212.747 392.368C212.593 391.951 212.515 391.495 212.515 391ZM235.046 360.609C236.593 360.609 238.008 360.841 239.292 361.305C240.575 361.754 241.673 362.396 242.586 363.231C243.498 364.066 244.21 365.071 244.72 366.247C245.231 367.422 245.486 368.729 245.486 370.167C245.486 371.405 245.3 372.549 244.929 373.601C244.573 374.652 244.086 375.658 243.467 376.617C242.864 377.575 242.153 378.503 241.333 379.4C240.513 380.297 239.655 381.21 238.758 382.138L231.195 389.863C231.938 389.646 232.665 389.484 233.376 389.376C234.087 389.252 234.768 389.19 235.417 389.19H244.024C244.643 389.19 245.13 389.368 245.486 389.724C245.857 390.064 246.042 390.52 246.042 391.093V394.526H223.029V392.624C223.029 392.237 223.107 391.835 223.261 391.417C223.431 391 223.694 390.613 224.05 390.257L234.234 380.05C235.085 379.184 235.843 378.356 236.508 377.568C237.188 376.779 237.753 375.998 238.201 375.225C238.665 374.451 239.013 373.67 239.245 372.882C239.493 372.077 239.616 371.234 239.616 370.353C239.616 369.549 239.5 368.845 239.268 368.242C239.036 367.623 238.704 367.105 238.271 366.687C237.838 366.27 237.32 365.961 236.717 365.76C236.129 365.543 235.464 365.435 234.722 365.435C233.345 365.435 232.208 365.783 231.311 366.479C230.43 367.175 229.811 368.11 229.455 369.286C229.285 369.873 229.03 370.299 228.69 370.562C228.35 370.809 227.917 370.933 227.391 370.933C227.159 370.933 226.904 370.91 226.625 370.863L223.609 370.33C223.841 368.721 224.29 367.314 224.955 366.107C225.62 364.886 226.447 363.873 227.437 363.068C228.442 362.249 229.587 361.638 230.871 361.236C232.17 360.818 233.562 360.609 235.046 360.609ZM261.96 360.609C263.507 360.609 264.922 360.841 266.206 361.305C267.489 361.754 268.588 362.396 269.5 363.231C270.413 364.066 271.124 365.071 271.634 366.247C272.145 367.422 272.4 368.729 272.4 370.167C272.4 371.405 272.214 372.549 271.843 373.601C271.487 374.652 271 375.658 270.382 376.617C269.778 377.575 269.067 378.503 268.247 379.4C267.428 380.297 266.569 381.21 265.672 382.138L258.109 389.863C258.852 389.646 259.579 389.484 260.29 389.376C261.002 389.252 261.682 389.19 262.332 389.19H270.938C271.557 389.19 272.044 389.368 272.4 389.724C272.771 390.064 272.957 390.52 272.957 391.093V394.526H249.944V392.624C249.944 392.237 250.021 391.835 250.175 391.417C250.346 391 250.609 390.613 250.964 390.257L261.148 380.05C261.999 379.184 262.757 378.356 263.422 377.568C264.102 376.779 264.667 375.998 265.115 375.225C265.579 374.451 265.927 373.67 266.159 372.882C266.407 372.077 266.531 371.234 266.531 370.353C266.531 369.549 266.415 368.845 266.183 368.242C265.951 367.623 265.618 367.105 265.185 366.687C264.752 366.27 264.234 365.961 263.631 365.76C263.043 365.543 262.378 365.435 261.636 365.435C260.259 365.435 259.122 365.783 258.225 366.479C257.344 367.175 256.725 368.11 256.37 369.286C256.199 369.873 255.944 370.299 255.604 370.562C255.264 370.809 254.831 370.933 254.305 370.933C254.073 370.933 253.818 370.91 253.539 370.863L250.523 370.33C250.755 368.721 251.204 367.314 251.869 366.107C252.534 364.886 253.361 363.873 254.351 363.068C255.357 362.249 256.501 361.638 257.785 361.236C259.084 360.818 260.476 360.609 261.96 360.609ZM297.853 363.416C297.853 364.236 297.59 364.901 297.064 365.412C296.553 365.922 295.695 366.177 294.489 366.177H285.256L284.049 373.183C285.565 372.874 286.949 372.719 288.202 372.719C289.965 372.719 291.512 372.982 292.842 373.508C294.187 374.034 295.316 374.761 296.229 375.689C297.141 376.617 297.829 377.707 298.293 378.96C298.757 380.197 298.989 381.535 298.989 382.973C298.989 384.752 298.672 386.375 298.038 387.845C297.419 389.314 296.553 390.574 295.44 391.626C294.326 392.662 293.004 393.467 291.473 394.039C289.957 394.611 288.302 394.897 286.508 394.897C285.457 394.897 284.459 394.789 283.516 394.572C282.572 394.356 281.683 394.07 280.848 393.714C280.028 393.343 279.263 392.925 278.551 392.461C277.855 391.982 277.229 391.479 276.672 390.953L278.435 388.517C278.806 387.992 279.301 387.729 279.92 387.729C280.307 387.729 280.693 387.852 281.08 388.1C281.482 388.347 281.946 388.618 282.472 388.912C282.998 389.206 283.608 389.476 284.304 389.724C285 389.971 285.843 390.095 286.833 390.095C287.885 390.095 288.813 389.925 289.617 389.585C290.421 389.244 291.086 388.773 291.612 388.169C292.153 387.551 292.555 386.824 292.818 385.989C293.097 385.138 293.236 384.218 293.236 383.228C293.236 381.403 292.702 379.98 291.635 378.96C290.584 377.923 289.029 377.405 286.972 377.405C285.348 377.405 283.717 377.699 282.077 378.287L278.505 377.266L281.289 360.981H297.853V363.416Z" fill="#273043"/>
<defs>
<filter id="filter0_d_5223_1919" x="96.6188" y="0.291393" width="489.333" height="444.598" filterUnits="userSpaceOnUse" color-interpolation-filters="sRGB">
<feFlood flood-opacity="0" result="BackgroundImageFix"/>
<feColorMatrix in="SourceAlpha" type="matrix" values="0 0 0 0 0 0 0 0 0 0 0 0 0 0 0 0 0 0 127 0" result="hardAlpha"/>
<feOffset dx="3.07011" dy="20.273"/>
<feGaussianBlur stdDeviation="21.4908"/>
<feColorMatrix type="matrix" values="0 0 0 0 0 0 0 0 0 0 0 0 0 0 0 0 0 0 0.14 0"/>
<feBlend mode="multiply" in2="BackgroundImageFix" result="effect1_dropShadow_5223_1919"/>
<feBlend mode="normal" in="SourceGraphic" in2="effect1_dropShadow_5223_1919" result="shape"/>
</filter>
<filter id="filter1_d_5223_1919" x="327.408" y="18.5819" width="377.448" height="226.206" filterUnits="userSpaceOnUse" color-interpolation-filters="sRGB">
<feFlood flood-opacity="0" result="BackgroundImageFix"/>
<feColorMatrix in="SourceAlpha" type="matrix" values="0 0 0 0 0 0 0 0 0 0 0 0 0 0 0 0 0 0 127 0" result="hardAlpha"/>
<feOffset dx="4.61303" dy="30.4614"/>
<feGaussianBlur stdDeviation="32.2912"/>
<feColorMatrix type="matrix" values="0 0 0 0 0 0 0 0 0 0 0 0 0 0 0 0 0 0 0.14 0"/>
<feBlend mode="multiply" in2="BackgroundImageFix" result="effect1_dropShadow_5223_1919"/>
<feBlend mode="normal" in="SourceGraphic" in2="effect1_dropShadow_5223_1919" result="shape"/>
</filter>
<filter id="filter2_d_5223_1919" x="356.29" y="33.6292" width="310.459" height="159.217" filterUnits="userSpaceOnUse" color-interpolation-filters="sRGB">
<feFlood flood-opacity="0" result="BackgroundImageFix"/>
<feColorMatrix in="SourceAlpha" type="matrix" values="0 0 0 0 0 0 0 0 0 0 0 0 0 0 0 0 0 0 127 0" result="hardAlpha"/>
<feOffset dy="12.0141"/>
<feGaussianBlur stdDeviation="15.544"/>
<feColorMatrix type="matrix" values="0 0 0 0 0.382617 0 0 0 0 0.382617 0 0 0 0 0.382617 0 0 0 0.32 0"/>
<feBlend mode="multiply" in2="BackgroundImageFix" result="effect1_dropShadow_5223_1919"/>
<feBlend mode="normal" in="SourceGraphic" in2="effect1_dropShadow_5223_1919" result="shape"/>
</filter>
<filter id="filter3_d_5223_1919" x="0.530201" y="271.384" width="385.155" height="203.77" filterUnits="userSpaceOnUse" color-interpolation-filters="sRGB">
<feFlood flood-opacity="0" result="BackgroundImageFix"/>
<feColorMatrix in="SourceAlpha" type="matrix" values="0 0 0 0 0 0 0 0 0 0 0 0 0 0 0 0 0 0 127 0" result="hardAlpha"/>
<feOffset dy="-3.30379"/>
<feGaussianBlur stdDeviation="23.7349"/>
<feColorMatrix type="matrix" values="0 0 0 0 0.620087 0 0 0 0 0.620087 0 0 0 0 0.620087 0 0 0 0.32 0"/>
<feBlend mode="multiply" in2="BackgroundImageFix" result="effect1_dropShadow_5223_1919"/>
<feBlend mode="normal" in="SourceGraphic" in2="effect1_dropShadow_5223_1919" result="shape"/>
</filter>
<clipPath id="clip0_5223_1919">
<rect width="63.9659" height="63.9659" fill="white" transform="translate(72.876 344.665)"/>
</clipPath>
</defs>
</svg>
