<svg width="135" height="36" viewBox="0 0 135 36" fill="none" xmlns="http://www.w3.org/2000/svg">
<g clip-path="url(#clip0_6927_765)">
<path d="M42.8631 26.1465C43.3997 26.7982 43.9811 27.2582 44.6072 27.5265C45.2461 27.7949 45.917 27.929 46.6197 27.929C47.3481 27.929 47.9997 27.8013 48.5747 27.5457C49.1625 27.2774 49.6609 26.8685 50.0697 26.319C50.4786 25.7568 50.7917 25.0476 51.0089 24.1915C51.2261 23.3226 51.3347 22.2876 51.3347 21.0865C51.3347 18.9271 50.977 17.3682 50.2614 16.4099C49.5459 15.4387 48.5172 14.9532 47.1756 14.9532C46.2684 14.9532 45.4761 15.164 44.7989 15.5857C44.1217 15.9946 43.4764 16.576 42.8631 17.3299V26.1465ZM42.8631 13.9949C43.6553 13.1643 44.5306 12.5062 45.4889 12.0207C46.46 11.5224 47.5653 11.2732 48.8047 11.2732C49.942 11.2732 50.9642 11.4968 51.8714 11.944C52.7914 12.3912 53.5709 13.0365 54.2097 13.8799C54.8614 14.7104 55.3598 15.7199 55.7048 16.9082C56.0498 18.0965 56.2223 19.4318 56.2223 20.914C56.2223 22.5113 56.0242 23.9615 55.6281 25.2649C55.232 26.5682 54.6634 27.6863 53.9222 28.619C53.1939 29.539 52.3122 30.2546 51.2772 30.7657C50.2422 31.2768 49.0922 31.5324 47.8272 31.5324C47.2139 31.5324 46.6581 31.4685 46.1597 31.3407C45.6614 31.2257 45.2014 31.0596 44.7797 30.8424C44.3581 30.6251 43.9684 30.3632 43.6106 30.0565C43.2656 29.7371 42.9334 29.3857 42.6139 29.0024L42.4031 30.3249C42.3264 30.6571 42.1922 30.8935 42.0006 31.034C41.8217 31.1746 41.5725 31.2449 41.2531 31.2449H38.1289V2.76318H42.8631V13.9949Z" fill="#0278D1"/>
<path d="M72.5478 19.1507C72.5478 18.5374 72.4583 17.9624 72.2794 17.4257C72.1133 16.8762 71.8578 16.3971 71.5128 15.9882C71.1678 15.5793 70.7269 15.2599 70.1903 15.0299C69.6664 14.7871 69.053 14.6657 68.3503 14.6657C66.983 14.6657 65.9033 15.0554 65.1111 15.8349C64.3316 16.6143 63.8333 17.7196 63.6161 19.1507H72.5478ZM63.5203 22.0065C63.5969 23.016 63.7758 23.8913 64.0569 24.6324C64.338 25.3607 64.7086 25.9676 65.1686 26.4532C65.6286 26.926 66.1717 27.2838 66.7978 27.5265C67.4367 27.7565 68.1394 27.8715 68.9061 27.8715C69.6728 27.8715 70.3308 27.7821 70.8803 27.6032C71.4425 27.4243 71.928 27.2263 72.3369 27.009C72.7586 26.7918 73.1228 26.5938 73.4294 26.4149C73.7489 26.236 74.0555 26.1465 74.3494 26.1465C74.7455 26.1465 75.0394 26.2935 75.2311 26.5874L76.5919 28.3124C76.068 28.9257 75.4803 29.4432 74.8286 29.8649C74.1769 30.2738 73.4933 30.606 72.7778 30.8615C72.075 31.1043 71.353 31.2768 70.6119 31.379C69.8836 31.4813 69.1744 31.5324 68.4844 31.5324C67.1172 31.5324 65.8458 31.3088 64.6703 30.8615C63.4947 30.4015 62.4725 29.7307 61.6036 28.849C60.7347 27.9546 60.0511 26.8557 59.5528 25.5524C59.0544 24.2363 58.8053 22.7157 58.8053 20.9907C58.8053 19.649 59.0225 18.3904 59.4569 17.2149C59.8914 16.0265 60.5111 14.9979 61.3161 14.129C62.1339 13.2474 63.1241 12.551 64.2869 12.0399C65.4625 11.5287 66.785 11.2732 68.2544 11.2732C69.4939 11.2732 70.6375 11.4712 71.6853 11.8674C72.733 12.2635 73.6339 12.8449 74.3878 13.6115C75.1417 14.3654 75.7294 15.2982 76.1511 16.4099C76.5855 17.5087 76.8028 18.7674 76.8028 20.1857C76.8028 20.9013 76.7261 21.3868 76.5728 21.6424C76.4194 21.8851 76.1255 22.0065 75.6911 22.0065H63.5203Z" fill="#0278D1"/>
<path d="M90.7438 22.8499C89.3766 22.9138 88.2266 23.0351 87.2938 23.214C86.3611 23.3801 85.6136 23.5974 85.0513 23.8657C84.4891 24.134 84.0866 24.4471 83.8438 24.8049C83.6011 25.1626 83.4797 25.5524 83.4797 25.974C83.4797 26.8046 83.7224 27.3988 84.208 27.7565C84.7063 28.1143 85.3516 28.2932 86.1438 28.2932C87.1149 28.2932 87.9519 28.1207 88.6547 27.7757C89.3702 27.4179 90.0666 26.8813 90.7438 26.1657V22.8499ZM79.8955 14.3207C82.1572 12.2507 84.8788 11.2157 88.0605 11.2157C89.2105 11.2157 90.2391 11.4074 91.1463 11.7907C92.0536 12.1612 92.8202 12.6851 93.4463 13.3624C94.0725 14.0268 94.5452 14.8254 94.8647 15.7582C95.1969 16.691 95.363 17.7132 95.363 18.8249V31.2449H93.2163C92.7691 31.2449 92.4241 31.181 92.1813 31.0532C91.9386 30.9126 91.7469 30.6379 91.6063 30.229L91.1847 28.8107C90.6863 29.2579 90.2008 29.654 89.728 29.999C89.2552 30.3313 88.7633 30.6124 88.2522 30.8424C87.7411 31.0724 87.1916 31.2449 86.6038 31.3599C86.0288 31.4876 85.3899 31.5515 84.6872 31.5515C83.8566 31.5515 83.0899 31.4429 82.3872 31.2257C81.6844 30.9957 81.0774 30.6571 80.5663 30.2099C80.0552 29.7626 79.6591 29.2068 79.378 28.5424C79.0969 27.8779 78.9563 27.1049 78.9563 26.2232C78.9563 25.7249 79.0394 25.2329 79.2055 24.7474C79.3716 24.249 79.6399 23.7763 80.0105 23.329C80.3938 22.8818 80.8858 22.4601 81.4863 22.064C82.0869 21.6679 82.8216 21.3229 83.6905 21.029C84.5722 20.7351 85.5944 20.4987 86.7572 20.3199C87.9199 20.1282 89.2488 20.0132 90.7438 19.9749V18.8249C90.7438 17.5087 90.4627 16.5376 89.9005 15.9115C89.3383 15.2726 88.5269 14.9532 87.4663 14.9532C86.6997 14.9532 86.0608 15.0426 85.5497 15.2215C85.0513 15.4004 84.6105 15.6049 84.2272 15.8349C83.8438 16.0521 83.4924 16.2501 83.173 16.429C82.8663 16.6079 82.5213 16.6974 82.138 16.6974C81.8058 16.6974 81.5247 16.6143 81.2947 16.4482C81.0647 16.2693 80.8794 16.0649 80.7388 15.8349L79.8955 14.3207Z" fill="#0278D1"/>
<path d="M104.249 13.9949C104.645 13.5987 105.061 13.2346 105.495 12.9024C105.942 12.5574 106.409 12.2699 106.894 12.0399C107.392 11.7971 107.923 11.6118 108.485 11.484C109.047 11.3435 109.661 11.2732 110.325 11.2732C111.398 11.2732 112.35 11.4585 113.181 11.829C114.011 12.1868 114.701 12.6979 115.251 13.3624C115.813 14.014 116.235 14.7999 116.516 15.7199C116.81 16.6271 116.957 17.6301 116.957 18.729V31.2449H112.222V18.729C112.222 17.5279 111.948 16.6015 111.398 15.9499C110.849 15.2854 110.012 14.9532 108.887 14.9532C108.07 14.9532 107.303 15.1385 106.587 15.509C105.872 15.8796 105.195 16.3843 104.556 17.0232V31.2449H99.8216V11.5799H102.716C103.329 11.5799 103.732 11.8674 103.923 12.4424L104.249 13.9949Z" fill="#0278D1"/>
<path d="M133.457 15.4132C133.33 15.6176 133.195 15.7646 133.055 15.854C132.914 15.9307 132.735 15.969 132.518 15.969C132.288 15.969 132.039 15.9051 131.771 15.7774C131.515 15.6496 131.215 15.509 130.87 15.3557C130.525 15.1896 130.129 15.0426 129.682 14.9149C129.247 14.7871 128.73 14.7232 128.129 14.7232C127.196 14.7232 126.462 14.9212 125.925 15.3174C125.401 15.7135 125.139 16.231 125.139 16.8699C125.139 17.2915 125.273 17.6493 125.542 17.9432C125.823 18.2243 126.187 18.4735 126.634 18.6907C127.094 18.9079 127.612 19.106 128.187 19.2849C128.762 19.451 129.343 19.6362 129.931 19.8407C130.531 20.0451 131.119 20.2815 131.694 20.5499C132.269 20.8054 132.78 21.1376 133.227 21.5465C133.687 21.9426 134.052 22.4218 134.32 22.984C134.601 23.5463 134.742 24.2235 134.742 25.0157C134.742 25.9613 134.569 26.8365 134.224 27.6415C133.892 28.4338 133.393 29.1238 132.729 29.7115C132.065 30.2865 131.24 30.7401 130.257 31.0724C129.285 31.3918 128.161 31.5515 126.883 31.5515C126.206 31.5515 125.542 31.4876 124.89 31.3599C124.251 31.2449 123.631 31.0788 123.031 30.8615C122.443 30.6443 121.893 30.3888 121.382 30.0949C120.884 29.801 120.443 29.4815 120.06 29.1365L121.152 27.3349C121.293 27.1176 121.459 26.9515 121.651 26.8365C121.842 26.7215 122.085 26.664 122.379 26.664C122.673 26.664 122.948 26.7471 123.203 26.9132C123.472 27.0793 123.778 27.2582 124.123 27.4499C124.468 27.6415 124.871 27.8204 125.331 27.9865C125.803 28.1526 126.398 28.2357 127.113 28.2357C127.675 28.2357 128.155 28.1718 128.551 28.044C128.96 27.9035 129.292 27.7246 129.547 27.5074C129.816 27.2901 130.007 27.041 130.122 26.7599C130.25 26.466 130.314 26.1657 130.314 25.859C130.314 25.399 130.173 25.0221 129.892 24.7282C129.624 24.4343 129.26 24.1788 128.8 23.9615C128.353 23.7443 127.835 23.5526 127.247 23.3865C126.672 23.2076 126.078 23.016 125.465 22.8115C124.864 22.6071 124.27 22.3707 123.682 22.1024C123.107 21.8213 122.59 21.4699 122.13 21.0482C121.683 20.6265 121.318 20.109 121.037 19.4957C120.769 18.8824 120.635 18.1412 120.635 17.2724C120.635 16.4674 120.795 15.7007 121.114 14.9724C121.433 14.244 121.9 13.6115 122.513 13.0749C123.139 12.5254 123.912 12.091 124.832 11.7715C125.765 11.4393 126.838 11.2732 128.052 11.2732C129.407 11.2732 130.64 11.4968 131.752 11.944C132.863 12.3912 133.79 12.979 134.531 13.7074L133.457 15.4132Z" fill="#0278D1"/>
<path d="M15.8263 33.4593C24.5119 33.4593 31.553 26.4182 31.553 17.7326C31.553 14.4002 30.5166 11.3099 28.7485 8.76648C28.2583 10.0184 27.5572 11.3305 26.383 12.6611C24.3875 14.9224 21.1276 17.1331 15.5043 19.4238C10.1036 21.6238 7.81127 23.6272 6.66751 25.309C6.09277 26.1538 5.76662 26.977 5.4985 27.8308C5.4222 28.0735 5.34447 28.3439 5.26262 28.6283C5.20692 28.8218 5.14943 29.0218 5.08925 29.2239C7.89992 31.8511 11.6754 33.4593 15.8263 33.4593Z" fill="#0278D1"/>
<path d="M2.95112 26.7657C3.25595 25.8372 3.67272 24.8204 4.39272 23.7617C5.96381 21.4518 8.81317 19.1788 14.4666 16.8761C19.8972 14.6638 22.7204 12.6539 24.3203 10.8409C25.6408 9.34444 26.1971 7.91233 26.6664 6.33855C23.8453 3.65379 20.0283 2.00586 15.8263 2.00586C7.1407 2.00586 0.0996094 9.04695 0.0996094 17.7326C0.0996094 21.0943 1.15453 24.2095 2.95112 26.7657Z" fill="#0278D1"/>
</g>
<defs>
<clipPath id="clip0_6927_765">
<rect width="134.808" height="35.1636" fill="white"/>
</clipPath>
</defs>
</svg>
