<svg width="102" height="139" viewBox="0 0 102 139" fill="none" xmlns="http://www.w3.org/2000/svg">
<g clip-path="url(#clip0_5223_2024)">
<path d="M94.3579 44.2767C94.3579 20.2575 74.8911 0.790649 50.8718 0.790649C26.8526 0.790649 7.38574 20.2575 7.38574 44.2767C7.38574 65.9858 23.2853 83.9748 44.0771 87.2362V56.8469H33.0357V44.2767H44.0771V34.6962C44.0771 23.7992 50.5661 17.7774 60.5033 17.7774C65.2596 17.7774 70.2367 18.6267 70.2367 18.6267V29.3284H64.75C59.3482 29.3284 57.6665 32.6833 57.6665 36.1231V44.2767H69.7271L67.7991 56.8469H57.6665V87.2362C78.4583 83.9748 94.3579 65.9858 94.3579 44.2767Z" fill="#1877F2"/>
<path d="M67.7995 56.8469L69.7275 44.2767H57.6669V36.1231C57.6669 32.6833 59.3486 29.3284 64.7504 29.3284H70.2371V18.6267C70.2371 18.6267 65.26 17.7774 60.5037 17.7774C50.5665 17.7774 44.0775 23.7992 44.0775 34.6962V44.2767H33.0361V56.8469H44.0775V87.2362C46.2943 87.5844 48.562 87.7628 50.8722 87.7628C53.1824 87.7628 55.4502 87.5844 57.6669 87.2362V56.8469H67.7995Z" fill="white"/>
</g>
<path d="M14.502 114.573V102.785H21.6757V103.947H15.9165V108.089H20.8169V109.234H15.9165V114.573H14.502ZM25.2794 114.775C24.5834 114.775 24.0052 114.657 23.5449 114.421C23.0847 114.185 22.7422 113.871 22.5177 113.478C22.2932 113.085 22.1809 112.658 22.1809 112.198C22.1809 111.345 22.5065 110.688 23.1576 110.228C23.8088 109.768 24.6957 109.537 25.8183 109.537H28.0748V109.436C28.0748 108.707 27.884 108.157 27.5023 107.786C27.1206 107.404 26.6098 107.214 25.9699 107.214C25.4198 107.214 24.9426 107.354 24.5385 107.635C24.1456 107.904 23.8986 108.303 23.7975 108.83H22.3493C22.4055 108.224 22.6075 107.713 22.9556 107.298C23.3148 106.882 23.7582 106.568 24.2859 106.355C24.8135 106.13 25.3749 106.018 25.9699 106.018C27.1374 106.018 28.0131 106.332 28.5969 106.961C29.1919 107.578 29.4894 108.404 29.4894 109.436V114.573H28.2264L28.1422 113.074C27.9064 113.545 27.5584 113.949 27.0981 114.286C26.6491 114.612 26.0428 114.775 25.2794 114.775ZM25.4984 113.579C26.0372 113.579 26.4975 113.439 26.8792 113.158C27.2721 112.877 27.5696 112.512 27.7717 112.063C27.9738 111.614 28.0748 111.143 28.0748 110.649V110.632H25.9362C25.1054 110.632 24.516 110.778 24.168 111.07C23.8312 111.351 23.6628 111.704 23.6628 112.131C23.6628 112.569 23.82 112.922 24.1343 113.192C24.4599 113.45 24.9146 113.579 25.4984 113.579ZM35.1141 114.775C34.317 114.775 33.5985 114.595 32.9586 114.236C32.3299 113.865 31.8304 113.354 31.4599 112.703C31.1006 112.041 30.921 111.272 30.921 110.396C30.921 109.521 31.1006 108.757 31.4599 108.106C31.8304 107.444 32.3299 106.933 32.9586 106.574C33.5985 106.203 34.317 106.018 35.1141 106.018C36.102 106.018 36.9328 106.276 37.6064 106.793C38.2912 107.309 38.7234 107.999 38.903 108.864H37.4548C37.3426 108.347 37.0675 107.949 36.6297 107.668C36.1918 107.376 35.681 107.23 35.0973 107.23C34.6258 107.23 34.1823 107.348 33.7669 107.584C33.3515 107.82 33.0148 108.173 32.7565 108.645C32.4983 109.116 32.3692 109.7 32.3692 110.396C32.3692 111.092 32.4983 111.676 32.7565 112.148C33.0148 112.619 33.3515 112.978 33.7669 113.225C34.1823 113.461 34.6258 113.579 35.0973 113.579C35.681 113.579 36.1918 113.439 36.6297 113.158C37.0675 112.866 37.3426 112.456 37.4548 111.929H38.903C38.7346 112.771 38.308 113.455 37.6232 113.983C36.9384 114.511 36.102 114.775 35.1141 114.775ZM44.297 114.775C43.4999 114.775 42.7927 114.595 42.1752 114.236C41.5578 113.865 41.0694 113.354 40.7102 112.703C40.3621 112.052 40.1881 111.283 40.1881 110.396C40.1881 109.521 40.3621 108.757 40.7102 108.106C41.0582 107.444 41.5409 106.933 42.1584 106.574C42.7871 106.203 43.5112 106.018 44.3307 106.018C45.139 106.018 45.835 106.203 46.4188 106.574C47.0138 106.933 47.4685 107.41 47.7828 108.005C48.0972 108.6 48.2544 109.24 48.2544 109.925C48.2544 110.048 48.2487 110.172 48.2375 110.295C48.2375 110.419 48.2375 110.559 48.2375 110.716H41.5858C41.6195 111.356 41.7654 111.889 42.0237 112.316C42.2931 112.731 42.6243 113.046 43.0172 113.259C43.4214 113.472 43.848 113.579 44.297 113.579C44.8808 113.579 45.3691 113.444 45.7621 113.175C46.155 112.905 46.4413 112.541 46.6209 112.08H48.0186C47.7941 112.855 47.3619 113.5 46.7219 114.017C46.0933 114.522 45.285 114.775 44.297 114.775ZM44.297 107.214C43.6234 107.214 43.0228 107.421 42.4952 107.837C41.9788 108.241 41.6812 108.836 41.6027 109.622H46.8567C46.823 108.869 46.5648 108.28 46.082 107.853C45.5993 107.427 45.0043 107.214 44.297 107.214ZM54.255 114.775C53.5701 114.775 52.9583 114.634 52.4194 114.354C51.8918 114.073 51.4876 113.68 51.207 113.175L51.0723 114.573H49.7924V102.448H51.207V107.601C51.4764 107.197 51.8581 106.832 52.3521 106.506C52.8573 106.181 53.4972 106.018 54.2718 106.018C55.1026 106.018 55.8267 106.209 56.4441 106.59C57.0616 106.972 57.5387 107.494 57.8755 108.157C58.2235 108.819 58.3975 109.571 58.3975 110.413C58.3975 111.255 58.2235 112.007 57.8755 112.67C57.5387 113.321 57.056 113.837 56.4273 114.219C55.8098 114.589 55.0857 114.775 54.255 114.775ZM54.1034 113.545C54.6647 113.545 55.1587 113.416 55.5853 113.158C56.0119 112.889 56.3487 112.518 56.5957 112.047C56.8427 111.575 56.9662 111.025 56.9662 110.396C56.9662 109.768 56.8427 109.217 56.5957 108.746C56.3487 108.274 56.0119 107.91 55.5853 107.651C55.1587 107.382 54.6647 107.247 54.1034 107.247C53.5421 107.247 53.0481 107.382 52.6215 107.651C52.1949 107.91 51.8581 108.274 51.6111 108.746C51.3641 109.217 51.2406 109.768 51.2406 110.396C51.2406 111.025 51.3641 111.575 51.6111 112.047C51.8581 112.518 52.1949 112.889 52.6215 113.158C53.0481 113.416 53.5421 113.545 54.1034 113.545ZM63.8356 114.775C63.0497 114.775 62.3425 114.595 61.7138 114.236C61.0851 113.876 60.5855 113.371 60.215 112.72C59.8558 112.058 59.6762 111.283 59.6762 110.396C59.6762 109.509 59.8614 108.74 60.2319 108.089C60.6024 107.427 61.1019 106.916 61.7306 106.557C62.3705 106.198 63.0834 106.018 63.8693 106.018C64.6551 106.018 65.3624 106.198 65.9911 106.557C66.6198 106.916 67.1137 107.427 67.473 108.089C67.8434 108.74 68.0287 109.509 68.0287 110.396C68.0287 111.283 67.8434 112.058 67.473 112.72C67.1025 113.371 66.5973 113.876 65.9574 114.236C65.3287 114.595 64.6214 114.775 63.8356 114.775ZM63.8356 113.562C64.3183 113.562 64.7674 113.444 65.1828 113.208C65.5981 112.973 65.9349 112.619 66.1931 112.148C66.4514 111.676 66.5805 111.092 66.5805 110.396C66.5805 109.7 66.4514 109.116 66.1931 108.645C65.9462 108.173 65.615 107.82 65.1996 107.584C64.7842 107.348 64.3408 107.23 63.8693 107.23C63.3865 107.23 62.9375 107.348 62.5221 107.584C62.1067 107.82 61.7699 108.173 61.5117 108.645C61.2535 109.116 61.1244 109.7 61.1244 110.396C61.1244 111.092 61.2535 111.676 61.5117 112.148C61.7699 112.619 62.1011 112.973 62.5052 113.208C62.9206 113.444 63.3641 113.562 63.8356 113.562ZM73.4645 114.775C72.6786 114.775 71.9714 114.595 71.3427 114.236C70.714 113.876 70.2144 113.371 69.8439 112.72C69.4847 112.058 69.3051 111.283 69.3051 110.396C69.3051 109.509 69.4903 108.74 69.8608 108.089C70.2313 107.427 70.7308 106.916 71.3595 106.557C71.9994 106.198 72.7123 106.018 73.4982 106.018C74.284 106.018 74.9913 106.198 75.62 106.557C76.2487 106.916 76.7426 107.427 77.1019 108.089C77.4723 108.74 77.6576 109.509 77.6576 110.396C77.6576 111.283 77.4723 112.058 77.1019 112.72C76.7314 113.371 76.2262 113.876 75.5863 114.236C74.9576 114.595 74.2503 114.775 73.4645 114.775ZM73.4645 113.562C73.9472 113.562 74.3963 113.444 74.8117 113.208C75.227 112.973 75.5638 112.619 75.8221 112.148C76.0803 111.676 76.2094 111.092 76.2094 110.396C76.2094 109.7 76.0803 109.116 75.8221 108.645C75.5751 108.173 75.2439 107.82 74.8285 107.584C74.4131 107.348 73.9697 107.23 73.4982 107.23C73.0154 107.23 72.5664 107.348 72.151 107.584C71.7356 107.82 71.3988 108.173 71.1406 108.645C70.8824 109.116 70.7533 109.7 70.7533 110.396C70.7533 111.092 70.8824 111.676 71.1406 112.148C71.3988 112.619 71.73 112.973 72.1342 113.208C72.5495 113.444 72.993 113.562 73.4645 113.562ZM79.2876 114.573V102.448H80.7022V109.74L84.1206 106.22H85.8551L82.1504 109.992L86.3266 114.573H84.5248L80.7022 110.245V114.573H79.2876Z" fill="#5D616B"/>
<defs>
<clipPath id="clip0_5223_2024">
<rect width="86.9722" height="86.9722" fill="white" transform="translate(7.38574 0.790649)"/>
</clipPath>
</defs>
</svg>
