<svg width="15" height="14" viewBox="0 0 15 14" fill="none" xmlns="http://www.w3.org/2000/svg">
<path d="M10.5325 7.98364H8.52207C7.97185 7.98364 7.52441 8.43108 7.52441 8.9813V10.5231C7.52441 11.0734 7.97185 11.5208 8.52207 11.5208H10.5325C11.0827 11.5208 11.5302 11.0734 11.5302 10.5231V8.9813C11.5302 8.43108 11.0827 7.98364 10.5325 7.98364ZM10.8046 10.5231C10.8046 10.6743 10.6806 10.7952 10.5325 10.7952H8.52207C8.37091 10.7952 8.24998 10.6713 8.24998 10.5231V8.9813C8.24998 8.83014 8.37393 8.70921 8.52207 8.70921H10.5325C10.6837 8.70921 10.8046 8.83316 10.8046 8.9813V10.5231Z" fill="#5D616B"/>
<path d="M14.8151 5.18048C14.8151 5.11699 14.8 5.05653 14.7667 5.00211L12.5658 1.13241C12.5023 1.02055 12.3814 0.947998 12.2514 0.947998H2.58018C2.45019 0.947998 2.32926 1.01753 2.26577 1.13241L0.0679025 5.00211C0.0376705 5.05653 0.0195312 5.11699 0.0195312 5.18048C0.0195312 6.04814 0.542545 6.79185 1.28928 7.12138V13.5034C1.28928 13.7029 1.45253 13.8661 1.65206 13.8661H3.65644C3.65947 13.8661 3.66249 13.8661 3.66551 13.8661H6.47709C6.48011 13.8661 6.48314 13.8661 6.48616 13.8661H13.1795C13.3791 13.8661 13.5423 13.7029 13.5423 13.5034V7.16672C13.5423 7.15161 13.5423 7.13952 13.5393 7.12742C14.289 6.79789 14.8151 6.05116 14.8151 5.18048ZM2.79181 1.67659H12.0398L13.76 4.70281H1.07463L2.79181 1.67659ZM10.5493 5.42536C10.4345 6.07837 9.86308 6.57418 9.17681 6.57418C8.49054 6.57418 7.91916 6.07837 7.80428 5.42536H10.5493ZM7.03336 5.42536C6.91848 6.07837 6.34709 6.57418 5.66083 6.57418C4.97456 6.57418 4.40317 6.07837 4.28527 5.42536H7.03336ZM0.769285 5.42536H3.51738C3.40249 6.07837 2.82809 6.57418 2.14182 6.57418C1.45555 6.5772 0.884167 6.07837 0.769285 5.42536ZM6.11431 13.1406H4.0283V9.22553C4.0283 8.94134 4.25806 8.70856 4.54526 8.70856H5.60036C5.88454 8.70856 6.11733 8.93832 6.11733 9.22553V13.1406H6.11431ZM12.8167 13.1406H6.83987V9.22553C6.83987 8.54228 6.2836 7.98299 5.59734 7.98299H4.54224C3.859 7.98299 3.2997 8.53926 3.2997 9.22553V13.1436H2.01484V7.29975C2.05717 7.30277 2.09949 7.30277 2.14182 7.30277C2.87343 7.30277 3.5204 6.93091 3.90132 6.36558C4.28225 6.93091 4.92921 7.30277 5.66083 7.30277C6.39244 7.30277 7.03638 6.93091 7.42033 6.36558C7.80125 6.93091 8.44822 7.30277 9.17681 7.30277C9.90842 7.30277 10.5524 6.93091 10.9333 6.36558C11.3142 6.93091 11.9612 7.30277 12.6928 7.30277C12.7351 7.30277 12.7744 7.29975 12.8167 7.29975V13.1406ZM12.6928 6.5772C12.0065 6.5772 11.4351 6.0814 11.3203 5.42838H14.0683C13.9504 6.07837 13.3791 6.5772 12.6928 6.5772Z" fill="#5D616B"/>
</svg>
