<svg width="1098" height="472" viewBox="0 0 1098 472" fill="none" xmlns="http://www.w3.org/2000/svg">
<path d="M1.67415 20C1.67415 9.87891 9.87891 1.67415 20 1.67415H1078C1088.12 1.67415 1096.33 9.87891 1096.33 20V450.308C1096.33 460.999 1087.07 469.431 1076.38 468.579C666.242 435.892 427.856 436.159 21.6226 468.577C10.9316 469.431 1.67415 460.998 1.67415 450.306V20Z" fill="white" fill-opacity="0.7" stroke="white" stroke-width="3.34829"/>
<path fill-rule="evenodd" clip-rule="evenodd" d="M177.959 104.012H167.097V90.2037H191.378V140.835C191.378 154.181 180.865 165 167.896 165H167.489C154.744 165 144.413 154.368 144.413 141.253H157.832C157.832 146.742 162.155 151.191 167.489 151.191H167.896C173.454 151.191 177.959 146.555 177.959 140.835V104.012Z" fill="#309899"/>
<path d="M135.827 196.775C134.76 196.775 133.924 196.477 133.318 195.882C132.711 195.287 132.408 194.462 132.408 193.407H133.84C133.84 194.002 133.986 194.501 134.278 194.905C134.569 195.31 135.08 195.512 135.81 195.512C136.517 195.512 137.006 195.315 137.275 194.922C137.556 194.529 137.696 194.041 137.696 193.457V184.785H139.111V193.457C139.111 194.501 138.819 195.315 138.235 195.899C137.662 196.483 136.86 196.775 135.827 196.775ZM144.23 196.775C143.242 196.775 142.456 196.477 141.873 195.882C141.289 195.276 140.997 194.35 140.997 193.104V188.22H142.412V192.952C142.412 194.692 143.124 195.562 144.55 195.562C145.28 195.562 145.881 195.304 146.352 194.787C146.835 194.26 147.076 193.513 147.076 192.548V188.22H148.491V196.573H147.211L147.11 195.074C146.852 195.601 146.464 196.017 145.948 196.32C145.443 196.623 144.87 196.775 144.23 196.775ZM154.271 196.775C153.44 196.775 152.711 196.584 152.082 196.202C151.465 195.82 150.982 195.298 150.634 194.636C150.297 193.974 150.129 193.221 150.129 192.379C150.129 191.537 150.303 190.791 150.651 190.14C150.999 189.477 151.481 188.961 152.099 188.59C152.716 188.209 153.446 188.018 154.288 188.018C154.973 188.018 155.579 188.158 156.107 188.439C156.634 188.72 157.044 189.113 157.336 189.618V184.448H158.751V196.573H157.471L157.336 195.192C157.067 195.596 156.679 195.961 156.174 196.286C155.669 196.612 155.035 196.775 154.271 196.775ZM154.423 195.545C154.984 195.545 155.478 195.416 155.905 195.158C156.342 194.889 156.679 194.518 156.915 194.047C157.162 193.575 157.285 193.025 157.285 192.396C157.285 191.768 157.162 191.217 156.915 190.746C156.679 190.274 156.342 189.91 155.905 189.651C155.478 189.382 154.984 189.247 154.423 189.247C153.873 189.247 153.379 189.382 152.941 189.651C152.514 189.91 152.177 190.274 151.93 190.746C151.695 191.217 151.577 191.768 151.577 192.396C151.577 193.025 151.695 193.575 151.93 194.047C152.177 194.518 152.514 194.889 152.941 195.158C153.379 195.416 153.873 195.545 154.423 195.545ZM164.02 193.946C163.549 193.946 163.116 193.884 162.724 193.76L161.882 194.552C162.005 194.642 162.157 194.72 162.336 194.787C162.527 194.844 162.797 194.9 163.145 194.956C163.493 195.001 163.981 195.051 164.61 195.107C165.732 195.186 166.535 195.444 167.018 195.882C167.5 196.32 167.742 196.892 167.742 197.6C167.742 198.082 167.607 198.543 167.338 198.981C167.079 199.418 166.675 199.778 166.125 200.058C165.586 200.339 164.89 200.479 164.037 200.479C163.285 200.479 162.617 200.378 162.033 200.176C161.449 199.985 160.995 199.688 160.669 199.284C160.344 198.891 160.181 198.391 160.181 197.785C160.181 197.471 160.265 197.128 160.433 196.758C160.602 196.398 160.916 196.056 161.376 195.731C161.129 195.629 160.916 195.523 160.736 195.411C160.568 195.287 160.411 195.152 160.265 195.006V194.619L161.696 193.205C161.034 192.643 160.703 191.902 160.703 190.982C160.703 190.432 160.832 189.932 161.09 189.483C161.348 189.034 161.724 188.68 162.218 188.422C162.712 188.153 163.313 188.018 164.02 188.018C164.503 188.018 164.941 188.085 165.334 188.22H168.415V189.281L166.849 189.348C167.175 189.82 167.338 190.364 167.338 190.982C167.338 191.532 167.203 192.031 166.933 192.48C166.675 192.93 166.299 193.289 165.805 193.558C165.322 193.816 164.727 193.946 164.02 193.946ZM164.02 192.784C164.615 192.784 165.087 192.632 165.435 192.329C165.794 192.015 165.974 191.565 165.974 190.982C165.974 190.409 165.794 189.971 165.435 189.668C165.087 189.354 164.615 189.197 164.02 189.197C163.414 189.197 162.931 189.354 162.572 189.668C162.224 189.971 162.05 190.409 162.05 190.982C162.05 191.565 162.224 192.015 162.572 192.329C162.931 192.632 163.414 192.784 164.02 192.784ZM161.562 197.65C161.562 198.212 161.797 198.627 162.269 198.896C162.74 199.177 163.33 199.317 164.037 199.317C164.733 199.317 165.289 199.166 165.704 198.863C166.131 198.56 166.344 198.155 166.344 197.65C166.344 197.291 166.198 196.977 165.906 196.707C165.614 196.449 165.075 196.297 164.29 196.253C163.672 196.208 163.139 196.152 162.69 196.084C162.23 196.331 161.926 196.595 161.781 196.876C161.635 197.168 161.562 197.426 161.562 197.65ZM173.101 196.775C172.304 196.775 171.596 196.595 170.979 196.236C170.361 195.865 169.873 195.354 169.514 194.703C169.166 194.052 168.992 193.283 168.992 192.396C168.992 191.521 169.166 190.757 169.514 190.106C169.862 189.444 170.345 188.933 170.962 188.574C171.591 188.203 172.315 188.018 173.134 188.018C173.943 188.018 174.639 188.203 175.222 188.574C175.817 188.933 176.272 189.41 176.586 190.005C176.901 190.6 177.058 191.24 177.058 191.925C177.058 192.048 177.052 192.172 177.041 192.295C177.041 192.419 177.041 192.559 177.041 192.716H170.389C170.423 193.356 170.569 193.889 170.827 194.316C171.097 194.731 171.428 195.046 171.821 195.259C172.225 195.472 172.652 195.579 173.101 195.579C173.684 195.579 174.173 195.444 174.566 195.175C174.959 194.905 175.245 194.541 175.425 194.08H176.822C176.598 194.855 176.165 195.5 175.526 196.017C174.897 196.522 174.089 196.775 173.101 196.775ZM173.101 189.214C172.427 189.214 171.826 189.421 171.299 189.837C170.782 190.241 170.485 190.836 170.406 191.622H175.66C175.627 190.869 175.368 190.28 174.886 189.853C174.403 189.427 173.808 189.214 173.101 189.214ZM179.084 196.657C178.804 196.657 178.568 196.567 178.377 196.387C178.197 196.196 178.108 195.966 178.108 195.697C178.108 195.427 178.197 195.203 178.377 195.023C178.568 194.832 178.804 194.737 179.084 194.737C179.354 194.737 179.578 194.832 179.758 195.023C179.949 195.203 180.044 195.427 180.044 195.697C180.044 195.966 179.949 196.196 179.758 196.387C179.578 196.567 179.354 196.657 179.084 196.657ZM181.548 196.573V188.22H182.828L182.929 189.432C183.199 188.983 183.558 188.635 184.007 188.388C184.456 188.141 184.961 188.018 185.522 188.018C186.185 188.018 186.752 188.153 187.223 188.422C187.706 188.692 188.076 189.101 188.335 189.651C188.627 189.146 189.025 188.748 189.53 188.456C190.047 188.164 190.602 188.018 191.197 188.018C192.197 188.018 192.994 188.321 193.589 188.927C194.184 189.522 194.481 190.443 194.481 191.689V196.573H193.083V191.841C193.083 190.976 192.909 190.325 192.561 189.887C192.213 189.449 191.714 189.23 191.063 189.23C190.389 189.23 189.828 189.494 189.379 190.022C188.941 190.538 188.722 191.279 188.722 192.245V196.573H187.307V191.841C187.307 190.976 187.133 190.325 186.785 189.887C186.437 189.449 185.938 189.23 185.287 189.23C184.624 189.23 184.069 189.494 183.62 190.022C183.182 190.538 182.963 191.279 182.963 192.245V196.573H181.548ZM200.03 196.775C199.233 196.775 198.526 196.595 197.909 196.236C197.291 195.865 196.803 195.354 196.444 194.703C196.095 194.052 195.921 193.283 195.921 192.396C195.921 191.521 196.095 190.757 196.444 190.106C196.792 189.444 197.274 188.933 197.892 188.574C198.52 188.203 199.245 188.018 200.064 188.018C200.872 188.018 201.568 188.203 202.152 188.574C202.747 188.933 203.202 189.41 203.516 190.005C203.831 190.6 203.988 191.24 203.988 191.925C203.988 192.048 203.982 192.172 203.971 192.295C203.971 192.419 203.971 192.559 203.971 192.716H197.319C197.353 193.356 197.499 193.889 197.757 194.316C198.026 194.731 198.358 195.046 198.751 195.259C199.155 195.472 199.581 195.579 200.03 195.579C200.614 195.579 201.103 195.444 201.495 195.175C201.888 194.905 202.175 194.541 202.354 194.08H203.752C203.527 194.855 203.095 195.5 202.455 196.017C201.827 196.522 201.018 196.775 200.03 196.775ZM200.03 189.214C199.357 189.214 198.756 189.421 198.229 189.837C197.712 190.241 197.415 190.836 197.336 191.622H202.59C202.556 190.869 202.298 190.28 201.815 189.853C201.333 189.427 200.738 189.214 200.03 189.214Z" fill="#5D616B"/>
<rect x="309.648" y="83.2459" width="86.9722" height="86.9722" rx="8.69722" fill="#163E35"/>
<g opacity="0.8">
<path d="M350.851 103.064C352.241 102.152 354.028 102.152 355.418 103.064L386 123.143C388.565 124.827 388.565 128.637 386 130.321L382.61 132.547C376.521 122.505 365.597 115.81 353.135 115.81C340.672 115.81 329.749 122.505 323.659 132.547L320.269 130.321C317.705 128.637 317.705 124.827 320.269 123.143L350.851 103.064Z" fill="url(#paint0_linear_5223_2011)"/>
<path d="M353.135 124.358C362.634 124.358 370.952 129.498 375.54 137.189L368.062 142.099C365.253 136.635 359.623 132.905 353.135 132.905C346.646 132.905 341.016 136.635 338.207 142.099L330.729 137.189C335.317 129.498 343.635 124.358 353.135 124.358Z" fill="url(#paint1_linear_5223_2011)"/>
<path d="M360.932 146.78L355.418 150.4C354.028 151.312 352.241 151.312 350.851 150.4L345.338 146.78C346.589 143.655 349.609 141.452 353.135 141.452C356.66 141.452 359.68 143.655 360.932 146.78Z" fill="url(#paint2_linear_5223_2011)"/>
</g>
<path d="M327.614 196.573V184.785H329.029V190.123L333.946 184.785H335.731L331.353 189.483L335.799 196.573H334.081L330.343 190.578L329.029 191.975V196.573H327.614ZM336.995 196.573V184.448H338.409V196.573H336.995ZM343.17 196.775C342.473 196.775 341.895 196.657 341.435 196.421C340.975 196.185 340.632 195.871 340.408 195.478C340.183 195.085 340.071 194.658 340.071 194.198C340.071 193.345 340.397 192.688 341.048 192.228C341.699 191.768 342.586 191.537 343.708 191.537H345.965V191.436C345.965 190.707 345.774 190.157 345.392 189.786C345.011 189.404 344.5 189.214 343.86 189.214C343.31 189.214 342.833 189.354 342.429 189.635C342.036 189.904 341.789 190.303 341.688 190.83H340.239C340.296 190.224 340.498 189.713 340.846 189.298C341.205 188.882 341.648 188.568 342.176 188.355C342.704 188.13 343.265 188.018 343.86 188.018C345.028 188.018 345.903 188.332 346.487 188.961C347.082 189.578 347.379 190.404 347.379 191.436V196.573H346.116L346.032 195.074C345.797 195.545 345.449 195.949 344.988 196.286C344.539 196.612 343.933 196.775 343.17 196.775ZM343.388 195.579C343.927 195.579 344.388 195.439 344.769 195.158C345.162 194.877 345.46 194.512 345.662 194.063C345.864 193.614 345.965 193.143 345.965 192.649V192.632H343.826C342.996 192.632 342.406 192.778 342.058 193.07C341.721 193.351 341.553 193.704 341.553 194.131C341.553 194.569 341.71 194.922 342.024 195.192C342.35 195.45 342.805 195.579 343.388 195.579ZM351.26 196.573L348.094 188.22H349.576L352.086 195.208L354.611 188.22H356.06L352.894 196.573H351.26ZM358.156 186.368C357.875 186.368 357.64 186.278 357.449 186.098C357.269 185.907 357.179 185.672 357.179 185.391C357.179 185.121 357.269 184.897 357.449 184.717C357.64 184.538 357.875 184.448 358.156 184.448C358.425 184.448 358.656 184.538 358.846 184.717C359.037 184.897 359.133 185.121 359.133 185.391C359.133 185.672 359.037 185.907 358.846 186.098C358.656 186.278 358.425 186.368 358.156 186.368ZM357.449 196.573V188.22H358.863V196.573H357.449ZM361.899 200.277L363.97 195.764H363.482L360.164 188.22H361.697L364.458 194.72L367.388 188.22H368.854L363.381 200.277H361.899ZM373.026 196.775C372.24 196.775 371.533 196.595 370.904 196.236C370.276 195.876 369.776 195.371 369.406 194.72C369.046 194.058 368.867 193.283 368.867 192.396C368.867 191.509 369.052 190.74 369.423 190.089C369.793 189.427 370.293 188.916 370.921 188.557C371.561 188.198 372.274 188.018 373.06 188.018C373.846 188.018 374.553 188.198 375.182 188.557C375.81 188.916 376.304 189.427 376.664 190.089C377.034 190.74 377.219 191.509 377.219 192.396C377.219 193.283 377.034 194.058 376.664 194.72C376.293 195.371 375.788 195.876 375.148 196.236C374.519 196.595 373.812 196.775 373.026 196.775ZM373.026 195.562C373.509 195.562 373.958 195.444 374.373 195.208C374.789 194.973 375.126 194.619 375.384 194.148C375.642 193.676 375.771 193.092 375.771 192.396C375.771 191.7 375.642 191.116 375.384 190.645C375.137 190.173 374.806 189.82 374.39 189.584C373.975 189.348 373.531 189.23 373.06 189.23C372.577 189.23 372.128 189.348 371.713 189.584C371.297 189.82 370.961 190.173 370.702 190.645C370.444 191.116 370.315 191.7 370.315 192.396C370.315 193.092 370.444 193.676 370.702 194.148C370.961 194.619 371.292 194.973 371.696 195.208C372.111 195.444 372.555 195.562 373.026 195.562Z" fill="#5D616B"/>
<circle cx="537.197" cy="126.426" r="43.1799" fill="url(#paint3_linear_5223_2011)"/>
<path d="M545.616 104.296H528.953C521.285 104.296 515.067 110.514 515.067 118.181V134.844C515.067 142.512 521.285 148.73 528.953 148.73H545.616C553.284 148.73 559.502 142.512 559.502 134.844V118.181C559.502 110.514 553.284 104.296 545.616 104.296ZM555.336 134.844C555.336 140.204 550.976 144.564 545.616 144.564H528.953C523.593 144.564 519.233 140.204 519.233 134.844V118.181C519.233 112.821 523.593 108.461 528.953 108.461H545.616C550.976 108.461 555.336 112.821 555.336 118.181V134.844Z" fill="white"/>
<path d="M537.284 115.404C531.15 115.404 526.176 120.378 526.176 126.513C526.176 132.647 531.15 137.621 537.284 137.621C543.419 137.621 548.393 132.647 548.393 126.513C548.393 120.378 543.419 115.404 537.284 115.404ZM537.284 133.456C533.458 133.456 530.342 130.34 530.342 126.513C530.342 122.683 533.458 119.57 537.284 119.57C541.111 119.57 544.227 122.683 544.227 126.513C544.227 130.34 541.111 133.456 537.284 133.456Z" fill="white"/>
<path d="M550.087 116.884C550.904 116.884 551.567 116.222 551.567 115.404C551.567 114.587 550.904 113.924 550.087 113.924C549.269 113.924 548.606 114.587 548.606 115.404C548.606 116.222 549.269 116.884 550.087 116.884Z" fill="white"/>
<ellipse cx="550.143" cy="115.987" rx="2.33864" ry="2.33864" fill="white"/>
<path d="M501.26 196.573V184.785H502.674V196.573H501.26ZM504.752 196.573V188.22H506.032L506.117 189.719C506.386 189.191 506.773 188.776 507.278 188.473C507.784 188.169 508.356 188.018 508.996 188.018C509.984 188.018 510.77 188.321 511.354 188.927C511.949 189.522 512.246 190.443 512.246 191.689V196.573H510.832V191.841C510.832 190.1 510.113 189.23 508.676 189.23C507.958 189.23 507.357 189.494 506.874 190.022C506.403 190.538 506.167 191.279 506.167 192.245V196.573H504.752ZM517.252 196.775C516.253 196.775 515.422 196.522 514.76 196.017C514.097 195.512 513.71 194.827 513.598 193.962H515.046C515.136 194.4 515.366 194.782 515.736 195.107C516.118 195.422 516.629 195.579 517.269 195.579C517.864 195.579 518.302 195.455 518.582 195.208C518.863 194.95 519.003 194.647 519.003 194.299C519.003 193.794 518.818 193.457 518.448 193.289C518.088 193.12 517.578 192.969 516.915 192.834C516.466 192.744 516.017 192.615 515.568 192.447C515.119 192.278 514.743 192.043 514.44 191.74C514.137 191.425 513.985 191.015 513.985 190.51C513.985 189.78 514.255 189.185 514.793 188.725C515.344 188.254 516.084 188.018 517.016 188.018C517.903 188.018 518.627 188.242 519.189 188.692C519.761 189.129 520.092 189.758 520.182 190.578H518.784C518.728 190.151 518.543 189.82 518.229 189.584C517.926 189.337 517.516 189.214 516.999 189.214C516.494 189.214 516.101 189.32 515.821 189.534C515.551 189.747 515.417 190.027 515.417 190.375C515.417 190.712 515.591 190.976 515.939 191.167C516.298 191.358 516.781 191.521 517.387 191.655C517.903 191.768 518.392 191.908 518.852 192.076C519.323 192.233 519.705 192.475 519.997 192.8C520.3 193.115 520.452 193.575 520.452 194.181C520.463 194.933 520.177 195.557 519.593 196.05C519.02 196.533 518.24 196.775 517.252 196.775ZM525.058 196.573C524.295 196.573 523.694 196.387 523.256 196.017C522.818 195.646 522.599 194.978 522.599 194.013V189.416H521.151V188.22H522.599L522.785 186.216H524.014V188.22H526.472V189.416H524.014V194.013C524.014 194.541 524.121 194.9 524.334 195.091C524.547 195.27 524.923 195.36 525.462 195.36H526.338V196.573H525.058ZM530.711 196.775C530.015 196.775 529.437 196.657 528.977 196.421C528.517 196.185 528.174 195.871 527.95 195.478C527.725 195.085 527.613 194.658 527.613 194.198C527.613 193.345 527.938 192.688 528.59 192.228C529.241 191.768 530.128 191.537 531.25 191.537H533.507V191.436C533.507 190.707 533.316 190.157 532.934 189.786C532.552 189.404 532.042 189.214 531.402 189.214C530.852 189.214 530.375 189.354 529.97 189.635C529.577 189.904 529.33 190.303 529.229 190.83H527.781C527.837 190.224 528.039 189.713 528.387 189.298C528.747 188.882 529.19 188.568 529.718 188.355C530.245 188.13 530.807 188.018 531.402 188.018C532.569 188.018 533.445 188.332 534.029 188.961C534.624 189.578 534.921 190.404 534.921 191.436V196.573H533.658L533.574 195.074C533.338 195.545 532.99 195.949 532.53 196.286C532.081 196.612 531.475 196.775 530.711 196.775ZM530.93 195.579C531.469 195.579 531.929 195.439 532.311 195.158C532.704 194.877 533.002 194.512 533.204 194.063C533.406 193.614 533.507 193.143 533.507 192.649V192.632H531.368C530.537 192.632 529.948 192.778 529.6 193.07C529.263 193.351 529.095 193.704 529.095 194.131C529.095 194.569 529.252 194.922 529.566 195.192C529.892 195.45 530.346 195.579 530.93 195.579ZM540.007 193.946C539.536 193.946 539.103 193.884 538.71 193.76L537.868 194.552C537.992 194.642 538.144 194.72 538.323 194.787C538.514 194.844 538.783 194.9 539.131 194.956C539.479 195.001 539.968 195.051 540.597 195.107C541.719 195.186 542.522 195.444 543.005 195.882C543.487 196.32 543.729 196.892 543.729 197.6C543.729 198.082 543.594 198.543 543.325 198.981C543.066 199.418 542.662 199.778 542.112 200.058C541.573 200.339 540.877 200.479 540.024 200.479C539.272 200.479 538.604 200.378 538.02 200.176C537.436 199.985 536.982 199.688 536.656 199.284C536.33 198.891 536.168 198.391 536.168 197.785C536.168 197.471 536.252 197.128 536.42 196.758C536.589 196.398 536.903 196.056 537.363 195.731C537.116 195.629 536.903 195.523 536.723 195.411C536.555 195.287 536.398 195.152 536.252 195.006V194.619L537.683 193.205C537.021 192.643 536.69 191.902 536.69 190.982C536.69 190.432 536.819 189.932 537.077 189.483C537.335 189.034 537.711 188.68 538.205 188.422C538.699 188.153 539.3 188.018 540.007 188.018C540.49 188.018 540.928 188.085 541.321 188.22H544.402V189.281L542.836 189.348C543.162 189.82 543.325 190.364 543.325 190.982C543.325 191.532 543.19 192.031 542.92 192.48C542.662 192.93 542.286 193.289 541.792 193.558C541.309 193.816 540.714 193.946 540.007 193.946ZM540.007 192.784C540.602 192.784 541.074 192.632 541.422 192.329C541.781 192.015 541.961 191.565 541.961 190.982C541.961 190.409 541.781 189.971 541.422 189.668C541.074 189.354 540.602 189.197 540.007 189.197C539.401 189.197 538.918 189.354 538.559 189.668C538.211 189.971 538.037 190.409 538.037 190.982C538.037 191.565 538.211 192.015 538.559 192.329C538.918 192.632 539.401 192.784 540.007 192.784ZM537.549 197.65C537.549 198.212 537.784 198.627 538.256 198.896C538.727 199.177 539.317 199.317 540.024 199.317C540.72 199.317 541.276 199.166 541.691 198.863C542.118 198.56 542.331 198.155 542.331 197.65C542.331 197.291 542.185 196.977 541.893 196.707C541.601 196.449 541.062 196.297 540.277 196.253C539.659 196.208 539.126 196.152 538.677 196.084C538.216 196.331 537.913 196.595 537.767 196.876C537.621 197.168 537.549 197.426 537.549 197.65ZM545.661 196.573V188.22H546.941L547.059 189.82C547.317 189.27 547.71 188.832 548.238 188.506C548.765 188.181 549.416 188.018 550.191 188.018V189.5H549.804C549.31 189.5 548.855 189.59 548.44 189.769C548.024 189.938 547.693 190.23 547.446 190.645C547.199 191.06 547.076 191.633 547.076 192.363V196.573H545.661ZM554.221 196.775C553.524 196.775 552.946 196.657 552.486 196.421C552.026 196.185 551.683 195.871 551.459 195.478C551.234 195.085 551.122 194.658 551.122 194.198C551.122 193.345 551.448 192.688 552.099 192.228C552.75 191.768 553.637 191.537 554.759 191.537H557.016V191.436C557.016 190.707 556.825 190.157 556.443 189.786C556.062 189.404 555.551 189.214 554.911 189.214C554.361 189.214 553.884 189.354 553.48 189.635C553.087 189.904 552.84 190.303 552.739 190.83H551.29C551.347 190.224 551.549 189.713 551.897 189.298C552.256 188.882 552.699 188.568 553.227 188.355C553.755 188.13 554.316 188.018 554.911 188.018C556.078 188.018 556.954 188.332 557.538 188.961C558.133 189.578 558.43 190.404 558.43 191.436V196.573H557.167L557.083 195.074C556.848 195.545 556.499 195.949 556.039 196.286C555.59 196.612 554.984 196.775 554.221 196.775ZM554.439 195.579C554.978 195.579 555.439 195.439 555.82 195.158C556.213 194.877 556.511 194.512 556.713 194.063C556.915 193.614 557.016 193.143 557.016 192.649V192.632H554.877C554.047 192.632 553.457 192.778 553.109 193.07C552.772 193.351 552.604 193.704 552.604 194.131C552.604 194.569 552.761 194.922 553.075 195.192C553.401 195.45 553.856 195.579 554.439 195.579ZM560.216 196.573V188.22H561.496L561.597 189.432C561.866 188.983 562.225 188.635 562.674 188.388C563.123 188.141 563.629 188.018 564.19 188.018C564.852 188.018 565.419 188.153 565.891 188.422C566.373 188.692 566.744 189.101 567.002 189.651C567.294 189.146 567.693 188.748 568.198 188.456C568.714 188.164 569.27 188.018 569.865 188.018C570.864 188.018 571.661 188.321 572.256 188.927C572.851 189.522 573.149 190.443 573.149 191.689V196.573H571.751V191.841C571.751 190.976 571.577 190.325 571.229 189.887C570.881 189.449 570.381 189.23 569.73 189.23C569.057 189.23 568.495 189.494 568.046 190.022C567.608 190.538 567.389 191.279 567.389 192.245V196.573H565.975V191.841C565.975 190.976 565.801 190.325 565.453 189.887C565.105 189.449 564.605 189.23 563.954 189.23C563.292 189.23 562.736 189.494 562.287 190.022C561.849 190.538 561.63 191.279 561.63 192.245V196.573H560.216Z" fill="#5D616B"/>
<g clip-path="url(#clip0_5223_2011)">
<path d="M765.358 126.277C765.358 102.257 745.891 82.7906 721.872 82.7906C697.853 82.7906 678.386 102.257 678.386 126.277C678.386 147.986 694.285 165.975 715.077 169.236V138.847H704.036V126.277H715.077V116.696C715.077 105.799 721.566 99.7774 731.503 99.7774C736.26 99.7774 741.237 100.627 741.237 100.627V111.328H735.75C730.348 111.328 728.667 114.683 728.667 118.123V126.277H740.727L738.799 138.847H728.667V169.236C749.458 165.975 765.358 147.986 765.358 126.277Z" fill="#1877F2"/>
<path d="M738.8 138.847L740.728 126.277H728.667V118.123C728.667 114.683 730.349 111.328 735.75 111.328H741.237V100.627C741.237 100.627 736.26 99.7774 731.504 99.7774C721.566 99.7774 715.078 105.799 715.078 116.696V126.277H704.036V138.847H715.078V169.236C717.294 169.584 719.562 169.763 721.872 169.763C724.182 169.763 726.45 169.584 728.667 169.236V138.847H738.8Z" fill="white"/>
</g>
<path d="M685.502 196.573V184.785H692.676V185.947H686.917V190.089H691.817V191.234H686.917V196.573H685.502ZM696.279 196.775C695.583 196.775 695.005 196.657 694.545 196.421C694.085 196.185 693.742 195.871 693.518 195.478C693.293 195.085 693.181 194.658 693.181 194.198C693.181 193.345 693.506 192.688 694.158 192.228C694.809 191.768 695.696 191.537 696.818 191.537H699.075V191.436C699.075 190.707 698.884 190.157 698.502 189.786C698.121 189.404 697.61 189.214 696.97 189.214C696.42 189.214 695.943 189.354 695.538 189.635C695.146 189.904 694.899 190.303 694.798 190.83H693.349C693.405 190.224 693.608 189.713 693.956 189.298C694.315 188.882 694.758 188.568 695.286 188.355C695.814 188.13 696.375 188.018 696.97 188.018C698.137 188.018 699.013 188.332 699.597 188.961C700.192 189.578 700.489 190.404 700.489 191.436V196.573H699.226L699.142 195.074C698.906 195.545 698.558 195.949 698.098 196.286C697.649 196.612 697.043 196.775 696.279 196.775ZM696.498 195.579C697.037 195.579 697.498 195.439 697.879 195.158C698.272 194.877 698.57 194.512 698.772 194.063C698.974 193.614 699.075 193.143 699.075 192.649V192.632H696.936C696.105 192.632 695.516 192.778 695.168 193.07C694.831 193.351 694.663 193.704 694.663 194.131C694.663 194.569 694.82 194.922 695.134 195.192C695.46 195.45 695.915 195.579 696.498 195.579ZM706.114 196.775C705.317 196.775 704.599 196.595 703.959 196.236C703.33 195.865 702.83 195.354 702.46 194.703C702.101 194.041 701.921 193.272 701.921 192.396C701.921 191.521 702.101 190.757 702.46 190.106C702.83 189.444 703.33 188.933 703.959 188.574C704.599 188.203 705.317 188.018 706.114 188.018C707.102 188.018 707.933 188.276 708.606 188.793C709.291 189.309 709.723 189.999 709.903 190.864H708.455C708.343 190.347 708.068 189.949 707.63 189.668C707.192 189.376 706.681 189.23 706.097 189.23C705.626 189.23 705.182 189.348 704.767 189.584C704.352 189.82 704.015 190.173 703.757 190.645C703.498 191.116 703.369 191.7 703.369 192.396C703.369 193.092 703.498 193.676 703.757 194.148C704.015 194.619 704.352 194.978 704.767 195.225C705.182 195.461 705.626 195.579 706.097 195.579C706.681 195.579 707.192 195.439 707.63 195.158C708.068 194.866 708.343 194.456 708.455 193.929H709.903C709.735 194.771 709.308 195.455 708.623 195.983C707.938 196.511 707.102 196.775 706.114 196.775ZM715.297 196.775C714.5 196.775 713.793 196.595 713.175 196.236C712.558 195.865 712.069 195.354 711.71 194.703C711.362 194.052 711.188 193.283 711.188 192.396C711.188 191.521 711.362 190.757 711.71 190.106C712.058 189.444 712.541 188.933 713.158 188.574C713.787 188.203 714.511 188.018 715.331 188.018C716.139 188.018 716.835 188.203 717.419 188.574C718.014 188.933 718.469 189.41 718.783 190.005C719.097 190.6 719.254 191.24 719.254 191.925C719.254 192.048 719.249 192.172 719.238 192.295C719.238 192.419 719.238 192.559 719.238 192.716H712.586C712.62 193.356 712.765 193.889 713.024 194.316C713.293 194.731 713.624 195.046 714.017 195.259C714.421 195.472 714.848 195.579 715.297 195.579C715.881 195.579 716.369 195.444 716.762 195.175C717.155 194.905 717.441 194.541 717.621 194.08H719.019C718.794 194.855 718.362 195.5 717.722 196.017C717.093 196.522 716.285 196.775 715.297 196.775ZM715.297 189.214C714.623 189.214 714.023 189.421 713.495 189.837C712.979 190.241 712.681 190.836 712.603 191.622H717.857C717.823 190.869 717.565 190.28 717.082 189.853C716.599 189.427 716.004 189.214 715.297 189.214ZM725.255 196.775C724.57 196.775 723.958 196.634 723.419 196.354C722.892 196.073 722.488 195.68 722.207 195.175L722.072 196.573H720.792V184.448H722.207V189.601C722.476 189.197 722.858 188.832 723.352 188.506C723.857 188.181 724.497 188.018 725.272 188.018C726.103 188.018 726.827 188.209 727.444 188.59C728.062 188.972 728.539 189.494 728.876 190.157C729.224 190.819 729.398 191.571 729.398 192.413C729.398 193.255 729.224 194.007 728.876 194.67C728.539 195.321 728.056 195.837 727.427 196.219C726.81 196.589 726.086 196.775 725.255 196.775ZM725.103 195.545C725.665 195.545 726.159 195.416 726.585 195.158C727.012 194.889 727.349 194.518 727.596 194.047C727.843 193.575 727.966 193.025 727.966 192.396C727.966 191.768 727.843 191.217 727.596 190.746C727.349 190.274 727.012 189.91 726.585 189.651C726.159 189.382 725.665 189.247 725.103 189.247C724.542 189.247 724.048 189.382 723.622 189.651C723.195 189.91 722.858 190.274 722.611 190.746C722.364 191.217 722.241 191.768 722.241 192.396C722.241 193.025 722.364 193.575 722.611 194.047C722.858 194.518 723.195 194.889 723.622 195.158C724.048 195.416 724.542 195.545 725.103 195.545ZM734.836 196.775C734.05 196.775 733.342 196.595 732.714 196.236C732.085 195.876 731.586 195.371 731.215 194.72C730.856 194.058 730.676 193.283 730.676 192.396C730.676 191.509 730.861 190.74 731.232 190.089C731.602 189.427 732.102 188.916 732.731 188.557C733.371 188.198 734.083 188.018 734.869 188.018C735.655 188.018 736.362 188.198 736.991 188.557C737.62 188.916 738.114 189.427 738.473 190.089C738.843 190.74 739.029 191.509 739.029 192.396C739.029 193.283 738.843 194.058 738.473 194.72C738.102 195.371 737.597 195.876 736.957 196.236C736.329 196.595 735.621 196.775 734.836 196.775ZM734.836 195.562C735.318 195.562 735.767 195.444 736.183 195.208C736.598 194.973 736.935 194.619 737.193 194.148C737.451 193.676 737.58 193.092 737.58 192.396C737.58 191.7 737.451 191.116 737.193 190.645C736.946 190.173 736.615 189.82 736.2 189.584C735.784 189.348 735.341 189.23 734.869 189.23C734.387 189.23 733.937 189.348 733.522 189.584C733.107 189.82 732.77 190.173 732.512 190.645C732.253 191.116 732.124 191.7 732.124 192.396C732.124 193.092 732.253 193.676 732.512 194.148C732.77 194.619 733.101 194.973 733.505 195.208C733.921 195.444 734.364 195.562 734.836 195.562ZM744.464 196.775C743.679 196.775 742.971 196.595 742.343 196.236C741.714 195.876 741.214 195.371 740.844 194.72C740.485 194.058 740.305 193.283 740.305 192.396C740.305 191.509 740.49 190.74 740.861 190.089C741.231 189.427 741.731 188.916 742.36 188.557C742.999 188.198 743.712 188.018 744.498 188.018C745.284 188.018 745.991 188.198 746.62 188.557C747.249 188.916 747.743 189.427 748.102 190.089C748.472 190.74 748.658 191.509 748.658 192.396C748.658 193.283 748.472 194.058 748.102 194.72C747.731 195.371 747.226 195.876 746.586 196.236C745.958 196.595 745.25 196.775 744.464 196.775ZM744.464 195.562C744.947 195.562 745.396 195.444 745.812 195.208C746.227 194.973 746.564 194.619 746.822 194.148C747.08 193.676 747.209 193.092 747.209 192.396C747.209 191.7 747.08 191.116 746.822 190.645C746.575 190.173 746.244 189.82 745.829 189.584C745.413 189.348 744.97 189.23 744.498 189.23C744.015 189.23 743.566 189.348 743.151 189.584C742.736 189.82 742.399 190.173 742.141 190.645C741.882 191.116 741.753 191.7 741.753 192.396C741.753 193.092 741.882 193.676 742.141 194.148C742.399 194.619 742.73 194.973 743.134 195.208C743.55 195.444 743.993 195.562 744.464 195.562ZM750.288 196.573V184.448H751.702V191.74L755.121 188.22H756.855L753.15 191.992L757.327 196.573H755.525L751.702 192.245V196.573H750.288Z" fill="#5D616B"/>
<circle cx="905.935" cy="126.426" r="43.1799" fill="#3E9FF8"/>
<path d="M928.371 114.797C926.719 115.498 924.947 115.973 923.085 116.185C924.986 115.095 926.442 113.366 927.131 111.312C925.348 112.322 923.38 113.055 921.282 113.452C919.603 111.737 917.214 110.668 914.564 110.668C909.48 110.668 905.358 114.615 905.358 119.48C905.358 120.17 905.44 120.844 905.597 121.488C897.948 121.12 891.165 117.611 886.625 112.279C885.832 113.578 885.38 115.093 885.38 116.709C885.38 119.767 887.007 122.465 889.474 124.044C887.966 123.996 886.547 123.598 885.305 122.938V123.048C885.305 127.317 888.479 130.879 892.688 131.69C891.916 131.889 891.103 131.999 890.262 131.999C889.668 131.999 889.093 131.943 888.529 131.835C889.701 135.339 893.1 137.887 897.126 137.957C893.977 140.319 890.007 141.723 885.695 141.723C884.951 141.723 884.22 141.681 883.499 141.603C887.573 144.108 892.41 145.568 897.609 145.568C914.542 145.568 923.797 132.139 923.797 120.492L923.767 119.351C925.575 118.116 927.14 116.564 928.371 114.797Z" fill="white"/>
<path d="M883.442 196.573V185.947H879.922V184.785H888.376V185.947H884.856V196.573H883.442ZM890.478 196.573L888.036 188.22H889.451L891.219 194.771L893.172 188.22H894.772L896.742 194.771L898.493 188.22H899.925L897.483 196.573H896.035L893.98 189.685L891.926 196.573H890.478ZM902.011 186.368C901.731 186.368 901.495 186.278 901.304 186.098C901.125 185.907 901.035 185.672 901.035 185.391C901.035 185.121 901.125 184.897 901.304 184.717C901.495 184.538 901.731 184.448 902.011 184.448C902.281 184.448 902.511 184.538 902.702 184.717C902.893 184.897 902.988 185.121 902.988 185.391C902.988 185.672 902.893 185.907 902.702 186.098C902.511 186.278 902.281 186.368 902.011 186.368ZM901.304 196.573V188.22H902.719V196.573H901.304ZM908.145 196.573C907.382 196.573 906.781 196.387 906.344 196.017C905.906 195.646 905.687 194.978 905.687 194.013V189.416H904.239V188.22H905.687L905.872 186.216H907.101V188.22H909.56V189.416H907.101V194.013C907.101 194.541 907.208 194.9 907.421 195.091C907.635 195.27 908.011 195.36 908.55 195.36H909.425V196.573H908.145ZM914.321 196.573C913.557 196.573 912.957 196.387 912.519 196.017C912.081 195.646 911.862 194.978 911.862 194.013V189.416H910.414V188.22H911.862L912.048 186.216H913.277V188.22H915.735V189.416H913.277V194.013C913.277 194.541 913.383 194.9 913.597 195.091C913.81 195.27 914.186 195.36 914.725 195.36H915.601V196.573H914.321ZM920.721 196.775C919.924 196.775 919.216 196.595 918.599 196.236C917.981 195.865 917.493 195.354 917.134 194.703C916.786 194.052 916.612 193.283 916.612 192.396C916.612 191.521 916.786 190.757 917.134 190.106C917.482 189.444 917.965 188.933 918.582 188.574C919.211 188.203 919.935 188.018 920.754 188.018C921.563 188.018 922.259 188.203 922.843 188.574C923.438 188.933 923.892 189.41 924.207 190.005C924.521 190.6 924.678 191.24 924.678 191.925C924.678 192.048 924.672 192.172 924.661 192.295C924.661 192.419 924.661 192.559 924.661 192.716H918.01C918.043 193.356 918.189 193.889 918.447 194.316C918.717 194.731 919.048 195.046 919.441 195.259C919.845 195.472 920.272 195.579 920.721 195.579C921.305 195.579 921.793 195.444 922.186 195.175C922.579 194.905 922.865 194.541 923.045 194.08H924.442C924.218 194.855 923.786 195.5 923.146 196.017C922.517 196.522 921.709 196.775 920.721 196.775ZM920.721 189.214C920.047 189.214 919.447 189.421 918.919 189.837C918.402 190.241 918.105 190.836 918.026 191.622H923.28C923.247 190.869 922.989 190.28 922.506 189.853C922.023 189.427 921.428 189.214 920.721 189.214ZM926.216 196.573V188.22H927.496L927.614 189.82C927.872 189.27 928.265 188.832 928.793 188.506C929.32 188.181 929.971 188.018 930.746 188.018V189.5H930.359C929.865 189.5 929.41 189.59 928.995 189.769C928.579 189.938 928.248 190.23 928.001 190.645C927.754 191.06 927.631 191.633 927.631 192.363V196.573H926.216Z" fill="#5D616B"/>
<path d="M157.559 316.817C163.745 316.817 168.766 311.925 168.766 305.897V294.977H157.559C151.372 294.977 146.352 299.869 146.352 305.897C146.352 311.925 151.372 316.817 157.559 316.817Z" fill="#0ACF83"/>
<path d="M146.352 284.057C146.352 278.029 151.372 273.137 157.559 273.137H168.766V294.977H157.559C151.372 294.977 146.352 290.085 146.352 284.057Z" fill="#A259FF"/>
<path d="M146.352 262.217C146.352 256.189 151.372 251.297 157.559 251.297H168.766V273.137H157.559C151.372 273.137 146.352 268.245 146.352 262.217Z" fill="#F24E1E"/>
<path d="M168.766 251.297H179.973C186.159 251.297 191.18 256.189 191.18 262.217C191.18 268.245 186.159 273.137 179.973 273.137H168.766V251.297Z" fill="#FF7262"/>
<path d="M191.18 284.057C191.18 290.085 186.159 294.977 179.973 294.977C173.787 294.977 168.766 290.085 168.766 284.057C168.766 278.029 173.787 273.137 179.973 273.137C186.159 273.137 191.18 278.029 191.18 284.057Z" fill="#1ABCFE"/>
<path d="M130.979 351.439C130.114 351.439 129.362 351.282 128.722 350.968C128.082 350.653 127.588 350.215 127.24 349.654C126.892 349.093 126.718 348.442 126.718 347.701H128.2C128.2 348.161 128.307 348.587 128.52 348.98C128.733 349.362 129.042 349.671 129.446 349.907C129.861 350.131 130.372 350.243 130.979 350.243C131.776 350.243 132.393 350.053 132.831 349.671C133.269 349.289 133.488 348.812 133.488 348.239C133.488 347.768 133.387 347.392 133.185 347.111C132.982 346.819 132.707 346.584 132.359 346.404C132.023 346.224 131.63 346.067 131.181 345.932C130.743 345.798 130.282 345.646 129.8 345.478C128.89 345.163 128.217 344.776 127.779 344.316C127.341 343.844 127.122 343.232 127.122 342.48C127.111 341.852 127.257 341.296 127.56 340.813C127.863 340.319 128.29 339.937 128.84 339.668C129.401 339.387 130.064 339.247 130.827 339.247C131.579 339.247 132.23 339.387 132.78 339.668C133.342 339.949 133.774 340.336 134.077 340.83C134.391 341.324 134.554 341.885 134.565 342.514H133.083C133.083 342.188 132.999 341.868 132.831 341.554C132.662 341.229 132.404 340.965 132.056 340.763C131.719 340.561 131.293 340.46 130.776 340.46C130.137 340.448 129.609 340.611 129.194 340.948C128.789 341.285 128.587 341.751 128.587 342.346C128.587 342.851 128.728 343.238 129.008 343.508C129.3 343.777 129.704 344.001 130.221 344.181C130.737 344.349 131.332 344.546 132.006 344.77C132.567 344.973 133.072 345.208 133.521 345.478C133.97 345.747 134.318 346.095 134.565 346.522C134.824 346.948 134.953 347.493 134.953 348.155C134.953 348.717 134.807 349.25 134.515 349.755C134.223 350.249 133.78 350.653 133.185 350.968C132.601 351.282 131.865 351.439 130.979 351.439ZM140.293 351.439C139.496 351.439 138.789 351.259 138.171 350.9C137.554 350.53 137.065 350.019 136.706 349.368C136.358 348.717 136.184 347.948 136.184 347.061C136.184 346.185 136.358 345.422 136.706 344.77C137.054 344.108 137.537 343.597 138.154 343.238C138.783 342.868 139.507 342.682 140.327 342.682C141.135 342.682 141.831 342.868 142.415 343.238C143.01 343.597 143.464 344.074 143.779 344.669C144.093 345.264 144.25 345.904 144.25 346.589C144.25 346.713 144.245 346.836 144.233 346.96C144.233 347.083 144.233 347.223 144.233 347.381H137.582C137.615 348.021 137.761 348.554 138.02 348.98C138.289 349.396 138.62 349.71 139.013 349.923C139.417 350.137 139.844 350.243 140.293 350.243C140.877 350.243 141.365 350.109 141.758 349.839C142.151 349.57 142.437 349.205 142.617 348.745H144.015C143.79 349.519 143.358 350.165 142.718 350.681C142.089 351.186 141.281 351.439 140.293 351.439ZM140.293 343.878C139.619 343.878 139.019 344.086 138.491 344.501C137.975 344.905 137.677 345.5 137.599 346.286H142.853C142.819 345.534 142.561 344.944 142.078 344.518C141.595 344.091 141 343.878 140.293 343.878ZM145.788 351.237V342.884H147.068L147.152 344.383C147.422 343.856 147.809 343.44 148.314 343.137C148.82 342.834 149.392 342.682 150.032 342.682C151.02 342.682 151.806 342.985 152.39 343.592C152.985 344.187 153.282 345.107 153.282 346.353V351.237H151.868V346.505C151.868 344.765 151.149 343.895 149.712 343.895C148.994 343.895 148.393 344.159 147.91 344.686C147.439 345.203 147.203 345.944 147.203 346.909V351.237H145.788ZM158.877 351.439C158.047 351.439 157.317 351.248 156.688 350.866C156.071 350.485 155.588 349.963 155.24 349.3C154.903 348.638 154.735 347.886 154.735 347.044C154.735 346.202 154.909 345.455 155.257 344.804C155.605 344.142 156.088 343.625 156.705 343.255C157.322 342.873 158.052 342.682 158.894 342.682C159.579 342.682 160.185 342.823 160.713 343.103C161.241 343.384 161.65 343.777 161.942 344.282V339.112H163.357V351.237H162.077L161.942 349.856C161.673 350.26 161.285 350.625 160.78 350.951C160.275 351.276 159.641 351.439 158.877 351.439ZM159.029 350.21C159.59 350.21 160.084 350.081 160.511 349.822C160.949 349.553 161.285 349.182 161.521 348.711C161.768 348.239 161.892 347.689 161.892 347.061C161.892 346.432 161.768 345.882 161.521 345.41C161.285 344.939 160.949 344.574 160.511 344.316C160.084 344.046 159.59 343.912 159.029 343.912C158.479 343.912 157.985 344.046 157.547 344.316C157.12 344.574 156.784 344.939 156.537 345.41C156.301 345.882 156.183 346.432 156.183 347.061C156.183 347.689 156.301 348.239 156.537 348.711C156.784 349.182 157.12 349.553 157.547 349.822C157.985 350.081 158.479 350.21 159.029 350.21ZM166.185 341.032C165.904 341.032 165.668 340.942 165.477 340.763C165.298 340.572 165.208 340.336 165.208 340.055C165.208 339.786 165.298 339.561 165.477 339.382C165.668 339.202 165.904 339.112 166.185 339.112C166.454 339.112 166.684 339.202 166.875 339.382C167.066 339.561 167.161 339.786 167.161 340.055C167.161 340.336 167.066 340.572 166.875 340.763C166.684 340.942 166.454 341.032 166.185 341.032ZM165.477 351.237V342.884H166.892V351.237H165.477ZM169.018 351.237V342.884H170.298L170.382 344.383C170.651 343.856 171.039 343.44 171.544 343.137C172.049 342.834 172.622 342.682 173.262 342.682C174.25 342.682 175.035 342.985 175.619 343.592C176.214 344.187 176.512 345.107 176.512 346.353V351.237H175.097V346.505C175.097 344.765 174.379 343.895 172.942 343.895C172.223 343.895 171.623 344.159 171.14 344.686C170.668 345.203 170.433 345.944 170.433 346.909V351.237H169.018ZM182.781 351.439C182.096 351.439 181.484 351.299 180.945 351.018C180.417 350.737 180.013 350.344 179.733 349.839L179.598 351.237H178.318V339.112H179.733V344.265C180.002 343.861 180.384 343.496 180.878 343.171C181.383 342.845 182.023 342.682 182.797 342.682C183.628 342.682 184.352 342.873 184.97 343.255C185.587 343.637 186.064 344.159 186.401 344.821C186.749 345.483 186.923 346.236 186.923 347.078C186.923 347.92 186.749 348.672 186.401 349.334C186.064 349.985 185.582 350.502 184.953 350.883C184.335 351.254 183.611 351.439 182.781 351.439ZM182.629 350.21C183.19 350.21 183.684 350.081 184.111 349.822C184.538 349.553 184.874 349.182 185.121 348.711C185.368 348.239 185.492 347.689 185.492 347.061C185.492 346.432 185.368 345.882 185.121 345.41C184.874 344.939 184.538 344.574 184.111 344.316C183.684 344.046 183.19 343.912 182.629 343.912C182.068 343.912 181.574 344.046 181.147 344.316C180.721 344.574 180.384 344.939 180.137 345.41C179.89 345.882 179.766 346.432 179.766 347.061C179.766 347.689 179.89 348.239 180.137 348.711C180.384 349.182 180.721 349.553 181.147 349.822C181.574 350.081 182.068 350.21 182.629 350.21ZM188.555 351.237V339.112H189.97V351.237H188.555ZM195 351.439C194.012 351.439 193.226 351.142 192.642 350.547C192.058 349.94 191.766 349.014 191.766 347.768V342.884H193.181V347.616C193.181 349.357 193.894 350.227 195.32 350.227C196.049 350.227 196.65 349.968 197.121 349.452C197.604 348.924 197.846 348.178 197.846 347.212V342.884H199.26V351.237H197.98L197.879 349.738C197.621 350.266 197.234 350.681 196.717 350.984C196.212 351.287 195.64 351.439 195 351.439ZM205.007 351.439C204.21 351.439 203.503 351.259 202.885 350.9C202.268 350.53 201.779 350.019 201.42 349.368C201.072 348.717 200.898 347.948 200.898 347.061C200.898 346.185 201.072 345.422 201.42 344.77C201.768 344.108 202.251 343.597 202.868 343.238C203.497 342.868 204.221 342.682 205.041 342.682C205.849 342.682 206.545 342.868 207.129 343.238C207.724 343.597 208.178 344.074 208.493 344.669C208.807 345.264 208.964 345.904 208.964 346.589C208.964 346.713 208.959 346.836 208.947 346.96C208.947 347.083 208.947 347.223 208.947 347.381H202.296C202.329 348.021 202.475 348.554 202.734 348.98C203.003 349.396 203.334 349.71 203.727 349.923C204.131 350.137 204.558 350.243 205.007 350.243C205.591 350.243 206.079 350.109 206.472 349.839C206.865 349.57 207.151 349.205 207.331 348.745H208.728C208.504 349.519 208.072 350.165 207.432 350.681C206.803 351.186 205.995 351.439 205.007 351.439ZM205.007 343.878C204.333 343.878 203.733 344.086 203.205 344.501C202.689 344.905 202.391 345.5 202.313 346.286H207.567C207.533 345.534 207.275 344.944 206.792 344.518C206.309 344.091 205.714 343.878 205.007 343.878Z" fill="#5D616B"/>
<rect x="309.648" y="237.91" width="86.9722" height="86.9722" rx="8.69722" fill="white"/>
<rect x="309.648" y="237.91" width="86.9722" height="86.9722" rx="8.69722" fill="#FFC828"/>
<path fill-rule="evenodd" clip-rule="evenodd" d="M332.147 260.41H375.037V303.299H332.147V260.41Z" fill="white"/>
<path d="M309.648 251.271C309.648 243.891 315.635 237.91 323.009 237.91H383.261C390.639 237.91 396.621 243.896 396.621 251.271V311.523C396.621 318.901 390.636 324.883 383.261 324.883H323.008C315.631 324.883 309.648 318.897 309.648 311.523V251.27V251.271ZM368.2 273.066H365.579C365.056 273.066 364.608 273.252 364.231 273.631C363.889 273.975 363.674 274.381 363.661 274.843C363.654 275.126 363.614 276.783 363.521 277.83C363.238 280.864 362.232 283.305 360.507 285.152C358.796 286.988 356.374 287.909 353.244 287.925C350.11 287.91 347.688 286.988 345.975 285.152C344.25 283.304 343.244 280.865 342.961 277.83C342.868 276.783 342.828 275.127 342.821 274.844C342.808 274.381 342.594 273.975 342.251 273.632C342.078 273.45 341.868 273.306 341.636 273.208C341.404 273.111 341.155 273.062 340.903 273.065H338.282C338.03 273.062 337.78 273.111 337.548 273.208C337.316 273.306 337.106 273.45 336.932 273.632C336.591 273.975 336.366 274.315 336.366 274.912C336.366 274.912 336.459 277.639 336.508 278.182C336.933 283.021 338.599 286.871 341.508 289.738C344.389 292.581 348.28 294.013 353.183 294.039L353.299 294.04C358.202 294.014 362.093 292.581 364.973 289.738C367.883 286.871 369.549 283.02 369.974 278.183C370.023 277.639 370.116 274.912 370.116 274.912C370.116 274.315 369.891 273.975 369.55 273.631C369.375 273.449 369.166 273.306 368.934 273.208C368.701 273.111 368.452 273.063 368.2 273.066Z" fill="#FFC828"/>
<path d="M337.297 351.439C336.433 351.439 335.68 351.282 335.04 350.968C334.401 350.653 333.907 350.215 333.559 349.654C333.211 349.093 333.036 348.442 333.036 347.701H334.518C334.518 348.161 334.625 348.587 334.838 348.98C335.052 349.362 335.36 349.671 335.765 349.907C336.18 350.131 336.691 350.243 337.297 350.243C338.094 350.243 338.711 350.053 339.149 349.671C339.587 349.289 339.806 348.812 339.806 348.239C339.806 347.768 339.705 347.392 339.503 347.111C339.301 346.819 339.026 346.584 338.678 346.404C338.341 346.224 337.948 346.067 337.499 345.932C337.061 345.798 336.601 345.646 336.118 345.478C335.209 345.163 334.535 344.776 334.097 344.316C333.66 343.844 333.441 343.232 333.441 342.48C333.429 341.852 333.575 341.296 333.878 340.813C334.182 340.319 334.608 339.937 335.158 339.668C335.72 339.387 336.382 339.247 337.145 339.247C337.898 339.247 338.549 339.387 339.099 339.668C339.66 339.949 340.092 340.336 340.395 340.83C340.71 341.324 340.873 341.885 340.884 342.514H339.402C339.402 342.188 339.318 341.868 339.149 341.554C338.981 341.229 338.723 340.965 338.375 340.763C338.038 340.561 337.611 340.46 337.095 340.46C336.455 340.448 335.927 340.611 335.512 340.948C335.108 341.285 334.906 341.751 334.906 342.346C334.906 342.851 335.046 343.238 335.327 343.508C335.619 343.777 336.023 344.001 336.539 344.181C337.056 344.349 337.651 344.546 338.324 344.77C338.885 344.973 339.391 345.208 339.84 345.478C340.289 345.747 340.637 346.095 340.884 346.522C341.142 346.948 341.271 347.493 341.271 348.155C341.271 348.717 341.125 349.25 340.833 349.755C340.541 350.249 340.098 350.653 339.503 350.968C338.919 351.282 338.184 351.439 337.297 351.439ZM342.856 351.237V342.884H344.136L344.237 344.097C344.506 343.648 344.866 343.3 345.315 343.053C345.764 342.806 346.269 342.682 346.83 342.682C347.493 342.682 348.06 342.817 348.531 343.087C349.014 343.356 349.384 343.766 349.643 344.316C349.934 343.811 350.333 343.412 350.838 343.12C351.355 342.828 351.91 342.682 352.505 342.682C353.504 342.682 354.302 342.985 354.897 343.592C355.492 344.187 355.789 345.107 355.789 346.353V351.237H354.391V346.505C354.391 345.641 354.217 344.989 353.869 344.552C353.521 344.114 353.022 343.895 352.371 343.895C351.697 343.895 351.136 344.159 350.687 344.686C350.249 345.203 350.03 345.944 350.03 346.909V351.237H348.615V346.505C348.615 345.641 348.441 344.989 348.093 344.552C347.745 344.114 347.246 343.895 346.595 343.895C345.932 343.895 345.377 344.159 344.927 344.686C344.49 345.203 344.271 345.944 344.271 346.909V351.237H342.856ZM358.442 341.032C358.161 341.032 357.925 340.942 357.735 340.763C357.555 340.572 357.465 340.336 357.465 340.055C357.465 339.786 357.555 339.561 357.735 339.382C357.925 339.202 358.161 339.112 358.442 339.112C358.711 339.112 358.941 339.202 359.132 339.382C359.323 339.561 359.419 339.786 359.419 340.055C359.419 340.336 359.323 340.572 359.132 340.763C358.941 340.942 358.711 341.032 358.442 341.032ZM357.735 351.237V342.884H359.149V351.237H357.735ZM361.275 351.237V339.112H362.69V351.237H361.275ZM368.427 351.439C367.63 351.439 366.922 351.259 366.305 350.9C365.688 350.53 365.199 350.019 364.84 349.368C364.492 348.717 364.318 347.948 364.318 347.061C364.318 346.185 364.492 345.422 364.84 344.77C365.188 344.108 365.671 343.597 366.288 343.238C366.917 342.868 367.641 342.682 368.46 342.682C369.269 342.682 369.965 342.868 370.549 343.238C371.144 343.597 371.598 344.074 371.913 344.669C372.227 345.264 372.384 345.904 372.384 346.589C372.384 346.713 372.378 346.836 372.367 346.96C372.367 347.083 372.367 347.223 372.367 347.381H365.716C365.749 348.021 365.895 348.554 366.153 348.98C366.423 349.396 366.754 349.71 367.147 349.923C367.551 350.137 367.978 350.243 368.427 350.243C369.011 350.243 369.499 350.109 369.892 349.839C370.285 349.57 370.571 349.205 370.751 348.745H372.148C371.924 349.519 371.492 350.165 370.852 350.681C370.223 351.186 369.415 351.439 368.427 351.439ZM368.427 343.878C367.753 343.878 367.153 344.086 366.625 344.501C366.108 344.905 365.811 345.5 365.732 346.286H370.986C370.953 345.534 370.695 344.944 370.212 344.518C369.729 344.091 369.134 343.878 368.427 343.878Z" fill="#5D616B"/>
<path fill-rule="evenodd" clip-rule="evenodd" d="M535.911 282.757C540.745 281.51 545.666 280.631 550.632 280.126C551.586 276.397 552.744 272.724 554.1 269.122L553.643 269.202C548.927 270.101 544.279 271.328 539.734 272.875C538.292 276.101 537.017 279.399 535.913 282.757H535.911ZM523.781 277.812C525.272 274.75 526.907 271.761 528.68 268.853C525.954 270.429 523.286 272.103 520.683 273.874C518.685 276.791 516.834 279.806 515.137 282.908C517.936 281.074 520.821 279.374 523.781 277.814" fill="#FCD98D"/>
<path fill-rule="evenodd" clip-rule="evenodd" d="M533.895 283.304C534.927 280.037 536.118 276.823 537.463 273.673C533.226 275.222 529.094 277.042 525.09 279.121C523.737 281.947 522.512 284.833 521.419 287.769C525.467 285.989 529.636 284.496 533.893 283.302" fill="#809EBA"/>
<path fill-rule="evenodd" clip-rule="evenodd" d="M553.369 267.449C553.87 267.355 554.363 267.265 554.851 267.182C556.351 263.426 558.059 259.757 559.965 256.19C555.327 257.316 550.765 258.735 546.306 260.44C544.271 263.747 542.415 267.161 540.747 270.668C544.883 269.335 549.099 268.259 553.369 267.449ZM507.448 295.486C508.332 293.12 509.325 290.73 510.415 288.374C508.563 289.761 506.756 291.208 504.997 292.712C503.426 295.275 501.969 297.906 500.631 300.598C502.819 298.784 505.094 297.078 507.448 295.486Z" fill="#2B5E8C"/>
<path fill-rule="evenodd" clip-rule="evenodd" d="M519.191 288.788C520.181 285.983 521.289 283.221 522.514 280.51C519.382 282.255 516.341 284.158 513.402 286.211C512.15 288.708 511.002 291.256 509.96 293.848C512.935 291.981 516.018 290.292 519.193 288.788" fill="#F9B31B"/>
<path fill-rule="evenodd" clip-rule="evenodd" d="M552.491 279.949C558.047 279.475 563.635 279.443 568.814 279.857C570.048 275.474 571.355 271.331 572.8 267.438C572.561 267.434 572.322 267.434 572.078 267.434C566.872 267.434 561.501 267.884 556.117 268.768C554.695 272.422 553.485 276.155 552.491 279.949Z" fill="#809EBA"/>
<path fill-rule="evenodd" clip-rule="evenodd" d="M572.069 265.66C572.554 265.66 573.02 265.664 573.47 265.672C575.098 261.46 577.03 257.372 579.25 253.44C575.364 253.591 569.4 254.105 562.257 255.663C560.253 259.284 558.458 263.018 556.882 266.846C561.907 266.066 566.984 265.669 572.069 265.66ZM532.807 294.782C534.824 294.433 536.852 294.148 538.888 293.926C541.995 293.597 545.114 293.404 548.238 293.349C548.616 289.674 549.277 285.845 550.188 281.955C545.153 282.504 540.168 283.441 535.278 284.759C534.27 288.051 533.445 291.398 532.807 294.782Z" fill="#F9B31B"/>
<path fill-rule="evenodd" clip-rule="evenodd" d="M504.459 305.034C505.008 302.851 505.671 300.608 506.429 298.354C503.76 300.276 501.202 302.349 498.768 304.562C497.875 306.582 497.06 308.635 496.324 310.717C498.898 308.632 501.616 306.733 504.459 305.034Z" fill="#FCD98D"/>
<path fill-rule="evenodd" clip-rule="evenodd" d="M530.963 295.118C531.559 291.815 532.333 288.546 533.281 285.326C528.941 286.603 524.7 288.197 520.592 290.094C519.628 292.891 518.8 295.733 518.11 298.61C522.301 297.125 526.598 295.958 530.965 295.118" fill="#2B5E8C"/>
<path d="M476.064 351.439C474.907 351.439 473.908 351.186 473.066 350.681C472.236 350.165 471.59 349.452 471.13 348.543C470.669 347.622 470.439 346.555 470.439 345.343C470.439 344.142 470.669 343.087 471.13 342.177C471.59 341.257 472.236 340.538 473.066 340.022C473.908 339.505 474.907 339.247 476.064 339.247C477.411 339.247 478.506 339.573 479.348 340.224C480.201 340.864 480.745 341.762 480.981 342.918H479.415C479.235 342.188 478.865 341.605 478.304 341.167C477.753 340.718 477.007 340.493 476.064 340.493C475.222 340.493 474.486 340.69 473.858 341.083C473.229 341.464 472.741 342.02 472.393 342.75C472.056 343.468 471.888 344.333 471.888 345.343C471.888 346.353 472.056 347.223 472.393 347.953C472.741 348.672 473.229 349.227 473.858 349.62C474.486 350.002 475.222 350.193 476.064 350.193C477.007 350.193 477.753 349.98 478.304 349.553C478.865 349.115 479.235 348.537 479.415 347.818H480.981C480.745 348.952 480.201 349.839 479.348 350.479C478.506 351.119 477.411 351.439 476.064 351.439ZM486.399 351.439C485.613 351.439 484.906 351.259 484.277 350.9C483.648 350.541 483.149 350.036 482.778 349.385C482.419 348.722 482.239 347.948 482.239 347.061C482.239 346.174 482.425 345.405 482.795 344.754C483.166 344.091 483.665 343.58 484.294 343.221C484.934 342.862 485.647 342.682 486.432 342.682C487.218 342.682 487.926 342.862 488.554 343.221C489.183 343.58 489.677 344.091 490.036 344.754C490.407 345.405 490.592 346.174 490.592 347.061C490.592 347.948 490.407 348.722 490.036 349.385C489.666 350.036 489.161 350.541 488.521 350.9C487.892 351.259 487.185 351.439 486.399 351.439ZM486.399 350.227C486.882 350.227 487.331 350.109 487.746 349.873C488.161 349.637 488.498 349.284 488.756 348.812C489.015 348.341 489.144 347.757 489.144 347.061C489.144 346.365 489.015 345.781 488.756 345.309C488.509 344.838 488.178 344.484 487.763 344.248C487.347 344.013 486.904 343.895 486.432 343.895C485.95 343.895 485.501 344.013 485.085 344.248C484.67 344.484 484.333 344.838 484.075 345.309C483.817 345.781 483.688 346.365 483.688 347.061C483.688 347.757 483.817 348.341 484.075 348.812C484.333 349.284 484.664 349.637 485.068 349.873C485.484 350.109 485.927 350.227 486.399 350.227ZM492.222 351.237V342.884H493.502L493.586 344.383C493.855 343.856 494.243 343.44 494.748 343.137C495.253 342.834 495.826 342.682 496.466 342.682C497.453 342.682 498.239 342.985 498.823 343.592C499.418 344.187 499.716 345.107 499.716 346.353V351.237H498.301V346.505C498.301 344.765 497.583 343.895 496.146 343.895C495.427 343.895 494.826 344.159 494.344 344.686C493.872 345.203 493.636 345.944 493.636 346.909V351.237H492.222ZM504.721 351.439C503.722 351.439 502.892 351.186 502.229 350.681C501.567 350.176 501.18 349.491 501.067 348.627H502.515C502.605 349.065 502.835 349.446 503.206 349.772C503.588 350.086 504.098 350.243 504.738 350.243C505.333 350.243 505.771 350.12 506.052 349.873C506.332 349.615 506.473 349.312 506.473 348.964C506.473 348.458 506.288 348.122 505.917 347.953C505.558 347.785 505.047 347.633 504.385 347.499C503.936 347.409 503.487 347.28 503.038 347.111C502.588 346.943 502.212 346.707 501.909 346.404C501.606 346.09 501.455 345.68 501.455 345.175C501.455 344.445 501.724 343.85 502.263 343.39C502.813 342.918 503.554 342.682 504.486 342.682C505.373 342.682 506.097 342.907 506.658 343.356C507.231 343.794 507.562 344.422 507.652 345.242H506.254C506.198 344.815 506.013 344.484 505.698 344.248C505.395 344.001 504.985 343.878 504.469 343.878C503.964 343.878 503.571 343.985 503.29 344.198C503.021 344.411 502.886 344.692 502.886 345.04C502.886 345.377 503.06 345.641 503.408 345.831C503.767 346.022 504.25 346.185 504.856 346.32C505.373 346.432 505.861 346.572 506.321 346.741C506.793 346.898 507.174 347.139 507.466 347.465C507.769 347.779 507.921 348.239 507.921 348.846C507.932 349.598 507.646 350.221 507.062 350.715C506.49 351.198 505.709 351.439 504.721 351.439ZM512.527 351.237C511.764 351.237 511.163 351.052 510.726 350.681C510.288 350.311 510.069 349.643 510.069 348.677V344.08H508.621V342.884H510.069L510.254 340.881H511.483V342.884H513.942V344.08H511.483V348.677C511.483 349.205 511.59 349.564 511.803 349.755C512.017 349.935 512.393 350.024 512.932 350.024H513.807V351.237H512.527ZM518.181 351.439C517.485 351.439 516.907 351.321 516.446 351.085C515.986 350.85 515.644 350.535 515.419 350.142C515.195 349.749 515.082 349.323 515.082 348.863C515.082 348.009 515.408 347.353 516.059 346.892C516.71 346.432 517.597 346.202 518.72 346.202H520.976V346.101C520.976 345.371 520.785 344.821 520.404 344.451C520.022 344.069 519.511 343.878 518.871 343.878C518.321 343.878 517.844 344.018 517.44 344.299C517.047 344.568 516.8 344.967 516.699 345.495H515.251C515.307 344.888 515.509 344.378 515.857 343.962C516.216 343.547 516.66 343.232 517.187 343.019C517.715 342.795 518.276 342.682 518.871 342.682C520.039 342.682 520.914 342.997 521.498 343.625C522.093 344.243 522.391 345.068 522.391 346.101V351.237H521.128L521.044 349.738C520.808 350.21 520.46 350.614 519.999 350.951C519.55 351.276 518.944 351.439 518.181 351.439ZM518.4 350.243C518.939 350.243 519.399 350.103 519.781 349.822C520.173 349.542 520.471 349.177 520.673 348.728C520.875 348.279 520.976 347.807 520.976 347.313V347.296H518.838C518.007 347.296 517.417 347.442 517.069 347.734C516.733 348.015 516.564 348.369 516.564 348.795C516.564 349.233 516.721 349.587 517.036 349.856C517.361 350.114 517.816 350.243 518.4 350.243ZM524.176 351.237V342.884H525.456L525.54 344.383C525.809 343.856 526.197 343.44 526.702 343.137C527.207 342.834 527.78 342.682 528.42 342.682C529.408 342.682 530.193 342.985 530.777 343.592C531.372 344.187 531.67 345.107 531.67 346.353V351.237H530.255V346.505C530.255 344.765 529.537 343.895 528.1 343.895C527.381 343.895 526.781 344.159 526.298 344.686C525.826 345.203 525.591 345.944 525.591 346.909V351.237H524.176ZM536.777 351.237C536.013 351.237 535.413 351.052 534.975 350.681C534.537 350.311 534.318 349.643 534.318 348.677V344.08H532.87V342.884H534.318L534.503 340.881H535.733V342.884H538.191V344.08H535.733V348.677C535.733 349.205 535.839 349.564 536.052 349.755C536.266 349.935 536.642 350.024 537.181 350.024H538.056V351.237H536.777ZM549.025 351.439C547.869 351.439 546.87 351.186 546.028 350.681C545.197 350.165 544.551 349.452 544.091 348.543C543.631 347.622 543.401 346.555 543.401 345.343C543.401 344.142 543.631 343.087 544.091 342.177C544.551 341.257 545.197 340.538 546.028 340.022C546.87 339.505 547.869 339.247 549.025 339.247C550.372 339.247 551.467 339.573 552.309 340.224C553.162 340.864 553.707 341.762 553.942 342.918H552.376C552.197 342.188 551.826 341.605 551.265 341.167C550.715 340.718 549.968 340.493 549.025 340.493C548.183 340.493 547.448 340.69 546.819 341.083C546.191 341.464 545.702 342.02 545.354 342.75C545.017 343.468 544.849 344.333 544.849 345.343C544.849 346.353 545.017 347.223 545.354 347.953C545.702 348.672 546.191 349.227 546.819 349.62C547.448 350.002 548.183 350.193 549.025 350.193C549.968 350.193 550.715 349.98 551.265 349.553C551.826 349.115 552.197 348.537 552.376 347.818H553.942C553.707 348.952 553.162 349.839 552.309 350.479C551.467 351.119 550.372 351.439 549.025 351.439ZM559.36 351.439C558.574 351.439 557.867 351.259 557.238 350.9C556.61 350.541 556.11 350.036 555.74 349.385C555.38 348.722 555.201 347.948 555.201 347.061C555.201 346.174 555.386 345.405 555.757 344.754C556.127 344.091 556.627 343.58 557.255 343.221C557.895 342.862 558.608 342.682 559.394 342.682C560.18 342.682 560.887 342.862 561.516 343.221C562.144 343.58 562.638 344.091 562.998 344.754C563.368 345.405 563.553 346.174 563.553 347.061C563.553 347.948 563.368 348.722 562.998 349.385C562.627 350.036 562.122 350.541 561.482 350.9C560.853 351.259 560.146 351.439 559.36 351.439ZM559.36 350.227C559.843 350.227 560.292 350.109 560.707 349.873C561.123 349.637 561.46 349.284 561.718 348.812C561.976 348.341 562.105 347.757 562.105 347.061C562.105 346.365 561.976 345.781 561.718 345.309C561.471 344.838 561.14 344.484 560.724 344.248C560.309 344.013 559.865 343.895 559.394 343.895C558.911 343.895 558.462 344.013 558.047 344.248C557.631 344.484 557.295 344.838 557.036 345.309C556.778 345.781 556.649 346.365 556.649 347.061C556.649 347.757 556.778 348.341 557.036 348.812C557.295 349.284 557.626 349.637 558.03 349.873C558.445 350.109 558.889 350.227 559.36 350.227ZM565.183 351.237V342.884H566.463L566.547 344.383C566.817 343.856 567.204 343.44 567.709 343.137C568.215 342.834 568.787 342.682 569.427 342.682C570.415 342.682 571.201 342.985 571.785 343.592C572.38 344.187 572.677 345.107 572.677 346.353V351.237H571.263V346.505C571.263 344.765 570.544 343.895 569.107 343.895C568.389 343.895 567.788 344.159 567.305 344.686C566.834 345.203 566.598 345.944 566.598 346.909V351.237H565.183ZM577.784 351.237C577.021 351.237 576.42 351.052 575.982 350.681C575.544 350.311 575.325 349.643 575.325 348.677V344.08H573.877V342.884H575.325L575.511 340.881H576.74V342.884H579.199V344.08H576.74V348.677C576.74 349.205 576.847 349.564 577.06 349.755C577.273 349.935 577.649 350.024 578.188 350.024H579.064V351.237H577.784ZM583.437 351.439C582.741 351.439 582.163 351.321 581.703 351.085C581.243 350.85 580.9 350.535 580.676 350.142C580.451 349.749 580.339 349.323 580.339 348.863C580.339 348.009 580.664 347.353 581.316 346.892C581.967 346.432 582.854 346.202 583.976 346.202H586.233V346.101C586.233 345.371 586.042 344.821 585.66 344.451C585.279 344.069 584.768 343.878 584.128 343.878C583.578 343.878 583.101 344.018 582.696 344.299C582.304 344.568 582.057 344.967 581.955 345.495H580.507C580.563 344.888 580.765 344.378 581.113 343.962C581.473 343.547 581.916 343.232 582.444 343.019C582.971 342.795 583.533 342.682 584.128 342.682C585.295 342.682 586.171 342.997 586.755 343.625C587.35 344.243 587.647 345.068 587.647 346.101V351.237H586.384L586.3 349.738C586.064 350.21 585.716 350.614 585.256 350.951C584.807 351.276 584.201 351.439 583.437 351.439ZM583.656 350.243C584.195 350.243 584.655 350.103 585.037 349.822C585.43 349.542 585.728 349.177 585.93 348.728C586.132 348.279 586.233 347.807 586.233 347.313V347.296H584.094C583.263 347.296 582.674 347.442 582.326 347.734C581.989 348.015 581.821 348.369 581.821 348.795C581.821 349.233 581.978 349.587 582.292 349.856C582.618 350.114 583.073 350.243 583.656 350.243ZM593.272 351.439C592.475 351.439 591.756 351.259 591.117 350.9C590.488 350.53 589.988 350.019 589.618 349.368C589.259 348.705 589.079 347.936 589.079 347.061C589.079 346.185 589.259 345.422 589.618 344.77C589.988 344.108 590.488 343.597 591.117 343.238C591.756 342.868 592.475 342.682 593.272 342.682C594.26 342.682 595.091 342.941 595.764 343.457C596.449 343.973 596.881 344.664 597.061 345.528H595.613C595.501 345.012 595.225 344.613 594.788 344.333C594.35 344.041 593.839 343.895 593.255 343.895C592.784 343.895 592.34 344.013 591.925 344.248C591.509 344.484 591.173 344.838 590.914 345.309C590.656 345.781 590.527 346.365 590.527 347.061C590.527 347.757 590.656 348.341 590.914 348.812C591.173 349.284 591.509 349.643 591.925 349.89C592.34 350.126 592.784 350.243 593.255 350.243C593.839 350.243 594.35 350.103 594.788 349.822C595.225 349.531 595.501 349.121 595.613 348.593H597.061C596.893 349.435 596.466 350.12 595.781 350.648C595.096 351.175 594.26 351.439 593.272 351.439ZM601.77 351.237C601.007 351.237 600.406 351.052 599.968 350.681C599.53 350.311 599.311 349.643 599.311 348.677V344.08H597.863V342.884H599.311L599.497 340.881H600.726V342.884H603.185V344.08H600.726V348.677C600.726 349.205 600.833 349.564 601.046 349.755C601.259 349.935 601.635 350.024 602.174 350.024H603.05V351.237H601.77Z" fill="#5D616B"/>
<rect x="678.386" y="237.91" width="86.9722" height="86.9722" rx="8.69722" fill="#FFDF1C"/>
<g clip-path="url(#clip1_5223_2011)">
<path d="M735.479 278.864C735.926 278.814 736.349 278.814 736.747 278.864C736.971 278.342 737.021 277.447 736.797 276.478C736.498 275.037 736.075 274.142 735.23 274.291C734.384 274.416 734.359 275.484 734.658 276.925C734.832 277.72 735.155 278.416 735.479 278.864Z" fill="#241C15"/>
<path d="M728.215 280.007C728.812 280.28 729.185 280.454 729.334 280.305C729.434 280.206 729.409 280.032 729.26 279.783C728.961 279.286 728.339 278.789 727.693 278.516C726.35 277.944 724.758 278.143 723.539 279.013C723.141 279.311 722.744 279.709 722.793 279.982C722.818 280.057 722.868 280.131 723.017 280.131C723.34 280.181 724.509 279.584 725.877 279.485C726.822 279.435 727.593 279.734 728.215 280.007Z" fill="#241C15"/>
<path d="M726.996 280.702C726.2 280.826 725.777 281.074 725.504 281.323C725.255 281.522 725.106 281.77 725.131 281.919C725.131 281.994 725.155 282.043 725.18 282.068C725.205 282.093 725.255 282.118 725.305 282.118C725.479 282.118 725.877 281.969 725.877 281.969C726.971 281.571 727.692 281.621 728.414 281.696C728.811 281.745 728.986 281.77 729.085 281.621C729.11 281.571 729.135 281.497 729.06 281.372C728.861 281.074 728.065 280.552 726.996 280.702Z" fill="#241C15"/>
<path d="M733.017 283.236C733.564 283.509 734.136 283.385 734.335 283.012C734.534 282.614 734.26 282.093 733.713 281.819C733.166 281.546 732.594 281.67 732.395 282.043C732.221 282.44 732.495 282.987 733.017 283.236Z" fill="#241C15"/>
<path d="M736.473 280.23C736.025 280.23 735.677 280.702 735.677 281.299C735.677 281.895 736 282.392 736.448 282.392C736.895 282.392 737.244 281.92 737.244 281.324C737.244 280.727 736.92 280.255 736.473 280.23Z" fill="#241C15"/>
<path d="M707.222 290.988C707.123 290.864 706.924 290.889 706.774 290.938C706.65 290.963 706.526 290.988 706.377 290.988C706.053 290.988 705.78 290.839 705.63 290.615C705.431 290.317 705.431 289.845 705.655 289.348C705.68 289.273 705.73 289.199 705.755 289.124C706.103 288.329 706.7 287.037 706.028 285.794C705.531 284.85 704.735 284.279 703.765 284.154C702.845 284.03 701.875 284.378 701.278 285.049C700.308 286.117 700.159 287.559 700.358 288.056C700.432 288.255 700.532 288.304 700.607 288.304C700.781 288.329 701.004 288.205 701.154 287.807C701.154 287.782 701.179 287.733 701.203 287.683C701.278 287.459 701.402 287.062 701.601 286.739C701.85 286.341 702.248 286.093 702.696 285.993C703.168 285.894 703.641 285.993 704.039 286.242C704.71 286.689 704.984 287.509 704.685 288.304C704.536 288.702 704.287 289.497 704.337 290.143C704.437 291.435 705.233 291.957 705.954 292.007C706.65 292.032 707.148 291.634 707.272 291.361C707.322 291.137 707.247 291.038 707.222 290.988Z" fill="#241C15"/>
<path d="M747.464 288.63C747.439 288.53 747.265 287.909 747.017 287.139C746.768 286.368 746.544 285.846 746.544 285.846C747.489 284.43 747.514 283.138 747.39 282.417C747.265 281.523 746.892 280.752 746.121 279.982C745.375 279.187 743.833 278.392 741.669 277.771C741.421 277.696 740.6 277.472 740.525 277.447C740.525 277.398 740.476 274.789 740.426 273.646C740.401 272.826 740.326 271.558 739.929 270.316C739.456 268.626 738.635 267.135 737.616 266.191C740.426 263.259 742.192 260.053 742.192 257.295C742.192 251.977 735.651 250.362 727.618 253.692C727.618 253.692 725.926 254.412 725.901 254.412C725.901 254.412 722.817 251.381 722.768 251.356C713.615 243.379 684.915 275.236 694.092 282.964L696.106 284.654C695.584 285.996 695.385 287.536 695.559 289.201C695.783 291.338 696.877 293.376 698.643 294.941C700.334 296.432 702.548 297.377 704.712 297.377C708.293 305.602 716.426 310.646 726.001 310.919C736.248 311.218 744.878 306.422 748.484 297.774C748.708 297.178 749.728 294.444 749.728 292.034C749.703 289.624 748.335 288.63 747.464 288.63ZM705.483 295.09C705.159 295.14 704.861 295.165 704.537 295.165C701.454 295.066 698.096 292.282 697.773 288.977C697.4 285.325 699.265 282.517 702.573 281.846C702.971 281.771 703.443 281.722 703.965 281.746C705.831 281.846 708.542 283.262 709.163 287.313C709.711 290.891 708.84 294.519 705.483 295.09ZM702.026 279.659C699.961 280.057 698.146 281.225 697.051 282.84C696.38 282.293 695.161 281.225 694.937 280.802C693.172 277.447 696.877 270.912 699.464 267.21C705.856 258.09 715.879 251.182 720.529 252.449C721.275 252.673 723.787 255.555 723.787 255.555C723.787 255.555 719.161 258.115 714.859 261.718C709.039 266.166 704.662 272.652 702.026 279.659ZM734.556 293.724C734.631 293.699 734.681 293.624 734.656 293.55C734.656 293.45 734.556 293.376 734.457 293.401C734.457 293.401 729.607 294.121 725.031 292.432C725.528 290.816 726.847 291.388 728.861 291.562C732.467 291.785 735.725 291.239 738.113 290.568C740.177 289.971 742.913 288.804 745.027 287.139C745.748 288.704 745.997 290.444 745.997 290.444C745.997 290.444 746.544 290.344 747.017 290.618C747.464 290.891 747.763 291.438 747.564 292.879C747.116 295.587 745.972 297.774 744.032 299.787C742.863 301.054 741.446 302.148 739.804 302.943C738.934 303.39 738.013 303.788 737.044 304.111C729.781 306.471 722.345 303.887 719.932 298.271C719.734 297.849 719.584 297.401 719.46 296.954C718.44 293.276 719.311 288.828 722.022 286.045C722.196 285.871 722.37 285.648 722.37 285.399C722.37 285.176 722.221 284.952 722.096 284.778C721.151 283.411 717.868 281.051 718.515 276.528C718.987 273.273 721.848 270.987 724.509 271.111C724.733 271.111 724.956 271.136 725.18 271.161C726.324 271.235 727.344 271.384 728.289 271.409C729.881 271.484 731.298 271.235 732.99 269.844C733.562 269.371 734.009 268.949 734.78 268.825C734.855 268.8 735.054 268.75 735.477 268.75C735.899 268.775 736.273 268.874 736.646 269.123C737.989 270.018 738.188 272.204 738.262 273.795C738.312 274.714 738.411 276.901 738.461 277.547C738.536 278.988 738.934 279.187 739.705 279.46C740.127 279.609 740.55 279.709 741.122 279.883C742.913 280.38 743.982 280.902 744.654 281.548C745.052 281.945 745.251 282.392 745.301 282.815C745.524 284.356 744.107 286.269 740.376 287.984C736.297 289.872 731.348 290.344 727.941 289.971C727.667 289.947 726.747 289.847 726.747 289.847C724.011 289.474 722.444 293.003 724.086 295.438C725.155 297.004 728.015 298.023 730.9 298.023C737.516 298.023 742.59 295.215 744.48 292.779C744.53 292.705 744.53 292.705 744.629 292.556C744.729 292.407 744.654 292.332 744.53 292.407C742.988 293.45 736.123 297.65 728.786 296.383C728.786 296.383 727.891 296.233 727.07 295.91C726.424 295.662 725.081 295.041 724.907 293.649C730.826 295.463 734.556 293.724 734.556 293.724ZM713.839 267.185C716.127 264.551 718.913 262.265 721.425 260.997C721.499 260.948 721.599 261.047 721.549 261.122C721.35 261.494 720.977 262.265 720.853 262.836C720.828 262.936 720.927 262.985 721.002 262.936C722.569 261.867 725.28 260.724 727.667 260.6C727.767 260.6 727.816 260.724 727.742 260.799C727.369 261.072 726.996 261.469 726.697 261.842C726.648 261.917 726.697 261.991 726.772 262.016C728.438 262.016 730.801 262.612 732.343 263.482C732.442 263.532 732.368 263.731 732.268 263.706C729.955 263.184 726.15 262.762 722.196 263.731C718.664 264.6 715.978 265.917 714.013 267.334C713.889 267.408 713.765 267.284 713.839 267.185Z" fill="#241C15"/>
</g>
<path d="M683.508 351.237V339.449H685.158L689.402 347.667L693.612 339.449H695.279V351.237H693.864V341.975L689.924 349.553H688.863L684.922 341.992V351.237H683.508ZM700.123 351.439C699.427 351.439 698.849 351.321 698.389 351.085C697.929 350.85 697.586 350.535 697.362 350.142C697.137 349.749 697.025 349.323 697.025 348.863C697.025 348.009 697.35 347.353 698.001 346.892C698.653 346.432 699.54 346.202 700.662 346.202H702.919V346.101C702.919 345.371 702.728 344.821 702.346 344.451C701.964 344.069 701.454 343.878 700.814 343.878C700.264 343.878 699.787 344.018 699.382 344.299C698.989 344.568 698.742 344.967 698.641 345.495H697.193C697.249 344.888 697.451 344.378 697.799 343.962C698.159 343.547 698.602 343.232 699.13 343.019C699.657 342.795 700.219 342.682 700.814 342.682C701.981 342.682 702.857 342.997 703.441 343.625C704.036 344.243 704.333 345.068 704.333 346.101V351.237H703.07L702.986 349.738C702.75 350.21 702.402 350.614 701.942 350.951C701.493 351.276 700.887 351.439 700.123 351.439ZM700.342 350.243C700.881 350.243 701.341 350.103 701.723 349.822C702.116 349.542 702.414 349.177 702.616 348.728C702.818 348.279 702.919 347.807 702.919 347.313V347.296H700.78C699.949 347.296 699.36 347.442 699.012 347.734C698.675 348.015 698.507 348.369 698.507 348.795C698.507 349.233 698.664 349.587 698.978 349.856C699.304 350.114 699.758 350.243 700.342 350.243ZM706.977 341.032C706.697 341.032 706.461 340.942 706.27 340.763C706.09 340.572 706.001 340.336 706.001 340.055C706.001 339.786 706.09 339.561 706.27 339.382C706.461 339.202 706.697 339.112 706.977 339.112C707.247 339.112 707.477 339.202 707.668 339.382C707.859 339.561 707.954 339.786 707.954 340.055C707.954 340.336 707.859 340.572 707.668 340.763C707.477 340.942 707.247 341.032 706.977 341.032ZM706.27 351.237V342.884H707.685V351.237H706.27ZM709.811 351.237V339.112H711.225V351.237H709.811ZM717.046 351.439C716.249 351.439 715.531 351.259 714.891 350.9C714.262 350.53 713.763 350.019 713.392 349.368C713.033 348.705 712.853 347.936 712.853 347.061C712.853 346.185 713.033 345.422 713.392 344.77C713.763 344.108 714.262 343.597 714.891 343.238C715.531 342.868 716.249 342.682 717.046 342.682C718.034 342.682 718.865 342.941 719.539 343.457C720.224 343.973 720.656 344.664 720.835 345.528H719.387C719.275 345.012 719 344.613 718.562 344.333C718.124 344.041 717.613 343.895 717.03 343.895C716.558 343.895 716.115 344.013 715.699 344.248C715.284 344.484 714.947 344.838 714.689 345.309C714.431 345.781 714.302 346.365 714.302 347.061C714.302 347.757 714.431 348.341 714.689 348.812C714.947 349.284 715.284 349.643 715.699 349.89C716.115 350.126 716.558 350.243 717.03 350.243C717.613 350.243 718.124 350.103 718.562 349.822C719 349.531 719.275 349.121 719.387 348.593H720.835C720.667 349.435 720.24 350.12 719.556 350.648C718.871 351.175 718.034 351.439 717.046 351.439ZM722.474 351.237V339.112H723.889V344.316C724.169 343.799 724.568 343.401 725.084 343.12C725.601 342.828 726.162 342.682 726.768 342.682C727.734 342.682 728.508 342.985 729.092 343.592C729.676 344.187 729.968 345.107 729.968 346.353V351.237H728.57V346.505C728.57 344.765 727.868 343.895 726.465 343.895C725.735 343.895 725.124 344.159 724.63 344.686C724.136 345.203 723.889 345.944 723.889 346.909V351.237H722.474ZM732.633 341.032C732.352 341.032 732.117 340.942 731.926 340.763C731.746 340.572 731.656 340.336 731.656 340.055C731.656 339.786 731.746 339.561 731.926 339.382C732.117 339.202 732.352 339.112 732.633 339.112C732.902 339.112 733.133 339.202 733.323 339.382C733.514 339.561 733.61 339.786 733.61 340.055C733.61 340.336 733.514 340.572 733.323 340.763C733.133 340.942 732.902 341.032 732.633 341.032ZM731.926 351.237V342.884H733.34V351.237H731.926ZM735.466 351.237V342.884H736.746L736.847 344.097C737.117 343.648 737.476 343.3 737.925 343.053C738.374 342.806 738.879 342.682 739.441 342.682C740.103 342.682 740.67 342.817 741.141 343.087C741.624 343.356 741.995 343.766 742.253 344.316C742.545 343.811 742.943 343.412 743.448 343.12C743.965 342.828 744.521 342.682 745.116 342.682C746.115 342.682 746.912 342.985 747.507 343.592C748.102 344.187 748.399 345.107 748.399 346.353V351.237H747.002V346.505C747.002 345.641 746.828 344.989 746.48 344.552C746.132 344.114 745.632 343.895 744.981 343.895C744.307 343.895 743.746 344.159 743.297 344.686C742.859 345.203 742.64 345.944 742.64 346.909V351.237H741.226V346.505C741.226 345.641 741.052 344.989 740.704 344.552C740.355 344.114 739.856 343.895 739.205 343.895C738.542 343.895 737.987 344.159 737.538 344.686C737.1 345.203 736.881 345.944 736.881 346.909V351.237H735.466ZM750.193 354.942V342.884H751.473L751.608 344.265C751.877 343.861 752.259 343.496 752.753 343.171C753.258 342.845 753.898 342.682 754.673 342.682C755.503 342.682 756.227 342.873 756.845 343.255C757.462 343.637 757.94 344.159 758.276 344.821C758.624 345.483 758.798 346.236 758.798 347.078C758.798 347.92 758.624 348.672 758.276 349.334C757.94 349.985 757.457 350.502 756.828 350.883C756.211 351.254 755.487 351.439 754.656 351.439C753.971 351.439 753.359 351.299 752.82 351.018C752.293 350.737 751.888 350.344 751.608 349.839V354.942H750.193ZM754.504 350.21C755.066 350.21 755.559 350.081 755.986 349.822C756.413 349.553 756.749 349.182 756.996 348.711C757.243 348.239 757.367 347.689 757.367 347.061C757.367 346.432 757.243 345.882 756.996 345.41C756.749 344.939 756.413 344.574 755.986 344.316C755.559 344.046 755.066 343.912 754.504 343.912C753.943 343.912 753.449 344.046 753.022 344.316C752.596 344.574 752.259 344.939 752.012 345.41C751.765 345.882 751.641 346.432 751.641 347.061C751.641 347.689 751.765 348.239 752.012 348.711C752.259 349.182 752.596 349.553 753.022 349.822C753.449 350.081 753.943 350.21 754.504 350.21Z" fill="#5D616B"/>
<path fill-rule="evenodd" clip-rule="evenodd" d="M933.98 297.909C932.069 301.31 928.948 303.82 925.272 304.913C925.798 303.063 926.066 301.147 926.069 299.22C926.069 289.625 919.622 281.577 910.967 279.386C912.761 277.586 914.976 276.29 917.4 275.622C919.269 275.1 921.221 274.966 923.141 275.226C925.062 275.487 926.912 276.138 928.585 277.141C935.624 281.333 938.044 290.649 933.98 297.909ZM906.249 314.423C902.399 314.423 898.737 312.845 896.02 310.152C897.835 309.695 899.576 308.975 901.193 308.013C909.247 303.217 912.78 293.438 910.298 284.614C916.461 286.435 920.989 292.287 920.989 299.22C920.989 307.601 914.376 314.423 906.249 314.423ZM878.517 297.909C876.592 294.47 876.094 290.418 876.994 286.649C878.285 288.034 879.758 289.225 881.372 290.189C884.371 291.981 887.78 292.925 891.25 292.924C893.928 292.922 896.578 292.363 899.04 291.283C901.502 290.202 903.725 288.621 905.575 286.636C907.121 293.048 904.471 300.01 898.653 303.474C896.423 304.806 893.889 305.508 891.308 305.508C888.712 305.509 886.162 304.807 883.916 303.472C881.67 302.138 879.807 300.219 878.516 297.909H878.517ZM878.516 264.882C880.428 261.481 883.549 258.971 887.225 257.878C886.698 259.728 886.429 261.645 886.426 263.573C886.426 273.163 892.871 281.208 901.522 283.403C896.911 287.999 889.733 289.117 883.913 285.651C880.502 283.619 878.064 280.341 877.044 276.418C876.538 274.491 876.407 272.479 876.66 270.5C876.913 268.52 877.543 266.611 878.516 264.882ZM906.249 248.369C910.101 248.369 913.759 249.945 916.474 252.636C914.661 253.097 912.921 253.818 911.304 254.778C906.718 257.51 903.438 261.918 902.069 267.193C901.131 270.797 901.174 274.596 902.194 278.177C896.034 276.354 891.509 270.503 891.509 263.573C891.509 255.189 898.121 248.369 906.249 248.369ZM933.98 264.882C935.907 268.326 936.406 272.382 935.5 276.156C934.213 274.765 932.74 273.569 931.126 272.602C926.54 269.872 921.198 269.147 916.083 270.56C912.582 271.528 909.41 273.469 906.917 276.17C906.306 273.666 906.327 271.043 906.977 268.549C907.995 264.627 910.434 261.348 913.845 259.317C917.254 257.287 921.226 256.748 925.03 257.798C928.833 258.85 932.011 261.365 933.98 264.882ZM938.381 262.263C935.733 257.533 931.459 254.151 926.344 252.737C925.135 252.405 923.898 252.19 922.649 252.096C918.98 246.532 912.822 243.129 906.249 243.129C899.442 243.129 893.427 246.688 889.857 252.094C883.346 252.588 877.405 256.388 874.117 262.262C871.469 266.991 870.766 272.501 872.136 277.777C872.461 279.022 872.9 280.234 873.445 281.396C870.608 287.457 870.829 294.659 874.116 300.53C877.519 306.609 883.513 310.198 889.836 310.686C893.505 316.255 899.676 319.664 906.249 319.664C913.055 319.664 919.07 316.105 922.64 310.697C929.15 310.204 935.092 306.405 938.38 300.53C941.784 294.45 941.801 287.298 939.047 281.406C941.888 275.343 941.668 268.138 938.38 262.263" fill="#0092FF"/>
<path d="M868.454 351.439C867.59 351.439 866.837 351.282 866.198 350.968C865.558 350.653 865.064 350.215 864.716 349.654C864.368 349.093 864.194 348.442 864.194 347.701H865.676C865.676 348.161 865.782 348.587 865.996 348.98C866.209 349.362 866.518 349.671 866.922 349.907C867.337 350.131 867.848 350.243 868.454 350.243C869.251 350.243 869.869 350.053 870.306 349.671C870.744 349.289 870.963 348.812 870.963 348.239C870.963 347.768 870.862 347.392 870.66 347.111C870.458 346.819 870.183 346.584 869.835 346.404C869.498 346.224 869.105 346.067 868.656 345.932C868.218 345.798 867.758 345.646 867.275 345.478C866.366 345.163 865.692 344.776 865.255 344.316C864.817 343.844 864.598 343.232 864.598 342.48C864.587 341.852 864.733 341.296 865.036 340.813C865.339 340.319 865.765 339.937 866.315 339.668C866.877 339.387 867.539 339.247 868.303 339.247C869.055 339.247 869.706 339.387 870.256 339.668C870.817 339.949 871.25 340.336 871.553 340.83C871.867 341.324 872.03 341.885 872.041 342.514H870.559C870.559 342.188 870.475 341.868 870.306 341.554C870.138 341.229 869.88 340.965 869.532 340.763C869.195 340.561 868.768 340.46 868.252 340.46C867.612 340.448 867.084 340.611 866.669 340.948C866.265 341.285 866.063 341.751 866.063 342.346C866.063 342.851 866.203 343.238 866.484 343.508C866.776 343.777 867.18 344.001 867.696 344.181C868.213 344.349 868.808 344.546 869.481 344.77C870.043 344.973 870.548 345.208 870.997 345.478C871.446 345.747 871.794 346.095 872.041 346.522C872.299 346.948 872.428 347.493 872.428 348.155C872.428 348.717 872.282 349.25 871.99 349.755C871.699 350.249 871.255 350.653 870.66 350.968C870.076 351.282 869.341 351.439 868.454 351.439ZM877.769 351.439C876.972 351.439 876.264 351.259 875.647 350.9C875.029 350.53 874.541 350.019 874.182 349.368C873.834 348.717 873.66 347.948 873.66 347.061C873.66 346.185 873.834 345.422 874.182 344.77C874.53 344.108 875.012 343.597 875.63 343.238C876.259 342.868 876.983 342.682 877.802 342.682C878.611 342.682 879.307 342.868 879.89 343.238C880.485 343.597 880.94 344.074 881.254 344.669C881.569 345.264 881.726 345.904 881.726 346.589C881.726 346.713 881.72 346.836 881.709 346.96C881.709 347.083 881.709 347.223 881.709 347.381H875.057C875.091 348.021 875.237 348.554 875.495 348.98C875.765 349.396 876.096 349.71 876.489 349.923C876.893 350.137 877.32 350.243 877.769 350.243C878.352 350.243 878.841 350.109 879.234 349.839C879.627 349.57 879.913 349.205 880.092 348.745H881.49C881.266 349.519 880.833 350.165 880.194 350.681C879.565 351.186 878.757 351.439 877.769 351.439ZM877.769 343.878C877.095 343.878 876.494 344.086 875.967 344.501C875.45 344.905 875.153 345.5 875.074 346.286H880.328C880.295 345.534 880.036 344.944 879.554 344.518C879.071 344.091 878.476 343.878 877.769 343.878ZM883.264 351.237V342.884H884.544L884.628 344.383C884.897 343.856 885.285 343.44 885.79 343.137C886.295 342.834 886.868 342.682 887.508 342.682C888.496 342.682 889.281 342.985 889.865 343.592C890.46 344.187 890.758 345.107 890.758 346.353V351.237H889.343V346.505C889.343 344.765 888.625 343.895 887.188 343.895C886.469 343.895 885.869 344.159 885.386 344.686C884.914 345.203 884.679 345.944 884.679 346.909V351.237H883.264ZM896.353 351.439C895.522 351.439 894.792 351.248 894.164 350.866C893.546 350.485 893.064 349.963 892.716 349.3C892.379 348.638 892.21 347.886 892.21 347.044C892.21 346.202 892.384 345.455 892.732 344.804C893.08 344.142 893.563 343.625 894.181 343.255C894.798 342.873 895.528 342.682 896.37 342.682C897.055 342.682 897.661 342.823 898.188 343.103C898.716 343.384 899.126 343.777 899.418 344.282V339.112H900.832V351.237H899.552L899.418 349.856C899.148 350.26 898.761 350.625 898.256 350.951C897.751 351.276 897.116 351.439 896.353 351.439ZM896.505 350.21C897.066 350.21 897.56 350.081 897.986 349.822C898.424 349.553 898.761 349.182 898.997 348.711C899.244 348.239 899.367 347.689 899.367 347.061C899.367 346.432 899.244 345.882 898.997 345.41C898.761 344.939 898.424 344.574 897.986 344.316C897.56 344.046 897.066 343.912 896.505 343.912C895.954 343.912 895.46 344.046 895.023 344.316C894.596 344.574 894.259 344.939 894.012 345.41C893.776 345.882 893.659 346.432 893.659 347.061C893.659 347.689 893.776 348.239 894.012 348.711C894.259 349.182 894.596 349.553 895.023 349.822C895.46 350.081 895.954 350.21 896.505 350.21ZM903.66 341.032C903.38 341.032 903.144 340.942 902.953 340.763C902.773 340.572 902.683 340.336 902.683 340.055C902.683 339.786 902.773 339.561 902.953 339.382C903.144 339.202 903.38 339.112 903.66 339.112C903.93 339.112 904.16 339.202 904.351 339.382C904.541 339.561 904.637 339.786 904.637 340.055C904.637 340.336 904.541 340.572 904.351 340.763C904.16 340.942 903.93 341.032 903.66 341.032ZM902.953 351.237V342.884H904.367V351.237H902.953ZM906.494 351.237V342.884H907.773L907.858 344.383C908.127 343.856 908.514 343.44 909.02 343.137C909.525 342.834 910.097 342.682 910.737 342.682C911.725 342.682 912.511 342.985 913.095 343.592C913.69 344.187 913.987 345.107 913.987 346.353V351.237H912.573V346.505C912.573 344.765 911.854 343.895 910.417 343.895C909.699 343.895 909.098 344.159 908.615 344.686C908.144 345.203 907.908 345.944 907.908 346.909V351.237H906.494ZM920.256 351.439C919.571 351.439 918.959 351.299 918.421 351.018C917.893 350.737 917.489 350.344 917.208 349.839L917.073 351.237H915.794V339.112H917.208V344.265C917.478 343.861 917.859 343.496 918.353 343.171C918.858 342.845 919.498 342.682 920.273 342.682C921.104 342.682 921.828 342.873 922.445 343.255C923.063 343.637 923.54 344.159 923.877 344.821C924.225 345.483 924.399 346.236 924.399 347.078C924.399 347.92 924.225 348.672 923.877 349.334C923.54 349.985 923.057 350.502 922.428 350.883C921.811 351.254 921.087 351.439 920.256 351.439ZM920.105 350.21C920.666 350.21 921.16 350.081 921.586 349.822C922.013 349.553 922.35 349.182 922.597 348.711C922.844 348.239 922.967 347.689 922.967 347.061C922.967 346.432 922.844 345.882 922.597 345.41C922.35 344.939 922.013 344.574 921.586 344.316C921.16 344.046 920.666 343.912 920.105 343.912C919.543 343.912 919.049 344.046 918.623 344.316C918.196 344.574 917.859 344.939 917.612 345.41C917.365 345.882 917.242 346.432 917.242 347.061C917.242 347.689 917.365 348.239 917.612 348.711C917.859 349.182 918.196 349.553 918.623 349.822C919.049 350.081 919.543 350.21 920.105 350.21ZM926.031 351.237V339.112H927.446V351.237H926.031ZM932.475 351.439C931.487 351.439 930.701 351.142 930.118 350.547C929.534 349.94 929.242 349.014 929.242 347.768V342.884H930.657V347.616C930.657 349.357 931.369 350.227 932.795 350.227C933.525 350.227 934.126 349.968 934.597 349.452C935.08 348.924 935.321 348.178 935.321 347.212V342.884H936.736V351.237H935.456L935.355 349.738C935.097 350.266 934.709 350.681 934.193 350.984C933.688 351.287 933.115 351.439 932.475 351.439ZM942.482 351.439C941.685 351.439 940.978 351.259 940.361 350.9C939.743 350.53 939.255 350.019 938.896 349.368C938.548 348.717 938.374 347.948 938.374 347.061C938.374 346.185 938.548 345.422 938.896 344.77C939.244 344.108 939.726 343.597 940.344 343.238C940.973 342.868 941.697 342.682 942.516 342.682C943.324 342.682 944.021 342.868 944.604 343.238C945.199 343.597 945.654 344.074 945.968 344.669C946.283 345.264 946.44 345.904 946.44 346.589C946.44 346.713 946.434 346.836 946.423 346.96C946.423 347.083 946.423 347.223 946.423 347.381H939.771C939.805 348.021 939.951 348.554 940.209 348.98C940.479 349.396 940.81 349.71 941.203 349.923C941.607 350.137 942.033 350.243 942.482 350.243C943.066 350.243 943.555 350.109 943.948 349.839C944.34 349.57 944.627 349.205 944.806 348.745H946.204C945.98 349.519 945.547 350.165 944.907 350.681C944.279 351.186 943.47 351.439 942.482 351.439ZM942.482 343.878C941.809 343.878 941.208 344.086 940.681 344.501C940.164 344.905 939.867 345.5 939.788 346.286H945.042C945.008 345.534 944.75 344.944 944.268 344.518C943.785 344.091 943.19 343.878 942.482 343.878Z" fill="#5D616B"/>
<defs>
<linearGradient id="paint0_linear_5223_2011" x1="353.135" y1="102.38" x2="353.135" y2="151.084" gradientUnits="userSpaceOnUse">
<stop offset="0.0625" stop-color="#24AD69"/>
<stop offset="0.239583" stop-color="#18B05F"/>
<stop offset="1" stop-color="#F7CA08"/>
</linearGradient>
<linearGradient id="paint1_linear_5223_2011" x1="353.135" y1="102.38" x2="353.135" y2="151.084" gradientUnits="userSpaceOnUse">
<stop offset="0.0625" stop-color="#24AD69"/>
<stop offset="0.239583" stop-color="#18B05F"/>
<stop offset="1" stop-color="#F7CA08"/>
</linearGradient>
<linearGradient id="paint2_linear_5223_2011" x1="353.135" y1="102.38" x2="353.135" y2="151.084" gradientUnits="userSpaceOnUse">
<stop offset="0.0625" stop-color="#24AD69"/>
<stop offset="0.239583" stop-color="#18B05F"/>
<stop offset="1" stop-color="#F7CA08"/>
</linearGradient>
<linearGradient id="paint3_linear_5223_2011" x1="501.923" y1="161.701" x2="572.472" y2="91.1508" gradientUnits="userSpaceOnUse">
<stop stop-color="#FFC107"/>
<stop offset="0.507" stop-color="#F44336"/>
<stop offset="0.99" stop-color="#9C27B0"/>
</linearGradient>
<clipPath id="clip0_5223_2011">
<rect width="86.9722" height="86.9722" fill="white" transform="translate(678.386 82.7906)"/>
</clipPath>
<clipPath id="clip1_5223_2011">
<rect width="57.4016" height="60.8805" fill="white" transform="translate(692.302 250.086)"/>
</clipPath>
</defs>
</svg>
