<svg width="102" height="138" viewBox="0 0 102 138" fill="none" xmlns="http://www.w3.org/2000/svg">
<path fill-rule="evenodd" clip-rule="evenodd" d="M59.9595 21.0122H49.0968V7.20367H73.3781V57.8349C73.3781 71.1807 62.8646 81.9997 49.8956 81.9997H49.4889C36.7445 81.9997 26.4131 71.3681 26.4131 58.2533H39.8316C39.8316 63.7419 44.1554 68.1912 49.4889 68.1912H49.8956C55.4537 68.1912 59.9595 63.5545 59.9595 57.8349V21.0122Z" fill="#309899"/>
<path d="M17.8268 113.775C16.7603 113.775 15.9239 113.477 15.3177 112.882C14.7114 112.287 14.4083 111.462 14.4083 110.407H15.8397C15.8397 111.002 15.9856 111.501 16.2775 111.905C16.5694 112.31 17.0802 112.512 17.81 112.512C18.5172 112.512 19.0056 112.315 19.275 111.922C19.5557 111.529 19.696 111.041 19.696 110.457V101.785H21.1105V110.457C21.1105 111.501 20.8187 112.315 20.2349 112.899C19.6623 113.483 18.8596 113.775 17.8268 113.775ZM26.2302 113.775C25.2423 113.775 24.4564 113.477 23.8727 112.882C23.2889 112.276 22.997 111.35 22.997 110.104V105.22H24.4115V109.952C24.4115 111.692 25.1244 112.562 26.5502 112.562C27.2799 112.562 27.8805 112.304 28.352 111.787C28.8348 111.26 29.0761 110.513 29.0761 109.548V105.22H30.4907V113.573H29.2108L29.1098 112.074C28.8516 112.601 28.4643 113.017 27.9479 113.32C27.4427 113.623 26.8701 113.775 26.2302 113.775ZM36.2712 113.775C35.4404 113.775 34.7107 113.584 34.082 113.202C33.4645 112.82 32.9818 112.298 32.6338 111.636C32.297 110.974 32.1286 110.221 32.1286 109.379C32.1286 108.537 32.3026 107.791 32.6506 107.14C32.9986 106.477 33.4814 105.961 34.0988 105.59C34.7163 105.209 35.446 105.018 36.288 105.018C36.9728 105.018 37.5791 105.158 38.1067 105.439C38.6343 105.72 39.0441 106.113 39.336 106.618V101.448H40.7505V113.573H39.4707L39.336 112.192C39.0666 112.596 38.6793 112.961 38.1741 113.286C37.6689 113.612 37.0346 113.775 36.2712 113.775ZM36.4227 112.545C36.9841 112.545 37.478 112.416 37.9046 112.158C38.3425 111.889 38.6793 111.518 38.915 111.047C39.162 110.575 39.2855 110.025 39.2855 109.396C39.2855 108.768 39.162 108.217 38.915 107.746C38.6793 107.274 38.3425 106.91 37.9046 106.651C37.478 106.382 36.9841 106.247 36.4227 106.247C35.8726 106.247 35.3787 106.382 34.9408 106.651C34.5142 106.91 34.1774 107.274 33.9304 107.746C33.6947 108.217 33.5768 108.768 33.5768 109.396C33.5768 110.025 33.6947 110.575 33.9304 111.047C34.1774 111.518 34.5142 111.889 34.9408 112.158C35.3787 112.416 35.8726 112.545 36.4227 112.545ZM46.0202 110.946C45.5487 110.946 45.1165 110.884 44.7235 110.76L43.8815 111.552C44.005 111.642 44.1566 111.72 44.3362 111.787C44.5271 111.844 44.7965 111.9 45.1445 111.956C45.4925 112.001 45.9809 112.051 46.6096 112.107C47.7322 112.186 48.5349 112.444 49.0177 112.882C49.5004 113.32 49.7418 113.892 49.7418 114.6C49.7418 115.082 49.6071 115.543 49.3376 115.981C49.0794 116.418 48.6753 116.778 48.1252 117.058C47.5863 117.339 46.8902 117.479 46.037 117.479C45.2849 117.479 44.6169 117.378 44.0331 117.176C43.4493 116.985 42.9947 116.688 42.6691 116.284C42.3435 115.891 42.1807 115.391 42.1807 114.785C42.1807 114.471 42.2649 114.128 42.4333 113.758C42.6017 113.398 42.9161 113.056 43.3764 112.731C43.1294 112.629 42.9161 112.523 42.7364 112.411C42.568 112.287 42.4109 112.152 42.2649 112.006V111.619L43.6963 110.205C43.0339 109.643 42.7028 108.902 42.7028 107.982C42.7028 107.432 42.8319 106.932 43.0901 106.483C43.3483 106.034 43.7244 105.68 44.2183 105.422C44.7123 105.153 45.3129 105.018 46.0202 105.018C46.5029 105.018 46.9408 105.085 47.3337 105.22H50.4154V106.281L48.8493 106.348C49.1748 106.82 49.3376 107.364 49.3376 107.982C49.3376 108.532 49.2029 109.031 48.9335 109.48C48.6753 109.93 48.2992 110.289 47.8052 110.558C47.3225 110.816 46.7275 110.946 46.0202 110.946ZM46.0202 109.784C46.6152 109.784 47.0867 109.632 47.4347 109.329C47.794 109.015 47.9736 108.565 47.9736 107.982C47.9736 107.409 47.794 106.971 47.4347 106.668C47.0867 106.354 46.6152 106.197 46.0202 106.197C45.414 106.197 44.9312 106.354 44.572 106.668C44.224 106.971 44.0499 107.409 44.0499 107.982C44.0499 108.565 44.224 109.015 44.572 109.329C44.9312 109.632 45.414 109.784 46.0202 109.784ZM43.5616 114.65C43.5616 115.212 43.7973 115.627 44.2689 115.896C44.7404 116.177 45.3298 116.317 46.037 116.317C46.7331 116.317 47.2888 116.166 47.7042 115.863C48.1308 115.56 48.3441 115.155 48.3441 114.65C48.3441 114.291 48.1981 113.977 47.9062 113.707C47.6144 113.449 47.0755 113.297 46.2896 113.253C45.6722 113.208 45.1389 113.152 44.6899 113.084C44.2296 113.331 43.9265 113.595 43.7805 113.876C43.6346 114.168 43.5616 114.426 43.5616 114.65ZM55.1006 113.775C54.3035 113.775 53.5963 113.595 52.9788 113.236C52.3614 112.865 51.873 112.354 51.5138 111.703C51.1657 111.052 50.9917 110.283 50.9917 109.396C50.9917 108.521 51.1657 107.757 51.5138 107.106C51.8618 106.444 52.3445 105.933 52.962 105.574C53.5907 105.203 54.3148 105.018 55.1343 105.018C55.9426 105.018 56.6386 105.203 57.2224 105.574C57.8174 105.933 58.2721 106.41 58.5864 107.005C58.9008 107.6 59.058 108.24 59.058 108.925C59.058 109.048 59.0523 109.172 59.0411 109.295C59.0411 109.419 59.0411 109.559 59.0411 109.716H52.3894C52.4231 110.356 52.569 110.889 52.8273 111.316C53.0967 111.731 53.4279 112.046 53.8208 112.259C54.225 112.472 54.6516 112.579 55.1006 112.579C55.6844 112.579 56.1728 112.444 56.5657 112.175C56.9586 111.905 57.2449 111.541 57.4245 111.08H58.8222C58.5977 111.855 58.1655 112.5 57.5255 113.017C56.8969 113.522 56.0886 113.775 55.1006 113.775ZM55.1006 106.214C54.427 106.214 53.8264 106.421 53.2988 106.837C52.7824 107.241 52.4848 107.836 52.4063 108.622H57.6603C57.6266 107.869 57.3684 107.28 56.8856 106.853C56.4029 106.427 55.8079 106.214 55.1006 106.214ZM61.0844 113.657C60.8037 113.657 60.568 113.567 60.3771 113.387C60.1975 113.196 60.1077 112.966 60.1077 112.697C60.1077 112.427 60.1975 112.203 60.3771 112.023C60.568 111.832 60.8037 111.737 61.0844 111.737C61.3538 111.737 61.5783 111.832 61.758 112.023C61.9488 112.203 62.0442 112.427 62.0442 112.697C62.0442 112.966 61.9488 113.196 61.758 113.387C61.5783 113.567 61.3538 113.657 61.0844 113.657ZM63.5482 113.573V105.22H64.8281L64.9291 106.432C65.1985 105.983 65.5578 105.635 66.0068 105.388C66.4559 105.141 66.9611 105.018 67.5224 105.018C68.1848 105.018 68.7517 105.153 69.2232 105.422C69.706 105.692 70.0765 106.101 70.3347 106.651C70.6265 106.146 71.0251 105.748 71.5303 105.456C72.0467 105.164 72.6024 105.018 73.1974 105.018C74.1966 105.018 74.9937 105.321 75.5887 105.927C76.1837 106.522 76.4812 107.443 76.4812 108.689V113.573H75.0835V108.841C75.0835 107.976 74.9095 107.325 74.5614 106.887C74.2134 106.449 73.7138 106.23 73.0627 106.23C72.3891 106.23 71.8278 106.494 71.3787 107.022C70.9409 107.538 70.722 108.279 70.722 109.245V113.573H69.3074V108.841C69.3074 107.976 69.1334 107.325 68.7854 106.887C68.4374 106.449 67.9378 106.23 67.2867 106.23C66.6243 106.23 66.0686 106.494 65.6195 107.022C65.1817 107.538 64.9628 108.279 64.9628 109.245V113.573H63.5482ZM82.0304 113.775C81.2333 113.775 80.526 113.595 79.9086 113.236C79.2911 112.865 78.8028 112.354 78.4435 111.703C78.0955 111.052 77.9215 110.283 77.9215 109.396C77.9215 108.521 78.0955 107.757 78.4435 107.106C78.7915 106.444 79.2743 105.933 79.8917 105.574C80.5204 105.203 81.2445 105.018 82.0641 105.018C82.8724 105.018 83.5684 105.203 84.1522 105.574C84.7472 105.933 85.2019 106.41 85.5162 107.005C85.8305 107.6 85.9877 108.24 85.9877 108.925C85.9877 109.048 85.9821 109.172 85.9709 109.295C85.9709 109.419 85.9709 109.559 85.9709 109.716H79.3192C79.3529 110.356 79.4988 110.889 79.757 111.316C80.0265 111.731 80.3576 112.046 80.7506 112.259C81.1547 112.472 81.5813 112.579 82.0304 112.579C82.6142 112.579 83.1025 112.444 83.4954 112.175C83.8884 111.905 84.1746 111.541 84.3543 111.08H85.752C85.5274 111.855 85.0952 112.5 84.4553 113.017C83.8266 113.522 83.0183 113.775 82.0304 113.775ZM82.0304 106.214C81.3568 106.214 80.7562 106.421 80.2285 106.837C79.7121 107.241 79.4146 107.836 79.336 108.622H84.59C84.5563 107.869 84.2981 107.28 83.8154 106.853C83.3327 106.427 82.7376 106.214 82.0304 106.214Z" fill="#5D616B"/>
</svg>
