<svg width="102" height="139" viewBox="0 0 102 139" fill="none" xmlns="http://www.w3.org/2000/svg">
<rect x="7.38574" y="0.910278" width="86.9722" height="86.9722" rx="8.69722" fill="#FFDF1C"/>
<g clip-path="url(#clip0_5223_2040)">
<path d="M64.4785 41.8636C64.9262 41.8139 65.349 41.8139 65.7469 41.8636C65.9708 41.3417 66.0205 40.4472 65.7967 39.478C65.4982 38.0368 65.0754 37.1422 64.2298 37.2913C63.3842 37.4156 63.3593 38.4841 63.6578 39.9253C63.8319 40.7205 64.1552 41.4163 64.4785 41.8636Z" fill="#241C15"/>
<path d="M57.2151 43.0069C57.812 43.2802 58.1851 43.4542 58.3343 43.3051C58.4338 43.2057 58.4089 43.0317 58.2597 42.7832C57.9613 42.2862 57.3395 41.7893 56.6928 41.5159C55.3498 40.9444 53.7581 41.1432 52.5394 42.0129C52.1415 42.3111 51.7435 42.7087 51.7933 42.982C51.8182 43.0566 51.8679 43.1311 52.0171 43.1311C52.3404 43.1808 53.5094 42.5844 54.8773 42.485C55.8224 42.4353 56.5934 42.7335 57.2151 43.0069Z" fill="#241C15"/>
<path d="M55.9959 43.7015C55.2001 43.8258 54.7773 44.0743 54.5037 44.3228C54.255 44.5216 54.1058 44.7701 54.1306 44.9192C54.1306 44.9937 54.1555 45.0434 54.1804 45.0683C54.2052 45.0931 54.255 45.118 54.3047 45.118C54.4788 45.118 54.8767 44.9689 54.8767 44.9689C55.9711 44.5713 56.6923 44.621 57.4136 44.6955C57.8115 44.7452 57.9856 44.7701 58.0851 44.621C58.1099 44.5713 58.1348 44.4967 58.0602 44.3725C57.8612 44.0743 57.0654 43.5524 55.9959 43.7015Z" fill="#241C15"/>
<path d="M62.0169 46.2356C62.564 46.5089 63.1361 46.3847 63.335 46.0119C63.534 45.6143 63.2604 45.0925 62.7133 44.8192C62.1661 44.5458 61.5941 44.6701 61.3951 45.0428C61.221 45.4404 61.4946 45.9871 62.0169 46.2356Z" fill="#241C15"/>
<path d="M65.4726 43.2302C65.025 43.2302 64.6768 43.7024 64.6768 44.2987C64.6768 44.8951 65.0001 45.3921 65.4478 45.3921C65.8954 45.3921 66.2436 44.92 66.2436 44.3236C66.2436 43.7272 65.9203 43.2551 65.4726 43.2302Z" fill="#241C15"/>
<path d="M36.2222 53.9879C36.1227 53.8637 35.9237 53.8885 35.7745 53.9382C35.6501 53.9631 35.5258 53.9879 35.3766 53.9879C35.0532 53.9879 34.7797 53.8388 34.6304 53.6152C34.4315 53.317 34.4315 52.8448 34.6553 52.3479C34.6802 52.2733 34.7299 52.1988 34.7548 52.1242C35.103 51.329 35.6999 50.0369 35.0284 48.7944C34.531 47.8502 33.7351 47.2786 32.7651 47.1544C31.8449 47.0301 30.875 47.378 30.2781 48.049C29.3081 49.1175 29.1589 50.5587 29.3578 51.0557C29.4325 51.2545 29.5319 51.3042 29.6065 51.3042C29.7806 51.329 30.0045 51.2048 30.1537 50.8072C30.1537 50.7824 30.1786 50.7327 30.2034 50.683C30.2781 50.4593 30.4024 50.0617 30.6014 49.7387C30.8501 49.3411 31.248 49.0926 31.6957 48.9932C32.1682 48.8938 32.6408 48.9932 33.0387 49.2417C33.7102 49.689 33.9838 50.509 33.6853 51.3042C33.5361 51.7018 33.2874 52.497 33.3372 53.143C33.4366 54.4352 34.2325 54.957 34.9538 55.0067C35.6501 55.0316 36.1476 54.634 36.2719 54.3606C36.3216 54.137 36.247 54.0376 36.2222 53.9879Z" fill="#241C15"/>
<path d="M76.4643 51.6296C76.4395 51.5302 76.2654 50.909 76.0167 50.1386C75.768 49.3683 75.5441 48.8465 75.5441 48.8465C76.4892 47.4301 76.5141 46.1379 76.3897 45.4173C76.2654 44.5227 75.8923 43.7524 75.1213 42.9821C74.3752 42.1869 72.8332 41.3917 70.6695 40.7705C70.4208 40.696 69.6 40.4723 69.5254 40.4475C69.5254 40.3978 69.4757 37.7886 69.4259 36.6455C69.4011 35.8255 69.3265 34.5582 68.9285 33.3157C68.456 31.626 67.6352 30.1351 66.6155 29.1908C69.4259 26.2586 71.1918 23.053 71.1918 20.2948C71.1918 14.977 64.6508 13.3618 56.6175 16.6916C56.6175 16.6916 54.9263 17.4123 54.9014 17.4123C54.9014 17.4123 51.8175 14.3807 51.7677 14.3558C42.6153 6.37923 13.9145 38.2359 23.0918 45.964L25.1063 47.6537C24.584 48.9956 24.3851 50.5362 24.5592 52.2011C24.783 54.3382 25.8773 56.3758 27.6431 57.9413C29.3343 59.4322 31.5478 60.3765 33.7116 60.3765C37.293 68.6016 45.4257 73.646 55.0009 73.9193C65.2477 74.2175 73.8778 69.4216 77.484 60.7741C77.7079 60.1777 78.7276 57.4443 78.7276 55.0339C78.7027 52.6236 77.3348 51.6296 76.4643 51.6296ZM34.4826 58.0904C34.1593 58.1401 33.8608 58.1649 33.5375 58.1649C30.4535 58.0655 27.096 55.2824 26.7727 51.9775C26.3996 48.3247 28.2649 45.5167 31.5727 44.8458C31.9706 44.7712 32.4432 44.7215 32.9655 44.7464C34.8308 44.8458 37.5417 46.2622 38.1635 50.3126C38.7106 53.8909 37.8401 57.5189 34.4826 58.0904ZM31.0256 42.659C28.9613 43.0566 27.1457 44.2245 26.0514 45.8397C25.3799 45.2931 24.1612 44.2245 23.9374 43.8021C22.1716 40.4475 25.8773 33.9121 28.4639 30.2096C34.8556 21.0899 44.8785 14.1819 49.5294 15.4492C50.2755 15.6728 52.7874 18.5553 52.7874 18.5553C52.7874 18.5553 48.1615 21.1148 43.8588 24.7179C38.0391 29.1659 33.6618 35.6516 31.0256 42.659ZM63.5564 56.7237C63.6311 56.6988 63.6808 56.6243 63.6559 56.5497C63.6559 56.4503 63.5564 56.3758 63.457 56.4006C63.457 56.4006 58.6072 57.1213 54.031 55.4315C54.5284 53.8163 55.8465 54.3879 57.861 54.5618C61.4673 54.7854 64.7254 54.2388 67.113 53.5678C69.1772 52.9715 71.913 51.8035 74.027 50.1386C74.7483 51.7041 74.997 53.4436 74.997 53.4436C74.997 53.4436 75.5441 53.3442 76.0167 53.6175C76.4643 53.8909 76.7628 54.4376 76.5638 55.8788C76.1162 58.5874 74.9721 60.7741 73.0322 62.7869C71.8633 64.0542 70.4456 65.1476 68.8042 65.9427C67.9337 66.39 67.0135 66.7876 66.0435 67.1106C58.7813 69.4713 51.3449 66.887 48.9325 61.2711C48.7335 60.8486 48.5843 60.4014 48.4599 59.9541C47.4402 56.2764 48.3107 51.8284 51.0216 49.0453C51.1957 48.8713 51.3698 48.6477 51.3698 48.3992C51.3698 48.1756 51.2206 47.9519 51.0962 47.778C50.1511 46.4113 46.8682 44.0506 47.5148 39.528C47.9874 36.2728 50.8475 33.9867 53.5087 34.1109C53.7325 34.1109 53.9563 34.1358 54.1802 34.1606C55.3242 34.2352 56.3439 34.3843 57.289 34.4091C58.8807 34.4837 60.2984 34.2352 61.9896 32.8436C62.5616 32.3715 63.0093 31.949 63.7803 31.8248C63.8549 31.7999 64.0539 31.7502 64.4767 31.7502C64.8995 31.7751 65.2725 31.8745 65.6456 32.123C66.9886 33.0176 67.1876 35.2043 67.2622 36.7946C67.3119 37.7141 67.4114 39.9008 67.4611 40.5469C67.5358 41.9881 67.9337 42.1869 68.7047 42.4602C69.1275 42.6093 69.5503 42.7087 70.1223 42.8827C71.913 43.3797 72.9824 43.9015 73.654 44.5476C74.0519 44.9452 74.2509 45.3925 74.3006 45.8149C74.5244 47.3555 73.1068 49.2689 69.3762 50.9835C65.2974 52.8721 60.3481 53.3442 56.9408 52.9715C56.6673 52.9466 55.747 52.8472 55.747 52.8472C53.0113 52.4745 51.4444 56.0031 53.0859 58.4383C54.1553 60.0038 57.0154 61.0226 59.9004 61.0226C66.5161 61.0226 71.5897 58.2146 73.4799 55.7794C73.5296 55.7049 73.5296 55.7049 73.6291 55.5558C73.7286 55.4067 73.654 55.3321 73.5296 55.4067C71.9876 56.4503 65.1233 60.6499 57.7864 59.3825C57.7864 59.3825 56.8911 59.2335 56.0704 58.9104C55.4237 58.6619 54.0807 58.0407 53.9066 56.6491C59.8258 58.4631 63.5564 56.7237 63.5564 56.7237ZM42.8391 30.1847C45.1272 27.5507 47.9128 25.2646 50.4247 23.9973C50.4993 23.9476 50.5988 24.047 50.5491 24.1215C50.3501 24.4943 49.977 25.2646 49.8527 25.8361C49.8278 25.9355 49.9273 25.9852 50.0019 25.9355C51.5688 24.867 54.2797 23.724 56.6673 23.5997C56.7667 23.5997 56.8165 23.724 56.7419 23.7985C56.3688 24.0718 55.9957 24.4694 55.6973 24.8422C55.6476 24.9167 55.6973 24.9913 55.7719 25.0161C57.4383 25.0161 59.801 25.6125 61.3429 26.4822C61.4424 26.5319 61.3678 26.7307 61.2683 26.7059C58.9554 26.184 55.1501 25.7616 51.1957 26.7307C47.6641 27.6004 44.978 28.9174 43.0132 30.3338C42.8889 30.4084 42.7645 30.2841 42.8391 30.1847Z" fill="#241C15"/>
</g>
<path d="M12.5079 114.237V102.449H14.1582L18.4018 110.667L22.6117 102.449H24.2789V114.237H22.8643V104.975L18.9238 112.553H17.8629L13.9224 104.992V114.237H12.5079ZM29.1233 114.439C28.4273 114.439 27.8491 114.321 27.3888 114.085C26.9285 113.85 26.5861 113.535 26.3616 113.142C26.1371 112.749 26.0248 112.323 26.0248 111.863C26.0248 111.009 26.3504 110.353 27.0015 109.892C27.6526 109.432 28.5395 109.202 29.6622 109.202H31.9187V109.101C31.9187 108.371 31.7278 107.821 31.3461 107.451C30.9644 107.069 30.4536 106.878 29.8137 106.878C29.2636 106.878 28.7865 107.018 28.3824 107.299C27.9894 107.568 27.7424 107.967 27.6414 108.495H26.1932C26.2493 107.888 26.4514 107.378 26.7994 106.962C27.1587 106.547 27.6021 106.232 28.1298 106.019C28.6574 105.795 29.2187 105.682 29.8137 105.682C30.9813 105.682 31.857 105.997 32.4407 106.625C33.0357 107.243 33.3332 108.068 33.3332 109.101V114.237H32.0703L31.9861 112.738C31.7503 113.21 31.4023 113.614 30.942 113.951C30.4929 114.276 29.8867 114.439 29.1233 114.439ZM29.3422 113.243C29.8811 113.243 30.3414 113.103 30.7231 112.822C31.116 112.542 31.4135 112.177 31.6156 111.728C31.8177 111.279 31.9187 110.807 31.9187 110.313V110.296H29.7801C28.9493 110.296 28.3599 110.442 28.0119 110.734C27.6751 111.015 27.5067 111.369 27.5067 111.795C27.5067 112.233 27.6639 112.587 27.9782 112.856C28.3038 113.114 28.7584 113.243 29.3422 113.243ZM35.9773 104.032C35.6967 104.032 35.4609 103.942 35.2701 103.763C35.0904 103.572 35.0006 103.336 35.0006 103.055C35.0006 102.786 35.0904 102.561 35.2701 102.382C35.4609 102.202 35.6967 102.112 35.9773 102.112C36.2468 102.112 36.4769 102.202 36.6678 102.382C36.8586 102.561 36.954 102.786 36.954 103.055C36.954 103.336 36.8586 103.572 36.6678 103.763C36.4769 103.942 36.2468 104.032 35.9773 104.032ZM35.2701 114.237V105.884H36.6846V114.237H35.2701ZM38.8108 114.237V102.112H40.2253V114.237H38.8108ZM46.0464 114.439C45.2494 114.439 44.5309 114.259 43.891 113.9C43.2623 113.53 42.7627 113.019 42.3922 112.368C42.033 111.705 41.8533 110.936 41.8533 110.061C41.8533 109.185 42.033 108.422 42.3922 107.77C42.7627 107.108 43.2623 106.597 43.891 106.238C44.5309 105.868 45.2494 105.682 46.0464 105.682C47.0344 105.682 47.8651 105.941 48.5387 106.457C49.2235 106.973 49.6558 107.664 49.8354 108.528H48.3872C48.2749 108.012 47.9999 107.613 47.562 107.333C47.1242 107.041 46.6134 106.895 46.0296 106.895C45.5581 106.895 45.1146 107.013 44.6993 107.248C44.2839 107.484 43.9471 107.838 43.6889 108.309C43.4307 108.781 43.3016 109.365 43.3016 110.061C43.3016 110.757 43.4307 111.341 43.6889 111.812C43.9471 112.284 44.2839 112.643 44.6993 112.89C45.1146 113.126 45.5581 113.243 46.0296 113.243C46.6134 113.243 47.1242 113.103 47.562 112.822C47.9999 112.531 48.2749 112.121 48.3872 111.593H49.8354C49.667 112.435 49.2404 113.12 48.5556 113.648C47.8707 114.175 47.0344 114.439 46.0464 114.439ZM51.4741 114.237V102.112H52.8886V107.316C53.1693 106.799 53.5678 106.401 54.0843 106.12C54.6007 105.828 55.162 105.682 55.7682 105.682C56.7337 105.682 57.5083 105.985 58.0921 106.592C58.6759 107.187 58.9678 108.107 58.9678 109.353V114.237H57.5701V109.505C57.5701 107.765 56.8684 106.895 55.4651 106.895C54.7354 106.895 54.1235 107.159 53.6296 107.686C53.1356 108.203 52.8886 108.944 52.8886 109.909V114.237H51.4741ZM61.6329 104.032C61.3523 104.032 61.1165 103.942 60.9257 103.763C60.746 103.572 60.6562 103.336 60.6562 103.055C60.6562 102.786 60.746 102.561 60.9257 102.382C61.1165 102.202 61.3523 102.112 61.6329 102.112C61.9024 102.112 62.1325 102.202 62.3234 102.382C62.5142 102.561 62.6096 102.786 62.6096 103.055C62.6096 103.336 62.5142 103.572 62.3234 103.763C62.1325 103.942 61.9024 104.032 61.6329 104.032ZM60.9257 114.237V105.884H62.3402V114.237H60.9257ZM64.4663 114.237V105.884H65.7462L65.8472 107.097C66.1166 106.648 66.4759 106.3 66.9249 106.053C67.374 105.806 67.8792 105.682 68.4405 105.682C69.1029 105.682 69.6698 105.817 70.1413 106.087C70.6241 106.356 70.9946 106.766 71.2528 107.316C71.5446 106.811 71.9432 106.412 72.4484 106.12C72.9648 105.828 73.5205 105.682 74.1155 105.682C75.1147 105.682 75.9118 105.985 76.5068 106.592C77.1018 107.187 77.3993 108.107 77.3993 109.353V114.237H76.0016V109.505C76.0016 108.641 75.8276 107.989 75.4795 107.552C75.1315 107.114 74.6319 106.895 73.9808 106.895C73.3072 106.895 72.7459 107.159 72.2968 107.686C71.859 108.203 71.6401 108.944 71.6401 109.909V114.237H70.2255V109.505C70.2255 108.641 70.0515 107.989 69.7035 107.552C69.3555 107.114 68.8559 106.895 68.2048 106.895C67.5424 106.895 66.9867 107.159 66.5376 107.686C66.0998 108.203 65.8809 108.944 65.8809 109.909V114.237H64.4663ZM79.1932 117.942V105.884H80.473L80.6078 107.265C80.8772 106.861 81.2589 106.496 81.7529 106.171C82.2581 105.845 82.898 105.682 83.6726 105.682C84.5034 105.682 85.2275 105.873 85.8449 106.255C86.4624 106.637 86.9395 107.159 87.2763 107.821C87.6243 108.483 87.7983 109.236 87.7983 110.078C87.7983 110.92 87.6243 111.672 87.2763 112.334C86.9395 112.985 86.4568 113.502 85.8281 113.883C85.2106 114.254 84.4865 114.439 83.6558 114.439C82.9709 114.439 82.3591 114.299 81.8202 114.018C81.2926 113.737 80.8884 113.344 80.6078 112.839V117.942H79.1932ZM83.5042 113.21C84.0655 113.21 84.5595 113.081 84.9861 112.822C85.4127 112.553 85.7495 112.182 85.9965 111.711C86.2435 111.239 86.3669 110.689 86.3669 110.061C86.3669 109.432 86.2435 108.882 85.9965 108.41C85.7495 107.939 85.4127 107.574 84.9861 107.316C84.5595 107.046 84.0655 106.912 83.5042 106.912C82.9429 106.912 82.4489 107.046 82.0223 107.316C81.5957 107.574 81.2589 107.939 81.0119 108.41C80.7649 108.882 80.6414 109.432 80.6414 110.061C80.6414 110.689 80.7649 111.239 81.0119 111.711C81.2589 112.182 81.5957 112.553 82.0223 112.822C82.4489 113.081 82.9429 113.21 83.5042 113.21Z" fill="#5D616B"/>
<defs>
<clipPath id="clip0_5223_2040">
<rect width="57.4016" height="60.8805" fill="white" transform="translate(21.3018 13.0864)"/>
</clipPath>
</defs>
</svg>
