<svg width="158" height="25" viewBox="0 0 158 25" fill="none" xmlns="http://www.w3.org/2000/svg">
<path d="M13.4106 0.180664L17.5884 7.8411L26.1649 9.44719L20.1704 15.7877L21.2932 24.4407L13.4106 20.6989L5.52806 24.4407L6.65088 15.7877L0.656363 9.44719L9.23288 7.8411L13.4106 0.180664Z" fill="#F0AD4E"/>
<path d="M46.1841 0.180664L50.3618 7.8411L58.9384 9.44719L52.9438 15.7877L54.0667 24.4407L46.1841 20.6989L38.3015 24.4407L39.4243 15.7877L33.4298 9.44719L42.0063 7.8411L46.1841 0.180664Z" fill="#F0AD4E"/>
<path d="M78.9575 0.180664L83.1353 7.8411L91.7118 9.44719L85.7173 15.7877L86.8401 24.4407L78.9575 20.6989L71.0749 24.4407L72.1978 15.7877L66.2032 9.44719L74.7798 7.8411L78.9575 0.180664Z" fill="#F0AD4E"/>
<path d="M111.732 0.180664L115.91 7.8411L124.486 9.44719L118.492 15.7877L119.615 24.4407L111.732 20.6989L103.849 24.4407L104.972 15.7877L98.9777 9.44719L107.554 7.8411L111.732 0.180664Z" fill="#F0AD4E"/>
<path d="M144.505 0.181396L148.683 7.84184L157.26 9.44792L151.265 15.7884L152.388 24.4415L144.505 20.6997L136.623 24.4415L137.746 15.7884L131.751 9.44792L140.328 7.84184L144.505 0.181396Z" fill="#C4C4C4"/>
<path d="M136.622 24.4407L144.504 20.6989V0.180664L140.327 7.8411L131.75 9.44719L137.745 15.7877L136.622 24.4407Z" fill="#F0AD4E"/>
</svg>
