<svg width="102" height="139" viewBox="0 0 102 139" fill="none" xmlns="http://www.w3.org/2000/svg">
<path d="M39.5589 79.8168C45.7453 79.8168 50.7662 74.9247 50.7662 68.8969V57.9769H39.5589C33.3724 57.9769 28.3516 62.8691 28.3516 68.8969C28.3516 74.9247 33.3724 79.8168 39.5589 79.8168Z" fill="#0ACF83"/>
<path d="M28.3516 47.0568C28.3516 41.029 33.3724 36.1368 39.5589 36.1368H50.7662V57.9768H39.5589C33.3724 57.9768 28.3516 53.0846 28.3516 47.0568Z" fill="#A259FF"/>
<path d="M28.3516 25.2171C28.3516 19.1893 33.3724 14.2971 39.5589 14.2971H50.7662V36.137H39.5589C33.3724 36.137 28.3516 31.2449 28.3516 25.2171Z" fill="#F24E1E"/>
<path d="M50.7656 14.297H61.9729C68.1594 14.297 73.1803 19.1891 73.1803 25.217C73.1803 31.2448 68.1594 36.1369 61.9729 36.1369H50.7656V14.297Z" fill="#FF7262"/>
<path d="M73.1803 47.0568C73.1803 53.0846 68.1594 57.9768 61.9729 57.9768C55.7865 57.9768 50.7656 53.0846 50.7656 47.0568C50.7656 41.029 55.7865 36.1368 61.9729 36.1368C68.1594 36.1368 73.1803 41.029 73.1803 47.0568Z" fill="#1ABCFE"/>
<path d="M12.9785 114.439C12.1141 114.439 11.3619 114.282 10.722 113.968C10.0821 113.653 9.58812 113.215 9.2401 112.654C8.89208 112.093 8.71807 111.442 8.71807 110.701H10.2C10.2 111.161 10.3066 111.587 10.5199 111.98C10.7332 112.362 11.042 112.671 11.4461 112.907C11.8615 113.131 12.3723 113.243 12.9785 113.243C13.7756 113.243 14.3931 113.053 14.8309 112.671C15.2687 112.289 15.4876 111.812 15.4876 111.239C15.4876 110.768 15.3866 110.392 15.1845 110.111C14.9825 109.819 14.7074 109.584 14.3594 109.404C14.0226 109.224 13.6297 109.067 13.1806 108.932C12.7428 108.798 12.2825 108.646 11.7997 108.478C10.8904 108.163 10.2168 107.776 9.77897 107.316C9.34114 106.844 9.12223 106.232 9.12223 105.48C9.111 104.852 9.25694 104.296 9.56006 103.813C9.86317 103.319 10.2898 102.937 10.8399 102.668C11.4012 102.387 12.0636 102.247 12.827 102.247C13.5791 102.247 14.2303 102.387 14.7804 102.668C15.3417 102.949 15.7739 103.336 16.077 103.83C16.3914 104.324 16.5542 104.885 16.5654 105.514H15.0835C15.0835 105.188 14.9993 104.868 14.8309 104.554C14.6625 104.229 14.4043 103.965 14.0563 103.763C13.7195 103.561 13.2929 103.46 12.7764 103.46C12.1365 103.448 11.6089 103.611 11.1935 103.948C10.7894 104.285 10.5873 104.751 10.5873 105.346C10.5873 105.851 10.7276 106.238 11.0083 106.508C11.3002 106.777 11.7043 107.001 12.2207 107.181C12.7372 107.349 13.3322 107.546 14.0057 107.77C14.5671 107.973 15.0723 108.208 15.5213 108.478C15.9704 108.747 16.3184 109.095 16.5654 109.522C16.8236 109.948 16.9527 110.493 16.9527 111.155C16.9527 111.717 16.8068 112.25 16.5149 112.755C16.223 113.249 15.7795 113.653 15.1845 113.968C14.6008 114.282 13.8654 114.439 12.9785 114.439ZM22.293 114.439C21.4959 114.439 20.7887 114.259 20.1712 113.9C19.5537 113.53 19.0654 113.019 18.7061 112.368C18.3581 111.717 18.1841 110.948 18.1841 110.061C18.1841 109.185 18.3581 108.422 18.7061 107.77C19.0542 107.108 19.5369 106.597 20.1544 106.238C20.783 105.868 21.5071 105.682 22.3267 105.682C23.135 105.682 23.831 105.868 24.4148 106.238C25.0098 106.597 25.4645 107.074 25.7788 107.669C26.0932 108.264 26.2503 108.904 26.2503 109.589C26.2503 109.713 26.2447 109.836 26.2335 109.96C26.2335 110.083 26.2335 110.223 26.2335 110.381H19.5818C19.6155 111.021 19.7614 111.554 20.0196 111.98C20.2891 112.396 20.6203 112.71 21.0132 112.923C21.4173 113.137 21.8439 113.243 22.293 113.243C22.8768 113.243 23.3651 113.109 23.7581 112.839C24.151 112.57 24.4373 112.205 24.6169 111.745H26.0146C25.7901 112.519 25.3578 113.165 24.7179 113.681C24.0892 114.186 23.2809 114.439 22.293 114.439ZM22.293 106.878C21.6194 106.878 21.0188 107.086 20.4911 107.501C19.9747 107.905 19.6772 108.5 19.5986 109.286H24.8526C24.819 108.534 24.5608 107.944 24.078 107.518C23.5953 107.091 23.0003 106.878 22.293 106.878ZM27.7884 114.237V105.884H29.0682L29.1524 107.383C29.4219 106.856 29.8092 106.44 30.3144 106.137C30.8196 105.834 31.3921 105.682 32.032 105.682C33.02 105.682 33.8058 105.985 34.3896 106.592C34.9846 107.187 35.2821 108.107 35.2821 109.353V114.237H33.8676V109.505C33.8676 107.765 33.1491 106.895 31.7121 106.895C30.9936 106.895 30.393 107.159 29.9102 107.686C29.4387 108.203 29.2029 108.944 29.2029 109.909V114.237H27.7884ZM40.8774 114.439C40.0466 114.439 39.3169 114.248 38.6882 113.866C38.0707 113.485 37.588 112.963 37.24 112.3C36.9032 111.638 36.7348 110.886 36.7348 110.044C36.7348 109.202 36.9088 108.455 37.2568 107.804C37.6048 107.142 38.0876 106.625 38.705 106.255C39.3225 105.873 40.0522 105.682 40.8942 105.682C41.579 105.682 42.1852 105.823 42.7129 106.103C43.2405 106.384 43.6503 106.777 43.9422 107.282V102.112H45.3567V114.237H44.0769L43.9422 112.856C43.6728 113.26 43.2854 113.625 42.7802 113.951C42.2751 114.276 41.6408 114.439 40.8774 114.439ZM41.0289 113.21C41.5902 113.21 42.0842 113.081 42.5108 112.822C42.9486 112.553 43.2854 112.182 43.5212 111.711C43.7682 111.239 43.8917 110.689 43.8917 110.061C43.8917 109.432 43.7682 108.882 43.5212 108.41C43.2854 107.939 42.9486 107.574 42.5108 107.316C42.0842 107.046 41.5902 106.912 41.0289 106.912C40.4788 106.912 39.9849 107.046 39.547 107.316C39.1204 107.574 38.7836 107.939 38.5366 108.41C38.3009 108.882 38.183 109.432 38.183 110.061C38.183 110.689 38.3009 111.239 38.5366 111.711C38.7836 112.182 39.1204 112.553 39.547 112.822C39.9849 113.081 40.4788 113.21 41.0289 113.21ZM48.1846 104.032C47.904 104.032 47.6682 103.942 47.4773 103.763C47.2977 103.572 47.2079 103.336 47.2079 103.055C47.2079 102.786 47.2977 102.561 47.4773 102.382C47.6682 102.202 47.904 102.112 48.1846 102.112C48.4541 102.112 48.6842 102.202 48.875 102.382C49.0659 102.561 49.1613 102.786 49.1613 103.055C49.1613 103.336 49.0659 103.572 48.875 103.763C48.6842 103.942 48.4541 104.032 48.1846 104.032ZM47.4773 114.237V105.884H48.8919V114.237H47.4773ZM51.018 114.237V105.884H52.2979L52.3821 107.383C52.6515 106.856 53.0388 106.44 53.544 106.137C54.0492 105.834 54.6217 105.682 55.2616 105.682C56.2496 105.682 57.0354 105.985 57.6192 106.592C58.2142 107.187 58.5117 108.107 58.5117 109.353V114.237H57.0972V109.505C57.0972 107.765 56.3787 106.895 54.9417 106.895C54.2232 106.895 53.6226 107.159 53.1398 107.686C52.6683 108.203 52.4326 108.944 52.4326 109.909V114.237H51.018ZM64.7806 114.439C64.0958 114.439 63.4839 114.299 62.945 114.018C62.4174 113.737 62.0132 113.344 61.7326 112.839L61.5979 114.237H60.318V102.112H61.7326V107.265C62.002 106.861 62.3837 106.496 62.8777 106.171C63.3829 105.845 64.0228 105.682 64.7974 105.682C65.6282 105.682 66.3523 105.873 66.9697 106.255C67.5872 106.637 68.0643 107.159 68.4011 107.821C68.7491 108.483 68.9231 109.236 68.9231 110.078C68.9231 110.92 68.7491 111.672 68.4011 112.334C68.0643 112.985 67.5816 113.502 66.9529 113.883C66.3354 114.254 65.6113 114.439 64.7806 114.439ZM64.629 113.21C65.1903 113.21 65.6843 113.081 66.1109 112.822C66.5375 112.553 66.8743 112.182 67.1213 111.711C67.3683 111.239 67.4918 110.689 67.4918 110.061C67.4918 109.432 67.3683 108.882 67.1213 108.41C66.8743 107.939 66.5375 107.574 66.1109 107.316C65.6843 107.046 65.1903 106.912 64.629 106.912C64.0677 106.912 63.5737 107.046 63.1471 107.316C62.7205 107.574 62.3837 107.939 62.1367 108.41C61.8897 108.882 61.7663 109.432 61.7663 110.061C61.7663 110.689 61.8897 111.239 62.1367 111.711C62.3837 112.182 62.7205 112.553 63.1471 112.822C63.5737 113.081 64.0677 113.21 64.629 113.21ZM70.5554 114.237V102.112H71.97V114.237H70.5554ZM76.9996 114.439C76.0117 114.439 75.2259 114.142 74.6421 113.547C74.0583 112.94 73.7664 112.014 73.7664 110.768V105.884H75.1809V110.616C75.1809 112.357 75.8938 113.227 77.3196 113.227C78.0493 113.227 78.6499 112.968 79.1214 112.452C79.6042 111.924 79.8456 111.178 79.8456 110.212V105.884H81.2601V114.237H79.9803L79.8792 112.738C79.621 113.266 79.2337 113.681 78.7173 113.984C78.2121 114.287 77.6395 114.439 76.9996 114.439ZM87.0069 114.439C86.2098 114.439 85.5026 114.259 84.8851 113.9C84.2676 113.53 83.7793 113.019 83.42 112.368C83.072 111.717 82.898 110.948 82.898 110.061C82.898 109.185 83.072 108.422 83.42 107.77C83.7681 107.108 84.2508 106.597 84.8683 106.238C85.4969 105.868 86.2211 105.682 87.0406 105.682C87.8489 105.682 88.5449 105.868 89.1287 106.238C89.7237 106.597 90.1784 107.074 90.4927 107.669C90.8071 108.264 90.9642 108.904 90.9642 109.589C90.9642 109.713 90.9586 109.836 90.9474 109.96C90.9474 110.083 90.9474 110.223 90.9474 110.381H84.2957C84.3294 111.021 84.4753 111.554 84.7335 111.98C85.003 112.396 85.3342 112.71 85.7271 112.923C86.1312 113.137 86.5578 113.243 87.0069 113.243C87.5907 113.243 88.079 113.109 88.472 112.839C88.8649 112.57 89.1512 112.205 89.3308 111.745H90.7285C90.504 112.519 90.0717 113.165 89.4318 113.681C88.8031 114.186 87.9948 114.439 87.0069 114.439ZM87.0069 106.878C86.3333 106.878 85.7327 107.086 85.2051 107.501C84.6886 107.905 84.3911 108.5 84.3126 109.286H89.5665C89.5329 108.534 89.2747 107.944 88.7919 107.518C88.3092 107.091 87.7142 106.878 87.0069 106.878Z" fill="#5D616B"/>
</svg>
