<svg width="52" height="52" viewBox="0 0 52 52" fill="none" xmlns="http://www.w3.org/2000/svg">
<rect x="0.0878906" y="26.3735" width="36.0847" height="36.0847" rx="11.7687" transform="rotate(-45 0.0878906 26.3735)" fill="#10A866"/>
<path d="M19.8816 34.7905V32.4352C20.9622 31.5404 22.009 30.654 23.022 29.776C24.052 28.898 24.9637 28.0285 25.7572 27.1674C26.5677 26.3063 27.2093 25.4706 27.682 24.6602C28.1716 23.8328 28.4165 23.0309 28.4165 22.2542C28.4165 21.5282 28.2139 20.8866 27.8086 20.3294C27.4203 19.7722 26.7703 19.4937 25.8585 19.4937C24.9299 19.4937 24.2292 19.7976 23.7565 20.4054C23.2837 21.0132 23.0474 21.7477 23.0474 22.6088H19.907C19.9407 21.3087 20.2277 20.2281 20.768 19.367C21.3083 18.4891 22.0259 17.839 22.9207 17.4169C23.8156 16.978 24.8202 16.7585 25.9345 16.7585C27.7411 16.7585 29.1425 17.2565 30.1386 18.2527C31.1517 19.232 31.6582 20.5067 31.6582 22.0769C31.6582 23.0562 31.4303 24.0101 30.9744 24.9387C30.5354 25.8674 29.9529 26.7622 29.2269 27.6233C28.5009 28.4844 27.7158 29.2948 26.8716 30.0546C26.0274 30.7975 25.2085 31.4897 24.415 32.1313H32.0887V34.7905H19.8816Z" fill="white"/>
</svg>
