<svg width="764" height="594" viewBox="0 0 764 594" fill="none" xmlns="http://www.w3.org/2000/svg">
<g filter="url(#filter0_d_43_2480)">
<rect x="125.549" y="87.8427" width="477.549" height="421.37" rx="10.0549" fill="white"/>
</g>
<path d="M210.129 367.376V115.126" stroke="#DEDEDE" stroke-width="0.521089"/>
<path d="M260.548 358.218V115.126" stroke="#DEDEDE" stroke-width="0.521089"/>
<path d="M312.436 358.218V115.126" stroke="#DEDEDE" stroke-width="0.521089"/>
<path d="M157.5 357.547H584.781" stroke="#DEDEDE" stroke-width="0.521089"/>
<path d="M364.323 358.218V115.126" stroke="#DEDEDE" stroke-width="0.521089"/>
<path d="M416.21 358.218V115.126" stroke="#DEDEDE" stroke-width="0.521089"/>
<path d="M456.642 358.218V115.126" stroke="#DEDEDE" stroke-width="0.521089"/>
<path d="M503.677 358.218V115.126" stroke="#DEDEDE" stroke-width="0.521089"/>
<path d="M569.987 358.218V115.126" stroke="#DEDEDE" stroke-width="0.521089"/>
<rect x="172.28" y="134.072" width="15.2176" height="8.19438" rx="4.09719" fill="#DCDCDC"/>
<rect x="166.362" y="167.865" width="21.1356" height="8.18562" rx="4.09281" fill="#DCDCDC"/>
<rect x="172.28" y="201.675" width="15.2176" height="8.19438" rx="4.09719" fill="#DCDCDC"/>
<rect x="166.362" y="235.451" width="21.1356" height="8.18562" rx="4.09281" fill="#DCDCDC"/>
<rect x="178.198" y="269.279" width="9.29965" height="8.19438" rx="4.09719" fill="#DCDCDC"/>
<rect x="159.599" y="303.081" width="27.899" height="8.19438" rx="4.09719" fill="#DCDCDC"/>
<rect x="174.816" y="336.883" width="12.6813" height="8.19438" rx="4.09719" fill="#DCDCDC"/>
<path d="M210.14 296.217L260.415 255.337L312.087 272.749L364.457 235.654L415.43 152.379L456.182 210.175L503.769 247.656L582.709 221.566" stroke="#19899F" stroke-width="10.0374" stroke-linecap="round" stroke-linejoin="round"/>
<path d="M207.765 267.38L257.717 290.515L311.35 231.099L365.14 267.38L416.493 229.262L456.443 159.789L503.878 146.393L571.406 175.041" stroke="#F49B1E" stroke-width="5.33956" stroke-linecap="round" stroke-linejoin="round" stroke-dasharray="12.46 12.46"/>
<path d="M264.349 255.934C264.349 258.244 262.534 260.041 260.387 260.041C258.239 260.041 256.424 258.244 256.424 255.934C256.424 253.625 258.239 251.828 260.387 251.828C262.534 251.828 264.349 253.625 264.349 255.934Z" fill="white" stroke="#142F45" stroke-width="3.5597"/>
<path d="M314.597 271.605C314.597 273.9 312.787 275.693 310.634 275.693C308.482 275.693 306.671 273.9 306.671 271.605C306.671 269.31 308.482 267.516 310.634 267.516C312.787 267.516 314.597 269.31 314.597 271.605Z" fill="white" stroke="#142F45" stroke-width="3.5597"/>
<path d="M369.151 233.884C369.151 236.178 367.341 237.972 365.188 237.972C363.036 237.972 361.226 236.178 361.226 233.884C361.226 231.589 363.036 229.795 365.188 229.795C367.341 229.795 369.151 231.589 369.151 233.884Z" fill="white" stroke="#142F45" stroke-width="3.5597"/>
<path d="M419.972 153.992C419.972 156.397 418.006 158.368 415.555 158.368C413.105 158.368 411.139 156.397 411.139 153.992C411.139 151.587 413.105 149.617 415.555 149.617C418.006 149.617 419.972 151.587 419.972 153.992Z" fill="white" stroke="#142F45" stroke-width="3.5597"/>
<path d="M460.605 210.41C460.605 212.705 458.794 214.499 456.642 214.499C454.49 214.499 452.679 212.705 452.679 210.41C452.679 208.115 454.49 206.321 456.642 206.321C458.794 206.321 460.605 208.115 460.605 210.41Z" fill="white" stroke="#142F45" stroke-width="3.5597"/>
<path d="M507.641 247.119C507.641 249.414 505.83 251.208 503.678 251.208C501.526 251.208 499.715 249.414 499.715 247.119C499.715 244.825 501.526 243.031 503.678 243.031C505.83 243.031 507.641 244.825 507.641 247.119Z" fill="white" stroke="#142F45" stroke-width="3.5597"/>
<path d="M272.805 419.107C273.441 419.107 274.024 419.202 274.552 419.393C275.08 419.578 275.532 419.842 275.908 420.186C276.283 420.529 276.576 420.943 276.786 421.427C276.996 421.911 277.101 422.448 277.101 423.04C277.101 423.549 277.025 424.02 276.872 424.453C276.725 424.886 276.525 425.3 276.27 425.694C276.022 426.089 275.729 426.471 275.392 426.84C275.055 427.209 274.702 427.585 274.332 427.966L271.22 431.145C271.526 431.056 271.825 430.99 272.118 430.945C272.41 430.894 272.69 430.869 272.958 430.869H276.5C276.754 430.869 276.955 430.942 277.101 431.088C277.254 431.228 277.33 431.416 277.33 431.651V433.064H267.86V432.282C267.86 432.122 267.891 431.957 267.955 431.785C268.025 431.613 268.133 431.454 268.28 431.308L272.471 427.107C272.821 426.751 273.133 426.41 273.406 426.086C273.686 425.761 273.919 425.44 274.103 425.121C274.294 424.803 274.437 424.482 274.533 424.157C274.635 423.826 274.686 423.479 274.686 423.117C274.686 422.786 274.638 422.496 274.542 422.248C274.447 421.993 274.31 421.78 274.132 421.608C273.954 421.436 273.74 421.309 273.492 421.226C273.25 421.137 272.977 421.093 272.671 421.093C272.105 421.093 271.637 421.236 271.268 421.522C270.905 421.809 270.65 422.194 270.504 422.677C270.434 422.919 270.329 423.094 270.189 423.203C270.049 423.304 269.871 423.355 269.654 423.355C269.559 423.355 269.454 423.346 269.339 423.327L268.098 423.107C268.194 422.445 268.378 421.866 268.652 421.37C268.926 420.867 269.266 420.45 269.674 420.119C270.087 419.782 270.558 419.53 271.086 419.365C271.621 419.193 272.194 419.107 272.805 419.107ZM288.597 419.26V420.281C288.597 420.587 288.562 420.835 288.492 421.026C288.428 421.21 288.365 421.366 288.301 421.494L283.079 432.262C282.971 432.485 282.818 432.676 282.621 432.835C282.423 432.988 282.156 433.064 281.819 433.064H280.11L285.456 422.515C285.679 422.082 285.927 421.71 286.201 421.398H279.594C279.448 421.398 279.321 421.344 279.212 421.236C279.104 421.128 279.05 421 279.05 420.854V419.26H288.597ZM292.856 418.878V427.002H293.295C293.455 427.002 293.579 426.98 293.668 426.935C293.757 426.891 293.852 426.808 293.954 426.687L296.389 423.68C296.497 423.553 296.611 423.454 296.732 423.384C296.853 423.308 297.012 423.269 297.21 423.269H299.367L296.322 426.907C296.214 427.04 296.102 427.164 295.988 427.279C295.873 427.387 295.749 427.483 295.615 427.565C295.749 427.661 295.867 427.772 295.969 427.9C296.07 428.027 296.172 428.164 296.274 428.31L299.539 433.064H297.41C297.226 433.064 297.07 433.033 296.942 432.969C296.815 432.905 296.7 432.797 296.599 432.644L294.107 428.931C294.011 428.784 293.916 428.689 293.82 428.644C293.725 428.6 293.582 428.577 293.391 428.577H292.856V433.064H290.498V418.878H292.856Z" fill="#5D616B"/>
<path d="M268.014 447.039H298.789" stroke="#EAEAEA" stroke-width="3.55921" stroke-linecap="round"/>
<path d="M261.626 439.801H305.176" stroke="#EAEAEA" stroke-width="4.23391" stroke-linecap="round"/>
<path d="M320.694 436.946C320.333 441.843 319.01 446.622 316.803 451.008C314.595 455.394 311.544 459.303 307.826 462.51C304.108 465.718 299.794 468.161 295.131 469.702C290.468 471.242 285.548 471.849 280.65 471.488C275.753 471.126 270.975 469.804 266.588 467.596C262.202 465.388 258.294 462.338 255.086 458.62C251.879 454.901 249.435 450.587 247.895 445.925C246.354 441.262 245.747 436.341 246.109 431.444C246.47 426.547 247.792 421.768 250 417.382C252.208 412.996 255.258 409.087 258.977 405.88C262.695 402.672 267.009 400.229 271.672 398.688C276.335 397.148 281.255 396.541 286.152 396.902C291.05 397.264 295.828 398.586 300.214 400.794C304.601 403.002 308.509 406.052 311.717 409.77C314.924 413.489 317.368 417.803 318.908 422.465C320.448 427.128 321.055 432.049 320.694 436.946L320.694 436.946Z" stroke="#EAEAEA" stroke-width="6.55087"/>
<path d="M286.845 396.96C292.523 397.485 298.007 399.302 302.875 402.272C307.744 405.242 311.868 409.286 314.934 414.095C317.999 418.904 319.924 424.35 320.561 430.017C321.198 435.684 320.531 441.422 318.61 446.791C316.689 452.161 313.565 457.02 309.478 460.997C305.39 464.974 300.448 467.963 295.027 469.736C289.607 471.509 283.853 472.019 278.206 471.226C272.558 470.434 267.167 468.36 262.444 465.164" stroke="#FF7960" stroke-width="6.55087"/>
<path d="M391.282 421.959C391.918 421.959 392.501 422.055 393.029 422.246C393.557 422.43 394.009 422.694 394.385 423.038C394.76 423.382 395.053 423.796 395.263 424.279C395.473 424.763 395.578 425.301 395.578 425.893C395.578 426.402 395.502 426.873 395.349 427.306C395.203 427.738 395.002 428.152 394.748 428.547C394.499 428.941 394.207 429.323 393.869 429.692C393.532 430.061 393.179 430.437 392.81 430.819L389.697 433.998C390.003 433.909 390.302 433.842 390.595 433.797C390.887 433.747 391.167 433.721 391.435 433.721H394.977C395.231 433.721 395.432 433.794 395.578 433.941C395.731 434.081 395.807 434.268 395.807 434.504V435.917H386.337V435.134C386.337 434.975 386.369 434.809 386.432 434.638C386.502 434.466 386.61 434.307 386.757 434.16L390.948 429.96C391.298 429.603 391.61 429.263 391.883 428.938C392.164 428.614 392.396 428.292 392.58 427.974C392.771 427.656 392.915 427.334 393.01 427.01C393.112 426.679 393.163 426.332 393.163 425.969C393.163 425.638 393.115 425.349 393.02 425.1C392.924 424.846 392.787 424.632 392.609 424.461C392.431 424.289 392.218 424.162 391.969 424.079C391.728 423.99 391.454 423.945 391.148 423.945C390.582 423.945 390.114 424.088 389.745 424.375C389.382 424.661 389.128 425.046 388.981 425.53C388.911 425.772 388.806 425.947 388.666 426.055C388.526 426.157 388.348 426.208 388.132 426.208C388.036 426.208 387.931 426.198 387.817 426.179L386.575 425.96C386.671 425.298 386.855 424.718 387.129 424.222C387.403 423.719 387.743 423.302 388.151 422.971C388.564 422.634 389.035 422.383 389.564 422.217C390.098 422.045 390.671 421.959 391.282 421.959ZM397.308 434.618C397.308 434.421 397.343 434.233 397.413 434.055C397.489 433.877 397.591 433.724 397.718 433.597C397.852 433.47 398.008 433.368 398.186 433.291C398.364 433.215 398.555 433.177 398.759 433.177C398.956 433.177 399.144 433.215 399.322 433.291C399.5 433.368 399.653 433.47 399.78 433.597C399.907 433.724 400.009 433.877 400.086 434.055C400.162 434.233 400.2 434.421 400.2 434.618C400.2 434.822 400.162 435.013 400.086 435.191C400.009 435.363 399.907 435.513 399.78 435.64C399.653 435.767 399.5 435.866 399.322 435.936C399.144 436.012 398.956 436.051 398.759 436.051C398.555 436.051 398.364 436.012 398.186 435.936C398.008 435.866 397.852 435.767 397.718 435.64C397.591 435.513 397.489 435.363 397.413 435.191C397.343 435.013 397.308 434.822 397.308 434.618ZM406.866 421.959C407.503 421.959 408.075 422.052 408.584 422.236C409.1 422.414 409.539 422.666 409.902 422.99C410.265 423.309 410.542 423.684 410.733 424.117C410.93 424.55 411.028 425.018 411.028 425.52C411.028 425.96 410.978 426.348 410.876 426.685C410.78 427.016 410.637 427.306 410.446 427.554C410.262 427.802 410.032 428.012 409.759 428.184C409.491 428.356 409.186 428.499 408.842 428.614C409.67 428.874 410.287 429.272 410.694 429.807C411.102 430.342 411.305 431.013 411.305 431.821C411.305 432.509 411.178 433.116 410.923 433.645C410.669 434.173 410.325 434.618 409.892 434.981C409.46 435.338 408.957 435.608 408.384 435.793C407.818 435.977 407.216 436.07 406.58 436.07C405.886 436.07 405.281 435.99 404.766 435.831C404.25 435.672 403.802 435.436 403.42 435.124C403.038 434.813 402.713 434.431 402.446 433.979C402.179 433.527 401.949 433.005 401.758 432.413L402.799 431.984C402.977 431.907 403.159 431.869 403.343 431.869C403.509 431.869 403.655 431.904 403.782 431.974C403.916 432.044 404.018 432.146 404.088 432.28C404.202 432.502 404.327 432.722 404.46 432.938C404.6 433.155 404.766 433.349 404.957 433.521C405.148 433.686 405.37 433.823 405.625 433.931C405.886 434.033 406.195 434.084 406.551 434.084C406.952 434.084 407.302 434.02 407.601 433.893C407.9 433.759 408.149 433.587 408.346 433.377C408.549 433.167 408.699 432.935 408.795 432.68C408.896 432.42 408.947 432.159 408.947 431.898C408.947 431.567 408.912 431.268 408.842 431C408.772 430.727 408.626 430.494 408.403 430.303C408.18 430.112 407.859 429.963 407.439 429.855C407.025 429.746 406.468 429.692 405.768 429.692V428.012C406.347 428.006 406.828 427.952 407.21 427.85C407.592 427.748 407.894 427.608 408.117 427.43C408.346 427.245 408.505 427.026 408.594 426.771C408.683 426.516 408.728 426.236 408.728 425.931C408.728 425.275 408.549 424.782 408.193 424.451C407.837 424.114 407.35 423.945 406.732 423.945C406.172 423.945 405.708 424.095 405.339 424.394C404.969 424.687 404.712 425.065 404.565 425.53C404.489 425.772 404.384 425.947 404.25 426.055C404.117 426.157 403.942 426.208 403.725 426.208C403.623 426.208 403.515 426.198 403.401 426.179L402.159 425.96C402.255 425.298 402.439 424.718 402.713 424.222C402.987 423.719 403.327 423.302 403.735 422.971C404.148 422.634 404.619 422.383 405.148 422.217C405.682 422.045 406.255 421.959 406.866 421.959ZM415.622 421.73V429.855H416.061C416.22 429.855 416.344 429.832 416.433 429.788C416.523 429.743 416.618 429.661 416.72 429.54L419.154 426.532C419.263 426.405 419.377 426.306 419.498 426.236C419.619 426.16 419.778 426.122 419.975 426.122H422.133L419.088 429.759C418.979 429.893 418.868 430.017 418.753 430.131C418.639 430.24 418.515 430.335 418.381 430.418C418.515 430.513 418.632 430.625 418.734 430.752C418.836 430.879 418.938 431.016 419.04 431.163L422.305 435.917H420.176C419.991 435.917 419.835 435.885 419.708 435.821C419.581 435.758 419.466 435.65 419.364 435.497L416.873 431.783C416.777 431.637 416.682 431.541 416.586 431.497C416.491 431.452 416.348 431.43 416.157 431.43H415.622V435.917H413.264V421.73H415.622Z" fill="#5D616B"/>
<path d="M382.948 444.822H426.497" stroke="#EAEAEA" stroke-width="4.23391" stroke-linecap="round"/>
<path d="M442.015 436.946C441.654 441.843 440.332 446.622 438.124 451.008C435.916 455.394 432.866 459.303 429.147 462.51C425.429 465.718 421.115 468.161 416.452 469.702C411.789 471.242 406.869 471.849 401.972 471.488C397.074 471.126 392.296 469.804 387.91 467.596C383.523 465.388 379.615 462.338 376.407 458.62C373.2 454.901 370.756 450.587 369.216 445.925C367.676 441.262 367.069 436.341 367.43 431.444C367.791 426.547 369.114 421.768 371.322 417.382C373.529 412.996 376.58 409.087 380.298 405.88C384.016 402.672 388.33 400.229 392.993 398.688C397.656 397.148 402.576 396.541 407.474 396.902C412.371 397.264 417.149 398.586 421.536 400.794C425.922 403.002 429.83 406.052 433.038 409.77C436.245 413.489 438.689 417.803 440.229 422.465C441.77 427.128 442.377 432.049 442.015 436.946L442.015 436.946Z" stroke="#EAEAEA" stroke-width="6.55087"/>
<path d="M404.723 396.801C409.825 396.801 414.874 397.845 419.558 399.87C424.242 401.894 428.462 404.856 431.958 408.572C435.455 412.288 438.153 416.681 439.888 421.48C441.624 426.278 442.358 431.381 442.047 436.474C441.736 441.567 440.386 446.543 438.08 451.095C435.774 455.647 432.561 459.678 428.638 462.942C424.715 466.205 420.166 468.631 415.271 470.07C410.376 471.51 405.237 471.932 400.173 471.311" stroke="#7873D2" stroke-width="6.55087"/>
<path d="M525.324 420.964V421.985C525.324 422.291 525.289 422.539 525.219 422.73C525.156 422.914 525.092 423.07 525.028 423.198L519.806 433.966C519.698 434.189 519.545 434.38 519.348 434.539C519.151 434.692 518.883 434.768 518.546 434.768H516.837L522.183 424.219C522.406 423.786 522.654 423.414 522.928 423.102H516.322C516.175 423.102 516.048 423.048 515.94 422.94C515.832 422.832 515.778 422.704 515.778 422.558V420.964H525.324ZM530.997 429.26C530.519 429.26 530.052 429.177 529.593 429.012C529.135 428.846 528.725 428.598 528.362 428.267C528.005 427.93 527.719 427.516 527.503 427.026C527.286 426.529 527.178 425.95 527.178 425.288C527.178 424.671 527.293 424.092 527.522 423.551C527.751 423.01 528.072 422.536 528.486 422.128C528.9 421.721 529.396 421.4 529.975 421.164C530.554 420.929 531.194 420.811 531.894 420.811C532.601 420.811 533.234 420.922 533.794 421.145C534.36 421.368 534.841 421.68 535.235 422.081C535.636 422.482 535.942 422.962 536.152 423.522C536.368 424.082 536.477 424.696 536.477 425.365C536.477 425.791 536.438 426.195 536.362 426.577C536.292 426.959 536.187 427.328 536.047 427.685C535.913 428.035 535.751 428.378 535.56 428.716C535.369 429.047 535.156 429.381 534.92 429.718L531.76 434.224C531.652 434.377 531.49 434.507 531.274 434.616C531.064 434.717 530.822 434.768 530.548 434.768H528.381L532.667 429.413C532.776 429.279 532.877 429.148 532.973 429.021C533.068 428.894 533.161 428.767 533.25 428.639C532.932 428.843 532.581 428.999 532.2 429.107C531.818 429.209 531.417 429.26 530.997 429.26ZM534.214 425.126C534.214 424.751 534.157 424.416 534.042 424.124C533.928 423.825 533.765 423.573 533.555 423.369C533.345 423.166 533.094 423.01 532.801 422.902C532.515 422.793 532.2 422.739 531.856 422.739C531.499 422.739 531.178 422.8 530.892 422.921C530.605 423.035 530.36 423.198 530.157 423.408C529.959 423.618 529.807 423.869 529.698 424.162C529.59 424.448 529.536 424.763 529.536 425.107C529.536 425.877 529.733 426.466 530.128 426.873C530.529 427.274 531.095 427.475 531.827 427.475C532.209 427.475 532.546 427.414 532.839 427.293C533.138 427.172 533.39 427.007 533.593 426.797C533.797 426.587 533.95 426.339 534.052 426.052C534.16 425.766 534.214 425.457 534.214 425.126Z" fill="#5D616B"/>
<path d="M504.269 443.673H547.819" stroke="#EAEAEA" stroke-width="4.23391" stroke-linecap="round"/>
<path d="M563.337 435.798C562.975 440.695 561.653 445.474 559.445 449.86C557.237 454.246 554.187 458.155 550.469 461.362C546.75 464.57 542.436 467.013 537.774 468.554C533.111 470.094 528.19 470.701 523.293 470.34C518.396 469.978 513.617 468.656 509.231 466.448C504.845 464.24 500.936 461.19 497.729 457.471C494.521 453.753 492.078 449.439 490.537 444.776C488.997 440.114 488.39 435.193 488.751 430.296C489.113 425.398 490.435 420.62 492.643 416.234C494.851 411.848 497.901 407.939 501.619 404.732C505.338 401.524 509.652 399.08 514.314 397.54C518.977 396 523.898 395.393 528.795 395.754C533.692 396.115 538.471 397.438 542.857 399.646C547.243 401.854 551.152 404.904 554.359 408.622C557.567 412.341 560.01 416.654 561.551 421.317C563.091 425.98 563.698 430.901 563.337 435.798L563.337 435.798Z" stroke="#EAEAEA" stroke-width="6.55087"/>
<path d="M526.044 395.653C532.714 395.653 539.263 397.437 545.012 400.821C550.76 404.204 555.499 409.064 558.737 414.895C561.975 420.727 563.594 427.319 563.426 433.987C563.258 440.655 561.31 447.157 557.783 452.819C554.256 458.481 549.279 463.096 543.368 466.186C537.456 469.276 530.826 470.729 524.164 470.394C517.502 470.058 511.051 467.947 505.48 464.279C499.909 460.611 495.42 455.519 492.48 449.532" stroke="#FF4D9C" stroke-width="6.55087"/>
<g filter="url(#filter1_d_43_2480)">
<circle cx="126.521" cy="433.047" r="71.7056" fill="white"/>
</g>
<path d="M103.142 439.18C102.145 439.043 101.207 438.77 100.33 438.361C99.4603 437.952 98.7189 437.445 98.1053 436.84L99.0768 435.396C99.162 435.268 99.2728 435.166 99.4091 435.089C99.554 435.004 99.7031 434.961 99.8565 434.961C100.044 434.961 100.244 435.029 100.457 435.166C100.67 435.294 100.913 435.447 101.186 435.626C101.459 435.805 101.77 435.984 102.119 436.163C102.469 436.342 102.882 436.474 103.359 436.559L103.845 430.832C103.24 430.662 102.639 430.462 102.042 430.231C101.454 430.001 100.922 429.699 100.445 429.324C99.9759 428.94 99.5966 428.459 99.3069 427.879C99.0171 427.3 98.8723 426.576 98.8723 425.706C98.8723 425.059 99.0001 424.428 99.2557 423.814C99.5199 423.192 99.8992 422.638 100.393 422.153C100.888 421.667 101.497 421.266 102.221 420.951C102.946 420.636 103.777 420.457 104.714 420.414L104.855 418.804C104.872 418.599 104.957 418.416 105.11 418.254C105.264 418.092 105.464 418.011 105.711 418.011H106.874L106.657 420.529C107.56 420.674 108.34 420.93 108.996 421.296C109.653 421.663 110.224 422.076 110.709 422.536L109.942 423.699C109.823 423.87 109.704 423.998 109.584 424.083C109.465 424.168 109.32 424.211 109.15 424.211C109.022 424.211 108.869 424.172 108.69 424.096C108.519 424.01 108.319 423.912 108.089 423.802C107.867 423.682 107.62 423.563 107.347 423.444C107.075 423.324 106.772 423.226 106.44 423.15L105.992 428.442C106.606 428.629 107.211 428.838 107.808 429.068C108.413 429.29 108.954 429.58 109.431 429.937C109.917 430.295 110.309 430.743 110.607 431.28C110.905 431.808 111.054 432.473 111.054 433.274C111.054 434.066 110.922 434.812 110.658 435.511C110.394 436.201 110.006 436.815 109.495 437.352C108.992 437.88 108.37 438.31 107.629 438.643C106.887 438.975 106.039 439.175 105.085 439.243L104.931 441.123C104.914 441.319 104.829 441.497 104.676 441.659C104.522 441.83 104.322 441.915 104.075 441.915H102.912L103.142 439.18ZM108.063 433.76C108.063 433.436 108.004 433.154 107.884 432.916C107.773 432.669 107.612 432.451 107.398 432.264C107.194 432.076 106.951 431.915 106.67 431.778C106.389 431.642 106.082 431.518 105.749 431.407L105.315 436.597C106.218 436.478 106.9 436.176 107.36 435.69C107.829 435.195 108.063 434.552 108.063 433.76ZM101.851 425.4C101.851 425.723 101.906 426.009 102.017 426.256C102.128 426.503 102.281 426.725 102.477 426.921C102.682 427.108 102.92 427.279 103.193 427.432C103.466 427.577 103.764 427.709 104.088 427.828L104.484 423.099C104.015 423.158 103.615 423.26 103.282 423.405C102.95 423.542 102.677 423.712 102.464 423.917C102.251 424.121 102.094 424.351 101.991 424.607C101.898 424.854 101.851 425.118 101.851 425.4ZM124.696 421.923C124.696 422.374 124.551 422.741 124.261 423.022C123.98 423.303 123.507 423.444 122.842 423.444H117.755L117.09 427.304C117.925 427.134 118.688 427.049 119.378 427.049C120.35 427.049 121.202 427.193 121.935 427.483C122.676 427.773 123.298 428.173 123.801 428.685C124.304 429.196 124.683 429.797 124.939 430.487C125.194 431.169 125.322 431.906 125.322 432.699C125.322 433.679 125.147 434.573 124.798 435.383C124.457 436.193 123.98 436.887 123.366 437.467C122.753 438.038 122.024 438.481 121.18 438.796C120.345 439.111 119.433 439.269 118.445 439.269C117.865 439.269 117.316 439.209 116.796 439.09C116.276 438.971 115.786 438.813 115.326 438.617C114.874 438.413 114.452 438.182 114.06 437.927C113.677 437.663 113.332 437.386 113.025 437.096L113.996 435.754C114.201 435.464 114.474 435.319 114.815 435.319C115.028 435.319 115.241 435.387 115.454 435.524C115.675 435.66 115.931 435.809 116.221 435.971C116.51 436.133 116.847 436.282 117.231 436.418C117.614 436.555 118.078 436.623 118.624 436.623C119.203 436.623 119.715 436.529 120.158 436.342C120.601 436.154 120.967 435.894 121.257 435.562C121.555 435.221 121.777 434.821 121.922 434.36C122.075 433.892 122.152 433.385 122.152 432.839C122.152 431.834 121.858 431.05 121.27 430.487C120.69 429.916 119.834 429.631 118.701 429.631C117.806 429.631 116.907 429.793 116.003 430.116L114.035 429.554L115.569 420.58H124.696V421.923ZM141.073 429.822C141.073 431.433 140.898 432.835 140.549 434.028C140.208 435.213 139.731 436.193 139.117 436.968C138.512 437.744 137.792 438.323 136.957 438.707C136.13 439.082 135.235 439.269 134.272 439.269C133.309 439.269 132.414 439.082 131.588 438.707C130.77 438.323 130.058 437.744 129.453 436.968C128.848 436.193 128.375 435.213 128.034 434.028C127.693 432.835 127.523 431.433 127.523 429.822C127.523 428.203 127.693 426.801 128.034 425.617C128.375 424.432 128.848 423.452 129.453 422.677C130.058 421.901 130.77 421.326 131.588 420.951C132.414 420.568 133.309 420.376 134.272 420.376C135.235 420.376 136.13 420.568 136.957 420.951C137.792 421.326 138.512 421.901 139.117 422.677C139.731 423.452 140.208 424.432 140.549 425.617C140.898 426.801 141.073 428.203 141.073 429.822ZM137.813 429.822C137.813 428.484 137.715 427.377 137.519 426.499C137.323 425.621 137.059 424.922 136.727 424.402C136.403 423.883 136.028 423.52 135.602 423.316C135.176 423.103 134.732 422.996 134.272 422.996C133.821 422.996 133.382 423.103 132.956 423.316C132.538 423.52 132.167 423.883 131.843 424.402C131.52 424.922 131.26 425.621 131.064 426.499C130.876 427.377 130.782 428.484 130.782 429.822C130.782 431.16 130.876 432.268 131.064 433.146C131.26 434.024 131.52 434.723 131.843 435.242C132.167 435.762 132.538 436.129 132.956 436.342C133.382 436.546 133.821 436.648 134.272 436.648C134.732 436.648 135.176 436.546 135.602 436.342C136.028 436.129 136.403 435.762 136.727 435.242C137.059 434.723 137.323 434.024 137.519 433.146C137.715 432.268 137.813 431.16 137.813 429.822ZM146.597 420.069V430.947H147.185C147.398 430.947 147.564 430.917 147.684 430.858C147.803 430.798 147.931 430.687 148.067 430.525L151.327 426.499C151.472 426.328 151.625 426.196 151.787 426.103C151.949 426 152.162 425.949 152.426 425.949H155.315L151.237 430.819C151.092 430.998 150.943 431.165 150.79 431.318C150.636 431.463 150.47 431.591 150.291 431.701C150.47 431.829 150.628 431.978 150.764 432.149C150.901 432.319 151.037 432.503 151.173 432.699L155.545 439.064H152.694C152.447 439.064 152.239 439.022 152.068 438.937C151.898 438.851 151.744 438.707 151.608 438.502L148.272 433.529C148.144 433.333 148.016 433.206 147.888 433.146C147.76 433.086 147.568 433.056 147.313 433.056H146.597V439.064H143.44V420.069H146.597Z" fill="#5D616B"/>
<path d="M105.917 448.887H147.125" stroke="#EAEAEA" stroke-width="4.76568" stroke-linecap="round"/>
<path d="M176.455 437.879C175.971 444.436 174.201 450.834 171.244 456.707C168.288 462.58 164.204 467.814 159.225 472.108C154.246 476.403 148.47 479.675 142.227 481.738C135.983 483.8 129.395 484.613 122.837 484.129C116.28 483.645 109.882 481.875 104.009 478.918C98.1359 475.962 92.9026 471.878 88.6078 466.899C84.3131 461.92 81.0411 456.144 78.9786 449.901C76.9161 443.657 76.1036 437.069 76.5873 430.512C77.0711 423.954 78.8416 417.556 81.798 411.683C84.7543 405.81 88.8385 400.577 93.8173 396.282C98.7961 391.987 104.572 388.715 110.815 386.653C117.059 384.59 123.647 383.778 130.205 384.261C136.762 384.745 143.16 386.516 149.033 389.472C154.906 392.428 160.14 396.513 164.434 401.491C168.729 406.47 172.001 412.246 174.064 418.49C176.126 424.733 176.939 431.321 176.455 437.879L176.455 437.879Z" stroke="#EAEAEA" stroke-width="8.77141"/>
<path d="M131.132 384.338C140.993 385.25 150.361 389.066 158.054 395.302C165.746 401.539 171.416 409.917 174.347 419.376C177.278 428.835 177.338 438.951 174.52 448.444C171.702 457.937 166.132 466.382 158.515 472.709C150.897 479.037 141.575 482.964 131.725 483.993C121.876 485.023 111.943 483.108 103.182 478.492C94.4208 473.876 87.2252 466.766 82.5051 458.06C77.785 449.355 75.7524 439.445 76.6644 429.584" stroke="#F49B1E" stroke-width="8.77141"/>
<g filter="url(#filter2_d_43_2480)">
<g filter="url(#filter3_d_43_2480)">
<path fill-rule="evenodd" clip-rule="evenodd" d="M443.969 40.4637C417.711 40.4637 396.424 61.7503 396.424 88.0086C396.424 114.267 417.711 135.553 443.969 135.553C444.366 135.553 444.743 135.73 444.996 136.036L453.652 146.489C455.141 148.286 457.897 148.286 459.385 146.489L467.325 136.901C468.032 136.048 469.083 135.553 470.191 135.553H634.848C661.106 135.553 682.393 114.267 682.393 88.0086C682.393 61.7503 661.106 40.4637 634.848 40.4637H443.969Z" fill="white"/>
</g>
<g clip-path="url(#clip0_43_2480)">
<path d="M419.61 88.1659C419.61 71.2606 433.368 57.5029 450.273 57.5029C467.179 57.5029 480.936 71.2606 480.936 88.1659C480.936 105.071 467.178 118.829 450.273 118.829C433.368 118.829 419.61 105.071 419.61 88.1659Z" stroke="#EB951D" stroke-width="4.9631"/>
<path d="M452.276 86.3778V74.6015C453.493 75.0373 454.554 75.8371 455.291 76.9186C455.944 77.8753 457.277 78.1402 458.268 77.5103C459.259 76.8804 459.534 75.5941 458.881 74.6373C457.337 72.3748 454.958 70.8387 452.276 70.2974V67.0025C452.276 65.857 451.314 64.9283 450.127 64.9283C448.941 64.9283 447.978 65.857 447.978 67.0025V70.2912C443.222 71.2482 439.638 75.3251 439.638 80.1954C439.638 85.0658 443.222 89.1432 447.978 90.1003V101.877C446.762 101.441 445.701 100.641 444.964 99.5595C444.311 98.6027 442.978 98.3375 441.987 98.9677C440.996 99.5977 440.721 100.884 441.374 101.841C442.918 104.103 445.297 105.639 447.978 106.181V109.475C447.978 110.621 448.941 111.549 450.127 111.549C451.314 111.549 452.276 110.621 452.276 109.475V106.187C457.033 105.23 460.617 101.153 460.617 96.2826C460.617 91.4123 457.033 87.3349 452.276 86.3778ZM443.936 80.1954C443.936 77.6315 445.622 75.4465 447.978 74.603V85.7878C445.622 84.9443 443.936 82.7593 443.936 80.1954ZM452.276 101.875V90.6899C454.632 91.5335 456.319 93.7184 456.319 96.2823C456.319 98.8463 454.633 101.031 452.276 101.875Z" fill="#EB951D"/>
</g>
<path d="M509.046 104.735C507.34 104.501 505.736 104.035 504.234 103.335C502.746 102.635 501.477 101.767 500.427 100.732L502.09 98.2597C502.236 98.041 502.425 97.866 502.659 97.7347C502.906 97.5889 503.162 97.516 503.424 97.516C503.745 97.516 504.088 97.6326 504.452 97.866C504.817 98.0847 505.232 98.3472 505.699 98.6534C506.166 98.9597 506.698 99.2659 507.296 99.5722C507.894 99.8784 508.601 100.104 509.418 100.25L510.249 90.4505C509.214 90.1588 508.186 89.8161 507.165 89.4224C506.158 89.0286 505.247 88.5109 504.43 87.8693C503.628 87.213 502.979 86.3891 502.484 85.3974C501.988 84.4058 501.74 83.1662 501.74 81.6787C501.74 80.5704 501.959 79.4913 502.396 78.4413C502.848 77.3767 503.497 76.4288 504.343 75.5976C505.189 74.7664 506.231 74.081 507.471 73.5414C508.711 73.0018 510.132 72.6956 511.736 72.6226L511.977 69.8664C512.006 69.5165 512.152 69.2029 512.415 68.9258C512.677 68.6488 513.02 68.5102 513.443 68.5102H515.433L515.061 72.8195C516.607 73.0674 517.942 73.5049 519.064 74.132C520.187 74.7591 521.164 75.4663 521.996 76.2538L520.683 78.2444C520.479 78.5361 520.275 78.7548 520.071 78.9007C519.867 79.0465 519.619 79.1194 519.327 79.1194C519.108 79.1194 518.846 79.0538 518.54 78.9225C518.248 78.7767 517.905 78.609 517.511 78.4194C517.132 78.2153 516.709 78.0111 516.243 77.8069C515.776 77.6028 515.258 77.4351 514.69 77.3038L513.924 86.3599C514.974 86.6807 516.009 87.038 517.03 87.4318C518.066 87.8109 518.992 88.3068 519.808 88.9192C520.639 89.5317 521.31 90.2973 521.821 91.2161C522.331 92.1202 522.586 93.2577 522.586 94.6285C522.586 95.9847 522.36 97.2608 521.908 98.4566C521.456 99.6378 520.793 100.688 519.918 101.607C519.057 102.511 517.993 103.247 516.724 103.816C515.455 104.385 514.004 104.727 512.371 104.844L512.108 108.06C512.079 108.395 511.933 108.701 511.671 108.978C511.408 109.27 511.066 109.416 510.643 109.416H508.652L509.046 104.735ZM517.468 95.4598C517.468 94.9056 517.366 94.4244 517.161 94.016C516.972 93.5931 516.695 93.2212 516.33 92.9004C515.98 92.5796 515.565 92.3025 515.083 92.0692C514.602 91.8359 514.077 91.6244 513.508 91.4348L512.765 100.316C514.31 100.112 515.477 99.5941 516.265 98.7628C517.067 97.917 517.468 96.816 517.468 95.4598ZM506.837 81.1538C506.837 81.7079 506.931 82.1964 507.121 82.6193C507.311 83.0423 507.573 83.4214 507.908 83.7568C508.258 84.0777 508.667 84.3693 509.133 84.6318C509.6 84.8797 510.11 85.1058 510.665 85.3099L511.343 77.2163C510.541 77.3184 509.855 77.4934 509.287 77.7413C508.718 77.9746 508.251 78.2663 507.887 78.6163C507.522 78.9663 507.252 79.36 507.077 79.7975C506.917 80.2204 506.837 80.6725 506.837 81.1538ZM537.464 72.557C538.923 72.557 540.257 72.7758 541.468 73.2133C542.678 73.6362 543.713 74.2414 544.574 75.0289C545.434 75.8163 546.105 76.7642 546.586 77.8726C547.067 78.9809 547.308 80.2131 547.308 81.5694C547.308 82.736 547.133 83.8152 546.783 84.8068C546.448 85.7985 545.988 86.7464 545.405 87.6505C544.836 88.5547 544.165 89.4296 543.392 90.2755C542.62 91.1213 541.81 91.9817 540.964 92.8567L533.833 100.141C534.533 99.9368 535.219 99.7836 535.889 99.6816C536.56 99.5649 537.202 99.5066 537.814 99.5066H545.93C546.513 99.5066 546.973 99.6743 547.308 100.01C547.658 100.331 547.833 100.761 547.833 101.3V104.538H526.133V102.744C526.133 102.379 526.206 102 526.352 101.607C526.513 101.213 526.76 100.848 527.096 100.513L536.699 90.888C537.501 90.0713 538.215 89.2911 538.843 88.5474C539.484 87.8036 540.017 87.0672 540.439 86.338C540.877 85.6089 541.205 84.8724 541.424 84.1287C541.657 83.3704 541.774 82.5756 541.774 81.7444C541.774 80.986 541.664 80.3225 541.446 79.7538C541.227 79.1705 540.913 78.6819 540.505 78.2882C540.097 77.8944 539.608 77.6028 539.039 77.4132C538.485 77.209 537.858 77.1069 537.158 77.1069C535.86 77.1069 534.788 77.4351 533.943 78.0913C533.111 78.7475 532.528 79.6298 532.193 80.7381C532.032 81.2923 531.792 81.6933 531.471 81.9412C531.15 82.1746 530.742 82.2912 530.246 82.2912C530.027 82.2912 529.786 82.2694 529.524 82.2256L526.68 81.7225C526.899 80.2058 527.322 78.8788 527.949 77.7413C528.576 76.5892 529.356 75.6341 530.29 74.8757C531.237 74.1028 532.317 73.5268 533.527 73.1476C534.752 72.7539 536.064 72.557 537.464 72.557ZM551.424 101.213C551.424 100.804 551.497 100.425 551.643 100.075C551.803 99.7107 552.022 99.3972 552.299 99.1347C552.576 98.8576 552.911 98.6462 553.305 98.5003C553.699 98.3399 554.129 98.2597 554.596 98.2597C555.15 98.2597 555.631 98.3618 556.039 98.5659C556.448 98.7555 556.79 99.0253 557.068 99.3753C557.345 99.7107 557.549 100.104 557.68 100.557C557.811 100.994 557.877 101.461 557.877 101.957C557.877 102.657 557.768 103.393 557.549 104.166C557.345 104.939 557.038 105.712 556.63 106.485C556.222 107.257 555.719 108.008 555.121 108.738C554.523 109.467 553.837 110.138 553.064 110.75L552.124 109.897C551.861 109.678 551.73 109.408 551.73 109.088C551.73 108.971 551.767 108.84 551.84 108.694C551.927 108.548 552.029 108.417 552.146 108.3C552.306 108.125 552.503 107.906 552.736 107.644C552.97 107.396 553.203 107.104 553.436 106.769C553.67 106.448 553.881 106.091 554.071 105.697C554.275 105.318 554.421 104.91 554.508 104.472C554.056 104.472 553.641 104.392 553.261 104.231C552.882 104.056 552.554 103.823 552.277 103.531C552.015 103.24 551.803 102.897 551.643 102.503C551.497 102.11 551.424 101.679 551.424 101.213ZM567.135 100.491H573.544V82.0506C573.544 81.336 573.566 80.585 573.61 79.7975L569.06 83.6037C568.87 83.7641 568.673 83.8735 568.469 83.9318C568.279 83.9902 568.09 84.0193 567.9 84.0193C567.609 84.0193 567.339 83.961 567.091 83.8443C566.858 83.7131 566.683 83.5672 566.566 83.4068L564.86 81.0663L574.506 72.8633H578.947V100.491H584.634V104.538H567.135V100.491ZM610.603 72.907V75.2476C610.603 75.9476 610.523 76.5163 610.362 76.9538C610.216 77.3767 610.071 77.734 609.925 78.0257L597.959 102.7C597.711 103.211 597.362 103.648 596.909 104.013C596.457 104.363 595.845 104.538 595.072 104.538H591.156L603.406 80.3663C603.917 79.3746 604.485 78.5215 605.112 77.8069H589.975C589.64 77.8069 589.348 77.683 589.1 77.4351C588.852 77.1872 588.728 76.8955 588.728 76.5601V72.907H610.603ZM633.64 75.2039C633.64 75.9768 633.392 76.6038 632.897 77.0851C632.415 77.5663 631.606 77.8069 630.469 77.8069H621.762L620.625 84.4131C622.054 84.1214 623.359 83.9756 624.54 83.9756C626.203 83.9756 627.661 84.2235 628.915 84.7193C630.184 85.2151 631.249 85.9005 632.109 86.7755C632.97 87.6505 633.618 88.6786 634.056 89.8598C634.493 91.0265 634.712 92.2879 634.712 93.6442C634.712 95.3212 634.413 96.8524 633.815 98.2378C633.232 99.6232 632.415 100.812 631.365 101.803C630.315 102.78 629.069 103.539 627.625 104.078C626.196 104.618 624.635 104.888 622.944 104.888C621.952 104.888 621.011 104.786 620.122 104.581C619.232 104.377 618.394 104.108 617.606 103.772C616.833 103.422 616.111 103.028 615.441 102.591C614.784 102.139 614.194 101.665 613.669 101.169L615.331 98.8722C615.681 98.3764 616.148 98.1285 616.731 98.1285C617.096 98.1285 617.46 98.2451 617.825 98.4784C618.204 98.7118 618.642 98.967 619.137 99.2441C619.633 99.5211 620.209 99.7763 620.866 100.01C621.522 100.243 622.317 100.36 623.25 100.36C624.242 100.36 625.117 100.199 625.875 99.8784C626.633 99.5576 627.26 99.1128 627.756 98.5441C628.266 97.9608 628.646 97.2753 628.894 96.4879C629.156 95.6858 629.287 94.8181 629.287 93.8848C629.287 92.164 628.784 90.8223 627.778 89.8598C626.786 88.8828 625.321 88.3942 623.381 88.3942C621.85 88.3942 620.311 88.6713 618.766 89.2255L615.397 88.263L618.022 72.907H633.64V75.2039Z" fill="#191F2A"/>
</g>
<defs>
<filter id="filter0_d_43_2480" x="81.5828" y="62.8271" width="572.245" height="516.066" filterUnits="userSpaceOnUse" color-interpolation-filters="sRGB">
<feFlood flood-opacity="0" result="BackgroundImageFix"/>
<feColorMatrix in="SourceAlpha" type="matrix" values="0 0 0 0 0 0 0 0 0 0 0 0 0 0 0 0 0 0 127 0" result="hardAlpha"/>
<feOffset dx="3.38201" dy="22.3325"/>
<feGaussianBlur stdDeviation="23.674"/>
<feColorMatrix type="matrix" values="0 0 0 0 0 0 0 0 0 0 0 0 0 0 0 0 0 0 0.14 0"/>
<feBlend mode="multiply" in2="BackgroundImageFix" result="effect1_dropShadow_43_2480"/>
<feBlend mode="normal" in="SourceGraphic" in2="effect1_dropShadow_43_2480" result="shape"/>
</filter>
<filter id="filter1_d_43_2480" x="-0.983717" y="329.593" width="263.594" height="263.594" filterUnits="userSpaceOnUse" color-interpolation-filters="sRGB">
<feFlood flood-opacity="0" result="BackgroundImageFix"/>
<feColorMatrix in="SourceAlpha" type="matrix" values="0 0 0 0 0 0 0 0 0 0 0 0 0 0 0 0 0 0 127 0" result="hardAlpha"/>
<feOffset dx="4.29224" dy="28.3431"/>
<feGaussianBlur stdDeviation="30.0457"/>
<feColorMatrix type="matrix" values="0 0 0 0 0 0 0 0 0 0 0 0 0 0 0 0 0 0 0.14 0"/>
<feBlend mode="multiply" in2="BackgroundImageFix" result="effect1_dropShadow_43_2480"/>
<feBlend mode="normal" in="SourceGraphic" in2="effect1_dropShadow_43_2480" result="shape"/>
</filter>
<filter id="filter2_d_43_2480" x="325.925" y="0.351257" width="437.814" height="259.218" filterUnits="userSpaceOnUse" color-interpolation-filters="sRGB">
<feFlood flood-opacity="0" result="BackgroundImageFix"/>
<feColorMatrix in="SourceAlpha" type="matrix" values="0 0 0 0 0 0 0 0 0 0 0 0 0 0 0 0 0 0 127 0" result="hardAlpha"/>
<feOffset dx="5.42305" dy="35.8102"/>
<feGaussianBlur stdDeviation="37.9613"/>
<feColorMatrix type="matrix" values="0 0 0 0 0 0 0 0 0 0 0 0 0 0 0 0 0 0 0.07 0"/>
<feBlend mode="multiply" in2="BackgroundImageFix" result="effect1_dropShadow_43_2480"/>
<feBlend mode="normal" in="SourceGraphic" in2="effect1_dropShadow_43_2480" result="shape"/>
</filter>
<filter id="filter3_d_43_2480" x="376.052" y="24.522" width="326.712" height="148.117" filterUnits="userSpaceOnUse" color-interpolation-filters="sRGB">
<feFlood flood-opacity="0" result="BackgroundImageFix"/>
<feColorMatrix in="SourceAlpha" type="matrix" values="0 0 0 0 0 0 0 0 0 0 0 0 0 0 0 0 0 0 127 0" result="hardAlpha"/>
<feOffset dy="4.43007"/>
<feGaussianBlur stdDeviation="10.1859"/>
<feColorMatrix type="matrix" values="0 0 0 0 0.382617 0 0 0 0 0.382617 0 0 0 0 0.382617 0 0 0 0.16 0"/>
<feBlend mode="multiply" in2="BackgroundImageFix" result="effect1_dropShadow_43_2480"/>
<feBlend mode="normal" in="SourceGraphic" in2="effect1_dropShadow_43_2480" result="shape"/>
</filter>
<clipPath id="clip0_43_2480">
<rect width="66.2893" height="66.2893" fill="white" transform="translate(417.128 55.0214)"/>
</clipPath>
</defs>
</svg>
