<svg width="87" height="88" viewBox="0 0 87 88" fill="none" xmlns="http://www.w3.org/2000/svg">
<g filter="url(#filter0_f_7232_939)">
<path d="M80.9636 44.4105C80.9636 65.3634 64.5207 82.3022 44.2943 82.3022C24.0679 82.3022 7.62509 65.3634 7.62509 44.4105C7.62509 23.4577 24.0679 6.51889 44.2943 6.51889C64.5207 6.51889 80.9636 23.4577 80.9636 44.4105Z" fill="#F9F9F9" stroke="#C4C4C4" stroke-width="1.6994"/>
<mask id="mask0_7232_939" style="mask-type:alpha" maskUnits="userSpaceOnUse" x="4" y="-13" width="77" height="79">
<ellipse cx="42.7914" cy="26.7135" rx="37.8246" ry="39.057" fill="#C4C4C4"/>
</mask>
<g mask="url(#mask0_7232_939)">
<path fill-rule="evenodd" clip-rule="evenodd" d="M46.3042 52.5459C50.2871 55.0249 54.2006 56.2226 56.0376 55.7337C60.6439 54.5077 61.0674 37.1076 57.5033 30.2479C53.9392 23.3882 35.6167 20.3983 34.6932 33.9895C34.3727 38.7065 36.2907 42.9161 39.1247 46.3511L34.043 70.8086H48.8042L46.3042 52.5459Z" fill="#B28B67"/>
<path fill-rule="evenodd" clip-rule="evenodd" d="M58.8959 33.3278C58.7497 32.4386 58.3924 31.4512 58.104 30.61C57.7323 29.5255 57.1697 28.5478 56.5506 27.6263C55.3851 25.8913 53.9869 24.3247 52.4431 23.0244C49.6233 20.6492 46.0337 19.2793 42.5038 19.7242C40.7216 19.9488 38.9915 20.6508 37.5189 21.8192C36.1885 22.8748 34.9087 24.4289 33.186 24.5405C31.3115 24.6619 29.5932 22.9535 28.0898 21.8984C26.3948 20.7089 24.5916 19.8421 22.6105 19.5052C19.2917 18.9409 16.174 20.0987 13.8868 22.9103C11.4528 25.9023 9.68357 30.29 11.2819 34.2543C11.579 34.9912 11.9613 35.6124 12.5098 36.1274C13.0129 36.5995 13.7813 37.1019 13.9852 37.8563C14.2019 38.6583 13.5547 39.6928 13.3037 40.4165C12.9442 41.4532 12.649 42.5414 12.7539 43.6683C12.9264 45.5189 14.0526 47.2855 15.2419 48.5019C16.4521 49.7396 17.9417 50.4494 19.5326 50.7766C20.5949 50.995 21.6806 51.1156 22.7603 51.0335C23.2962 50.9929 23.7692 50.8391 24.2885 50.7169C24.7935 50.5979 25.0757 50.7364 25.5042 51.0224C27.4945 52.351 29.6345 52.8651 31.9327 52.6675C33.8724 52.5007 36.1079 52.0153 37.6902 50.6431C39.4474 49.119 39.4124 47.0174 38.9989 44.772C39.437 44.9962 40.6489 45.135 39.9247 44.2414C39.6378 43.8875 39.0957 43.7435 38.7276 43.5353C38.299 43.293 37.8638 42.9797 37.5309 42.5844C36.1869 40.9881 37.5444 37.7394 39.2336 37.204C41.7433 36.4087 42.3052 40.0736 44.0968 41.0216C45.1269 41.5667 46.2044 40.8217 46.9762 40.0609C48.01 39.0418 48.7146 37.6918 49.3229 36.3179C49.824 35.1865 50.2903 34.0392 50.801 32.9134C51.0395 32.3877 51.8651 30.9015 51.4505 30.307C53.2481 29.9369 55.2502 30.7082 56.7984 31.7198C57.4382 32.1379 57.9261 32.599 58.2674 33.3372C58.3405 33.4954 58.4997 33.9656 58.6996 33.9848C59.0717 34.0208 58.9326 33.5512 58.8959 33.3278Z" fill="#191847"/>
</g>
</g>
<defs>
<filter id="filter0_f_7232_939" x="0.706008" y="0.498245" width="85.3683" height="86.9144" filterUnits="userSpaceOnUse" color-interpolation-filters="sRGB">
<feFlood flood-opacity="0" result="BackgroundImageFix"/>
<feBlend mode="normal" in="SourceGraphic" in2="BackgroundImageFix" result="shape"/>
<feGaussianBlur stdDeviation="2.13039" result="effect1_foregroundBlur_7232_939"/>
</filter>
</defs>
</svg>
