<svg width="87" height="88" viewBox="0 0 87 88" fill="none" xmlns="http://www.w3.org/2000/svg">
<g filter="url(#filter0_f_7232_897)">
<path d="M81.1222 44.3478C81.1222 65.3007 64.6794 82.2394 44.453 82.2394C24.2266 82.2394 7.78378 65.3007 7.78378 44.3478C7.78378 23.3949 24.2266 6.45614 44.453 6.45614C64.6794 6.45614 81.1222 23.3949 81.1222 44.3478Z" fill="#F9F9F9" stroke="#C4C4C4" stroke-width="1.6994"/>
<mask id="mask0_7232_897" style="mask-type:alpha" maskUnits="userSpaceOnUse" x="5" y="-13" width="76" height="79">
<ellipse cx="42.9501" cy="26.6505" rx="37.8246" ry="39.057" fill="#C4C4C4"/>
</mask>
<g mask="url(#mask0_7232_897)">
<path fill-rule="evenodd" clip-rule="evenodd" d="M46.4629 52.4829C50.4458 54.9619 54.3593 56.1596 56.1963 55.6707C60.8025 54.4447 61.2261 37.0446 57.662 30.1849C54.0979 23.3252 35.7754 20.3353 34.8519 33.9265C34.5314 38.6435 36.4494 42.8531 39.2834 46.2881L34.2017 70.7456H48.9629L46.4629 52.4829Z" fill="#B28B67"/>
<path fill-rule="evenodd" clip-rule="evenodd" d="M64.2011 20.6753C63.8954 19.5658 63.0732 18.6159 61.9652 18.3341C61.6965 18.2657 61.419 18.2381 61.1425 18.2496C61.0434 18.2537 61.0156 18.2832 60.9692 18.2116C60.9348 18.1585 60.9341 18.0288 60.9199 17.9664C60.8759 17.7724 60.8208 17.5808 60.7529 17.3941C60.521 16.7576 60.1314 16.1942 59.6617 15.7196C58.7832 14.8317 57.5962 14.219 56.363 14.1081C55.688 14.0474 55.018 14.1607 54.3798 14.3874C54.0495 14.5048 53.7291 14.6509 53.4171 14.8125C53.3232 14.8611 53.0184 15.0993 52.9241 15.0839C52.82 15.0669 52.6108 14.7997 52.5261 14.7326C51.4797 13.9036 50.1874 13.5777 48.884 13.5876C47.4128 13.5988 45.9961 13.6748 44.7692 14.6008C44.5094 14.7969 44.262 15.0116 44.0265 15.2376C43.9025 15.3566 43.7824 15.48 43.6678 15.6086C43.5986 15.6862 43.5313 15.7655 43.4665 15.847C43.3566 15.9852 43.3742 16.0306 43.2203 15.9342C42.6298 15.5637 41.9455 15.3905 41.2563 15.4779C40.847 15.5299 40.4488 15.6568 40.0707 15.8238C39.942 15.8806 39.644 16.1074 39.5068 16.1096C39.3707 16.1118 39.0769 15.9016 38.9367 15.8481C38.1794 15.5595 37.3632 15.4883 36.5673 15.6217C35.7462 15.7593 34.9397 16.0976 34.244 16.565C33.9094 16.7898 33.6175 17.039 33.383 17.3733C33.2818 17.5176 33.1903 17.6703 33.0755 17.8042C33.0084 17.8825 32.8753 17.9629 32.8393 18.0621C32.8609 18.0027 31.9414 17.6367 31.8546 17.6133C31.3923 17.4887 30.9216 17.5139 30.469 17.6677C29.6178 17.957 28.8858 18.6056 28.2842 19.2706C27.9752 19.6122 27.7048 19.9898 27.4753 20.3921C27.3653 20.5848 27.2647 20.783 27.1726 20.9854C27.128 21.0834 27.0985 21.2061 27.0397 21.2944C26.964 21.4082 26.9131 21.4104 26.7759 21.46C26.0793 21.712 25.4443 22.1386 24.9607 22.7149C24.4715 23.298 24.1542 24.0161 24.0211 24.7723C24.0133 24.8169 24.0086 25.0015 23.9833 25.0256C23.9487 25.0588 23.8086 25.0441 23.7556 25.0505C23.5721 25.0727 23.3899 25.1058 23.2101 25.1498C22.8787 25.2308 22.5561 25.35 22.251 25.5059C21.0615 26.1136 20.2108 27.2529 19.7945 28.5349C19.3576 29.8803 19.3654 31.4217 19.8875 32.742C19.9718 32.9553 20.0722 33.1622 20.19 33.3581C20.2624 33.4783 20.2858 33.4786 20.2388 33.6047C20.1864 33.745 20.0907 33.8813 20.0285 34.0184C19.8256 34.4658 19.6837 34.9403 19.5941 35.425C19.4471 36.22 19.3742 37.0554 19.5193 37.8564C19.5866 38.2284 19.7039 38.592 19.883 38.9233C19.9742 39.0922 20.081 39.2524 20.2016 39.4006C20.2642 39.4775 20.3307 39.551 20.4002 39.6214C20.44 39.6616 20.4922 39.6968 20.526 39.7417C20.6085 39.8513 20.6259 39.7612 20.5833 39.922C20.5238 40.1469 20.3888 40.3687 20.3062 40.5875C20.2211 40.813 20.1441 41.0415 20.0737 41.2724C19.9312 41.7397 19.8106 42.2156 19.7352 42.6996C19.5905 43.6289 19.6159 44.6191 20.0416 45.4719C20.2236 45.8367 20.4847 46.1568 20.8014 46.4057C20.9564 46.5275 21.1243 46.6325 21.3005 46.7187C21.391 46.7631 21.5065 46.7821 21.5478 46.8725C21.5922 46.9696 21.5263 47.1626 21.5112 47.2713C21.3803 48.2164 21.3147 49.2088 21.5868 50.1351C21.8374 50.9882 22.3892 51.7414 23.1056 52.2401C24.4954 53.2075 26.3688 53.153 27.8291 52.3785C28.2097 52.1766 28.5658 51.926 28.8835 51.6303C29.6924 52.7547 31.357 52.7191 32.5393 52.3988C34.0122 51.9996 35.1941 50.942 35.8751 49.5525C36.8062 50.7229 38.7604 50.3432 39.4061 49.0735C39.5641 48.7627 39.6578 48.4202 39.704 48.0736C39.7283 47.8913 39.7128 47.7075 39.731 47.5267C39.7543 47.2963 39.9033 47.0724 39.989 46.8495C40.1559 46.4158 40.2595 45.9677 40.2639 45.4998C40.2662 45.2555 40.2363 45.0175 40.2138 44.7752C40.1935 44.557 40.2521 44.3538 40.2854 44.1385C39.9076 44.2027 39.4474 44.0975 39.0915 43.9844C38.7422 43.8734 38.4151 43.5811 38.1686 43.3141C37.5962 42.6942 37.2466 41.8815 37.0074 41.0727C36.4825 39.2975 36.6976 37.1676 38.4269 36.1933C39.2324 35.7394 41.6458 35.7409 42.6053 35.9652C43.6141 36.2011 44.7578 38.4996 44.814 38.7157C44.8489 38.8494 44.8314 39.0149 44.9503 39.104C45.2117 39.2999 45.6429 38.9599 45.8357 38.7921C46.1685 38.5026 46.4059 38.1173 46.6114 37.7267C47.0593 36.8759 47.4204 35.9634 47.6755 35.032C47.8722 34.3139 47.9979 33.5734 48.2549 32.8736C48.5107 32.1772 48.9139 31.5548 49.5407 31.1603C50.2227 30.7312 51.0043 30.5052 51.753 30.2355C52.495 29.9682 53.2243 29.6416 53.7995 29.0745C53.926 28.9498 54.0488 28.8173 54.1506 28.6705C54.231 28.5546 54.3104 28.3327 54.4329 28.2592C54.6232 28.1449 54.9011 28.4422 55.0657 28.5501C55.8778 29.0827 56.5554 29.8255 57.1018 30.637C57.6453 31.444 58.0912 32.2206 58.4535 33.1218C58.7223 33.7901 58.8901 34.6461 59.3628 35.1938C59.5738 35.4384 61.1425 35.5864 61.6507 35.3728C62.1588 35.1593 62.7282 34.6049 62.8988 34.2574C63.0734 33.9018 63.1151 33.5111 63.0405 33.1218C62.9966 32.8927 62.907 32.6787 62.858 32.4538C62.8167 32.2648 62.7792 32.0862 62.6902 31.913C62.5213 31.585 62.2329 31.3491 61.8851 31.2505C62.247 30.9059 62.547 30.4936 62.7546 30.0328C62.9702 29.554 63.153 28.9717 63.2049 28.4462C63.247 28.0193 63.1819 27.5771 62.9557 27.2103C62.7183 26.8255 62.2977 26.5745 61.9339 26.3344C62.4897 25.8854 62.9654 25.3393 63.3564 24.7347C64.1169 23.559 64.5873 22.077 64.2011 20.6753Z" fill="#191847"/>
</g>
</g>
<defs>
<filter id="filter0_f_7232_897" x="0.8647" y="0.435256" width="85.3683" height="86.9146" filterUnits="userSpaceOnUse" color-interpolation-filters="sRGB">
<feFlood flood-opacity="0" result="BackgroundImageFix"/>
<feBlend mode="normal" in="SourceGraphic" in2="BackgroundImageFix" result="shape"/>
<feGaussianBlur stdDeviation="2.13039" result="effect1_foregroundBlur_7232_897"/>
</filter>
</defs>
</svg>
