<svg width="52" height="52" viewBox="0 0 52 52" fill="none" xmlns="http://www.w3.org/2000/svg">
<rect x="0.635742" y="25.8506" width="36.0847" height="36.0847" rx="11.7687" transform="rotate(-45 0.635742 25.8506)" fill="#19899F"/>
<path d="M20.43 34.2676V31.9123C21.5105 31.0174 22.5573 30.131 23.5704 29.253C24.6003 28.3751 25.512 27.5056 26.3056 26.6445C27.116 25.7834 27.7576 24.9476 28.2304 24.1372C28.72 23.3099 28.9648 22.5079 28.9648 21.7312C28.9648 21.0052 28.7622 20.3636 28.357 19.8065C27.9687 19.2493 27.3186 18.9707 26.4069 18.9707C25.4783 18.9707 24.7776 19.2746 24.3048 19.8824C23.8321 20.4903 23.5957 21.2247 23.5957 22.0858H20.4553C20.4891 20.7857 20.7761 19.7052 21.3164 18.8441C21.8567 17.9661 22.5742 17.3161 23.4691 16.894C24.3639 16.455 25.3685 16.2355 26.4829 16.2355C28.2894 16.2355 29.6908 16.7336 30.687 17.7297C31.7 18.709 32.2065 19.9838 32.2065 21.554C32.2065 22.5332 31.9786 23.4872 31.5227 24.4158C31.0837 25.3444 30.5012 26.2393 29.7752 27.1003C29.0492 27.9614 28.2641 28.7719 27.4199 29.5316C26.5757 30.2745 25.7569 30.9668 24.9633 31.6084H32.6371V34.2676H20.43Z" fill="white"/>
</svg>
