<svg width="52" height="52" viewBox="0 0 52 52" fill="none" xmlns="http://www.w3.org/2000/svg">
<rect opacity="0.2" x="0.635742" y="25.6074" width="36.0847" height="36.0847" rx="11.7687" transform="rotate(-45 0.635742 25.6074)" fill="#19899F"/>
<path d="M25.851 34.3283C24.686 34.3283 23.6308 34.1257 22.6853 33.7205C21.7397 33.2984 20.98 32.6568 20.4059 31.7957C19.8319 30.9347 19.528 29.8541 19.4942 28.554H22.6853C22.7021 29.4151 22.9807 30.1411 23.521 30.732C24.0782 31.3061 24.8548 31.5931 25.851 31.5931C26.7965 31.5931 27.5225 31.3314 28.029 30.808C28.5355 30.2846 28.7888 29.6261 28.7888 28.8326C28.7888 27.904 28.4511 27.2033 27.7758 26.7305C27.1173 26.2409 26.2646 25.9961 25.2178 25.9961H23.9009V23.3369H25.2432C26.1043 23.3369 26.8218 23.1343 27.3959 22.729C27.9699 22.3238 28.257 21.7245 28.257 20.9309C28.257 20.2724 28.0375 19.749 27.5985 19.3607C27.1764 18.9555 26.5854 18.7529 25.8257 18.7529C24.9984 18.7529 24.3483 18.9977 23.8756 19.4873C23.4197 19.977 23.1664 20.5763 23.1158 21.2855H19.95C20.0176 19.6477 20.5832 18.3561 21.6469 17.4106C22.7275 16.4651 24.1204 15.9924 25.8257 15.9924C27.0413 15.9924 28.0628 16.2118 28.8901 16.6508C29.7343 17.0729 30.3674 17.6385 30.7895 18.3477C31.2285 19.0568 31.448 19.8419 31.448 20.703C31.448 21.6991 31.1694 22.5433 30.6123 23.2356C30.072 23.9109 29.3966 24.3668 28.5862 24.6032C29.5823 24.8058 30.3928 25.2954 31.0175 26.0721C31.6422 26.8318 31.9545 27.7942 31.9545 28.9592C31.9545 29.9385 31.7182 30.8333 31.2454 31.6438C30.7727 32.4542 30.0804 33.1042 29.1687 33.5939C28.2738 34.0835 27.1679 34.3283 25.851 34.3283Z" fill="white"/>
</svg>
