<svg width="175" height="174" viewBox="0 0 175 174" fill="none" xmlns="http://www.w3.org/2000/svg">
<g filter="url(#filter0_d_16_1953)">
<rect x="24.4287" y="20.877" width="126.386" height="125.368" rx="11.7496" fill="#19899F"/>
</g>
<rect x="32.8506" y="32.7415" width="109.534" height="109.534" rx="10.9534" fill="#19899F"/>
<path fill-rule="evenodd" clip-rule="evenodd" d="M83.0212 56.5186C85.4378 53.8498 89.6303 53.85 92.0466 56.5193L101.915 67.4222L112.401 60.509C112.401 60.5088 112.401 60.5087 112.402 60.5086C114.106 59.3849 116.376 60.6071 116.376 62.6485V94.4477C116.376 109.081 103.204 120.499 87.5336 120.499C81.1285 120.499 74.31 118.282 68.9301 114.335C63.5326 110.374 59.4244 104.539 58.8665 97.288L58.8594 97.1959L58.8594 97.1035C58.8601 89.4431 58.8598 81.7829 58.8596 74.1225C58.8595 70.2984 58.8594 66.4742 58.8594 62.65C58.8594 60.6035 61.1396 59.3822 62.8431 60.5164L62.9006 60.5547L72.6829 67.9123L83.0205 56.5193C83.0207 56.5191 83.021 56.5188 83.0212 56.5186ZM71.5256 73.0555C71.5402 73.0667 71.555 73.0778 71.5698 73.0887L81.7302 80.7307L63.6656 92.6409C63.6659 86.4679 63.6658 80.2949 63.6656 74.122C63.6655 71.7959 63.6654 69.4697 63.6654 67.1436L71.5256 73.0555ZM63.8221 98.2949C64.6213 103.233 67.6064 107.402 71.7733 110.46C76.3394 113.81 82.1643 115.693 87.5336 115.693C101.067 115.693 111.57 105.936 111.57 94.4477V66.8136L102.871 72.5487C102.849 72.5639 102.826 72.5787 102.804 72.5931L87.2335 82.8588C87.1722 82.9076 87.108 82.9542 87.0408 82.9985L63.8221 98.2949ZM85.9908 77.9216L76.5401 70.8134L86.5835 59.7447C87.0922 59.1827 87.9748 59.1827 88.4836 59.7446C88.4836 59.7445 88.4836 59.7446 88.4836 59.7446L97.8558 70.0988L85.9908 77.9216ZM115.048 64.5205C115.047 64.5207 115.047 64.5208 115.047 64.5209L115.048 64.5205Z" fill="white"/>
<defs>
<filter id="filter0_d_16_1953" x="0.286924" y="0.311727" width="174.67" height="173.652" filterUnits="userSpaceOnUse" color-interpolation-filters="sRGB">
<feFlood flood-opacity="0" result="BackgroundImageFix"/>
<feColorMatrix in="SourceAlpha" type="matrix" values="0 0 0 0 0 0 0 0 0 0 0 0 0 0 0 0 0 0 127 0" result="hardAlpha"/>
<feOffset dy="3.57656"/>
<feGaussianBlur stdDeviation="12.0709"/>
<feColorMatrix type="matrix" values="0 0 0 0 0 0 0 0 0 0 0 0 0 0 0 0 0 0 0.25 0"/>
<feBlend mode="multiply" in2="BackgroundImageFix" result="effect1_dropShadow_16_1953"/>
<feBlend mode="normal" in="SourceGraphic" in2="effect1_dropShadow_16_1953" result="shape"/>
</filter>
</defs>
</svg>
