<svg width="449" height="279" viewBox="0 0 449 279" fill="none" xmlns="http://www.w3.org/2000/svg">
<path d="M250.674 141.017L351.504 146.573C355.574 146.797 359.055 143.679 359.279 139.609L364.105 52.0279L365.006 35.6598C365.231 31.5897 362.113 28.1085 358.043 27.8842L344.775 27.1532L257.214 22.3289C253.144 22.1046 249.662 25.2223 249.438 29.2923L243.711 133.242C243.487 137.312 246.604 140.793 250.674 141.017Z" fill="#37A7BD"/>
<path d="M259.077 133.64L359.906 139.195C363.976 139.42 367.458 136.302 367.682 132.232L372.507 44.6508L373.409 28.2826C373.633 24.2125 370.516 20.7313 366.446 20.507L353.178 19.776L265.617 14.9517C261.547 14.7274 258.065 17.8451 257.841 21.9152L252.114 125.864C251.89 129.935 255.007 133.416 259.077 133.64Z" fill="#19899F"/>
<path d="M280.373 84.6719L310.451 86.3291" stroke="white" stroke-width="3.98557" stroke-linecap="round" stroke-linejoin="round"/>
<path d="M321.931 86.9617L341.429 88.036" stroke="white" stroke-width="3.98557" stroke-linecap="round" stroke-linejoin="round"/>
<path d="M279.609 98.5247L308.047 100.091" stroke="white" stroke-width="3.98557" stroke-linecap="round" stroke-linejoin="round"/>
<rect x="291.012" y="111.326" width="40.3017" height="11.6758" rx="5.8379" transform="rotate(3.15362 291.012 111.326)" fill="white"/>
<rect x="280.684" y="30.1755" width="69.8564" height="39.2688" rx="5.90454" transform="rotate(3.15362 280.684 30.1755)" stroke="white" stroke-width="3.69034" stroke-linecap="round" stroke-dasharray="1.4 7.01"/>
<rect x="49.1329" y="35.3777" width="142.518" height="98.2011" rx="2.36317" transform="rotate(-0.76674 49.1329 35.3777)" fill="white" stroke="#19899F" stroke-width="3.69034"/>
<path d="M63.8637 52.4183L147.444 49.228" stroke="#19899F" stroke-width="3.69034" stroke-linecap="round"/>
<path d="M63.882 70.6788L105.21 69.1013" stroke="#19899F" stroke-width="3.69034" stroke-linecap="round"/>
<path d="M98.0664 96.8269L101.584 100.03L104.787 96.5127" stroke="#19899F" stroke-width="3.69034" stroke-linecap="round" stroke-linejoin="round"/>
<rect width="47.2905" height="44.6135" rx="7.38068" transform="matrix(0.999573 -0.0292028 0.0220443 0.999757 131.919 75.0046)" stroke="#19899F" stroke-width="3.69034" stroke-linecap="round" stroke-dasharray="1.14 7.09"/>
<rect width="52.5646" height="46.8879" rx="8.85682" transform="matrix(0.99916 -0.0409821 0.0157035 0.999877 164.785 60.9131)" fill="#37A7BD"/>
<rect width="52.5646" height="46.8879" rx="8.85682" transform="matrix(0.99916 -0.0409821 0.0157035 0.999877 160.599 66.1335)" fill="#19899F"/>
<path d="M220.23 119.047L216.456 114.367L219.658 112.948C219.909 112.837 220.074 112.593 220.083 112.32C220.093 112.046 219.945 111.791 219.703 111.663L206.829 104.857C206.577 104.724 206.269 104.754 206.047 104.933C205.825 105.112 205.731 105.406 205.808 105.681L209.73 119.706C209.804 119.97 210.021 120.168 210.291 120.217C210.56 120.265 210.834 120.156 210.995 119.935L213.06 117.106L216.834 121.786C216.953 121.934 217.126 122.028 217.314 122.048C217.502 122.068 217.691 122.013 217.838 121.894L220.122 120.052C220.43 119.804 220.478 119.355 220.23 119.047Z" fill="#37A7BD"/>
<path d="M218.806 120.47L215.032 115.79L218.235 114.371C218.485 114.26 218.65 114.016 218.659 113.743C218.669 113.469 218.521 113.214 218.279 113.086L205.406 106.28C205.153 106.147 204.846 106.177 204.623 106.356C204.401 106.535 204.307 106.829 204.384 107.104L208.306 121.129C208.38 121.393 208.598 121.591 208.867 121.64C209.136 121.689 209.41 121.579 209.571 121.358L211.636 118.529L215.41 123.209C215.529 123.357 215.702 123.451 215.89 123.471C216.079 123.491 216.267 123.436 216.415 123.317L218.699 121.475C219.006 121.227 219.054 120.778 218.806 120.47Z" fill="#19899F"/>
<path d="M179.084 92.8504L170.078 103.749C169.257 104.743 170.014 106.237 171.301 106.163L189.118 105.139C190.351 105.068 190.957 103.604 190.135 102.682L181.324 92.8079C180.722 92.1334 179.66 92.1535 179.084 92.8504Z" fill="white"/>
<path d="M194.382 84.8256L182.037 103.173C181.355 104.185 182.128 105.54 183.346 105.47L208.131 104.046C209.3 103.978 209.929 102.641 209.236 101.698L196.796 84.7754C196.191 83.9521 194.952 83.9779 194.382 84.8256Z" fill="white"/>
<circle cx="179.641" cy="79.8124" r="6.44159" transform="rotate(-2.20639 179.641 79.8124)" fill="white"/>
<path d="M70.6598 93.1031L70.6099 92.3469L75.1091 92.0498L79.695 104.278L80.6402 104.216L80.6901 104.972L75.8128 105.294L75.7629 104.538L76.8593 104.466L76.0063 102.186L70.8643 102.526L70.3373 104.896L71.4338 104.824L71.4837 105.58L68.2889 105.791L68.2389 105.035L69.1841 104.972L71.9453 93.0182L70.6598 93.1031ZM72.8497 93.7749L71.0728 101.658L75.6855 101.353L72.8497 93.7749Z" fill="#19899F"/>
<path d="M90.9874 94.7987L91.473 102.152C91.4954 102.493 91.5952 102.758 91.7724 102.949C91.9487 103.127 92.207 103.205 92.5473 103.183C92.8876 103.16 93.2662 102.952 93.6832 102.557L94.0534 102.988C93.1059 103.975 92.1281 104.502 91.1198 104.568C89.9226 104.647 89.1483 104.135 88.7969 103.032C88.2156 104.197 87.2886 104.821 86.0157 104.905C84.5663 105.001 83.4328 104.607 82.615 103.725C81.7964 102.829 81.3393 101.657 81.2436 100.208C81.147 98.7458 81.4709 97.5156 82.215 96.5171C82.9718 95.5178 84.0812 94.9699 85.5431 94.8734C86.6648 94.7993 87.5576 95.1897 88.2216 96.0446L88.1517 94.9859L90.9874 94.7987ZM84.5121 97.087C84.2058 97.816 84.0926 98.7855 84.1725 99.9954C84.2524 101.205 84.4921 102.151 84.8916 102.834C85.2911 103.516 85.85 103.834 86.5684 103.786C87.2993 103.738 87.8305 103.349 88.162 102.618C88.5053 101.874 88.6374 100.903 88.5583 99.7058C88.4793 98.5085 88.2211 97.5699 87.7838 96.8899C87.3583 96.1965 86.78 95.8739 86.0491 95.9222C85.3307 95.9696 84.8184 96.3579 84.5121 97.087Z" fill="#19899F"/>
<rect x="61.4585" y="85.3472" width="52.3939" height="27.6931" rx="5.90454" transform="rotate(-2.39505 61.4585 85.3472)" stroke="#19899F" stroke-width="3.69034" stroke-linecap="round"/>
<rect x="112.654" y="60.7217" width="12.9321" height="12.9321" rx="6.46604" transform="rotate(-1.4539 112.654 60.7217)" fill="#19899F"/>
<path d="M116.837 67.4985L118.851 69.2311L121.883 65.7066" stroke="white" stroke-width="2.95227" stroke-linecap="round" stroke-linejoin="round"/>
<g style="mix-blend-mode:multiply" opacity="0.1" filter="url(#filter0_f_43_780)">
<path d="M251.297 205.908L267.285 206.462M273.387 206.674L283.752 207.034M250.891 210.544L266.007 211.068M136.21 195.114L180.638 194.046M136.22 201.225L158.188 200.697M154.391 209.975L156.26 211.047L157.963 209.87M164.369 200.161L165.439 200.74L167.051 199.561M289.107 226.623L235.51 224.764C233.347 224.689 231.69 223.524 231.809 222.162L234.853 187.375C234.973 186.013 236.823 184.97 238.986 185.045L292.583 186.904C294.746 186.979 296.403 188.144 296.284 189.506L293.24 224.293C293.121 225.655 291.27 226.698 289.107 226.623ZM293.573 224.154L239.977 222.295C237.813 222.22 236.156 221.055 236.275 219.693L239.32 184.906C239.439 183.544 241.289 182.501 243.453 182.576L297.049 184.435C299.213 184.51 300.87 185.675 300.751 187.037L297.706 221.824C297.587 223.186 295.737 224.229 293.573 224.154ZM259.709 218.837L274.903 219.364C276.614 219.423 278.077 218.598 278.172 217.52C278.266 216.443 276.955 215.522 275.244 215.462L260.051 214.935C258.34 214.876 256.876 215.701 256.782 216.778C256.687 217.856 257.998 218.777 259.709 218.837ZM253.448 200.901L284.256 201.969C285.987 202.029 287.467 201.195 287.563 200.105L288.366 190.93C288.461 189.84 287.135 188.908 285.404 188.848L254.596 187.779C252.865 187.719 251.385 188.554 251.289 189.643L250.486 198.819C250.391 199.909 251.717 200.841 253.448 200.901ZM130.348 222.878L203.585 222.261C204.821 222.251 205.809 221.612 205.792 220.834L205.127 189.556C205.111 188.778 204.096 188.156 202.861 188.166L129.623 188.783C128.388 188.794 127.4 189.433 127.416 190.21L128.081 221.489C128.098 222.267 129.112 222.889 130.348 222.878ZM176.83 217.527L194.114 217.209C196.28 217.169 197.997 216.031 197.949 214.667L197.599 204.68C197.552 203.316 195.757 202.243 193.591 202.283L176.308 202.6C174.142 202.64 172.425 203.778 172.473 205.142L172.822 215.13C172.87 216.493 174.665 217.567 176.83 217.527ZM194.951 213.524L213.461 213.047C216.059 212.979 218.132 211.598 218.091 209.961L217.847 200.199C217.806 198.563 215.667 197.29 213.069 197.357L194.56 197.835C191.962 197.902 189.889 199.284 189.93 200.92L190.173 210.682C190.214 212.319 192.353 213.592 194.951 213.524ZM192.726 215.272L211.236 214.794C213.833 214.726 215.906 213.345 215.866 211.709L215.622 201.947C215.581 200.31 213.442 199.037 210.844 199.104L192.335 199.582C189.737 199.649 187.664 201.031 187.705 202.667L187.948 212.429C187.989 214.066 190.128 215.339 192.726 215.272ZM219.328 217.412L217.322 215.845L219.024 215.37C219.157 215.333 219.245 215.252 219.25 215.16C219.255 215.069 219.176 214.983 219.048 214.94L212.205 212.663C212.071 212.618 211.907 212.628 211.789 212.688C211.671 212.748 211.621 212.847 211.661 212.939L213.746 217.632C213.786 217.72 213.901 217.787 214.045 217.803C214.188 217.819 214.333 217.783 214.419 217.709L215.517 216.762L217.523 218.328C217.586 218.378 217.678 218.409 217.778 218.416C217.878 218.423 217.978 218.404 218.057 218.364L219.271 217.748C219.434 217.665 219.459 217.514 219.328 217.412ZM218.571 217.888L216.565 216.322L218.267 215.847C218.4 215.81 218.488 215.728 218.493 215.636C218.498 215.545 218.42 215.46 218.291 215.417L211.448 213.139C211.314 213.094 211.15 213.104 211.032 213.164C210.914 213.224 210.864 213.323 210.905 213.415L212.99 218.108C213.029 218.196 213.145 218.263 213.288 218.279C213.431 218.295 213.576 218.259 213.662 218.185L214.76 217.238L216.766 218.804C216.829 218.854 216.921 218.885 217.021 218.892C217.121 218.899 217.222 218.88 217.3 218.84L218.514 218.224C218.677 218.141 218.703 217.991 218.571 217.888ZM192.669 212.292L197.457 208.645C197.763 208.411 198.327 208.405 198.647 208.63L203.331 211.935C203.768 212.243 203.446 212.733 202.79 212.757L193.319 213.1C192.635 213.125 192.233 212.624 192.669 212.292ZM199.026 212.099L205.588 205.959C205.891 205.676 206.55 205.667 206.871 205.942L213.484 211.605C213.853 211.921 213.518 212.369 212.897 212.391L199.722 212.868C199.074 212.891 198.664 212.438 199.026 212.099ZM201.174 204.198C201.247 205.388 199.774 206.39 197.885 206.436C195.995 206.481 194.404 205.554 194.331 204.364C194.258 203.175 195.731 202.173 197.621 202.127C199.511 202.082 201.101 203.009 201.174 204.198ZM139.823 208.729L139.797 208.476L142.188 208.377L144.626 212.469L145.128 212.448L145.155 212.701L142.562 212.809L142.536 212.556L143.118 212.532L142.665 211.769L139.932 211.883L139.652 212.676L140.235 212.652L140.261 212.905L138.563 212.975L138.536 212.722L139.039 212.701L140.506 208.701L139.823 208.729ZM140.987 208.954L140.043 211.592L142.495 211.49L140.987 208.954ZM150.628 209.297L150.886 211.758C150.898 211.872 150.951 211.96 151.046 212.024C151.139 212.084 151.277 212.11 151.458 212.102C151.638 212.095 151.84 212.025 152.061 211.893L152.258 212.037C151.754 212.368 151.235 212.544 150.699 212.566C150.062 212.593 149.651 212.421 149.464 212.052C149.155 212.442 148.662 212.651 147.986 212.679C147.215 212.711 146.613 212.579 146.178 212.284C145.743 211.984 145.5 211.592 145.449 211.107C145.398 210.618 145.57 210.206 145.965 209.872C146.368 209.537 146.957 209.354 147.734 209.322C148.331 209.297 148.805 209.428 149.158 209.714L149.121 209.359L150.628 209.297ZM147.186 210.062C147.024 210.306 146.963 210.631 147.006 211.036C147.048 211.441 147.176 211.757 147.388 211.986C147.6 212.214 147.898 212.32 148.279 212.304C148.668 212.288 148.95 212.158 149.127 211.913C149.309 211.664 149.379 211.34 149.337 210.939C149.295 210.538 149.158 210.224 148.925 209.997C148.699 209.764 148.392 209.657 148.003 209.673C147.621 209.689 147.349 209.818 147.186 210.062ZM138.683 215.311L160.237 214.743C161.969 214.697 163.315 213.777 163.242 212.686L162.889 207.375C162.817 206.285 161.354 205.438 159.622 205.484L138.068 206.051C136.336 206.097 134.991 207.018 135.063 208.108L135.416 213.419C135.489 214.509 136.951 215.356 138.683 215.311ZM165.756 202.164C163.858 202.195 162.281 201.251 162.232 200.056C162.184 198.861 163.684 197.868 165.581 197.838C167.479 197.808 169.056 198.751 169.104 199.946C169.152 201.141 167.653 202.134 165.756 202.164Z" stroke="#162672" stroke-width="6.3899"/>
</g>
<defs>
<filter id="filter0_f_43_780" x="103.34" y="158.496" width="221.495" height="92.2075" filterUnits="userSpaceOnUse" color-interpolation-filters="sRGB">
<feFlood flood-opacity="0" result="BackgroundImageFix"/>
<feBlend mode="normal" in="SourceGraphic" in2="BackgroundImageFix" result="shape"/>
<feGaussianBlur stdDeviation="10.4408" result="effect1_foregroundBlur_43_780"/>
</filter>
</defs>
</svg>
