<svg width="86" height="88" viewBox="0 0 86 88" fill="none" xmlns="http://www.w3.org/2000/svg">
<g filter="url(#filter0_f_7232_907)">
<path d="M80.8742 44.3478C80.8742 65.3007 64.4313 82.2394 44.205 82.2394C23.9786 82.2394 7.53573 65.3007 7.53573 44.3478C7.53573 23.3949 23.9786 6.45614 44.205 6.45614C64.4313 6.45614 80.8742 23.3949 80.8742 44.3478Z" fill="#F9F9F9" stroke="#C4C4C4" stroke-width="1.6994"/>
<mask id="mask0_7232_907" style="mask-type:alpha" maskUnits="userSpaceOnUse" x="4" y="-13" width="77" height="79">
<ellipse cx="42.7026" cy="26.6505" rx="37.8246" ry="39.057" fill="#C4C4C4"/>
</mask>
<g mask="url(#mask0_7232_907)">
<path fill-rule="evenodd" clip-rule="evenodd" d="M46.2158 52.4828C50.1987 54.9618 54.1122 56.1595 55.9492 55.6706C60.5555 54.4446 60.979 37.0444 57.4149 30.1848C53.8508 23.3251 35.5283 20.3352 34.6048 33.9264C34.2843 38.6434 36.2024 42.853 39.0364 46.288L33.9546 70.7455H48.7158L46.2158 52.4828Z" fill="#B28B67"/>
<path fill-rule="evenodd" clip-rule="evenodd" d="M46.9533 35.4274C48.2301 33.4643 49.4559 31.9668 51.0505 31.0973C57.5399 31.2031 58.2997 30.0019 58.2997 25.953C57.2516 25.1786 53.5532 23.8745 49.4116 23.5077C47.2987 22.8834 44.7958 23.0008 42.3848 24.0422C39.4084 24.9142 36.8882 26.7922 35.7749 30.3081C31.7474 37.485 34.8043 44.956 38.9239 47.5081C40.0205 46.1666 40.9775 44.8665 41.8313 43.622C41.1454 42.9301 40.7196 41.9644 40.7196 40.8961C40.7196 38.7916 42.3718 37.0855 44.4099 37.0855C44.5597 37.0855 44.7074 37.0948 44.8526 37.1127C44.9443 39.7439 45.3217 48.6458 46.313 51.7379C47.4818 55.3834 54.3021 56.2785 56.6808 56.2785C58.7354 56.2785 58.6653 54.2696 58.6152 52.8298C58.6079 52.6225 58.6011 52.4269 58.6011 52.2509C58.6011 51.8831 58.1378 51.8841 57.6144 51.8851C56.9347 51.8865 56.1535 51.8881 56.1535 51.0829C56.1535 50.2051 57.3283 49.5318 58.3795 48.9293C59.0354 48.5534 59.6431 48.205 59.8875 47.8518C60.6586 46.7374 60.9183 45.2343 59.7551 45.2343C59.1192 45.2343 58.2469 45.6128 57.1974 46.0682C55.613 46.7556 53.6249 47.6182 51.4373 47.6182C47.8251 47.6182 46.9647 35.5895 46.9533 35.4274Z" fill="#191847"/>
</g>
</g>
<defs>
<filter id="filter0_f_7232_907" x="0.617141" y="0.435256" width="85.3678" height="86.9146" filterUnits="userSpaceOnUse" color-interpolation-filters="sRGB">
<feFlood flood-opacity="0" result="BackgroundImageFix"/>
<feBlend mode="normal" in="SourceGraphic" in2="BackgroundImageFix" result="shape"/>
<feGaussianBlur stdDeviation="2.13039" result="effect1_foregroundBlur_7232_907"/>
</filter>
</defs>
</svg>
