<svg width="103" height="24" viewBox="0 0 103 24" fill="none" xmlns="http://www.w3.org/2000/svg">
<path fill-rule="evenodd" clip-rule="evenodd" d="M10.9742 11.6461C16.7209 9.61777 18.96 6.0017 19.8057 3.95236C15.6673 -0.478086 8.8246 -0.888904 4.19471 3.01512C-0.435185 6.91914 -1.24953 13.7865 2.33686 18.6824C3.30042 16.5142 5.58107 13.5556 10.9742 11.6461Z" fill="white"/>
<path fill-rule="evenodd" clip-rule="evenodd" d="M20.7138 5.02246C20.0463 6.42317 19.1459 7.69824 18.0519 8.79241C16.1682 10.6408 13.8926 12.0328 11.3971 12.8631C5.85148 14.8215 3.92436 17.913 3.25195 19.7595C7.40792 24.117 14.1969 24.4874 18.7943 20.6074C23.3916 16.7274 24.2301 9.91983 20.7138 5.02246Z" fill="white"/>
<path fill-rule="evenodd" clip-rule="evenodd" d="M30.9668 22.3341V1.15527H34.4328V9.50651C34.989 8.8998 35.6459 8.39565 36.3738 8.01671C37.1301 7.64163 37.9644 7.45457 38.807 7.47116C39.5904 7.45813 40.3662 7.62809 41.0738 7.96775C41.7458 8.29451 42.334 8.7732 42.7929 9.36662C43.2955 10.0435 43.6671 10.81 43.8882 11.6258C44.1533 12.5936 44.2817 13.5943 44.2694 14.5984C44.2828 15.6914 44.1356 16.7803 43.8327 17.8298C43.5758 18.7294 43.1524 19.5719 42.5849 20.3127C41.5115 21.7113 39.8458 22.5153 38.093 22.481C37.6779 22.4856 37.2638 22.441 36.8591 22.3481C36.5077 22.2644 36.1678 22.1375 35.847 21.9704C35.5424 21.81 35.2584 21.6127 35.0013 21.3829C34.7354 21.1428 34.4875 20.8833 34.2595 20.6065L34.0932 21.6347C34.0601 21.8386 33.957 22.0242 33.802 22.1593C33.6399 22.2732 33.4448 22.3298 33.2474 22.3201H30.9668V22.3341ZM37.6216 10.2339C37.008 10.2202 36.4028 10.3801 35.8747 10.6955C35.3263 11.0347 34.8388 11.4651 34.4328 11.9685V18.5152C34.7711 18.9592 35.2144 19.3103 35.7222 19.5364C36.1901 19.7323 36.6921 19.8322 37.1987 19.8301C37.6946 19.8374 38.1863 19.7373 38.6406 19.5364C39.0776 19.3342 39.4551 19.0209 39.7359 18.6271C40.0662 18.1505 40.3016 17.6136 40.4291 17.0464C40.6025 16.2922 40.684 15.5194 40.6717 14.7453C40.6717 13.1412 40.4083 11.9755 39.8814 11.2481C39.3429 10.5403 38.4904 10.1495 37.6077 10.2059L37.6216 10.2339Z" fill="white"/>
<path fill-rule="evenodd" clip-rule="evenodd" d="M53.1496 7.4711C54.0102 7.46196 54.8653 7.61128 55.6728 7.91174C56.4206 8.19012 57.0995 8.62925 57.6623 9.1987C58.2377 9.79821 58.6817 10.5131 58.9656 11.297C59.292 12.1924 59.4518 13.1408 59.4369 14.0947C59.4686 14.4621 59.4115 14.8317 59.2706 15.1719C59.1205 15.3785 58.8705 15.4858 58.619 15.4516H49.635C49.6735 16.1156 49.8065 16.7704 50.0301 17.3961C50.2103 17.8968 50.4885 18.3559 50.8481 18.746C51.1851 19.0988 51.5977 19.3692 52.0543 19.5363C52.5495 19.7181 53.0732 19.8082 53.6001 19.8021C54.0948 19.8132 54.5882 19.7472 55.0628 19.6063C55.4327 19.4905 55.7922 19.3431 56.1373 19.1656C56.4423 19.0071 56.7103 18.8602 56.9414 18.725C57.1513 18.5993 57.3905 18.5317 57.6346 18.5291C57.896 18.5054 58.1482 18.6327 58.2862 18.8579L59.2914 20.1378C58.9184 20.5833 58.4814 20.9699 57.9951 21.2849C57.5238 21.5899 57.019 21.8387 56.4908 22.0263C55.9736 22.2102 55.4395 22.3414 54.8964 22.418C54.3751 22.492 53.8493 22.5294 53.3229 22.5299C52.3758 22.5347 51.436 22.364 50.55 22.0263C49.698 21.6988 48.9268 21.188 48.2902 20.5295C47.6234 19.8283 47.1087 18.9946 46.779 18.0815C46.3943 16.9984 46.2087 15.8536 46.2313 14.7032C46.2261 13.7495 46.3881 12.8024 46.7097 11.9055C47.0154 11.0551 47.4868 10.2751 48.0961 9.61136C48.7099 8.94893 49.4535 8.42254 50.2797 8.06562C51.1858 7.67115 52.1627 7.46879 53.1496 7.4711ZM53.2189 9.98906C52.34 9.93745 51.4784 10.2508 50.8342 10.8564C50.194 11.5307 49.7899 12.3977 49.6835 13.3254H56.2551C56.2572 12.8888 56.1917 12.4546 56.061 12.0384C55.9439 11.6492 55.7506 11.2877 55.4926 10.9753C55.228 10.6715 54.8985 10.4324 54.529 10.2758C54.1071 10.09 53.6515 9.99472 53.1911 9.99605L53.2189 9.98906Z" fill="white"/>
<path fill-rule="evenodd" clip-rule="evenodd" d="M71.4845 22.3333C71.2222 22.3485 70.9602 22.298 70.7219 22.1864C70.5126 22.0451 70.3621 21.831 70.2991 21.5849L69.9871 20.5428C69.6452 20.854 69.2865 21.1459 68.9127 21.4171C68.5721 21.6657 68.2074 21.8789 67.8243 22.0535C67.4381 22.2278 67.0334 22.3568 66.6181 22.4382C66.161 22.5243 65.6968 22.5665 65.2317 22.5641C64.6584 22.5689 64.0878 22.484 63.5403 22.3123C63.0307 22.1561 62.5603 21.8913 62.1608 21.536C61.7794 21.1964 61.4805 20.7728 61.2874 20.298C61.0701 19.7513 60.964 19.1662 60.9754 18.5774C60.9808 18.0063 61.1286 17.4459 61.4052 16.9477C61.7571 16.3459 62.2559 15.845 62.854 15.4929C63.6816 14.9938 64.5824 14.6302 65.5229 14.4157C66.8872 14.0996 68.2823 13.9378 69.6821 13.9331V13.0798C69.7425 12.3046 69.5207 11.5337 69.0582 10.9116C68.5935 10.4237 67.939 10.1677 67.2698 10.2121C66.7997 10.202 66.3312 10.2706 65.8833 10.415C65.5444 10.5331 65.2172 10.683 64.9059 10.8626L64.1365 11.3102C63.9016 11.4429 63.6361 11.5105 63.367 11.5061C63.144 11.5148 62.9245 11.4483 62.7431 11.3172C62.5797 11.1958 62.4408 11.0438 62.3341 10.8696L61.6825 9.74352C63.3137 8.21726 65.4685 7.38972 67.6926 7.43539C68.4706 7.42188 69.2435 7.56453 69.9663 7.85505C70.6067 8.12332 71.1815 8.52907 71.6508 9.04408C72.122 9.55755 72.481 10.1652 72.7045 10.8276C72.9505 11.5595 73.0724 12.328 73.065 13.1008V22.3333H71.4845ZM66.2785 20.1441C66.9194 20.1597 67.5552 20.0257 68.1363 19.7524C68.712 19.4496 69.2305 19.0471 69.6683 18.5634V16.0384C68.8153 16.0701 67.9654 16.1589 67.1242 16.3042C66.5583 16.3967 66.0062 16.5612 65.4813 16.7938C65.1293 16.9435 64.8231 17.1849 64.594 17.4932C64.1522 18.1952 64.2687 19.1152 64.8713 19.6825C65.2833 19.9723 65.7763 20.1218 66.2785 20.1091V20.1441Z" fill="white"/>
<path fill-rule="evenodd" clip-rule="evenodd" d="M76.3369 22.3336V7.70148H78.4651C78.8753 7.67428 79.2472 7.94397 79.3524 8.34496L79.595 9.49902C79.8805 9.20007 80.1888 8.92412 80.517 8.67369C80.8405 8.42703 81.1863 8.21159 81.5498 8.03021C81.9206 7.84685 82.3115 7.70833 82.7144 7.61755C83.1698 7.518 83.6349 7.47107 84.1008 7.47766C84.8143 7.46706 85.5223 7.60517 86.1805 7.88333C86.7687 8.14664 87.2884 8.54408 87.6986 9.04439C88.1207 9.55892 88.4365 10.1534 88.6275 10.793C88.8459 11.5183 88.9535 12.2731 88.9464 13.0312V22.3336H85.4803V13.0102C85.5347 12.2605 85.3207 11.5159 84.8772 10.9119C84.3988 10.4053 83.7169 10.1476 83.0264 10.2124C82.4377 10.2097 81.8573 10.3513 81.3349 10.6251C80.7814 10.9206 80.2764 11.3004 79.8376 11.7512V22.3336H76.3716H76.3369Z" fill="white"/>
<path fill-rule="evenodd" clip-rule="evenodd" d="M101.078 10.5488C101.005 10.6786 100.903 10.7889 100.78 10.8705C100.658 10.9359 100.522 10.9673 100.384 10.9615C100.196 10.9566 100.011 10.9088 99.8437 10.8216L99.1505 10.4998C98.87 10.371 98.5804 10.2634 98.284 10.1781C97.9088 10.0775 97.5214 10.0304 97.1333 10.0382C96.5618 10.0051 95.9951 10.1597 95.5181 10.4789C95.1486 10.7443 94.9311 11.1753 94.9358 11.6329C94.9285 11.927 95.0383 12.2117 95.2408 12.4233C95.473 12.6575 95.7454 12.8471 96.0449 12.9828C96.4123 13.1567 96.7923 13.3017 97.1818 13.4165C97.6023 13.547 98.0321 13.6869 98.4712 13.8361C98.9102 13.9854 99.34 14.1579 99.7605 14.3537C100.174 14.5427 100.557 14.7926 100.897 15.0951C101.635 15.7419 102.043 16.6907 102.007 17.676C102.013 18.3431 101.886 19.0045 101.632 19.6205C101.384 20.2123 101.005 20.7387 100.523 21.1592C99.9927 21.6135 99.3775 21.956 98.7138 22.1664C97.433 22.556 96.0792 22.6351 94.7625 22.3972C94.2906 22.3109 93.8269 22.1846 93.3761 22.0195C92.9557 21.8676 92.5497 21.678 92.163 21.453C91.8146 21.2537 91.4872 21.0193 91.1855 20.7535L91.9897 19.4176C92.0823 19.2673 92.208 19.1404 92.3571 19.0469C92.5203 18.9566 92.7049 18.913 92.8908 18.921C93.1072 18.9215 93.319 18.9846 93.5009 19.1029C93.695 19.2288 93.9168 19.3617 94.1941 19.5016C94.4808 19.659 94.7799 19.7924 95.0883 19.9002C95.5095 20.0344 95.9501 20.0959 96.3915 20.0821C96.7529 20.0913 97.1134 20.0417 97.4591 19.9352C97.7313 19.8511 97.9853 19.7158 98.2077 19.5365C98.3913 19.3871 98.5364 19.1952 98.6306 18.977C98.7184 18.7667 98.7632 18.5407 98.7623 18.3125C98.7735 18.0032 98.6639 17.7019 98.4573 17.4732C98.2263 17.2357 97.9537 17.0436 97.6532 16.9067C97.2838 16.7321 96.9013 16.5871 96.5094 16.473C96.0796 16.3471 95.6429 16.2072 95.1992 16.0533C94.7526 15.9021 94.3151 15.7246 93.8891 15.5218C93.4704 15.3241 93.0845 15.0622 92.7453 14.7454C92.4107 14.4131 92.1466 14.0157 91.9689 13.5774C91.7528 13.055 91.6489 12.4925 91.6639 11.9267C91.662 11.3391 91.7824 10.7577 92.0174 10.2201C92.2579 9.68237 92.613 9.20475 93.0572 8.82121C93.5516 8.38766 94.1233 8.05298 94.7417 7.83501C95.5037 7.58017 96.3029 7.4572 97.1055 7.4713C98.0369 7.45841 98.9619 7.62703 99.8298 7.9679C100.591 8.26315 101.286 8.70771 101.875 9.27584L101.078 10.5488Z" fill="white"/>
</svg>
